<svg width="26" height="26" viewBox="0 0 26 26" fill="none" xmlns="http://www.w3.org/2000/svg">
<path d="M23.8 0.600006H1.4C0.6 0.600006 0 1.20001 0 2.00001V24.4C0 25.2 0.6 25.8 1.4 25.8H23.8C24.6 25.8 25.2 25.2 25.2 24.4V2.00001C25.2 1.20001 24.6 0.600006 23.8 0.600006Z" fill="#4868AC"/>
<path d="M17.4 25.8V16H20.7L21.2 12.2H17.4V9.80001C17.4 8.70001 17.7 7.90001 19.3 7.90001H21.3V4.60001C21 4.60001 19.8 4.40001 18.4 4.40001C15.5 4.40001 13.5 6.20001 13.5 9.40001V12.2H10.2V16H13.5V25.8H17.4Z" fill="white"/>
</svg>
