<svg width="27" height="27" viewBox="0 0 27 27" fill="none" xmlns="http://www.w3.org/2000/svg">
<path d="M2.09999 1.8C-1.34706e-05 4 0.499988 6.3 0.499988 13.2C0.499988 19 -0.500013 24.7 4.79999 26.1C6.39999 26.5 21 26.5 22.6 26.1C24.8 25.5 26.6 23.8 26.8 20.7C26.8 20.3 26.8 6.2 26.8 5.8C26.5 2.5 24.5 0.600002 21.8 0.200002C21.2 0.100002 21.1 2.07685e-06 17.9 2.07685e-06C6.79999 2.07685e-06 4.29999 -0.399998 2.09999 1.8Z" fill="url(#paint0_linear)"/>
<path d="M13.6 3.5C9.60005 3.5 5.80005 3.1 4.40005 6.9C3.80005 8.4 3.90005 10.4 3.90005 13.3C3.90005 15.8 3.80005 18.2 4.40005 19.7C5.80005 23.4 9.70005 23.1 13.6 23.1C17.4 23.1 21.3 23.5 22.8 19.7C23.4 18.2 23.3 16.2 23.3 13.3C23.3 9.5 23.5 7 21.7 5.2C19.8 3.3 17.3 3.5 13.6 3.5ZM12.8 5.2C21.1 5.2 22.2 4.3 21.6 17.1C21.4 21.6 17.9 21.1 13.7 21.1C6.00005 21.1 5.70005 20.9 5.70005 13.1C5.70005 5.4 6.30005 5.2 12.8 5.2ZM18.8 6.9C18.2 6.9 17.6 7.4 17.6 8.1C17.6 8.8 18.1 9.3 18.8 9.3C19.4 9.2 20 8.7 20 8C20 7.3 19.4 6.9 18.8 6.9ZM13.6 8.2C10.8 8.2 8.60005 10.4 8.60005 13.2C8.60005 16 10.8 18.2 13.6 18.2C16.4 18.2 18.6 16 18.6 13.2C18.6 10.4 16.4 8.2 13.6 8.2ZM13.6 10C17.9 10 17.9 16.5 13.6 16.5C9.30005 16.5 9.30005 10 13.6 10Z" fill="white"/>
<defs>
<linearGradient id="paint0_linear" x1="2.15852" y1="24.6953" x2="26.6267" y2="3.51547" gradientUnits="userSpaceOnUse">
<stop stop-color="#FADC6D"/>
<stop offset="0.5" stop-color="#EC6049"/>
<stop offset="1" stop-color="#B846A5"/>
</linearGradient>
</defs>
</svg>
