<svg width="26" height="26" viewBox="0 0 26 26" fill="none" xmlns="http://www.w3.org/2000/svg">
<path d="M21.7 4.40001C16.8 -0.499994 9.00005 -0.499994 4.10005 4.40001C-0.799951 9.30001 -0.799951 17.1 4.10005 22C9.00005 26.9 16.8 26.9 21.7 22C26.6 17.2 26.6 9.30001 21.7 4.40001ZM21.2 20.2C20.6 19.7 20.0001 19.2 19.3001 18.8C19.7001 17.3 20 15.7 20 13.9H23.7C23.6 16.3 22.7 18.5 21.2 20.2ZM2.10005 14H5.80005C5.90005 15.7 6.10005 17.4 6.50005 18.9C5.80005 19.3 5.20005 19.8 4.60005 20.3C3.20005 18.5 2.30005 16.3 2.10005 14ZM4.70005 6.20001C5.30005 6.70001 5.90005 7.20001 6.60005 7.60001C6.20005 9.10001 5.90005 10.7 5.90005 12.5H2.20005C2.30005 10.1 3.20005 7.90001 4.70005 6.20001ZM12.2 7.70001C10.9 7.60001 9.70005 7.30001 8.50005 6.80001C9.20005 5.10001 10.4 3.00001 12.2 2.50001V7.70001ZM12.2 9.30001V12.4H7.40005C7.50005 11 7.70005 9.60001 8.00005 8.30001C9.30005 8.90001 10.7 9.20001 12.2 9.30001ZM12.2 14V17.1C10.7 17.2 9.30005 17.5 8.00005 18.1C7.70005 16.8 7.50005 15.4 7.40005 14H12.2ZM12.2 18.7V24C10.4 23.5 9.20005 21.4 8.50005 19.7C9.60005 19.1 10.9 18.8 12.2 18.7ZM13.8001 18.7C15.1001 18.8 16.3 19.1 17.5 19.6C16.8 21.3 15.6001 23.4 13.8001 23.9V18.7ZM13.8001 17.1V14H18.6C18.5 15.4 18.3 16.8 18 18.1C16.6 17.5 15.2001 17.2 13.8001 17.1ZM13.8001 12.4V9.30001C15.3001 9.20001 16.7001 8.90001 18 8.30001C18.3 9.60001 18.5 11 18.6 12.4H13.8001ZM13.8001 7.70001V2.50001C15.6001 3.00001 16.8 5.10001 17.5 6.80001C16.3 7.30001 15.0001 7.60001 13.8001 7.70001ZM17.3001 3.30001C18.3001 3.70001 19.3 4.30001 20.1 5.10001C19.7 5.50001 19.3001 5.80001 18.8001 6.10001C18.4001 5.00001 17.9001 4.10001 17.3001 3.30001ZM7.10005 6.00001C6.70005 5.70001 6.20005 5.40001 5.80005 5.00001C6.60005 4.30001 7.60005 3.60001 8.60005 3.20001C8.00005 4.10001 7.50005 5.00001 7.10005 6.00001ZM7.10005 20.4C7.50005 21.4 8.00005 22.3 8.60005 23.2C7.60005 22.8 6.60005 22.2 5.80005 21.4C6.20005 21 6.60005 20.7 7.10005 20.4ZM18.8001 20.4C19.2001 20.7 19.7 21 20.1 21.4C19.3 22.1 18.3001 22.8 17.3001 23.2C17.9001 22.3 18.4001 21.4 18.8001 20.4ZM20.1 12.4C20 10.7 19.8001 9.00001 19.4001 7.50001C20.1001 7.10001 20.7001 6.60001 21.3001 6.10001C22.8001 7.90001 23.7001 10 23.8001 12.3H20.1V12.4Z" fill="black"/>
</svg>
