<svg width="59" height="34" viewBox="0 0 59 34" fill="none" xmlns="http://www.w3.org/2000/svg">
<g clip-path="url(#clip0)">
<path d="M5.50943 2.44054H2.49834V4.07869H5.2476V6.24061H2.49834V10.0964H0V0.278625H5.50943V2.44054Z" fill="#1E0470"/>
<path d="M12.4808 2.44054H9.51332V4.07869H12.3171V6.24061H9.51332V7.93448H12.4917V10.0964H7.00407V0.278625H12.4808V2.44054Z" fill="#1E0470"/>
<path d="M19.5721 2.78597C19.2994 2.56309 19.0266 2.39594 18.7539 2.2845C18.4811 2.17306 18.2193 2.11734 17.9575 2.11734C17.6302 2.11734 17.3684 2.19535 17.1611 2.35136C16.9538 2.50738 16.8556 2.70797 16.8556 2.96427C16.8556 3.14258 16.9101 3.2763 17.0083 3.39889C17.1065 3.51033 17.2483 3.61062 17.412 3.68863C17.5756 3.76663 17.7611 3.84464 17.9684 3.90036C18.1757 3.95608 18.383 4.02294 18.5902 4.10095C19.4085 4.37955 20.0085 4.7473 20.3794 5.21534C20.7613 5.68338 20.9468 6.28515 20.9468 7.0318C20.9468 7.53327 20.8595 7.99017 20.6958 8.40249C20.5322 8.81482 20.2922 9.16028 19.9649 9.45002C19.6485 9.73976 19.2557 9.96264 18.7866 10.1298C18.3175 10.2858 17.7938 10.375 17.2156 10.375C15.9937 10.375 14.87 10.0072 13.8336 9.27172L14.9027 7.2101C15.2737 7.54441 15.6446 7.80072 16.0155 7.96788C16.3865 8.13504 16.7465 8.21305 17.0956 8.21305C17.4993 8.21305 17.8047 8.11275 18.012 7.92331C18.2084 7.73386 18.3066 7.51098 18.3066 7.27696C18.3066 7.13209 18.2848 6.99836 18.2302 6.88692C18.1757 6.77549 18.0993 6.67519 17.9793 6.58604C17.8593 6.49689 17.7066 6.40774 17.5102 6.32973C17.3138 6.25172 17.0847 6.16257 16.812 6.07342C16.4847 5.97313 16.1683 5.85054 15.8628 5.72796C15.5573 5.60538 15.2737 5.43822 15.0337 5.22648C14.7936 5.01475 14.5973 4.75844 14.4445 4.43527C14.2918 4.12324 14.2263 3.71092 14.2263 3.23173C14.2263 2.7414 14.3027 2.30679 14.4664 1.90561C14.6191 1.51557 14.8482 1.17011 15.1318 0.891511C15.4155 0.612914 15.7646 0.390036 16.1792 0.234022C16.5938 0.0780072 17.052 0 17.5647 0C18.0448 0 18.5357 0.0668633 19.0594 0.20059C19.583 0.334317 20.074 0.534907 20.554 0.791216L19.5721 2.78597Z" fill="#1E0470"/>
<path d="M26.238 2.44054V10.1075H23.7396V2.44054H21.6886V0.278625H28.2999V2.44054H26.238Z" fill="#1E0470"/>
<path d="M31.9111 0.278625V10.1075H29.4127V0.278625H31.9111Z" fill="#1E0470"/>
<path d="M35.6422 0.278625L37.966 6.26289L40.3007 0.278625H43.0172L38.9588 10.1075H36.9623L32.9148 0.278625H35.6422Z" fill="#1E0470"/>
<path d="M49.1594 8.39135H45.581L45.0028 10.0964H42.3299L45.9956 0.267456H48.723L52.3887 10.0964H49.7158L49.1594 8.39135ZM48.4939 6.45231L47.3702 3.17601L46.2465 6.45231H48.4939Z" fill="#1E0470"/>
<path d="M55.9998 0.278625V7.94562H59V10.1075H53.5015V0.278625H55.9998Z" fill="#1E0470"/>
<path d="M21.7323 14.253H18.7212V15.8912H21.4704V18.0531H18.7212V21.9089H16.2228V12.08H21.7323V14.253Z" fill="#1E0470"/>
<path d="M22.7796 17.0056C22.7796 16.2701 22.9105 15.5903 23.1723 14.9662C23.4342 14.331 23.8051 13.785 24.2742 13.3169C24.7433 12.8489 25.2997 12.4811 25.9543 12.2137C26.6089 11.9462 27.318 11.8125 28.1035 11.8125C28.8781 11.8125 29.5873 11.9462 30.2528 12.2137C30.9074 12.4811 31.4747 12.8489 31.9438 13.3169C32.4129 13.785 32.7838 14.331 33.0457 14.9662C33.3075 15.6014 33.4384 16.2812 33.4384 17.0056C33.4384 17.7411 33.3075 18.4208 33.0457 19.0449C32.7838 19.6801 32.4129 20.2261 31.9438 20.6942C31.4747 21.1622 30.9074 21.53 30.2528 21.7974C29.5982 22.0649 28.8781 22.1986 28.1035 22.1986C27.318 22.1986 26.6089 22.0649 25.9543 21.7974C25.2997 21.53 24.7433 21.1622 24.2742 20.6942C23.8051 20.2261 23.4451 19.6801 23.1723 19.0449C22.9105 18.4097 22.7796 17.7299 22.7796 17.0056ZM25.3979 17.0056C25.3979 17.3956 25.4743 17.7522 25.6161 18.0865C25.758 18.4208 25.9543 18.6994 26.2052 18.9446C26.4562 19.1898 26.7398 19.3792 27.0671 19.5129C27.3944 19.6467 27.7435 19.7135 28.1035 19.7135C28.4745 19.7135 28.8127 19.6467 29.14 19.5129C29.4673 19.3792 29.7618 19.1898 30.0128 18.9446C30.2637 18.6994 30.4601 18.4097 30.6019 18.0865C30.7437 17.7522 30.8201 17.3956 30.8201 17.0056C30.8201 16.6155 30.7437 16.2589 30.6019 15.9246C30.4601 15.5903 30.2637 15.3117 30.0128 15.0665C29.7618 14.8214 29.4673 14.6319 29.14 14.4982C28.8127 14.3645 28.4636 14.2976 28.1035 14.2976C27.7326 14.2976 27.3944 14.3645 27.0671 14.4982C26.7398 14.6319 26.4562 14.8214 26.2052 15.0665C25.9543 15.3117 25.758 15.6014 25.6161 15.9246C25.4634 16.2478 25.3979 16.6155 25.3979 17.0056Z" fill="#1E0470"/>
<path d="M43.0172 21.92H39.9079L37.5187 18.1423V21.92H35.0203V12.0911H38.9151C39.4497 12.0911 39.9188 12.1691 40.3225 12.3363C40.7261 12.4923 41.0534 12.7152 41.3153 12.9938C41.5771 13.2724 41.7735 13.5956 41.9044 13.9633C42.0353 14.331 42.1008 14.7211 42.1008 15.1334C42.1008 15.88 41.9262 16.4818 41.5662 16.9499C41.2171 17.4179 40.6934 17.7299 40.0061 17.8971L43.0172 21.92ZM37.5187 16.4818H37.9878C38.4787 16.4818 38.8606 16.3815 39.1224 16.1698C39.3842 15.9581 39.5152 15.6572 39.5152 15.2671C39.5152 14.8771 39.3842 14.5762 39.1224 14.3645C38.8606 14.1527 38.4787 14.0524 37.9878 14.0524H37.5187V16.4818Z" fill="#1E0470"/>
<path d="M12.3826 28.2274H17.3465C17.3465 28.7512 17.3247 29.2192 17.2811 29.6538C17.2374 30.0773 17.1501 30.4785 17.0301 30.8351C16.8556 31.3477 16.6047 31.8046 16.2992 32.1947C15.9937 32.5847 15.6337 32.919 15.2191 33.1865C14.8045 33.4539 14.3572 33.6545 13.8554 33.7882C13.3645 33.922 12.8408 34 12.2953 34C11.5425 34 10.8661 33.8774 10.2443 33.6211C9.62241 33.3648 9.09874 33.0193 8.65144 32.5624C8.20414 32.1055 7.86594 31.5594 7.61501 30.9242C7.36409 30.289 7.24408 29.5758 7.24408 28.8069C7.24408 28.038 7.36409 27.3359 7.6041 26.7007C7.84412 26.0655 8.19323 25.5195 8.64053 25.0626C9.08783 24.6057 9.62241 24.2602 10.2552 24.0039C10.8879 23.7476 11.5862 23.625 12.3608 23.625C13.3645 23.625 14.2481 23.8479 15.0009 24.2936C15.7537 24.7394 16.3537 25.4192 16.801 26.3553L14.4227 27.3582C14.2045 26.8233 13.9099 26.4333 13.5608 26.1992C13.2117 25.9652 12.8081 25.8426 12.3498 25.8426C11.9789 25.8426 11.6298 25.9095 11.3243 26.0544C11.0189 26.1992 10.757 26.3998 10.5388 26.6673C10.3206 26.9347 10.1461 27.2468 10.0261 27.6257C9.90606 28.0045 9.8406 28.4169 9.8406 28.8738C9.8406 29.2861 9.89515 29.6761 10.0042 30.0327C10.1133 30.3893 10.2661 30.7014 10.4843 30.9577C10.6916 31.214 10.9643 31.4257 11.2807 31.5595C11.5971 31.7043 11.9571 31.7712 12.3826 31.7712C12.6335 31.7712 12.8626 31.7378 13.1026 31.682C13.3317 31.6263 13.539 31.5372 13.7245 31.4034C13.9099 31.2809 14.0627 31.1137 14.1827 30.9131C14.3027 30.7125 14.3791 30.4673 14.4227 30.1776H12.3717V28.2274H12.3826Z" fill="#1E0470"/>
<path d="M18.503 28.8181C18.503 28.0826 18.6339 27.4028 18.8957 26.7787C19.1575 26.1435 19.5285 25.5975 19.9976 25.1294C20.4667 24.6614 21.0231 24.2936 21.6777 24.0262C22.3323 23.7587 23.0414 23.625 23.8269 23.625C24.6015 23.625 25.3107 23.7587 25.9761 24.0262C26.6307 24.2936 27.198 24.6614 27.6672 25.1294C28.1363 25.5975 28.5072 26.1435 28.769 26.7787C29.0309 27.4139 29.1618 28.0937 29.1618 28.8181C29.1618 29.5536 29.0309 30.2333 28.769 30.8574C28.5072 31.4926 28.1363 32.0386 27.6672 32.5067C27.198 32.9747 26.6307 33.3425 25.9761 33.6099C25.3216 33.8774 24.6015 34.0111 23.8269 34.0111C23.0414 34.0111 22.3323 33.8774 21.6777 33.6099C21.0231 33.3425 20.4667 32.9747 19.9976 32.5067C19.5285 32.0386 19.1685 31.4926 18.8957 30.8574C18.6339 30.2222 18.503 29.5424 18.503 28.8181ZM21.1213 28.8181C21.1213 29.2081 21.1977 29.5647 21.3395 29.899C21.4813 30.2333 21.6777 30.5119 21.9286 30.7571C22.1795 31.0023 22.4632 31.1917 22.7905 31.3254C23.1178 31.4592 23.4669 31.526 23.8269 31.526C24.1979 31.526 24.5361 31.4592 24.8634 31.3254C25.1906 31.1917 25.4852 31.0023 25.7361 30.7571C25.9871 30.5119 26.1834 30.2222 26.3253 29.899C26.4671 29.5647 26.5435 29.2081 26.5435 28.8181C26.5435 28.428 26.4671 28.0714 26.3253 27.7371C26.1834 27.4028 25.9871 27.1242 25.7361 26.879C25.4852 26.6339 25.1906 26.4444 24.8634 26.3107C24.5361 26.177 24.1869 26.1101 23.8269 26.1101C23.456 26.1101 23.1178 26.177 22.7905 26.3107C22.4632 26.4444 22.1795 26.6339 21.9286 26.879C21.6777 27.1242 21.4813 27.4139 21.3395 27.7371C21.1868 28.0603 21.1213 28.428 21.1213 28.8181Z" fill="#1E0470"/>
<path d="M30.3073 28.8181C30.3073 28.0826 30.4382 27.4028 30.7001 26.7787C30.9619 26.1435 31.3328 25.5975 31.8019 25.1294C32.2711 24.6614 32.8275 24.2936 33.4821 24.0262C34.1366 23.7587 34.8458 23.625 35.6313 23.625C36.4059 23.625 37.115 23.7587 37.7805 24.0262C38.4351 24.2936 39.0024 24.6614 39.4715 25.1294C39.9406 25.5975 40.3116 26.1435 40.5734 26.7787C40.8352 27.4139 40.9661 28.0937 40.9661 28.8181C40.9661 29.5536 40.8352 30.2333 40.5734 30.8574C40.3116 31.4926 39.9406 32.0386 39.4715 32.5067C39.0024 32.9747 38.4351 33.3425 37.7805 33.6099C37.1259 33.8774 36.4059 34.0111 35.6313 34.0111C34.8458 34.0111 34.1366 33.8774 33.4821 33.6099C32.8275 33.3425 32.2711 32.9747 31.8019 32.5067C31.3328 32.0386 30.9728 31.4926 30.7001 30.8574C30.4382 30.2222 30.3073 29.5424 30.3073 28.8181ZM32.9257 28.8181C32.9257 29.2081 33.002 29.5647 33.1438 29.899C33.2857 30.2333 33.4821 30.5119 33.733 30.7571C33.9839 31.0023 34.2676 31.1917 34.5948 31.3254C34.9221 31.4592 35.2713 31.526 35.6313 31.526C36.0022 31.526 36.3404 31.4592 36.6677 31.3254C36.995 31.1917 37.2896 31.0023 37.5405 30.7571C37.7914 30.5119 37.9878 30.2222 38.1296 29.899C38.2714 29.5647 38.3478 29.2081 38.3478 28.8181C38.3478 28.428 38.2714 28.0714 38.1296 27.7371C37.9878 27.4028 37.7914 27.1242 37.5405 26.879C37.2896 26.6339 36.995 26.4444 36.6677 26.3107C36.3404 26.177 35.9913 26.1101 35.6313 26.1101C35.2603 26.1101 34.9221 26.177 34.5948 26.3107C34.2676 26.4444 33.9839 26.6339 33.733 26.879C33.4821 27.1242 33.2857 27.4139 33.1438 27.7371C33.002 28.0603 32.9257 28.428 32.9257 28.8181Z" fill="#1E0470"/>
<path d="M42.5481 23.9036H46.2465C46.9011 23.9036 47.512 24.0374 48.0902 24.3048C48.6685 24.5723 49.1703 24.9289 49.5958 25.3858C50.0213 25.8315 50.3595 26.3553 50.6104 26.9459C50.8613 27.5365 50.9813 28.1606 50.9813 28.8181C50.9813 29.4644 50.8613 30.0773 50.6213 30.6791C50.3813 31.2697 50.0431 31.7935 49.6176 32.2504C49.1921 32.7073 48.6903 33.0639 48.1121 33.3314C47.5338 33.5988 46.9229 33.7325 46.2574 33.7325H42.5481V23.9036ZM45.0464 31.5706H45.6246C46.061 31.5706 46.4429 31.5038 46.7811 31.3589C47.1193 31.2252 47.4138 31.0246 47.6429 30.7905C47.8721 30.5454 48.0575 30.2556 48.1775 29.9213C48.2975 29.587 48.363 29.2193 48.363 28.8181C48.363 28.428 48.2975 28.0603 48.1666 27.726C48.0357 27.3917 47.8611 27.0908 47.6211 26.8568C47.392 26.6116 47.0975 26.4221 46.7593 26.2884C46.4211 26.1547 46.0392 26.0767 45.6137 26.0767H45.0355V31.5706H45.0464Z" fill="#1E0470"/>
</g>
<defs>
<clipPath id="clip0">
<rect width="59" height="34" fill="white"/>
</clipPath>
</defs>
</svg>
