<svg width="95" height="84" viewBox="0 0 95 84" fill="none" xmlns="http://www.w3.org/2000/svg">
<g clip-path="url(#clip0)">
<path d="M50.8 71.3C68.4731 71.3 82.8 57.0179 82.8 39.4C82.8 21.7821 68.4731 7.5 50.8 7.5C33.1269 7.5 18.8 21.7821 18.8 39.4C18.8 57.0179 33.1269 71.3 50.8 71.3Z" fill="#99CC33"/>
<path d="M11 54L26.9 41.3C29.8 39 30.3 34.7 27.9 31.8C25.6 28.9 21.3 28.4 18.4 30.8L2.5 43.5C-0.399998 45.8 -0.899998 50.1 1.5 53C3.8 55.9 8.1 56.3 11 54Z" fill="#99CC33"/>
<path d="M13.3 67.5L35.2 50C38.1 47.7 38.6 43.4 36.2 40.5C33.9 37.6 29.6 37.1 26.7 39.5L4.8 57C1.9 59.3 1.4 63.6 3.8 66.5C6.1 69.3 10.4 69.8 13.3 67.5Z" fill="#99CC33"/>
<path d="M21.1 75.7L41.5 59.4C44.4 57.1 44.9 52.8 42.5 49.9C40.2 47 35.9 46.5 33 48.9L12.6 65.1C9.7 67.4 9.2 71.7 11.6 74.6C13.9 77.5 18.2 78 21.1 75.7Z" fill="#99CC33"/>
<path d="M32.8 80.5L48.2 68.2C51 65.9 51.5 61.8 49.2 59C46.9 56.2 42.8 55.7 40 58L24.6 70.4C21.8 72.7 21.3 76.8 23.6 79.6C25.8 82.3 29.9 82.8 32.8 80.5Z" fill="#99CC33"/>
<path d="M50 6.9C45.2 -0.5 34.8 -2.2 26.9 3C19 8.2 16.5 18.4 21.4 25.7" fill="white"/>
<path d="M37.8 15.2L41.9 20.2C44.4 23.4 49.1 23.9 52.3 21.3C55.5 18.8 56 14.1 53.4 11L49.3 6C46.8 2.9 42.1 2.4 39 4.9C35.8 7.4 35.3 12.1 37.8 15.2Z" fill="white"/>
<path d="M73.8 52.2L82.3 62.7C84.6 65.6 88.9 66.1 91.8 63.7C94.7 61.4 95.2 57.1 92.8 54.2L84.3 43.7C82 40.8 77.7 40.3 74.8 42.7C71.9 45 71.5 49.3 73.8 52.2Z" fill="white"/>
<path d="M60.5 56L74.3 73.1C76.8 76.2 81.4 76.7 84.6 74.2C87.7 71.7 88.2 67.1 85.7 64L71.9 46.9C69.4 43.8 64.8 43.3 61.6 45.8C58.5 48.2 58 52.9 60.5 56Z" fill="white"/>
<path d="M50.9 64.6L62.9 79.5C65.4 82.7 70.1 83.2 73.3 80.6C76.5 78.1 77 73.4 74.4 70.2L62.4 55.3C59.9 52.1 55.2 51.6 52 54.2C48.8 56.8 48.3 61.4 50.9 64.6Z" fill="white"/>
<path d="M43.6 75.7L47.7 80.7C50.2 83.9 54.9 84.4 58.1 81.8C61.3 79.3 61.8 74.6 59.2 71.5L55.1 66.5C52.6 63.3 47.9 62.8 44.7 65.4C41.5 67.9 41 72.5 43.6 75.7Z" fill="white"/>
</g>
<defs>
<clipPath id="clip0">
<rect width="94.3" height="83.5" fill="white"/>
</clipPath>
</defs>
</svg>
