<svg width="92" height="62" viewBox="0 0 92 62" fill="none" xmlns="http://www.w3.org/2000/svg">
<path d="M27.1766 11.7877H12.8569V25.4889H27.1766V11.7877Z" fill="white"/>
<path d="M81.0678 9.41482H81.2218L81.2988 12.7827H81.0678C80.7598 11.4049 79.3741 10.1037 76.7565 10.0272C73.6 9.87408 72.2912 11.7111 72.2142 13.4716C72.2142 15.8444 74.0619 16.3037 76.7565 16.9161C78.0653 17.2222 82.7615 17.8346 82.3766 23.1161C82.1456 26.7901 78.9121 28.5506 74.3699 28.3975C74.3699 28.3975 72.5222 28.321 69.8276 27.6321C69.3657 27.479 69.2117 27.6321 68.9808 28.0148H68.7498V24.4173H68.9808C69.0577 24.8 69.1347 25.4889 69.7506 26.0247C70.2126 26.484 71.3674 27.479 73.908 27.5556C76.3716 27.5556 78.4502 26.5605 78.6812 23.8049C78.7582 23.0395 78.6812 21.3556 76.9875 20.5901C75.6787 19.9778 72.0603 19.5951 70.3665 18.0642C70.3665 18.0642 68.2879 16.6099 68.5958 13.9309C69.0577 10.1802 72.2142 9.18519 75.0628 9.10864C75.0628 9.10864 77.6034 9.10864 79.682 9.5679C79.682 9.5679 80.2209 9.72099 80.6059 9.5679C80.9138 9.5679 81.0678 9.49136 81.0678 9.41482Z" fill="#231F20"/>
<path d="M63.2067 18.1408C63.5146 17.9877 67.21 16.6099 66.8251 13.242C66.4402 9.03211 61.8979 9.33828 60.3582 9.33828C58.2795 9.33828 52.0435 9.33828 52.0435 9.33828V9.56791C52.8904 9.64445 53.3523 10.1803 53.2753 11.7111L53.3523 26.0247C53.3523 27.4025 52.7364 27.8617 51.9665 27.9383V28.1679C51.9665 28.1679 61.8979 28.1679 62.8987 28.1679C64.3615 28.1679 67.9029 27.7087 68.1339 23.4988C68.1339 22.5803 67.8259 19.2889 63.2067 18.1408ZM64.4385 23.5753C64.3615 26.4074 62.7448 27.1728 61.7439 27.3259C60.6661 27.5556 59.1264 27.479 57.9715 27.479C56.8167 27.4025 56.8937 26.9432 56.8937 26.484C56.8937 26.484 56.8937 24.5704 56.9707 22.0445C57.0477 17.4519 57.2017 10.8691 57.2017 10.7926C57.2017 10.1803 57.3556 10.1037 57.9715 10.1037C58.3565 10.1037 58.5105 10.1037 59.3573 10.1037C60.3581 10.1037 63.2067 10.1803 63.3607 13.9309C63.5146 17.758 59.5113 18.2173 58.5105 18.2173C58.4335 18.2173 58.4335 18.3704 58.5105 18.3704C61.513 18.4469 64.5155 19.5185 64.4385 23.5753Z" fill="#231F20"/>
<path d="M42.651 9.41483C41.8042 9.41483 33.7205 9.41483 33.7205 9.41483V9.64446C34.3364 9.721 34.8753 10.1803 34.9523 10.8691C35.1833 13.0124 35.2602 25.8716 34.8753 27.2494C34.7983 27.6321 34.1824 27.9383 33.5665 28.0914V28.321C33.5665 28.321 41.6502 28.321 43.4979 28.321C47.4243 28.321 51.6586 24.7235 51.6586 18.9062C51.7356 12.0938 46.5774 9.41483 42.651 9.41483ZM44.4218 27.0198C43.036 27.5556 41.4962 27.6321 39.6485 27.479C38.6477 27.4025 38.5707 26.7901 38.5707 26.5605C38.4937 24.8 38.4937 12.4766 38.5707 10.9457C38.6477 10.1037 38.8017 10.1037 39.5715 10.1037C40.3414 10.1037 41.1883 10.1803 41.1883 10.1803C45.8845 10.4864 47.5782 14.084 47.9632 18.6766C48.3481 23.3457 46.1925 26.3309 44.4218 27.0198Z" fill="#231F20"/>
<path d="M29.1782 18.7531C29.1782 17.3753 29.2552 16.1506 30.2561 13.9309C30.564 13.3185 31.2569 12.4 30.2561 11.2519C29.4862 10.4864 28.5623 10.563 27.9464 10.9457C28.3314 10.3333 28.4084 9.41483 27.6385 8.64939C26.5607 7.65433 25.6368 8.34322 24.9439 8.64939C22.7113 9.64445 21.4795 9.721 20.0937 9.721C18.7079 9.721 17.4761 9.64445 15.2435 8.64939C14.6276 8.34322 13.7038 7.65433 12.549 8.64939C11.7791 9.41483 11.8561 10.3333 12.241 10.9457C11.6251 10.563 10.7013 10.4864 9.93138 11.2519C8.93054 12.3235 9.62343 13.242 9.93138 13.9309C10.9322 16.1506 11.0092 17.3753 11.0092 18.7531C11.0092 20.1309 10.9322 21.3556 9.93138 23.5753C9.62343 24.1877 8.93054 25.1062 9.93138 26.2543C10.7013 27.0198 11.6251 26.9432 12.241 26.5605C11.8561 27.1728 11.7791 28.0914 12.549 28.8568C13.6268 29.8519 14.5506 29.163 15.2435 28.8568C17.4761 27.8617 18.7079 27.7852 20.0937 27.7852C21.4795 27.7852 22.7113 27.8617 24.9439 28.8568C25.5598 29.163 26.4837 29.8519 27.6385 28.8568C28.4084 28.0914 28.3314 27.1728 27.9464 26.5605C28.5623 26.9432 29.4862 27.0198 30.2561 26.2543C31.2569 25.1827 30.564 24.2642 30.2561 23.5753C29.2552 21.4321 29.1782 20.2074 29.1782 18.7531ZM26.7916 25.4124L21.6335 21.1259C21.6335 21.1259 20.9406 20.437 20.1707 20.437C19.4008 20.437 18.7079 21.1259 18.7079 21.1259L13.5498 25.4124L17.8611 20.284C17.8611 20.284 18.554 19.5951 18.554 18.8296C18.554 18.0642 17.8611 17.3753 17.8611 17.3753L13.5498 12.2469L18.7079 16.5333C18.7079 16.5333 19.4008 17.2222 20.1707 17.2222C20.9406 17.2222 21.6335 16.5333 21.6335 16.5333L26.7916 12.2469L22.4803 17.3753C22.4803 17.3753 21.7874 18.0642 21.7874 18.8296C21.7874 19.5951 22.4803 20.284 22.4803 20.284L26.7916 25.4124Z" fill="#ED1C24"/>
<path d="M15.7054 33.0667C16.1674 32.6839 16.4753 32.7605 17.0912 32.9136C17.4762 32.9901 17.5531 33.1432 17.8611 33.2963C17.8611 33.2963 20.7096 35.5926 21.4795 35.9753C22.1724 36.358 22.2494 36.5111 22.0184 36.5876C21.8644 36.5876 17.3992 35.0568 16.9372 34.8272C16.4753 34.5975 16.4753 34.521 16.0134 34.7506C15.6285 34.9802 15.5515 34.7506 15.4745 34.521C15.3975 34.3679 15.1665 34.5975 15.0126 34.2913C14.9356 33.9086 15.3975 33.9086 15.3975 33.679L15.7054 33.0667Z" fill="#231F20"/>
<path d="M17.8611 33.2963C17.8611 33.2963 17.4762 34.5975 18.0921 34.5975C18.631 34.6741 19.0159 34.5975 20.0167 34.4445C21.0176 34.2914 21.0946 35.1333 22.7113 34.2914C24.1741 33.5259 28.9473 34.0617 29.7172 33.9852C30.41 33.9087 30.718 33.6025 30.564 33.4494C30.41 33.2963 29.8711 32.9136 29.2552 32.5309C28.6393 32.1482 28.2544 31.7654 27.7155 32.0716C27.1766 32.3778 25.7908 32.837 24.405 33.0667C23.4042 33.2198 19.8628 33.5259 18.7849 33.4494C18.246 33.4494 18.0151 33.3729 17.8611 33.2963Z" fill="#231F20"/>
<path d="M17.6301 36.5877C19.0159 35.2099 19.7088 34.5975 20.0937 34.2914C20.5557 33.9852 24.328 33.1432 23.4042 33.7556C22.4033 34.4444 21.3255 35.1333 19.7858 36.7407C18.8619 37.6593 18.169 38.2716 17.3222 39.3432C16.3213 40.5679 16.1674 40.8741 13.5498 44.7012C10.3933 49.3704 10.4703 50.5185 10.3163 51.284C10.1623 52.1259 10.1623 52.9679 9.70042 52.279C9.31549 51.7432 8.93055 50.6716 9.77741 48.3753C10.0084 47.763 10.1623 47.2272 10.7013 46.2321C10.9322 45.8494 11.2402 45.3136 11.5481 44.7778C12.7029 42.8642 13.1649 41.9457 14.9356 39.6494C15.3205 39.1136 15.9364 38.3481 16.3213 37.8889C17.3222 36.8173 17.3992 36.8173 17.6301 36.5877Z" fill="#231F20"/>
<path d="M11.9331 41.563C12.318 41.6395 13.1649 41.6395 14.6276 41.2568C16.0904 40.8741 16.8603 40.7975 19.7858 40.2617C22.7113 39.7259 24.0201 39.6494 23.5582 39.879C23.0962 40.0321 18.631 41.3333 16.9372 41.7926C15.2435 42.3284 13.6268 42.558 13.1649 42.7877C12.7029 43.0173 12.395 43.0173 11.9331 42.7877C11.4711 42.558 11.3942 42.3284 11.5481 42.1753C11.7021 42.0222 11.3942 41.9457 11.5481 41.716C11.6251 41.4099 11.9331 41.563 11.9331 41.563Z" fill="#231F20"/>
<path d="M26.1757 41.0272C25.5598 40.9506 24.79 40.4914 24.636 40.1852C24.482 39.879 23.9431 39.5728 23.7121 39.7259C23.4812 39.879 23.3272 39.6494 23.1732 39.6494C23.0192 39.5728 22.7113 39.879 22.5573 40.2617C22.5573 40.2617 21.6335 41.1802 20.7096 42.2519C19.8628 43.2469 19.2469 44.7778 20.0167 45.3901C20.7866 46.079 22.0184 46.1556 23.3272 45.237C24.713 44.3951 26.0987 42.4815 26.3297 41.9457C26.6377 41.4864 26.7916 41.1037 26.1757 41.0272ZM24.559 43.0173C24.1741 43.6296 23.7891 43.9358 23.3272 44.3185C23.0192 44.5482 22.2494 44.9309 21.7105 45.084C21.0946 45.237 20.8636 44.9309 21.0176 44.3951C21.1716 43.9358 21.3255 43.5531 21.7105 43.0173C22.0184 42.558 22.2494 42.4049 22.5573 42.0988C22.7883 41.7926 23.3272 41.4099 23.3272 41.4099C23.7121 41.2568 24.0201 41.1037 23.7891 41.563C23.4812 42.0222 23.4042 42.1753 23.4812 42.558C23.5582 42.9407 24.328 43.7827 24.1741 43.4C24.0971 43.0173 24.251 43.0938 24.328 42.7877C24.405 42.4815 24.79 42.3284 24.8669 42.3284C25.0209 42.3284 25.0209 42.4049 24.559 43.0173Z" fill="#231F20"/>
<path d="M25.7138 42.4815C26.4067 42.1753 27.0226 42.0988 28.1004 41.4864C29.1782 40.8741 29.0243 40.721 29.2552 40.4914C29.4862 40.2617 29.5632 40.4148 29.7172 40.5679C29.8711 40.6445 30.1791 40.5679 30.564 40.721C30.949 40.8741 31.1029 40.7975 30.872 40.9506C30.641 41.1037 29.8711 41.7161 28.7163 42.0222C27.5615 42.3284 25.6368 42.7111 25.3289 42.7111C25.0979 42.8642 25.7138 42.4815 25.7138 42.4815Z" fill="#231F20"/>
<path d="M28.2544 41.8691C28.7163 41.3333 29.3322 41.0272 29.9481 41.0272C30.641 41.0272 31.2569 40.6445 30.718 41.1803C30.2561 41.7161 29.6402 42.2519 29.2552 42.6346C28.8703 43.0173 28.1774 43.6296 28.0234 43.9358C27.7925 44.242 28.4084 44.7778 29.3322 44.242C30.2561 43.7062 32.5657 41.563 32.5657 41.563C33.5665 40.6445 33.5665 40.3383 33.9515 40.4148C34.5674 40.4148 35.5682 40.6445 35.1063 41.0272C34.6444 41.4099 32.8736 43.9358 32.4117 44.4716C31.9498 45.0074 31.7958 45.6198 32.1808 45.4667C33.0276 45.084 33.1816 45.0074 33.6435 44.7778C34.7213 44.1654 35.8762 43.3235 35.4142 43.7062C34.9523 44.0889 35.7222 43.7827 35.1833 44.1654C34.7213 44.5482 33.4895 45.6198 32.8736 46.0025C32.2577 46.3852 31.4879 46.3087 31.2569 46.079C31.0259 45.8494 30.872 45.237 31.0259 44.7778C31.1799 44.3185 30.872 44.3951 30.487 44.7012C30.1021 45.0074 28.4084 46.079 27.9464 46.079C26.3297 46.0025 26.7146 44.3185 26.8686 43.8593C27.0996 43.2469 28.2544 41.8691 28.2544 41.8691Z" fill="#231F20"/>
<path d="M57.2787 34.3679C58.0485 33.7555 57.5096 33.8321 57.2017 33.8321C56.9707 33.8321 56.2008 33.679 55.8159 33.9086C55.431 34.1383 55.5849 34.0617 55.2 34.4444C54.8921 34.7506 54.8921 34.8272 54.3531 35.5926C53.8142 36.358 51.2736 39.4197 50.8117 40.1852C50.3498 40.9506 50.2728 40.721 49.9649 40.721C49.8109 40.721 48.887 40.1852 48.1172 40.2617C46.9623 40.2617 46.0385 40.8741 45.4996 41.2568C45.0377 41.563 44.4987 42.0988 43.7289 43.0173C43.3439 43.5531 42.959 44.6247 42.882 44.8543C42.805 45.0074 42.5741 45.6963 42.959 46.079C43.3439 46.4617 44.3448 46.3852 44.7297 46.3086C45.2686 46.1556 45.9615 45.8494 46.4234 45.5432C47.3473 44.9309 47.8862 44.4716 48.3481 44.0123C48.81 43.5531 48.964 43.4 49.118 43.4765C49.272 43.5531 49.272 43.7062 49.195 44.1654C49.118 44.5481 49.118 44.7012 49.272 45.0074C49.4259 45.3136 49.7339 45.6963 50.0418 45.6963C50.4268 45.6963 50.7347 45.7728 51.4276 45.1605C52.1205 44.6247 51.7356 44.7012 51.5046 44.8543C51.2736 45.0074 51.2736 45.084 50.8887 45.084C50.5038 45.084 50.3498 44.8543 50.1188 44.242C49.9649 43.6296 50.0418 43.0173 50.9657 41.4864C52.1975 39.9556 56.5088 34.9802 57.2787 34.3679ZM48.1172 42.7877C47.8862 43.0938 47.3473 43.6296 46.3464 44.3185C45.0377 45.3136 44.6527 45.237 44.4987 44.9309C44.4218 44.6247 44.8837 43.6296 45.6536 42.8642C46.2695 42.2518 46.6544 41.8691 46.9623 41.716C47.3473 41.4864 48.5021 41.2568 48.5791 41.716C48.7331 42.0222 48.2711 42.558 48.1172 42.7877Z" fill="#231F20"/>
<path d="M68.0569 44.6247C66.9791 45.0074 66.6711 45.0074 66.7481 44.6247C66.9021 44.0889 67.287 43.4 68.0569 42.558C68.8268 41.7926 69.2117 41.6395 68.9038 41.4099C68.5958 41.1802 68.0569 40.9506 67.7489 41.1037C67.441 41.2568 67.364 41.563 66.6711 42.2518C65.9782 42.9407 64.8234 44.0889 63.6686 44.6247C63.2067 44.8543 61.359 45.5432 61.59 44.6247C61.6669 44.0123 62.0519 43.4 62.7448 42.4815C63.4376 41.563 67.518 37.8123 67.9029 37.4296C68.2879 37.0469 69.1347 36.2049 69.2117 35.8222C69.2887 35.4395 68.6728 35.6691 68.5188 35.4395C68.4418 35.1333 67.9029 35.0568 67.21 35.5926C66.5172 36.0518 66.0552 36.7407 64.8234 38.1951C63.5916 39.5728 61.8979 41.3333 61.051 42.2518C60.1272 43.2469 59.6653 43.7827 58.6644 44.5481C57.7406 45.237 57.2017 45.1605 57.2787 44.7778C57.3556 44.3951 56.1238 44.4716 56.4318 45.0074C56.7397 45.5432 56.6628 46.3086 57.7406 46.1555C59.4343 45.9259 60.7431 43.7062 60.7431 43.7062C60.7431 43.7062 59.8962 45.237 60.1272 45.7728C60.4351 46.3852 61.59 46.5383 63.1297 45.7728C64.7464 45.0074 65.8243 43.7062 65.8243 43.7062C65.8243 43.7062 65.4393 44.7778 65.3623 45.4667C65.2853 46.2321 65.9012 46.6148 66.7481 46.079C67.672 45.5432 68.7498 45.1605 69.2117 44.4716C70.2895 43.0173 69.2117 44.1654 68.0569 44.6247Z" fill="#231F20"/>
<path d="M61.436 38.1951C62.4368 38.1951 65.2084 37.9654 65.9782 37.9654C66.8251 37.9654 69.9816 37.5827 70.2895 37.5827C70.5975 37.5827 70.1356 37.9654 69.9046 38.3482C69.6736 38.7309 68.2109 39.2667 67.133 39.4198C66.0552 39.5729 64.7464 39.2667 64.0535 39.2667C63.3607 39.2667 62.7448 39.2667 62.2058 38.884C61.7439 38.5013 61.436 38.1951 61.436 38.1951Z" fill="#231F20"/>
<path d="M68.5188 39.4198C68.7498 39.4198 69.2117 39.4198 69.2117 39.6494C69.2887 39.8025 69.5967 39.8025 69.6736 40.0321C69.7506 40.2617 69.7506 40.721 69.2117 40.7976C68.6728 40.8741 68.5188 40.5679 68.3648 40.1852C68.2879 39.879 68.5188 39.4198 68.5188 39.4198Z" fill="#231F20"/>
<path d="M74.3699 42.0222C74.2929 41.7926 73.754 41.3334 73.1381 41.1037C72.5222 40.8741 72.2912 40.7975 71.9833 40.721C71.7523 40.6445 71.6753 40.9506 71.5213 41.3333C71.4443 41.6395 71.2134 41.7161 70.8284 42.0222C70.8284 42.0222 70.2895 42.4815 70.0586 42.9408C69.7506 43.4 69.2887 44.0889 69.3657 44.7778C69.4427 45.5432 69.9816 46.079 70.4435 46.1556C71.0594 46.2321 71.4443 46.079 71.6753 46.0025C72.2142 45.8494 73.2151 45.237 73.677 44.6247C74.1389 44.0124 74.4469 43.4 74.6778 42.9408C74.7548 42.558 74.4469 42.2519 74.3699 42.0222ZM71.5983 44.7012C70.8284 45.3136 70.2895 45.4667 70.1356 44.8543C70.0586 44.242 70.9054 43.4766 70.9054 43.4766C71.2134 43.0938 71.3674 42.9408 71.5983 42.9408C71.8293 42.9408 72.0602 42.7111 72.4452 42.558C72.7531 42.405 73.0611 42.9408 72.8301 43.4766C72.6761 44.0124 72.3682 44.1654 71.5983 44.7012Z" fill="#231F20"/>
<path fill-rule="evenodd" clip-rule="evenodd" d="M41.3423 45.3901C41.3423 45.3136 41.5732 44.7778 41.7272 44.5482C41.8812 44.1654 42.0351 43.7827 42.2661 43.4C42.651 42.6346 43.113 42.0222 43.4979 41.2568C43.5749 41.1803 43.5749 40.9506 43.4979 40.8741C43.19 40.5679 42.2661 40.3383 42.1891 40.3383C42.1121 40.3383 41.8812 40.2617 41.7272 40.3383C41.4192 40.4148 41.3423 40.4914 41.1113 40.5679C40.9573 40.6445 40.6494 40.9506 40.4954 41.0272C40.1874 41.3333 39.8795 41.6395 39.5715 41.8691C39.2636 42.0988 38.8787 42.3284 38.5707 42.4815C38.5707 42.3284 38.7247 42.2519 38.7247 42.1753C38.9556 41.7161 38.8787 41.2568 38.4167 41.1803C38.2628 41.1803 38.1858 41.1037 38.0318 41.1037C37.8778 41.1037 37.6469 41.1037 37.5699 41.1803C37.4929 41.1803 37.3389 41.2568 37.1849 41.3333C37.031 41.4099 36.877 41.6395 36.646 41.8691C36.492 42.0988 35.8762 42.6346 35.5682 42.8642C35.3372 43.0173 34.1824 44.1654 33.7205 44.3951C33.3356 44.7012 32.7967 45.084 32.5657 45.237L32.6427 45.8494C32.8736 45.6963 33.0276 45.6963 33.3356 45.4667C34.2594 44.8543 34.7213 44.5482 35.1833 44.1654C35.3372 44.0124 35.6452 43.7827 35.7992 43.7062C35.8762 43.6296 35.9531 43.6296 35.7222 43.8593C35.4142 44.242 35.2603 44.7778 35.4142 45.1605C35.4912 45.4667 35.8761 45.6198 36.2611 45.5432C36.646 45.4667 37.2619 44.9309 37.4929 44.7778C37.7238 44.6247 37.9548 44.3185 38.1088 44.1654C38.6477 43.7827 39.0326 43.4765 39.0326 43.4765C39.4176 43.0938 39.8795 42.7877 40.2644 42.4815C40.2644 42.4815 40.4184 42.4049 40.4184 42.4815C40.4184 42.6346 40.3414 42.7111 40.3414 42.7877C40.2644 43.0938 40.0335 43.4765 40.0335 43.7827C39.9565 44.3951 39.8795 45.084 40.0335 45.6963C40.1874 46.1556 40.6494 46.3852 41.2653 46.2321C41.8042 46.079 42.3431 45.6963 42.882 45.3901C42.959 45.3901 43.036 45.237 43.113 45.1605C42.3431 45.3136 41.4192 45.6963 41.3423 45.3901Z" fill="black"/>
<path fill-rule="evenodd" clip-rule="evenodd" d="M80.3749 45.3901C80.3749 45.3136 80.6059 44.8543 80.7598 44.5481C80.9138 44.1654 81.0678 43.7827 81.2218 43.4765C81.6067 42.7876 81.9916 42.0988 82.3766 41.4099C82.4536 41.3333 82.4536 41.1037 82.3766 41.1037C82.1456 40.7975 81.2988 40.5679 81.1448 40.5679C81.0678 40.5679 80.9138 40.4914 80.7598 40.5679C80.4519 40.6444 80.3749 40.721 80.2209 40.7975C80.067 40.8741 79.759 41.1037 79.605 41.2568C79.2971 41.563 78.9891 41.8691 78.7582 42.0988C78.4502 42.3284 78.1423 42.4815 77.8343 42.7111C77.8343 42.558 77.9883 42.4815 77.9883 42.4049C78.2193 41.9457 78.1423 41.563 77.6803 41.4099C77.6034 41.4099 77.5264 41.3333 77.2954 41.3333C77.1414 41.3333 76.9875 41.3333 76.9105 41.4099C76.8335 41.4099 76.6795 41.4864 76.5255 41.563C76.3716 41.6395 76.2946 41.9457 76.0636 42.0222C75.6017 42.2518 74.7548 42.2518 74.3699 42.1753C73.523 42.0222 73.9849 41.6395 73.6 41.8691C73.2921 42.0988 73.523 42.0988 73.9849 42.2518C74.3699 42.4049 74.9858 42.7876 75.9866 42.8642C76.0636 42.7876 75.2937 43.8592 75.1398 44.0889C74.9858 44.3185 74.8318 44.8543 74.9088 45.237C74.9858 45.5432 75.3707 45.6963 75.6787 45.6197C75.9866 45.5432 76.6795 45.0839 76.8335 44.9309C77.0644 44.7778 77.2954 44.4716 77.4494 44.3951C77.9113 43.9358 78.3732 43.5531 78.3732 43.5531C78.7582 43.1704 79.1431 42.8642 79.528 42.558C79.528 42.558 79.682 42.4815 79.682 42.558C79.682 42.6346 79.605 42.7876 79.605 42.8642C79.528 43.1704 79.3741 43.5531 79.2971 43.8592C79.2201 44.4716 79.1431 45.1605 79.2971 45.6963C79.4511 46.1555 79.836 46.3852 80.3749 46.2321C80.9138 46.079 81.3757 45.6963 81.8377 45.3901C81.9147 45.3901 81.9916 45.237 81.9916 45.1605C81.2988 45.3136 80.4519 45.6197 80.3749 45.3901Z" fill="#231F20"/>
<path fill-rule="evenodd" clip-rule="evenodd" d="M51.3506 44.4716C51.6586 43.7827 51.9665 43.3235 52.4285 42.8642C52.7364 42.6346 53.1983 42.1753 54.3531 41.2568C55.5849 40.3383 56.9707 40.4914 57.7406 41.1803C57.8176 41.2568 57.9716 41.4099 58.0485 41.3334C58.5875 41.1037 58.7414 41.3334 58.9724 41.4864C59.0494 41.6395 58.8954 41.8692 58.8184 42.0222C58.5105 42.4815 58.2025 42.9408 57.8946 43.4C57.7406 43.6296 57.6636 43.7827 57.5866 44.0889C57.3557 44.7778 57.8946 44.9309 58.8184 44.3951C59.2034 44.1654 59.6653 43.6296 60.2042 43.3235C60.7431 43.0173 60.5891 43.5531 60.1272 44.0889C59.7423 44.5482 59.2803 45.2371 58.7414 45.6198C57.2787 46.3852 56.2008 46.1556 56.2008 44.6247C56.2008 44.3951 56.2778 44.1654 56.2008 43.8593C55.9699 44.0124 56.0469 44.0124 55.2 44.5482C54.6611 44.9309 53.9682 45.4667 52.6594 45.9259C52.0435 46.1556 51.5046 45.9259 51.1967 45.4667C51.1197 45.3136 51.2736 44.7012 51.3506 44.4716ZM53.0444 43.8593C52.8904 44.0889 52.4285 44.5482 52.5824 44.7013C52.8134 45.0074 53.5833 44.5482 53.8912 44.3951C54.2762 44.242 54.8151 43.7827 54.8921 43.7062C55.5849 42.9408 55.6619 42.7877 55.8929 42.405C56.1239 42.0222 55.7389 41.7161 55.2 42.0222C54.6611 42.3284 54.4301 42.558 53.9682 42.9408C53.4293 43.4 53.1983 43.6296 53.0444 43.8593Z" fill="black"/>
</svg>
