<svg width="17" height="56" viewBox="0 0 17 56" fill="none" xmlns="http://www.w3.org/2000/svg">
<path d="M16.0286 14.3846V55.077H0.971436V14.3846H16.0286Z" fill="#332083"/>
<path d="M0 8.07692C0 7 0.242857 5.92308 0.647619 4.92308C1.05238 3.92308 1.7 3.07692 2.50952 2.38462C3.31905 1.61538 4.20952 1.07692 5.18095 0.615385C6.23333 0.230769 7.36667 0 8.5 0C9.63333 0 10.7667 0.230769 11.819 0.615385C12.8714 1.07692 13.7619 1.61538 14.4905 2.38462C15.3 3.15385 15.8667 4 16.3524 4.92308C16.7571 5.92308 17 6.92308 17 8.07692C17 9.15385 16.7571 10.2308 16.3524 11.2308C15.8667 12.2308 15.3 13.0769 14.4905 13.8462C13.681 14.6154 12.7905 15.1538 11.819 15.6154C10.7667 16 9.71429 16.1538 8.5 16.1538C7.36667 16.1538 6.23333 15.9231 5.18095 15.5385C4.12857 15.0769 3.2381 14.5385 2.50952 13.7692C1.7 13 1.13333 12.1538 0.647619 11.1538C0.242857 10.2308 0 9.23077 0 8.07692Z" fill="white"/>
</svg>
