<svg width="38" height="51" viewBox="0 0 38 51" fill="none" xmlns="http://www.w3.org/2000/svg">
<path d="M11.7692 36.4064V22.8219C12.3077 22.8995 12.8462 22.9772 13.3077 23.0548C13.7692 23.1324 14.2308 23.1324 14.6154 23.1324C15.8462 23.1324 17 22.9772 18.1538 22.589C19.2308 22.2785 20.2308 21.7352 21 21.1918C21.7692 20.5708 22.4615 19.8721 22.9231 19.0183C23.3846 18.1644 23.6154 17.2329 23.6154 16.2237C23.6154 14.8265 23.1538 13.5845 22.2308 12.5753C21.3077 11.5662 20.0769 11.0228 18.4615 11.0228C17 11.0228 15.9231 11.4886 15.0769 12.4977C14.2308 13.5069 13.7692 14.7489 13.7692 16.3014H0C0 13.895 0.461538 11.7215 1.38462 9.78082C2.30769 7.84018 3.69231 6.13242 5.38462 4.65753C7.07692 3.18265 9.07692 2.01827 11.3077 1.24201C13.6154 0.465753 16.0769 0 18.7692 0C21.4615 0 24 0.465753 26.2308 1.39726C28.4615 2.32877 30.3846 3.49315 32 5.04566C33.6154 6.59817 34.8462 8.38356 35.7692 10.3242C36.6154 12.3425 37.0769 14.3607 37.0769 16.5342C37.0769 23.5205 32.9231 28.4886 24.5385 31.3607V36.4064H11.7692Z" fill="#332083"/>
<path d="M10.3846 42.8493C10.3846 41.7625 10.6154 40.6758 11 39.6666C11.3846 38.6575 12 37.8036 12.6923 37.0274C13.4616 36.2511 14.3077 35.7077 15.3077 35.3196C16.3077 34.9315 17.3077 34.6986 18.4616 34.6986C19.5385 34.6986 20.6154 34.9315 21.6154 35.3196C22.6154 35.7077 23.4616 36.3287 24.2308 37.0274C25 37.8036 25.5385 38.6575 25.9231 39.6666C26.3077 40.6758 26.5385 41.6849 26.5385 42.8493C26.5385 44.0137 26.3077 45.0228 25.9231 46.0319C25.5385 47.0411 24.9231 47.895 24.2308 48.6712C23.4616 49.4475 22.6154 49.9909 21.6154 50.379C20.6154 50.7671 19.6154 51 18.4616 51C17.3846 51 16.3077 50.7671 15.3077 50.379C14.3077 49.9909 13.4616 49.3698 12.6923 48.6712C11.9231 47.895 11.3846 47.0411 11 46.0319C10.5385 45.0228 10.3846 44.0137 10.3846 42.8493Z" fill="white"/>
</svg>
