<svg width="74" height="70" viewBox="0 0 74 70" fill="none" xmlns="http://www.w3.org/2000/svg">
<path d="M40.8542 8.33856V70H33.0357V8.33856H40.8542Z" fill="#332083"/>
<path d="M31.6042 5.26646C31.6042 4.49843 31.7143 3.84013 32.0447 3.18182C32.375 2.52351 32.7054 1.97492 33.1459 1.53605C33.5863 1.09718 34.247 0.658307 34.7976 0.438871C35.5685 0.109718 36.2292 0 37 0C37.7708 0 38.4316 0.109718 39.0923 0.438871C39.6429 0.658307 40.3036 1.09718 40.7441 1.53605C41.1845 1.97492 41.625 2.63323 41.8453 3.18182C42.1756 3.84013 42.2857 4.49843 42.2857 5.26646C42.2857 6.03448 42.1756 6.69279 41.8453 7.3511C41.5149 8.0094 41.1845 8.55799 40.7441 8.99687C40.3036 9.43574 39.6429 9.87461 39.0923 10.094C38.4316 10.4232 37.7708 10.5329 37 10.5329C36.2292 10.5329 35.5685 10.4232 34.9078 10.094C34.247 9.76489 33.6964 9.43574 33.256 8.99687C32.8155 8.55799 32.375 7.89969 32.1548 7.3511C31.8244 6.69279 31.6042 6.03448 31.6042 5.26646Z" fill="#332083"/>
<path d="M66.622 17.4452H40.8542V34.6709H66.2917L74 26.1129L66.622 17.4452Z" fill="white"/>
<path d="M7.70833 39.4985H33.1458V56.6145L7.70833 56.7242L0 48.0565L7.70833 39.4985Z" fill="white"/>
</svg>
