<svg width="50" height="56" viewBox="0 0 50 56" fill="none" xmlns="http://www.w3.org/2000/svg">
<path d="M0.898193 50.6572L6.18761 44.424L0.898193 50.6572Z" fill="#1B0268"/>
<path d="M0 5.34276L4.99002 0L24.8503 22.9541L20.0599 28.4947L0 5.34276Z" fill="white"/>
<path d="M6.18761 44.4241L20.7585 27.7032L24.8503 22.9541L29.6407 28.4947L5.68861 56L0.898193 50.6573L6.18761 44.4241Z" fill="#1B0268"/>
<path d="M21.2575 5.44171L26.6467 11.576L21.2575 5.44171Z" fill="#1B0268"/>
<path d="M20.3593 50.7562L25.4491 56L45.2096 33.0459L40.4192 27.5053L20.3593 50.7562Z" fill="white"/>
<path d="M26.6467 11.576L41.2176 28.3958L45.2096 33.0459L50 27.5053L26.1477 0L21.2575 5.4417L26.6467 11.576Z" fill="#1B0268"/>
</svg>
