<svg width="39" height="38" viewBox="0 0 39 38" fill="none" xmlns="http://www.w3.org/2000/svg">
<path d="M37.9797 19.1259C37.9797 21.8941 37.9797 24.6623 37.9797 27.4305C37.9797 33.4703 33.4547 38.0001 27.4214 38.0001C21.8909 38.0001 16.3604 38.0001 10.8299 38.0001C4.79667 38.0001 0.0203323 33.4703 0.0203323 27.1789C0.0203323 21.6425 0.0203323 16.106 0.0203323 10.5696C0.0203323 4.52987 4.54529 -0.251587 10.8299 -0.251587C16.3604 -0.251587 21.8909 -0.251587 27.4214 -0.251587C33.4547 -0.251587 38.2311 4.27821 38.2311 10.5696C37.9797 13.5895 37.9797 16.3577 37.9797 19.1259ZM18.8743 29.6954C24.6562 29.6954 29.4325 24.914 29.4325 19.1259C29.4325 13.3378 24.6562 8.55636 18.8743 8.55636C13.0924 8.55636 8.31608 13.3378 8.31608 19.1259C8.56747 24.914 13.0924 29.6954 18.8743 29.6954ZM33.7061 6.29146C33.7061 5.28484 32.7006 4.27822 31.695 4.27822C30.4381 4.27822 29.4325 5.28484 29.4325 6.29146C29.4325 7.29808 30.4381 8.30471 31.4436 8.30471C32.7006 8.55636 33.7061 7.54974 33.7061 6.29146Z" fill="#332083"/>
<path d="M25.4104 19.1259C25.4104 22.6491 22.6451 25.4173 19.1257 25.4173C15.6063 25.4173 12.841 22.6491 12.841 19.1259C12.5897 15.6027 15.3549 12.5828 18.8743 12.5828C22.3937 12.5828 25.4104 15.6027 25.4104 19.1259Z" fill="#332083"/>
</svg>
