<svg width="38" height="38" viewBox="0 0 38 38" fill="none" xmlns="http://www.w3.org/2000/svg">
<path d="M38 19.1258C38 21.894 38 24.6623 38 27.4305C38 33.4702 33.4751 38 27.4418 38C21.9113 38 16.3808 38 10.8503 38C4.817 38 0.0406647 33.4702 0.0406647 27.1788C0.0406647 21.6424 0.0406647 16.106 0.0406647 10.5695C0.0406647 4.5298 4.56562 0 10.5989 0C16.1294 0 21.6599 0 27.1904 0C33.2237 0 38 4.5298 38 10.8212C38 13.5894 38 16.3576 38 19.1258Z" fill="#332083"/>
<path d="M20.403 16.6093C21.1571 16.106 21.9113 15.351 22.6654 15.0994C25.9335 13.8411 30.207 14.8477 30.9612 19.6292C31.2126 20.3841 31.2126 21.1391 31.2126 22.1457C31.2126 24.9139 31.2126 27.4305 31.2126 30.1987C31.2126 30.702 30.9612 30.9537 30.4584 30.9537C29.2015 30.9537 27.6932 30.9537 26.4362 30.9537C25.9335 30.9537 25.6821 30.702 25.6821 30.1987C25.6821 27.4305 25.6821 24.9139 25.6821 22.1457C25.6821 21.8941 25.6821 21.3908 25.6821 21.1391C25.4307 19.8808 24.6765 19.1259 23.671 18.8742C22.6654 18.6225 21.4085 19.1259 20.9057 20.1325C20.6543 20.6358 20.6544 20.8874 20.6544 21.3908C20.6544 24.159 20.6544 27.1788 20.6544 29.947C20.6544 30.702 20.6544 30.702 19.9002 30.702C18.6433 30.702 17.1349 30.702 15.878 30.702C15.3752 30.702 15.1238 30.4504 15.1238 29.947C15.1238 25.6689 15.1238 21.3908 15.1238 17.1126C15.1238 16.6093 15.1238 15.8543 15.1238 15.351C15.1238 15.0994 15.1238 14.8477 15.6266 14.8477C17.1349 14.8477 18.6433 14.8477 20.1516 14.8477C20.403 14.8477 20.6544 15.0994 20.6544 15.351C20.403 15.8543 20.403 16.106 20.403 16.6093Z" fill="#FFF6DE"/>
<path d="M7.07948 22.9007C7.07948 20.3841 7.07948 18.1192 7.07948 15.6027C7.07948 15.0994 7.33086 14.8477 7.83363 14.8477C9.34195 14.8477 10.5989 14.8477 12.1072 14.8477C12.61 14.8477 12.61 15.0994 12.61 15.351C12.61 20.1325 12.61 25.1656 12.61 29.9471C12.61 30.4504 12.61 30.4504 12.1072 30.4504C10.5989 30.4504 9.34195 30.4504 7.83363 30.4504C7.33086 30.4504 7.33087 30.1987 7.33087 29.9471C7.07948 27.6822 7.07948 25.1656 7.07948 22.9007Z" fill="#FFF6DE"/>
<path d="M10.0961 7.29803C10.8503 7.29803 11.8558 7.80135 12.3586 8.80797C12.8614 9.81459 12.61 10.8212 11.8558 11.8278C10.8503 12.8345 8.8392 13.0861 7.58226 12.3311C6.32533 11.5762 6.07395 9.81459 6.82811 8.55631C7.58227 7.80135 8.58781 7.29803 10.0961 7.29803Z" fill="#FFF6DE"/>
</svg>
