<svg width="70" height="50" viewBox="0 0 70 50" fill="none" xmlns="http://www.w3.org/2000/svg">
<g clip-path="url(#clip0)">
<path d="M5.65558 10.0777C6.01507 9.69013 6.44948 9.38057 6.93213 9.16805C7.41479 8.95553 7.9355 8.84452 8.46232 8.84185C8.6341 8.83644 8.80594 8.85065 8.97455 8.88422L8.80614 12.6695C8.69288 12.6415 8.57807 12.6203 8.46232 12.606C8.33613 12.5981 8.20959 12.5981 8.08341 12.606C7.43796 12.6013 6.81166 12.8264 6.31516 13.2416C5.76868 13.7211 5.32466 14.3073 5.01003 14.9647C4.63818 15.7256 4.36915 16.5332 4.21011 17.3659C4.02707 18.2676 3.93538 19.1856 3.93645 20.106V30.9111H0.294714V14.9647C0.294714 14.1173 0.294714 13.1992 0.252613 12.2246C0.210512 11.25 0.175428 10.3602 0.119293 9.56925H3.54351C3.62771 10.2755 3.69086 10.9817 3.73297 11.7797C3.77507 12.5777 3.79612 13.2769 3.79612 13.9902H3.88032C4.08728 12.5417 4.70349 11.1837 5.65558 10.0777Z" fill="#404041"/>
<path d="M21.1137 30.911C21.0014 30.2543 20.9172 29.6045 20.8611 28.9548C20.8049 28.3051 20.7769 27.7754 20.7769 27.38H20.6927C20.4568 28.5258 19.8733 29.5696 19.0226 30.3673C18.0947 31.1376 16.9115 31.5261 15.7107 31.4548C15.0898 31.4502 14.4746 31.3354 13.8933 31.1158C13.2602 30.8787 12.6891 30.4995 12.2233 30.0071C11.6924 29.4409 11.2754 28.7766 10.9954 28.0509C10.6538 27.1157 10.4942 26.123 10.5253 25.1271C10.4726 23.8214 10.7579 22.5244 11.3532 21.363C11.8454 20.4428 12.5506 19.6555 13.4092 19.0678C14.2489 18.5138 15.188 18.13 16.1738 17.9379C17.1333 17.7503 18.1084 17.6557 19.0858 17.6554H20.4892V16.7091C20.4892 15.0353 20.1734 13.8277 19.5349 13.0721C19.2222 12.7015 18.8296 12.4077 18.3869 12.2131C17.9443 12.0185 17.4633 11.9282 16.9807 11.9492C16.2091 11.9457 15.4507 12.1506 14.7845 12.5424C14.1026 12.9437 13.5102 13.4822 13.0443 14.1243L11.2269 11.8644C11.9376 10.8946 12.8851 10.1259 13.9775 9.63279C15.0168 9.12444 16.1551 8.85431 17.3105 8.84183C18.3636 8.81003 19.4106 9.01259 20.3769 9.43505C21.1909 9.82217 21.8847 10.4252 22.3837 11.1794C22.9248 12.0397 23.2898 13.0001 23.4573 14.0043C23.6794 15.2581 23.7851 16.5301 23.7731 17.8037V26.4407C23.7731 27.1822 23.773 27.9803 23.8573 28.8489C23.9415 29.7175 23.9906 30.3955 24.0748 30.911H21.1137ZM20.5664 20.4096H19.0016C18.3709 20.4084 17.7415 20.4651 17.1211 20.5791C16.5411 20.6816 15.9889 20.9053 15.5002 21.2359C15.0016 21.5815 14.6003 22.051 14.3354 22.5989C14.0241 23.2601 13.8726 23.9861 13.8933 24.7175C13.7999 25.7552 14.1008 26.7899 14.7354 27.613C14.9759 27.8958 15.2738 28.1234 15.6091 28.2805C15.9444 28.4377 16.3092 28.5207 16.679 28.524C17.352 28.5453 18.0083 28.3108 18.5174 27.8673C19.0314 27.3975 19.4424 26.825 19.7243 26.1865C20.0331 25.4749 20.2432 24.724 20.3488 23.9548C20.4721 23.1889 20.5354 22.4144 20.5383 21.6384L20.5664 20.4096Z" fill="#404041"/>
<path d="M31.8845 3.23448C31.9006 3.86868 31.6659 4.48337 31.2319 4.94352C31.0326 5.16784 30.7881 5.34684 30.5147 5.46861C30.2412 5.59039 29.9451 5.65213 29.6461 5.64974C29.3483 5.65113 29.0536 5.5889 28.7814 5.46716C28.5093 5.34542 28.2659 5.16694 28.0674 4.94352C27.8526 4.71048 27.6856 4.43706 27.576 4.13894C27.4665 3.84082 27.4164 3.52386 27.4288 3.20624C27.4172 2.57964 27.6458 1.97261 28.0674 1.51132C28.2717 1.28858 28.5196 1.11082 28.7956 0.989242C29.0715 0.867665 29.3695 0.804901 29.6707 0.804901C29.9719 0.804901 30.2699 0.867665 30.5458 0.989242C30.8218 1.11082 31.0697 1.28858 31.274 1.51132C31.6896 1.98562 31.9082 2.60254 31.8845 3.23448ZM27.8358 30.911V9.56923H31.4214V30.911H27.8358Z" fill="#404041"/>
<path d="M48.739 7.99437C48.2543 7.40132 47.6489 6.91969 46.9637 6.58194C46.3077 6.26134 45.5879 6.09473 44.8587 6.09465C44.1154 6.0867 43.3921 6.33602 42.8097 6.80087C42.4862 7.10157 42.2362 7.47349 42.0792 7.88758C41.9221 8.30167 41.8624 8.74669 41.9046 9.18787C41.8723 9.60549 41.9366 10.025 42.0925 10.4134C42.2483 10.8018 42.4914 11.1486 42.8027 11.4266C43.6736 12.1016 44.6147 12.6793 45.6095 13.1497C46.3111 13.4887 47.0128 13.8913 47.7566 14.3644C48.5202 14.84 49.2144 15.4199 49.8196 16.0876C50.4698 16.8108 50.9941 17.6393 51.3703 18.5382C51.7814 19.6063 51.9701 20.7481 51.9246 21.8927C51.9743 23.3611 51.7358 24.825 51.2229 26.2006C50.751 27.3641 50.0326 28.4101 49.1179 29.2656C48.2523 30.0643 47.2357 30.6792 46.1287 31.0735C45.0036 31.4819 43.8163 31.6898 42.6203 31.6879C40.9285 31.7098 39.2524 31.3604 37.7085 30.6639C36.3861 30.092 35.1764 29.2859 34.1369 28.2839L37.6033 23.185C38.246 23.8615 39.0041 24.4165 39.8416 24.8235C40.6424 25.2228 41.5231 25.4329 42.4168 25.4379C42.8034 25.4522 43.1888 25.3884 43.5504 25.2501C43.912 25.1118 44.2423 24.9019 44.5219 24.6328C44.8128 24.3385 45.0388 23.9857 45.1851 23.5975C45.3314 23.2093 45.3947 22.7944 45.3709 22.38C45.3907 21.9338 45.3093 21.4889 45.133 21.0791C44.9568 20.6692 44.6902 20.305 44.3534 20.0141C43.4431 19.2865 42.4518 18.6679 41.3994 18.1709C40.6035 17.7833 39.8346 17.3421 39.0978 16.8503C38.3789 16.3703 37.7376 15.782 37.1963 15.1059C36.6286 14.3963 36.1914 13.5903 35.9052 12.726C35.5755 11.6807 35.419 10.588 35.4421 9.49154C35.4054 8.01064 35.6854 6.53909 36.263 5.17657C36.7616 4.04801 37.4964 3.04108 38.4172 2.2246C39.274 1.48639 40.2621 0.918438 41.3292 0.550866C42.3819 0.188681 43.4865 0.00259843 44.599 1.89107e-05C46.1016 -0.0250164 47.5943 0.24857 48.9916 0.805104C50.2228 1.28992 51.3339 2.03949 52.2474 3.00143L48.739 7.99437Z" fill="#7B3972"/>
<path d="M54.991 30.911V0.805115H69.4667V6.80088H61.4535V12.7119H68.8071V18.3616H61.4535V24.7882H69.9439V30.911H54.991Z" fill="#7B3972"/>
<path d="M4.2101 35.9534C4.04556 35.7059 3.82009 35.5056 3.5557 35.3719C3.2913 35.2382 2.99699 35.1758 2.70148 35.1907C2.49566 35.1921 2.29073 35.2182 2.09102 35.2684C1.89897 35.3222 1.71826 35.4107 1.55774 35.5297C1.40135 35.6462 1.27205 35.7956 1.17883 35.9675C1.08351 36.1655 1.03545 36.3832 1.03849 36.6031C1.02644 36.7529 1.04513 36.9035 1.09342 37.0456C1.14171 37.1878 1.21855 37.3184 1.31917 37.4294C1.53402 37.6346 1.78351 37.7996 2.05593 37.9167C2.37232 38.0454 2.6956 38.1562 3.02426 38.2486C3.35853 38.3465 3.68095 38.4815 3.98557 38.6511C4.27586 38.8133 4.52734 39.0375 4.72233 39.3079C4.93506 39.6419 5.03816 40.0347 5.01704 40.4308C5.02439 40.7627 4.94708 41.0909 4.7925 41.3842C4.64827 41.6592 4.44731 41.9 4.20309 42.0904C3.95337 42.2819 3.67349 42.43 3.3751 42.5283C3.07944 42.6313 2.76876 42.6838 2.45589 42.6836C1.98906 42.6848 1.52654 42.5936 1.09463 42.4153C0.658315 42.2275 0.28023 41.925 0 41.5396L0.701684 41.017C0.868809 41.3111 1.11108 41.555 1.40337 41.7232C1.7276 41.9025 2.09305 41.9926 2.46291 41.9845C2.6656 41.9827 2.86679 41.9493 3.05934 41.8856C3.25215 41.8269 3.43282 41.7336 3.59262 41.6102C3.74973 41.4896 3.881 41.3382 3.97855 41.1653C4.08507 40.9786 4.13848 40.766 4.13292 40.5509C4.14622 40.304 4.08769 40.0586 3.96451 39.8446C3.84581 39.6672 3.69019 39.5178 3.50842 39.4068C3.31007 39.2754 3.09538 39.1709 2.86989 39.0961L2.1682 38.856C1.9156 38.7712 1.67001 38.6794 1.43144 38.5805C1.20047 38.4809 0.985319 38.3477 0.792903 38.185C0.602308 38.0196 0.449175 37.8149 0.343825 37.5848C0.222602 37.2995 0.165113 36.9909 0.175421 36.6808C0.168026 36.3415 0.240142 36.0052 0.385926 35.6992C0.523264 35.4237 0.719812 35.1825 0.961307 34.993C1.20118 34.8138 1.47261 34.682 1.76123 34.6045C2.0617 34.5141 2.37382 34.4689 2.68745 34.4704C3.09708 34.4645 3.50413 34.5364 3.88733 34.6822C4.27232 34.8349 4.6161 35.0769 4.89074 35.3884L4.2101 35.9534Z" fill="#3B3A3D"/>
<path d="M8.51844 42.5H7.71852V34.654H8.51142L8.51844 42.5Z" fill="#3B3A3D"/>
<path d="M17.3737 41.3065V34.654H18.1666V42.5H17.1913L12.5461 35.7839V42.5H11.7322V34.654H12.7286L17.3737 41.3065Z" fill="#3B3A3D"/>
<path d="M27.1481 36.0947C26.8777 35.8142 26.5561 35.5888 26.2009 35.4308C25.7963 35.2628 25.3614 35.181 24.9238 35.1907C24.4602 35.1834 24.0006 35.2774 23.5766 35.4661C23.1947 35.6408 22.8531 35.8933 22.5732 36.2077C22.2962 36.5241 22.0819 36.8908 21.9417 37.2882C21.8043 37.7046 21.7402 38.1419 21.7522 38.5805C21.7514 39.0189 21.8274 39.454 21.9767 39.8658C22.1152 40.264 22.3298 40.6311 22.6083 40.9464C22.8819 41.247 23.2107 41.4916 23.5766 41.6667C24.0006 41.8554 24.4602 41.9494 24.9238 41.9421C25.3145 41.9433 25.7037 41.8935 26.0816 41.7938C26.4291 41.6986 26.7637 41.5611 27.078 41.3842V38.7924H25.2185V38.0862H27.8709V41.928C27.4196 42.1941 26.9329 42.3938 26.4254 42.5212C25.9359 42.6553 25.4311 42.7242 24.9238 42.726C24.3704 42.7341 23.8213 42.6284 23.3099 42.4153C22.8268 42.2208 22.3877 41.9301 22.0188 41.5608C21.6524 41.1864 21.3638 40.7422 21.1698 40.2543C20.7584 39.1939 20.7584 38.0166 21.1698 36.9562C21.3591 36.4726 21.643 36.0321 22.0046 35.6609C22.3662 35.2897 22.7981 34.9953 23.2749 34.7952C23.7873 34.586 24.3357 34.4804 24.8887 34.4845C25.4381 34.4712 25.9851 34.5597 26.5026 34.7458C26.9531 34.9222 27.3618 35.1916 27.7025 35.5368L27.1481 36.0947Z" fill="#3B3A3D"/>
<path d="M30.9232 42.5H29.997L33.3861 34.654H34.158L37.5471 42.5H36.6209L35.7859 40.4379H31.7793L30.9232 42.5ZM32.074 39.6752H35.4561L33.7721 35.5509L32.074 39.6752Z" fill="#3B3A3D"/>
<path d="M39.7083 34.654H41.9747C42.6392 34.6175 43.2972 34.801 43.8482 35.1766C44.0676 35.3752 44.243 35.6181 44.3631 35.8894C44.4831 36.1607 44.5452 36.4544 44.5452 36.7514C44.5452 37.0484 44.4831 37.3421 44.3631 37.6134C44.243 37.8847 44.0676 38.1276 43.8482 38.3263C43.2995 38.7072 42.6403 38.8936 41.9747 38.8559H40.5012V42.5H39.7083V34.654ZM40.5012 38.1356H41.7783C42.0787 38.1417 42.3786 38.106 42.6694 38.0297C42.8826 37.9687 43.0825 37.8681 43.2588 37.7331C43.3996 37.618 43.5104 37.4701 43.5816 37.3023C43.7123 36.959 43.7123 36.5792 43.5816 36.2359C43.5088 36.067 43.3984 35.9171 43.2588 35.798C43.0836 35.6628 42.8832 35.5643 42.6694 35.5085C42.3786 35.4321 42.0787 35.3965 41.7783 35.4026H40.5012V38.1356Z" fill="#3B3A3D"/>
<path d="M54.7314 38.5805C54.7375 39.154 54.6301 39.723 54.4156 40.2543C54.2191 40.7425 53.9281 41.1866 53.5595 41.5608C53.1869 41.9149 52.748 42.191 52.2684 42.3729C51.2343 42.7869 50.0819 42.7869 49.0477 42.3729C48.5646 42.1784 48.1255 41.8878 47.7566 41.5184C47.3926 41.1583 47.1039 40.7284 46.9076 40.2543C46.4962 39.1939 46.4962 38.0166 46.9076 36.9562C47.0991 36.4691 47.3881 36.0268 47.7566 35.6568C48.1251 35.2852 48.5642 34.9922 49.0477 34.7952C50.0819 34.3812 51.2343 34.3812 52.2684 34.7952C52.7517 34.9927 53.1907 35.2857 53.5595 35.6569C53.9283 36.028 54.2194 36.4699 54.4156 36.9562C54.6237 37.4722 54.7309 38.0237 54.7314 38.5805ZM53.8683 38.5805C53.8714 38.1403 53.7978 37.7028 53.6508 37.2882C53.5105 36.8908 53.2962 36.5241 53.0192 36.2076C52.7354 35.8946 52.3918 35.6424 52.0088 35.4661C51.5838 35.2845 51.1268 35.1909 50.6651 35.1909C50.2034 35.1909 49.7464 35.2845 49.3214 35.4661C48.9395 35.6408 48.5979 35.8933 48.318 36.2076C48.0388 36.5237 47.8221 36.8904 47.6794 37.2882C47.5357 37.7037 47.4622 38.1405 47.4619 38.5805C47.4622 39.0182 47.5357 39.4527 47.6794 39.8658C47.8168 40.2688 48.0313 40.6407 48.3109 40.9605C48.5962 41.2598 48.9371 41.4997 49.3144 41.6667C49.7394 41.8483 50.1964 41.9419 50.6581 41.9419C51.1198 41.9419 51.5768 41.8483 52.0018 41.6667C52.3801 41.498 52.7231 41.2584 53.0122 40.9605C53.2907 40.6452 53.5053 40.2781 53.6437 39.88C53.7925 39.4633 53.8661 39.0232 53.8613 38.5805H53.8683Z" fill="#3B3A3D"/>
<path d="M58.1977 42.5H57.4048V34.654H59.8045C60.4711 34.6185 61.131 34.8019 61.685 35.1766C61.9208 35.3615 62.108 35.6017 62.2304 35.8762C62.3527 36.1508 62.4064 36.4512 62.3867 36.7514C62.4067 37.2716 62.2227 37.7789 61.8745 38.1639C61.4813 38.5625 60.9517 38.7949 60.3939 38.8136L62.6393 42.5353H61.657L59.5519 38.8913H58.1977V42.5ZM58.1977 38.1215H59.601C59.9038 38.1276 60.206 38.092 60.4992 38.0156C60.7123 37.9546 60.9123 37.854 61.0886 37.719C61.2295 37.6056 61.3383 37.4571 61.4044 37.2882C61.5351 36.9449 61.5351 36.5651 61.4044 36.2218C61.3367 36.0518 61.2282 35.9014 61.0886 35.7839C60.9134 35.6487 60.713 35.5502 60.4992 35.4944C60.2196 35.4217 59.9319 35.3861 59.6431 35.3884H58.2398L58.1977 38.1215Z" fill="#3B3A3D"/>
<path d="M65.825 41.7726H70.0351V42.4788H65.0321V34.654H69.8667V35.3602H65.825V38.0297H69.6071V38.7359H65.825V41.7726Z" fill="#3B3A3D"/>
<path d="M8.8763 46.1299C8.78415 46.01 8.6635 45.9153 8.52545 45.8545C8.38905 45.7909 8.24075 45.7572 8.09041 45.7557C7.84214 45.7548 7.59994 45.8328 7.39834 45.9787C7.19674 46.1245 7.04604 46.3307 6.96772 46.5678C6.85092 46.8942 6.85092 47.2513 6.96772 47.5777C7.02051 47.7283 7.10149 47.8673 7.20629 47.9873C7.31241 48.1044 7.4414 48.1981 7.5852 48.2627C7.74681 48.3326 7.92158 48.3664 8.09743 48.3616C8.26798 48.366 8.43688 48.3271 8.58861 48.2486C8.7314 48.1698 8.85394 48.0586 8.94647 47.9237L9.31836 48.2062L9.19206 48.3545C9.11698 48.4265 9.03468 48.4904 8.94647 48.5452C8.83129 48.613 8.70889 48.6675 8.58159 48.7076C8.42286 48.7583 8.25689 48.7822 8.09041 48.7783C7.84849 48.7817 7.60884 48.731 7.38873 48.6299C7.18865 48.5382 7.0095 48.406 6.86246 48.2415C6.71873 48.086 6.60668 47.9037 6.53267 47.7048C6.45612 47.509 6.4157 47.3008 6.41339 47.0904C6.40966 46.849 6.45255 46.6091 6.53969 46.3842C6.61624 46.177 6.73314 45.9873 6.88351 45.8263C7.03693 45.6699 7.2209 45.5473 7.42381 45.4661C7.64686 45.3768 7.8855 45.3336 8.1255 45.339C8.34172 45.3377 8.55616 45.3784 8.75701 45.459C8.95541 45.5399 9.1295 45.6714 9.26222 45.8404L8.8763 46.1299Z" fill="#3B3A3D"/>
<path d="M10.0481 47.7543C10.0465 47.8454 10.0682 47.9354 10.1113 48.0156C10.1531 48.0926 10.2076 48.1619 10.2726 48.2204C10.345 48.2752 10.4255 48.3181 10.5112 48.3475C10.5997 48.3759 10.692 48.3902 10.7849 48.3899C10.9024 48.3904 11.0182 48.3613 11.1217 48.3051C11.2197 48.2386 11.3072 48.1577 11.3813 48.065L11.6971 48.3051C11.5824 48.4514 11.4348 48.568 11.2664 48.6454C11.098 48.7228 10.9137 48.7586 10.7287 48.75C10.5704 48.7519 10.4132 48.7232 10.2656 48.6653C10.1314 48.6105 10.0096 48.5288 9.90777 48.4252C9.81271 48.3178 9.73888 48.1932 9.69025 48.0579C9.63573 47.9137 9.60952 47.7602 9.61306 47.606C9.6112 47.4489 9.6398 47.293 9.69727 47.1469C9.75087 47.011 9.82942 46.8864 9.92882 46.7797C10.0307 46.676 10.1524 46.5943 10.2867 46.5396C10.4293 46.4818 10.582 46.453 10.7358 46.4548C10.905 46.4478 11.0734 46.4817 11.2269 46.5537C11.3535 46.6172 11.4639 46.709 11.5497 46.8221C11.6372 46.9301 11.7017 47.0551 11.7392 47.1893C11.7755 47.3252 11.7944 47.4652 11.7953 47.606V47.7543H10.0481ZM11.3532 47.4223C11.3548 47.3357 11.3406 47.2495 11.3111 47.1681C11.2868 47.0939 11.246 47.0263 11.1919 46.9704C11.1417 46.9063 11.0731 46.8594 10.9954 46.8362C10.911 46.8009 10.8201 46.784 10.7287 46.7867C10.6321 46.7829 10.5359 46.8023 10.4481 46.8432C10.3669 46.8785 10.2931 46.9288 10.2305 46.9916C10.1774 47.0536 10.1325 47.1225 10.0972 47.1964C10.0686 47.2685 10.052 47.3448 10.0481 47.4223H11.3532Z" fill="#3B3A3D"/>
<path d="M12.2935 46.5042H12.7075V46.8432C12.7631 46.7221 12.8568 46.6229 12.9741 46.5607C13.1128 46.4884 13.2671 46.452 13.4232 46.4548C13.5253 46.4545 13.6269 46.4688 13.7249 46.4972C13.8192 46.5303 13.9053 46.5833 13.9775 46.6525C14.0523 46.7259 14.1098 46.8152 14.1459 46.9138C14.1908 47.0333 14.2123 47.1604 14.2091 47.2881V48.7006H13.8021V47.4011C13.8036 47.3122 13.7894 47.2237 13.76 47.1398C13.7368 47.075 13.6983 47.0168 13.6478 46.9703C13.6029 46.9244 13.5475 46.8905 13.4864 46.8715C13.426 46.8608 13.3643 46.8608 13.3039 46.8715C13.2251 46.8567 13.1442 46.8567 13.0654 46.8715C12.9908 46.901 12.9237 46.9468 12.8689 47.0056C12.8133 47.0725 12.7705 47.1491 12.7426 47.2316C12.713 47.3397 12.6989 47.4515 12.7005 47.5636V48.7288H12.2865L12.2935 46.5042Z" fill="#3B3A3D"/>
<path d="M16.0124 46.8644H15.437V47.8602C15.437 47.9237 15.437 47.9802 15.437 48.0438C15.4372 48.0998 15.4491 48.1552 15.4721 48.2062C15.4902 48.2525 15.5221 48.292 15.5633 48.3192C15.6185 48.3516 15.6821 48.3664 15.7458 48.3616H15.8931C15.9451 48.3514 15.9949 48.3323 16.0405 48.3051V48.6865C15.9821 48.7188 15.9175 48.738 15.851 48.7429C15.7904 48.7485 15.7293 48.7485 15.6686 48.7429C15.5415 48.7496 15.4145 48.7279 15.2967 48.6794C15.2163 48.6399 15.1483 48.5788 15.1002 48.5028C15.0623 48.4304 15.0385 48.3513 15.0301 48.2698C15.0301 48.178 15.0301 48.0932 15.0301 48.0014V46.8644H14.5249V46.5042H15.002V45.904H15.437V46.5184H16.0335L16.0124 46.8644Z" fill="#3B3A3D"/>
<path d="M16.5457 46.5043H16.9597V46.8433C16.9865 46.7845 17.0247 46.7317 17.072 46.6879C17.1154 46.6365 17.1677 46.5934 17.2263 46.5608C17.2832 46.5263 17.3446 46.5002 17.4088 46.4831C17.4763 46.4731 17.5448 46.4731 17.6123 46.4831C17.6729 46.4758 17.7341 46.4758 17.7947 46.4831V46.9351H17.6965H17.5982C17.5119 46.9293 17.4254 46.942 17.3443 46.9725C17.2633 47.0029 17.1896 47.0503 17.1281 47.1116C17.0121 47.2623 16.957 47.4514 16.9737 47.6413V48.7288H16.5597L16.5457 46.5043Z" fill="#3B3A3D"/>
<path d="M18.4683 47.7543C18.4667 47.8454 18.4884 47.9354 18.5315 48.0156C18.5742 48.0939 18.6314 48.1634 18.6999 48.2204C18.7684 48.2771 18.847 48.3202 18.9314 48.3475C19.02 48.3753 19.1123 48.3896 19.2051 48.3899C19.3226 48.3904 19.4385 48.3613 19.5419 48.3051C19.6399 48.2386 19.7274 48.1577 19.8015 48.065L20.1173 48.3051C20.0026 48.4514 19.855 48.568 19.6866 48.6454C19.5182 48.7228 19.3339 48.7586 19.149 48.75C18.9906 48.7519 18.8334 48.7232 18.6858 48.6653C18.5516 48.6105 18.4298 48.5288 18.328 48.4252C18.2329 48.3178 18.1591 48.1932 18.1105 48.0579C18.0559 47.9137 18.0297 47.7602 18.0333 47.606C18.0314 47.4489 18.06 47.293 18.1175 47.1469C18.1711 47.011 18.2496 46.8864 18.349 46.7797C18.4509 46.676 18.5726 46.5943 18.7069 46.5396C18.8496 46.4818 19.0022 46.453 19.156 46.4548C19.3252 46.4478 19.4936 46.4817 19.6471 46.5537C19.7737 46.6172 19.8841 46.709 19.9699 46.8221C20.0574 46.9301 20.1219 47.0551 20.1594 47.1893C20.1957 47.3252 20.2146 47.4652 20.2155 47.606V47.7543H18.4683ZM19.7735 47.4223C19.775 47.3357 19.7608 47.2495 19.7314 47.1681C19.707 47.0939 19.6662 47.0263 19.6121 46.9704C19.5632 46.9081 19.4973 46.8615 19.4226 46.8362C19.3356 46.8015 19.2425 46.7847 19.149 46.7867C19.0523 46.7829 18.9561 46.8023 18.8683 46.8432C18.7878 46.8759 18.7158 46.9266 18.6578 46.9916C18.6002 47.0516 18.5528 47.1208 18.5174 47.1964C18.4888 47.2685 18.4722 47.3448 18.4683 47.4223H19.7735Z" fill="#3B3A3D"/>
<path d="M22.1522 46.8644H21.682V46.5043H22.1522V46.017C22.1363 45.7855 22.1954 45.555 22.3206 45.3602C22.3943 45.2834 22.4844 45.2244 22.5841 45.1877C22.6837 45.151 22.7904 45.1376 22.896 45.1483H23.0363C23.092 45.1387 23.149 45.1387 23.2047 45.1483L23.1556 45.5509H23.0433H22.924C22.8615 45.5381 22.7971 45.5381 22.7346 45.5509C22.6915 45.5741 22.6553 45.6081 22.6293 45.6497C22.6006 45.6967 22.5838 45.7501 22.5802 45.8051C22.576 45.8733 22.576 45.9417 22.5802 46.0099V46.5113H23.0714V46.8715H22.5802V48.7288H22.1662L22.1522 46.8644Z" fill="#3B3A3D"/>
<path d="M23.4152 47.606C23.4139 47.4512 23.4425 47.2977 23.4994 47.154C23.5605 47.0187 23.6435 46.8946 23.745 46.7867C23.8529 46.6822 23.979 46.5984 24.1169 46.5396C24.4081 46.4263 24.7308 46.4263 25.0221 46.5396C25.16 46.5984 25.286 46.6822 25.394 46.7867C25.5007 46.8937 25.5853 47.0208 25.6431 47.1608C25.7009 47.3008 25.7306 47.4508 25.7306 47.6024C25.7306 47.754 25.7009 47.9041 25.6431 48.0441C25.5853 48.184 25.5007 48.3111 25.394 48.4181C25.286 48.5226 25.16 48.6064 25.0221 48.6653C24.7308 48.7785 24.4081 48.7785 24.1169 48.6653C23.979 48.6064 23.8529 48.5226 23.745 48.4181C23.6435 48.3102 23.5605 48.1861 23.4994 48.0509C23.4432 47.9094 23.4146 47.7583 23.4152 47.606ZM23.8573 47.606C23.8552 47.7093 23.8719 47.8122 23.9064 47.9096C23.9369 47.9982 23.9846 48.0799 24.0467 48.1497C24.1096 48.2172 24.1862 48.2702 24.2713 48.3051C24.3665 48.3461 24.4695 48.3654 24.573 48.3616C24.6741 48.3644 24.7746 48.3451 24.8677 48.3051C24.9528 48.2702 25.0294 48.2172 25.0922 48.1497C25.1575 48.0822 25.2056 47.9998 25.2326 47.9096C25.2693 47.8126 25.2883 47.7098 25.2887 47.606C25.2956 47.5085 25.2861 47.4106 25.2606 47.3164C25.2337 47.2262 25.1856 47.1438 25.1203 47.0763C25.0574 47.0088 24.9808 46.9559 24.8958 46.9209C24.8027 46.8809 24.7022 46.8617 24.6011 46.8644C24.4976 46.8606 24.3945 46.8799 24.2993 46.9209C24.2142 46.9559 24.1377 47.0088 24.0748 47.0763C24.0126 47.1462 23.9649 47.2278 23.9345 47.3164C23.8922 47.4077 23.8661 47.5057 23.8573 47.606Z" fill="#3B3A3D"/>
<path d="M26.243 46.5043H26.664V46.8432C26.6882 46.7848 26.724 46.7319 26.7692 46.6879C26.8157 46.6397 26.8675 46.597 26.9236 46.5607C26.983 46.5264 27.0467 46.5003 27.1131 46.4831C27.1805 46.4722 27.2492 46.4722 27.3166 46.4831C27.3772 46.4757 27.4384 46.4757 27.499 46.4831V46.935H27.4008H27.2955C27.2103 46.9294 27.1248 46.9422 27.0449 46.9727C26.965 47.0031 26.8925 47.0505 26.8324 47.1116C26.7139 47.2612 26.6562 47.4505 26.671 47.6413V48.7288H26.243V46.5043Z" fill="#3B3A3D"/>
<path d="M30.1233 48.0226C30.1967 48.1372 30.3015 48.228 30.425 48.2839C30.5462 48.3396 30.6778 48.3685 30.8109 48.3687C30.8855 48.3786 30.961 48.3786 31.0355 48.3687C31.1096 48.342 31.1803 48.3064 31.246 48.2627C31.3063 48.2151 31.3584 48.1578 31.4004 48.0932C31.4378 48.0189 31.4571 47.9365 31.4565 47.8531C31.4591 47.799 31.4497 47.745 31.4291 47.6949C31.4085 47.6448 31.3771 47.6 31.3372 47.5636C31.249 47.4927 31.1493 47.4377 31.0425 47.4012C30.9232 47.3517 30.7969 47.3093 30.6566 47.267C30.5205 47.2295 30.3905 47.1724 30.2706 47.0975C30.1525 47.021 30.052 46.9198 29.9759 46.8009C29.8873 46.6469 29.8458 46.47 29.8567 46.2924C29.8586 46.1881 29.8801 46.0851 29.9198 45.9887C29.9616 45.8776 30.0261 45.7765 30.1093 45.6921C30.2091 45.5961 30.3256 45.5195 30.4531 45.4661C30.6146 45.406 30.7861 45.3772 30.9583 45.3814C31.1292 45.3796 31.2995 45.4034 31.4635 45.452C31.6335 45.5034 31.7832 45.6071 31.8915 45.7486L31.5337 46.0805C31.4757 45.993 31.3958 45.9224 31.3021 45.8757C31.1966 45.8184 31.0782 45.7892 30.9583 45.791C30.8534 45.7901 30.749 45.8068 30.6496 45.8404C30.5775 45.8714 30.5111 45.9144 30.4531 45.9675C30.4089 46.0138 30.3754 46.0692 30.3548 46.13C30.3457 46.1837 30.3457 46.2386 30.3548 46.2924C30.3504 46.3516 30.3595 46.411 30.3813 46.4661C30.4032 46.5211 30.4374 46.5704 30.4812 46.6102C30.5663 46.6905 30.6665 46.7529 30.7759 46.7938C30.8951 46.8362 31.0215 46.8786 31.1618 46.9139C31.2952 46.9527 31.4245 47.0048 31.5477 47.0692C31.6633 47.1372 31.7637 47.2286 31.8424 47.3376C31.9281 47.4773 31.9697 47.6398 31.9617 47.8037C31.9648 47.9502 31.9336 48.0954 31.8705 48.2274C31.8154 48.3499 31.7339 48.4585 31.6319 48.5452C31.5261 48.635 31.4048 48.7044 31.2741 48.75C31.1306 48.7929 30.9816 48.8143 30.832 48.8136C30.6285 48.8147 30.4264 48.7788 30.2356 48.7077C30.0591 48.6359 29.9061 48.516 29.7935 48.3616L30.1233 48.0226Z" fill="#7B3972"/>
<path d="M32.3687 47.606C32.3674 47.4512 32.396 47.2977 32.4529 47.154C32.514 47.0187 32.597 46.8946 32.6985 46.7867C32.8064 46.6822 32.9325 46.5984 33.0704 46.5396C33.3616 46.4263 33.6843 46.4263 33.9755 46.5396C34.1134 46.5984 34.2395 46.6822 34.3474 46.7867C34.4541 46.8937 34.5388 47.0208 34.5966 47.1608C34.6544 47.3008 34.6841 47.4508 34.6841 47.6024C34.6841 47.754 34.6544 47.9041 34.5966 48.0441C34.5388 48.184 34.4541 48.3111 34.3474 48.4181C34.2395 48.5226 34.1134 48.6064 33.9755 48.6653C33.6843 48.7785 33.3616 48.7785 33.0704 48.6653C32.9325 48.6064 32.8064 48.5226 32.6985 48.4181C32.597 48.3102 32.514 48.1861 32.4529 48.0509C32.3967 47.9094 32.3681 47.7583 32.3687 47.606ZM32.8107 47.606C32.8087 47.7093 32.8254 47.8122 32.8599 47.9096C32.8903 47.9982 32.938 48.0799 33.0002 48.1497C33.0631 48.2172 33.1397 48.2702 33.2247 48.3051C33.3199 48.3461 33.423 48.3654 33.5265 48.3616C33.6276 48.3644 33.7281 48.3451 33.8212 48.3051C33.9072 48.2719 33.9841 48.2187 34.0457 48.1497C34.1104 48.0805 34.1605 47.9988 34.1931 47.9096C34.2584 47.7101 34.2584 47.4947 34.1931 47.2952C34.1605 47.206 34.1104 47.1243 34.0457 47.0551C33.9841 46.9862 33.9072 46.9329 33.8212 46.8997C33.7281 46.8597 33.6276 46.8405 33.5265 46.8432C33.423 46.8394 33.3199 46.8587 33.2247 46.8997C33.1397 46.9347 33.0631 46.9877 33.0002 47.0551C32.938 47.125 32.8903 47.2066 32.8599 47.2952C32.8248 47.3949 32.8082 47.5002 32.8107 47.606Z" fill="#7B3972"/>
<path d="M36.7542 47.0904C36.685 47.0167 36.6044 46.9547 36.5156 46.9068C36.4215 46.8619 36.3181 46.8401 36.2139 46.8432C36.1121 46.841 36.0112 46.8627 35.9192 46.9068C35.8376 46.9472 35.7658 47.005 35.7087 47.0763C35.6519 47.1539 35.607 47.2395 35.5754 47.3305C35.5472 47.4244 35.533 47.522 35.5333 47.6201C35.5347 47.7185 35.5513 47.8162 35.5824 47.9096C35.6162 47.9982 35.6662 48.0796 35.7298 48.1497C35.79 48.217 35.8643 48.2701 35.9473 48.3051C36.0375 48.3461 36.136 48.3655 36.235 48.3616C36.3386 48.3669 36.4419 48.3475 36.5367 48.3051C36.6244 48.2587 36.7029 48.1965 36.7682 48.1215L37.0559 48.4181C36.9558 48.5337 36.8277 48.6212 36.684 48.6723C36.5406 48.7267 36.3882 48.753 36.235 48.75C36.0771 48.7541 35.9199 48.7278 35.7719 48.6723C35.638 48.62 35.5162 48.5407 35.414 48.4393C35.3117 48.3361 35.2307 48.2138 35.1754 48.0791C35.0635 47.7786 35.0635 47.4474 35.1754 47.1469C35.2273 47.01 35.306 46.8851 35.407 46.7797C35.515 46.6735 35.6441 46.5917 35.7859 46.5395C35.9357 46.4811 36.0953 46.4523 36.256 46.4548C36.4119 46.4548 36.5665 46.4835 36.7121 46.5395C36.8557 46.5981 36.9849 46.6872 37.091 46.8008L36.7542 47.0904Z" fill="#7B3972"/>
<path d="M37.3506 45.7204C37.3497 45.6811 37.3567 45.6422 37.3711 45.6057C37.3856 45.5693 37.4073 45.5362 37.4348 45.5085C37.4629 45.4789 37.4967 45.4555 37.5341 45.4397C37.5715 45.4239 37.6118 45.4161 37.6524 45.4167C37.7318 45.4185 37.8075 45.4511 37.8637 45.5076C37.9199 45.5642 37.9523 45.6404 37.9541 45.7204C37.9547 45.7612 37.9469 45.8017 37.9312 45.8394C37.9155 45.8771 37.8922 45.9111 37.8629 45.9393C37.8353 45.967 37.8024 45.9888 37.7663 46.0034C37.7301 46.018 37.6913 46.025 37.6524 46.024C37.6122 46.0261 37.5721 46.0196 37.5346 46.005C37.497 45.9905 37.463 45.9682 37.4345 45.9396C37.4061 45.911 37.384 45.8767 37.3695 45.8389C37.3551 45.8012 37.3486 45.7608 37.3506 45.7204ZM37.4419 46.5043H37.8909V48.7288H37.4769L37.4419 46.5043Z" fill="#7B3972"/>
<path d="M38.5225 46.7726C38.6416 46.6671 38.7798 46.5856 38.9294 46.5325C39.0756 46.4793 39.2301 46.453 39.3855 46.4548C39.5257 46.4498 39.6657 46.4689 39.7995 46.5113C39.9033 46.5451 39.999 46.6004 40.0802 46.6737C40.1508 46.7382 40.2059 46.8178 40.2416 46.9068C40.2784 46.9939 40.2975 47.0875 40.2977 47.1822V48.5099C40.3009 48.5734 40.3009 48.6371 40.2977 48.7006H39.9328C39.9328 48.5876 39.9328 48.4746 39.9328 48.3616C39.8564 48.4945 39.7413 48.6005 39.603 48.6653C39.4657 48.7245 39.3174 48.7534 39.168 48.75C39.0726 48.7642 38.9757 48.7642 38.8803 48.75C38.7928 48.725 38.7115 48.6817 38.6417 48.6229C38.5732 48.566 38.5161 48.4965 38.4733 48.4181C38.4355 48.3288 38.4164 48.2326 38.4172 48.1356C38.4113 48.0091 38.443 47.8837 38.5084 47.7754C38.5758 47.6785 38.6647 47.5988 38.768 47.5424C38.886 47.478 39.0142 47.4349 39.147 47.4153C39.302 47.3862 39.4594 47.372 39.6171 47.3729H39.9188V47.2458C39.9181 47.1898 39.9061 47.1346 39.8837 47.0833C39.8629 47.0248 39.8293 46.9717 39.7855 46.928C39.7411 46.8832 39.6887 46.8472 39.6311 46.822C39.5544 46.8102 39.4763 46.8102 39.3996 46.822C39.3296 46.814 39.259 46.814 39.1891 46.822L39.0277 46.8785C38.9793 46.9 38.9344 46.9285 38.8943 46.9633L38.7821 47.048L38.5225 46.7726ZM39.6873 47.6412C39.5891 47.6343 39.4907 47.6343 39.3925 47.6412C39.2961 47.6466 39.2013 47.6681 39.1119 47.7048C39.0327 47.7299 38.9606 47.7734 38.9014 47.8319C38.8502 47.8903 38.8226 47.9659 38.8242 48.0438C38.8194 48.0968 38.8285 48.1502 38.8507 48.1985C38.8729 48.2469 38.9073 48.2885 38.9505 48.3192C39.0546 48.373 39.1703 48.3997 39.2873 48.3969C39.3886 48.4022 39.4897 48.3828 39.582 48.3404C39.6562 48.3072 39.7213 48.2563 39.7715 48.1921C39.8188 48.1309 39.8545 48.0615 39.8767 47.9873C39.8986 47.9139 39.9104 47.8379 39.9118 47.7613V47.6201L39.6873 47.6412Z" fill="#7B3972"/>
<path d="M40.9292 45.1978H41.3432V48.7288H40.9292V45.1978Z" fill="#7B3972"/>
<path d="M43.6377 45.4238H45.7428V45.8404H44.0728V46.815H45.6095V47.2317H44.0658V48.2839H45.82V48.7288H43.6377V45.4238Z" fill="#7B3972"/>
<path d="M46.3111 46.5042H46.7251V46.8432C46.7808 46.7221 46.8745 46.6229 46.9918 46.5607C47.1304 46.4884 47.2847 46.452 47.4409 46.4548C47.5429 46.4545 47.6445 46.4688 47.7426 46.4972C47.8357 46.5325 47.9214 46.5852 47.9952 46.6525C48.0699 46.7259 48.1275 46.8152 48.1636 46.9138C48.2085 47.0333 48.2299 47.1604 48.2267 47.2881V48.7006H47.8127V47.4011C47.8244 47.3144 47.8244 47.2265 47.8127 47.1398C47.7871 47.0763 47.7489 47.0186 47.7005 46.9703C47.6557 46.9244 47.6002 46.8905 47.5391 46.8715C47.4787 46.8608 47.417 46.8608 47.3567 46.8715C47.2778 46.8562 47.1969 46.8562 47.1181 46.8715C47.0435 46.901 46.9764 46.9468 46.9216 47.0056C46.8633 47.0705 46.8201 47.1478 46.7953 47.2316C46.7632 47.3393 46.7467 47.4511 46.7462 47.5636V48.7288H46.3111V46.5042Z" fill="#7B3972"/>
<path d="M50.0581 46.8644H49.4617V47.8602C49.4582 47.9213 49.4582 47.9826 49.4617 48.0438C49.4505 48.0974 49.4505 48.1527 49.4617 48.2062C49.4773 48.2539 49.5098 48.2941 49.5529 48.3192C49.6081 48.3516 49.6717 48.3664 49.7354 48.3616H49.8827C49.9325 48.3514 49.98 48.3323 50.0231 48.3051V48.6864C49.9647 48.7188 49.9 48.738 49.8336 48.7429C49.7729 48.7489 49.7118 48.7489 49.6512 48.7429C49.5264 48.749 49.4018 48.7273 49.2863 48.6794C49.2045 48.642 49.136 48.5804 49.0898 48.5028C49.0488 48.4317 49.0247 48.3519 49.0196 48.2698C49.0196 48.178 49.0196 48.0932 49.0196 48.0014V46.8644H48.5425V46.5042H49.0196V45.904H49.4336V46.5184H50.0301L50.0581 46.8644Z" fill="#7B3972"/>
<path d="M50.9002 47.7543C50.8985 47.8454 50.9203 47.9354 50.9633 48.0156C51.0028 48.0941 51.0577 48.1638 51.1247 48.2204C51.1955 48.2736 51.2734 48.3164 51.3563 48.3475C51.4471 48.3758 51.5418 48.3901 51.6369 48.3898C51.7525 48.3929 51.8667 48.3635 51.9667 48.3051C52.067 48.2388 52.1568 48.1579 52.2334 48.065L52.5421 48.3051C52.4297 48.4521 52.2835 48.5695 52.116 48.647C51.9485 48.7245 51.7649 48.7599 51.5808 48.75C51.4201 48.7525 51.2605 48.7237 51.1107 48.6653C50.9794 48.6087 50.8603 48.5272 50.7598 48.4252C50.6625 48.3182 50.5863 48.1936 50.5353 48.0579C50.4841 47.9128 50.458 47.7599 50.4581 47.606C50.4562 47.4489 50.4848 47.293 50.5423 47.1469C50.5983 47.0106 50.6792 46.886 50.7809 46.7797C50.8814 46.6777 51.0005 46.5961 51.1317 46.5396C51.2768 46.4817 51.4317 46.4529 51.5878 46.4548C51.7548 46.4478 51.9209 46.4817 52.072 46.5537C52.2005 46.6171 52.3132 46.7088 52.4018 46.8221C52.4873 46.9304 52.5494 47.0554 52.5842 47.1893C52.6258 47.3242 52.6471 47.4647 52.6474 47.606V47.7543H50.9002ZM52.2053 47.4223C52.1993 47.3364 52.1852 47.2513 52.1632 47.1681C52.1361 47.0953 52.0956 47.0282 52.0439 46.9704C51.9923 46.9079 51.9242 46.8614 51.8474 46.8362C51.7607 46.8003 51.6674 46.7835 51.5738 46.7867C51.3897 46.7875 51.2133 46.8611 51.0826 46.9915C51.0267 47.0515 50.9815 47.1208 50.9493 47.1963C50.917 47.2673 50.9002 47.3443 50.9002 47.4223H52.2053Z" fill="#7B3972"/>
<path d="M53.1385 46.5043H53.5525V46.8432C53.5818 46.786 53.6197 46.7336 53.6648 46.6879C53.7112 46.6397 53.763 46.597 53.8192 46.5608C53.8786 46.5264 53.9423 46.5003 54.0086 46.4831C54.0737 46.4728 54.14 46.4728 54.2051 46.4831C54.268 46.4754 54.3316 46.4754 54.3945 46.4831V46.9351H54.2963H54.1911C54.1057 46.9284 54.02 46.9408 53.9399 46.9713C53.8599 47.0018 53.7875 47.0497 53.7279 47.1116C53.6095 47.2612 53.5518 47.4505 53.5666 47.6413V48.7288H53.1526L53.1385 46.5043Z" fill="#7B3972"/>
<path d="M54.8366 46.5043H55.2506V46.8221C55.3306 46.7018 55.4424 46.6064 55.5734 46.5466C55.7102 46.4852 55.8586 46.4539 56.0084 46.4548C56.1645 46.453 56.3194 46.4817 56.4645 46.5396C56.5964 46.5944 56.714 46.679 56.8083 46.7868C56.9081 46.8919 56.9846 47.017 57.0329 47.154C57.1356 47.4464 57.1356 47.7655 57.0329 48.0579C56.9846 48.1949 56.9081 48.3201 56.8083 48.4252C56.7116 48.5285 56.5945 48.6103 56.4645 48.6653C56.3194 48.7231 56.1645 48.7519 56.0084 48.75C55.8552 48.7541 55.7034 48.7201 55.5664 48.6512C55.4367 48.5956 55.3267 48.5021 55.2506 48.3828V50H54.8366V46.5043ZM55.9663 46.8432C55.8652 46.8405 55.7646 46.8598 55.6716 46.8997C55.5865 46.9347 55.5099 46.9877 55.4471 47.0551C55.3824 47.1244 55.3323 47.206 55.2997 47.2952C55.2344 47.4948 55.2344 47.7101 55.2997 47.9096C55.3323 47.9988 55.3824 48.0805 55.4471 48.1497C55.5099 48.2172 55.5865 48.2702 55.6716 48.3051C55.7646 48.3451 55.8652 48.3644 55.9663 48.3616C56.0698 48.3654 56.1728 48.3461 56.268 48.3051C56.3531 48.2702 56.4297 48.2172 56.4926 48.1497C56.5579 48.0822 56.606 47.9999 56.6329 47.9096C56.6697 47.8126 56.6887 47.7098 56.6891 47.606C56.6894 47.4998 56.6703 47.3945 56.6329 47.2952C56.606 47.205 56.5579 47.1226 56.4926 47.0551C56.4297 46.9877 56.3531 46.9347 56.268 46.8997C56.1728 46.8587 56.0698 46.8394 55.9663 46.8432Z" fill="#7B3972"/>
<path d="M57.6433 46.5043H58.0573V46.8432C58.0866 46.786 58.1245 46.7336 58.1696 46.6879C58.216 46.6397 58.2678 46.597 58.324 46.5608C58.3834 46.5264 58.4471 46.5003 58.5134 46.4831C58.5785 46.4728 58.6448 46.4728 58.7099 46.4831C58.7728 46.4754 58.8364 46.4754 58.8994 46.4831V46.9351H58.8011H58.6959C58.6105 46.9284 58.5248 46.9408 58.4447 46.9713C58.3647 47.0018 58.2923 47.0497 58.2328 47.1116C58.1143 47.2612 58.0566 47.4505 58.0714 47.6413V48.7288H57.6574L57.6433 46.5043Z" fill="#7B3972"/>
<path d="M59.2783 45.7204C59.2768 45.6804 59.2843 45.6407 59.3001 45.604C59.3159 45.5674 59.3396 45.5348 59.3695 45.5085C59.3964 45.4795 59.429 45.4564 59.4652 45.4406C59.5015 45.4248 59.5405 45.4166 59.58 45.4167C59.6607 45.4167 59.7382 45.4484 59.7959 45.5052C59.8536 45.5619 59.8869 45.6392 59.8887 45.7204C59.8868 45.8023 59.8543 45.8805 59.7975 45.9393C59.7384 45.9944 59.6606 46.0248 59.58 46.024C59.5017 46.0237 59.4264 45.9934 59.3695 45.9393C59.3401 45.9111 59.3169 45.8771 59.3012 45.8394C59.2855 45.8017 59.2777 45.7612 59.2783 45.7204ZM59.3765 46.5043H59.7905V48.7288H59.3765V46.5043Z" fill="#7B3972"/>
<path d="M61.6008 47.0551C61.5508 46.9944 61.4916 46.942 61.4254 46.8997C61.3429 46.858 61.251 46.8385 61.1588 46.8432C61.071 46.8383 60.9836 46.8578 60.9062 46.8997C60.8768 46.9153 60.8515 46.9376 60.8323 46.9649C60.8132 46.9922 60.8007 47.0236 60.7959 47.0566C60.7911 47.0897 60.7942 47.1234 60.8048 47.1551C60.8154 47.1867 60.8333 47.2154 60.8571 47.2387C60.8987 47.2818 60.9489 47.3155 61.0044 47.3376C61.0627 47.3638 61.124 47.3828 61.1868 47.3941H61.3482C61.4348 47.4115 61.5194 47.4375 61.6008 47.4718C61.6754 47.4989 61.7444 47.5396 61.8043 47.5918C61.8601 47.6411 61.9054 47.7011 61.9376 47.7684C61.9703 47.8516 61.987 47.9402 61.9868 48.0297C61.9878 48.1404 61.9613 48.2497 61.9096 48.3475C61.8573 48.4317 61.788 48.5039 61.7061 48.5593C61.6214 48.6177 61.526 48.6586 61.4254 48.6794C61.1599 48.7381 60.8835 48.7234 60.6255 48.637C60.479 48.5674 60.3531 48.4602 60.2606 48.3263L60.5764 48.072C60.6435 48.1402 60.719 48.1995 60.8009 48.2486C60.8914 48.3045 60.9966 48.3316 61.1026 48.3263C61.1562 48.333 61.2104 48.333 61.264 48.3263C61.3131 48.3173 61.3604 48.3006 61.4044 48.2769C61.4445 48.2586 61.4785 48.2292 61.5026 48.1921C61.5309 48.156 61.5458 48.111 61.5447 48.065C61.5456 48.0378 61.5411 48.0106 61.5315 47.9851C61.5219 47.9597 61.5073 47.9364 61.4886 47.9167C61.4496 47.8737 61.4017 47.84 61.3482 47.8178L61.1798 47.7613H61.0184L60.7658 47.6907C60.6902 47.6645 60.6191 47.6263 60.5553 47.5777C60.4938 47.5306 60.4434 47.4703 60.408 47.4011C60.369 47.3197 60.3498 47.2302 60.3518 47.1398C60.3506 47.0358 60.3773 46.9333 60.429 46.8432C60.4719 46.7588 60.5345 46.6861 60.6115 46.6314C60.6923 46.5737 60.7825 46.5306 60.8781 46.5043C60.9784 46.4939 61.0795 46.4939 61.1798 46.5043C61.3239 46.5012 61.4672 46.5277 61.6008 46.5819C61.7378 46.6354 61.8519 46.7353 61.9236 46.8644L61.6008 47.0551Z" fill="#7B3972"/>
<path d="M62.7937 47.7543C62.7921 47.8454 62.8138 47.9354 62.8569 48.0156C62.8996 48.0939 62.9568 48.1634 63.0253 48.2204C63.0938 48.2771 63.1723 48.3202 63.2568 48.3475C63.3454 48.3753 63.4377 48.3896 63.5305 48.3899C63.6436 48.3906 63.7549 48.3613 63.8533 48.3051C63.9513 48.2386 64.0388 48.1577 64.1129 48.065L64.4286 48.3051C64.314 48.4514 64.1663 48.568 63.9979 48.6454C63.8295 48.7228 63.6452 48.7586 63.4603 48.75C63.302 48.7519 63.1447 48.7232 62.9972 48.6653C62.8642 48.6121 62.7444 48.5301 62.6464 48.4252C62.5466 48.3201 62.4701 48.1949 62.4218 48.0579C62.3673 47.9137 62.3411 47.7602 62.3446 47.606C62.3428 47.4489 62.3714 47.293 62.4288 47.1469C62.4824 47.011 62.561 46.8864 62.6604 46.7797C62.7622 46.676 62.884 46.5943 63.0182 46.5396C63.1609 46.4818 63.3135 46.453 63.4673 46.4548C63.6365 46.4478 63.805 46.4817 63.9585 46.5537C64.0858 46.619 64.1982 46.7104 64.2883 46.8221C64.3738 46.9304 64.4359 47.0555 64.4707 47.1893C64.5071 47.3252 64.5259 47.4652 64.5269 47.606V47.7543H62.7937ZM64.0988 47.4223C64.1004 47.3357 64.0862 47.2495 64.0567 47.1681C64.0324 47.0939 63.9916 47.0263 63.9375 46.9704C63.8886 46.9081 63.8227 46.8615 63.748 46.8362C63.661 46.8015 63.5679 46.7847 63.4743 46.7867C63.3777 46.7829 63.2815 46.8023 63.1937 46.8432C63.1132 46.8759 63.0412 46.9266 62.9832 46.9916C62.9256 47.0516 62.8782 47.1208 62.8428 47.1964C62.8142 47.2685 62.7976 47.3448 62.7937 47.4223H64.0988Z" fill="#7B3972"/>
</g>
<defs>
<clipPath id="clip0">
<rect width="70" height="50" fill="white"/>
</clipPath>
</defs>
</svg>
