<svg width="106" height="58" viewBox="0 0 106 58" fill="none" xmlns="http://www.w3.org/2000/svg">
<g clip-path="url(#clip0)">
<path d="M7.5 53.6C7.3 52.6 6.9 52 5.8 51.3C4.8 50.6 3.5 49.7 3.5 49.7C3.5 49.7 1.9 48.8 1.8 47.8C1.7 46.8 2.8 45.8 4.3 45.9C5 45.9 5.4 46.2 5.7 46.3C6.2 46.6 6.4 47 6.4 47.1L6.5 47.2C6.6 47.2 6.6 47.1 6.6 47.1V45.1C6.6 45.1 5.5 45.1 3.7 45.1C2 45.1 -0.2 46.4 -0.1 48.5C-0.1 49 -0.1 50 1.9 51.2C3.7 52.4 5.4 53.1 5.4 54.9C5.4 56.8 3.6 57.5 2.2 57.3C1.5 57.2 1.1 56.9 0.8 56.7C0.4 56.3 0.3 55.8 0.2 55.4C0.2 55.3 0.0999997 55.3 0.0999997 55.3C-3.35276e-07 55.3 -3.35276e-07 55.4 -3.35276e-07 55.4V57C-3.35276e-07 57 0.9 57.9 2.5 58C6.7 58.1 7.8 55.3 7.5 53.6Z" fill="#1B4478"/>
<path d="M15.3 46.9C11.9 46.9 10 49.1 10 52.3C10 55.6 12.2 57.6 15.2 57.6C18.5 57.6 20.5 55.2 20.5 52.1C20.5 48.8 18.2 46.9 15.3 46.9ZM15.2 57C13.1 57 11.6 55.2 11.6 52.3C11.6 48.9 13.4 47.6 15.3 47.6C16.2 47.6 17.6 48 18.4 49.4C18.9 50.3 19 51.5 19 52.3C18.9 55.3 17.4 57 15.2 57Z" fill="#1B4478"/>
<path d="M50.3 51.6H46.7C46.7 51.7 46.9 52.2 47.3 52.3H50.4V56.8C50.4 56.9 50.4 56.9 50.4 57C50.5 57.2 50.7 57.4 51.1 57.4H52V47.1H50.5V51.6H50.3Z" fill="#1B4478"/>
<path d="M30.4 53.8C30.4 54.2 30.4 54.7 30.3 55C29.9 56.7 28.1 56.8 27.7 56.8C26.9 56.8 26.2 56.4 25.8 56C25.4 55.6 25.3 55 25.3 54.1V47.2H23.8H23.4C23.4 47.2 23.4 47.2 23.4 47.3V47.4C23.5 47.5 23.8 47.7 23.8 48.4V54C23.8 55 23.9 55.7 24.3 56.3C25.1 57.3 26.4 57.6 27.4 57.6C28.9 57.6 29.7 57.1 30.2 56.6C30.9 55.9 31.1 55 31.1 54C31.1 53.3 31.1 47.2 31.1 47.2H30.4V53.8Z" fill="#1B4478"/>
<path d="M34.1 47.8H36.8V56.8C36.8 56.8 36.8 56.9 36.8 57.1C36.9 57.3 37.1 57.5 37.5 57.5H38.3V47.9H41V47.2H34V47.8H34.1Z" fill="#1B4478"/>
<path d="M44 47.2C44.1 47.4 44.4 47.6 44.4 48.3V56.8C44.4 56.8 44.4 56.9 44.4 57.1C44.5 57.3 44.7 57.5 45.1 57.5H46V47.1L44 47.2C44 47.1 44 47.1 44 47.2Z" fill="#1B4478"/>
<path d="M97.9 57C98 57.2 98.2 57.4 98.6 57.4H99.5V47.1H97.6C97.6 47.1 97.6 47.1 97.6 47.2V47.3C97.7 47.4 98 47.6 98 48.3V56.8C97.8 56.7 97.8 56.9 97.9 57Z" fill="#1B4478"/>
<path d="M94.6 47.2C94 47 93.3 46.9 92.6 46.9C89.2 46.9 87.3 49.1 87.3 52.3C87.3 55.6 89.5 57.6 92.5 57.6C93.3 57.6 94 57.5 94.7 57.2V56.7C94.7 56.7 94 57 92.6 57C90.5 57 89 55.2 89 52.3C89 48.9 90.8 47.6 92.7 47.6C92.9 47.6 93.2 47.6 93.5 47.7C93.5 47.7 94.2 47.9 94.5 48.3C94.6 48.3 94.6 48.4 94.6 48.4C94.6 48.4 94.6 48.4 94.7 48.4H94.8V48V47.2H94.6Z" fill="#1B4478"/>
<path d="M103.7 51.6H100.1C100.1 51.7 100.3 52.2 100.7 52.3H103.8V56.8C103.8 56.9 103.8 56.9 103.8 57C103.9 57.2 104.1 57.4 104.5 57.4H105.4V47.1H103.8V51.6H103.7Z" fill="#1B4478"/>
<path d="M81.5 47.1H79.9C79.9 47.1 79.9 47.1 79.9 47.2V47.3C79.9 47.3 80.1 47.4 80.1 47.6L76.6 57.4H77.3L80.4 48.6L82 53H79.6C79.6 53 79.7 53.5 80.1 53.7H82.2L83.3 56.9C83.3 57 83.4 57 83.4 57.1C83.5 57.3 83.7 57.5 84.1 57.5H85.1L81.5 47.1Z" fill="#1B4478"/>
<path d="M74.4 56.7H70.3V47.8H74V47.1H68.8H68.4C68.4 47.1 68.4 47.1 68.4 47.2V47.3C68.5 47.4 68.8 47.6 68.8 48.3V56.9C68.8 57 68.8 57 68.8 57.1C68.9 57.3 69.1 57.5 69.5 57.5H70.4H74.5V56.7H74.4Z" fill="#1B4478"/>
<path d="M61.8 51C63 50.8 64.6 50.2 64.6 48C64.6 44.9 61.1 45.1 61.1 45.1H59.1H57.7H56.8C56.7 45.1 56.7 45.1 56.7 45.2C56.7 45.3 56.7 45.3 56.8 45.3C57 45.4 57.6 45.9 57.7 47C57.7 47.1 57.7 47.1 57.7 47.2V47.3V56.7C57.7 56.7 57.7 56.9 57.7 57C57.8 57.2 58.1 57.4 58.5 57.4H59H61.2C61.2 57.4 65 57.6 65 54.2C65 51.9 63.2 51.2 61.8 51ZM60.4 56.7H59.4V45.9H60.2C60.2 45.9 62.9 45.7 62.9 48.2C62.9 50.4 61.9 50.6 60.7 50.6H60.2C60.2 50.7 60.4 51.3 60.9 51.4C62.2 51.4 63.2 51.8 63.2 54.1C63.3 56.9 60.4 56.7 60.4 56.7Z" fill="#1B4478"/>
<path d="M71.4 52.3H73.6V51.6H70.7C70.8 51.8 71 52.3 71.4 52.3Z" fill="#1B4478"/>
<path d="M72 35.8C70 34.6 68 35.4 68 35.4C68.7 35.3 70 35.4 71.1 36.1C73.1 37.4 74 40.1 75.6 40.4C75.6 40.4 76.3 40.5 76.7 40.4C77.1 40.3 77.1 40.2 77.1 40.2C75.1 40.2 74.2 37.1 72 35.8Z" fill="#AACC74"/>
<path d="M75.6 34.6C72.4 32.7 69.3 34 69.3 34C70.4 33.9 72.4 34 74.1 35.1C77.3 37.1 78.7 41.5 81.2 41.8C81.2 41.8 82.3 42 82.9 41.8C83.5 41.6 83.6 41.5 83.6 41.5C80.4 41.4 79 36.6 75.6 34.6Z" fill="#4CA7A5"/>
<path d="M89.1 39.6C89.1 39.6 89.9 40.3 90.2 39.1C90.6 37.4 91.9 34.4 94.7 33.8C94.7 33.8 93.2 33.5 91.5 35C89.7 36.5 89.1 39.6 89.1 39.6Z" fill="#AACC74"/>
<path d="M79.4 32.7C75.4 30.3 71.3 31.9 71.3 31.9C72.7 31.8 75.2 31.9 77.4 33.3C81.4 35.9 83.2 41.4 86.4 41.8C86.4 41.8 87.8 42 88.5 41.8C89.3 41.6 89.4 41.4 89.4 41.4C85.5 41.5 83.7 35.3 79.4 32.7Z" fill="#4CA7A5"/>
<path d="M93 39.5C93 39.5 94 40.3 94.3 38.9C94.8 36.9 96.4 33.2 99.7 32.5C99.7 32.5 97.9 32.1 95.9 33.9C93.7 35.9 93 39.5 93 39.5Z" fill="#4CA7A5"/>
<path d="M84 30.9C78.8 27.8 73.6 29.9 73.6 29.9C75.5 29.7 78.7 29.9 81.5 31.7C86.7 35 89 42.2 93.1 42.7C93.1 42.7 94.9 43 95.9 42.6C96.9 42.3 97 42.1 97 42.1C91.9 42.2 89.6 34.2 84 30.9Z" fill="#1B4478"/>
<path d="M97.8 39.5C97.8 39.5 98.9 40.4 99.3 38.8C99.8 36.6 101.6 32.5 105.3 31.7C105.3 31.7 103.3 31.2 101.1 33.2C98.6 35.5 97.8 39.5 97.8 39.5Z" fill="#1B4478"/>
<path d="M87.2 30.8C87.2 30.8 85.8 25.5 85.2 22.6C84.8 20.7 85 20.3 85 20.3L87.7 2.3L90.1 0L86.3 20.9C86.3 20.9 86.1 21.4 86.3 23.4C86.6 26.5 87.7 32.3 87.7 32.3L87.2 30.8Z" fill="#1B4478"/>
<path d="M80.8 27.6C80.8 27.6 81.4 25 81.6 23.5C81.7 22.6 81.7 22.3 81.7 22.3L80 13.1L78.5 11.9L80.8 22.6C80.8 22.6 80.9 22.8 80.8 23.9C80.7 25.5 80.6 28.4 80.6 28.4L80.8 27.6Z" fill="#4CA7A5"/>
<path d="M69.8 31.7C66.4 33.7 64.6 38 62 39.6C61.6 39.9 61 40.2 60.3 40.4C60.5 40.5 60.9 40.5 61.4 40.4C65 39.5 67.5 32.8 71.2 31C70.8 31.2 70.3 31.5 69.8 31.7Z" fill="#1B4478"/>
<path d="M62.2 35.6C60.1 36.7 58.6 39.2 57 40C56.8 40.1 56.4 40.3 56 40.4C56.1 40.4 56.3 40.5 56.7 40.4C58.9 40 60.9 36.1 63.1 35.2C62.7 35.4 62.5 35.5 62.2 35.6Z" fill="#AACC74"/>
<path d="M65.5 34.1C62.9 35.5 61.2 38.7 59.2 39.9C58.9 40.1 58.4 40.3 57.9 40.5C58.1 40.5 58.3 40.6 58.7 40.5C61.4 39.9 63.7 35 66.5 33.7C66.2 33.8 65.8 33.9 65.5 34.1Z" fill="#4CA7A5"/>
</g>
<defs>
<clipPath id="clip0">
<rect width="105.3" height="57.8" fill="white"/>
</clipPath>
</defs>
</svg>
