<svg width="71" height="69" viewBox="0 0 71 69" fill="none" xmlns="http://www.w3.org/2000/svg">
<path d="M63.7 0H42.2C38.4 0 35.3 3.1 35.3 6.9V21.2C35.3 24.8 38.1 27.7 41.6 28V34.9L48.5 28H63.7C67.5 28 70.6 24.9 70.6 21.1V6.9C70.5 3.1 67.5 0 63.7 0Z" fill="#C2BCDA"/>
<path d="M39.3 41.1H26.4C27.5 38.5 28.7 34.4 28.5 31.7C28.2 28.4 26.8 26.4 25 26.1C23.7 25.9 22.5 27.8 21.8 30.2C20.9 33.5 18.9 36.8 18.9 36.8L11.6 43.8V64.4C11.6 64.4 13.9 66.4 18.1 67.4C20.6 68 37.7 69.5 39.8 66.4C40.8 64.9 40.6 63.6 40.6 62.8C41.1 62.3 42 61.4 42.4 60.1C42.9 58.2 42.6 56.6 42.3 55.9C42.8 55.1 43.6 54.4 43.7 52.6C43.8 50.7 43.3 49.9 43.1 49.1C43.4 48.1 43.9 47.2 43.9 45.1C43.9 42.3 41.5 41.1 39.3 41.1Z" fill="white"/>
<path d="M8.3 41.3H3C1.3 41.3 0 42.7 0 44.3V62.8C0 64.5 1.4 65.8 3 65.8H8.3C10 65.8 11.3 64.4 11.3 62.8V44.3C11.4 42.7 10 41.3 8.3 41.3ZM5.7 62.7C4.4 62.7 3.3 61.6 3.3 60.3C3.3 59 4.4 57.9 5.7 57.9C7 57.9 8.1 59 8.1 60.3C8.1 61.6 7 62.7 5.7 62.7Z" fill="#C2BCDA"/>
</svg>
