<svg width="89" height="91" viewBox="0 0 89 91" fill="none" xmlns="http://www.w3.org/2000/svg">
<path d="M69.9 7.20001L26 14.1C25.9 16.2 28.4 17.9 30.2 18.1L69.2 27.1L73.9 17.2L69.9 7.20001Z" fill="#EAAD18"/>
<path d="M76.5 70.5C71.1 70.5 66.7 66.1 66.7 60.7V47.2H69.6V60.6C69.6 64.4 72.7 67.5 76.5 67.5C80.3 67.5 83.4 64.4 83.4 60.6V47.2C83.4 45.2 81.8 43.6 79.8 43.6C77.8 43.6 76.2 45.2 76.2 47.2V60.6H73.3V47.2C73.3 43.6 76.2 40.7 79.8 40.7C83.4 40.7 86.3 43.6 86.3 47.2V60.6C86.3 66 81.9 70.5 76.5 70.5Z" fill="white"/>
<path d="M50.3 43.9V35.4L48.3 26H44.8L42.7 35.7V44.1" fill="#FFCC33"/>
<path d="M59.8 90.2H33.2V55.5C33.2 52.9 35.3 50.9 37.8 50.9H55.1C57.7 50.9 59.7 53 59.7 55.5L59.8 90.2Z" fill="#EAAD18"/>
<path d="M87.6981 25.3779C87.8369 20.2989 83.474 16.0593 77.9533 15.9085C72.4327 15.7577 67.8449 19.7527 67.7061 24.8317C67.5674 29.9107 71.9303 34.1503 77.4509 34.3011C82.9715 34.4519 87.5594 30.4569 87.6981 25.3779Z" fill="white"/>
<path d="M20.1 36.4H18.5L18.7 30.2L5.10001 29.8L5.00001 36.3H4.90001V35.9H3.30001L1.90001 79.1L23.9 79.7L20.1 36.4Z" fill="#EAAD18"/>
<path d="M7.5 7.20002L17.8 1.80002L16.9 33.4L6.8 33.1L7.5 7.20002Z" fill="white"/>
<path d="M25.8 77.9L0.100007 77.1H6.67805e-06C-0.199993 84.2 5.40001 90.2 12.5 90.3C12.9 90.3 13.4 90.3 13.8 90.3C20.4 89.9 25.6 84.5 25.8 77.9Z" fill="white"/>
<path d="M53.1 42.8H39.7V52.4H53.1V42.8Z" fill="white"/>
<path d="M88.1385 9.31659C88.2742 4.34801 83.9089 0.197928 78.3882 0.0471155C72.8676 -0.103697 68.2822 3.80187 68.1465 8.77045C68.0108 13.739 72.3761 17.8891 77.8967 18.0399C83.4174 18.1907 88.0028 14.2852 88.1385 9.31659Z" fill="white"/>
</svg>
