<svg width="61" height="94" viewBox="0 0 61 94" fill="none" xmlns="http://www.w3.org/2000/svg">
<g clip-path="url(#clip0)">
<path d="M60.4 0H0V93.9H60.4V0Z" fill="#C2BCDA"/>
<path d="M12.6 87.5C12.6 77.8 20.5 69.9 30.2 69.9C39.9 69.9 47.8 77.8 47.8 87.5" fill="#1B0268"/>
<path d="M30.2 73C35.0049 73 38.9 69.1049 38.9 64.3C38.9 59.4951 35.0049 55.6 30.2 55.6C25.3951 55.6 21.5 59.4951 21.5 64.3C21.5 69.1049 25.3951 73 30.2 73Z" fill="white"/>
<path d="M35.9 51.7L40.7 57.6L45.3 51.7" fill="#1B0268"/>
<path d="M8.769 52.951L52.069 52.951L52.069 6.45099L8.769 6.45099L8.769 52.951Z" fill="#1B0268"/>
<path d="M24.1888 18.2L23.3088 15.69L22.4288 18.2H24.1888ZM24.7088 19.69H21.9088L21.4588 21H19.3688L22.2388 13.46H24.3788L27.2488 21H25.1588L24.7088 19.69ZM32.2464 15.39C32.0331 15.2167 31.8197 15.09 31.6064 15.01C31.3931 14.9233 31.1864 14.88 30.9864 14.88C30.7331 14.88 30.5264 14.94 30.3664 15.06C30.2064 15.18 30.1264 15.3367 30.1264 15.53C30.1264 15.6633 30.1664 15.7733 30.2464 15.86C30.3264 15.9467 30.4297 16.0233 30.5564 16.09C30.6897 16.15 30.8364 16.2033 30.9964 16.25C31.1631 16.2967 31.3264 16.3467 31.4864 16.4C32.1264 16.6133 32.5931 16.9 32.8864 17.26C33.1864 17.6133 33.3364 18.0767 33.3364 18.65C33.3364 19.0367 33.2697 19.3867 33.1364 19.7C33.0097 20.0133 32.8197 20.2833 32.5664 20.51C32.3197 20.73 32.0131 20.9 31.6464 21.02C31.2864 21.1467 30.8764 21.21 30.4164 21.21C29.4631 21.21 28.5797 20.9267 27.7664 20.36L28.6064 18.78C28.8997 19.04 29.1897 19.2333 29.4764 19.36C29.7631 19.4867 30.0464 19.55 30.3264 19.55C30.6464 19.55 30.8831 19.4767 31.0364 19.33C31.1964 19.1833 31.2764 19.0167 31.2764 18.83C31.2764 18.7167 31.2564 18.62 31.2164 18.54C31.1764 18.4533 31.1097 18.3767 31.0164 18.31C30.9231 18.2367 30.7997 18.17 30.6464 18.11C30.4997 18.05 30.3197 17.9833 30.1064 17.91C29.8531 17.83 29.6031 17.7433 29.3564 17.65C29.1164 17.55 28.8997 17.42 28.7064 17.26C28.5197 17.1 28.3664 16.9 28.2464 16.66C28.1331 16.4133 28.0764 16.1033 28.0764 15.73C28.0764 15.3567 28.1364 15.02 28.2564 14.72C28.3831 14.4133 28.5564 14.1533 28.7764 13.94C29.0031 13.72 29.2764 13.55 29.5964 13.43C29.9231 13.31 30.2864 13.25 30.6864 13.25C31.0597 13.25 31.4497 13.3033 31.8564 13.41C32.2631 13.51 32.6531 13.66 33.0264 13.86L32.2464 15.39ZM36.5313 16.57L38.9212 13.46H41.3413L38.3513 17.03L41.6213 21H39.0813L36.5313 17.73V21H34.5713V13.46H36.5313V16.57ZM16.5765 31.2L15.6965 28.69L14.8165 31.2H16.5765ZM17.0965 32.69H14.2965L13.8465 34H11.7565L14.6265 26.46H16.7665L19.6365 34H17.5465L17.0965 32.69ZM22.4541 32.48H22.8841C23.3774 32.48 23.7308 32.4167 23.9441 32.29C24.1574 32.1633 24.2641 31.96 24.2641 31.68C24.2641 31.4 24.1574 31.1967 23.9441 31.07C23.7308 30.9433 23.3774 30.88 22.8841 30.88H22.4541V32.48ZM22.4541 29.42H22.8141C23.4274 29.42 23.7341 29.1767 23.7341 28.69C23.7341 28.2033 23.4274 27.96 22.8141 27.96H22.4541V29.42ZM20.4941 26.46H23.4141C24.1074 26.46 24.6341 26.6267 24.9941 26.96C25.3541 27.2933 25.5341 27.7733 25.5341 28.4C25.5341 28.78 25.4641 29.0967 25.3241 29.35C25.1908 29.5967 24.9841 29.8067 24.7041 29.98C24.9841 30.0333 25.2208 30.1167 25.4141 30.23C25.6141 30.3367 25.7741 30.47 25.8941 30.63C26.0208 30.79 26.1108 30.97 26.1641 31.17C26.2174 31.37 26.2441 31.5833 26.2441 31.81C26.2441 32.1633 26.1808 32.4767 26.0541 32.75C25.9341 33.0233 25.7608 33.2533 25.5341 33.44C25.3141 33.6267 25.0441 33.7667 24.7241 33.86C24.4041 33.9533 24.0441 34 23.6441 34H20.4941V26.46ZM29.0693 30.23C29.0693 30.53 29.126 30.8067 29.2393 31.06C29.3527 31.3133 29.506 31.5333 29.6993 31.72C29.8927 31.9067 30.116 32.0533 30.3693 32.16C30.6293 32.26 30.9027 32.31 31.1893 32.31C31.476 32.31 31.746 32.26 31.9993 32.16C32.2593 32.0533 32.486 31.9067 32.6793 31.72C32.8793 31.5333 33.036 31.3133 33.1493 31.06C33.2627 30.8067 33.3193 30.53 33.3193 30.23C33.3193 29.93 33.2627 29.6533 33.1493 29.4C33.036 29.1467 32.8793 28.9267 32.6793 28.74C32.486 28.5533 32.2593 28.41 31.9993 28.31C31.746 28.2033 31.476 28.15 31.1893 28.15C30.9027 28.15 30.6293 28.2033 30.3693 28.31C30.116 28.41 29.8927 28.5533 29.6993 28.74C29.506 28.9267 29.3527 29.1467 29.2393 29.4C29.126 29.6533 29.0693 29.93 29.0693 30.23ZM27.0193 30.23C27.0193 29.67 27.1227 29.15 27.3293 28.67C27.536 28.1833 27.8227 27.76 28.1893 27.4C28.556 27.04 28.9927 26.76 29.4993 26.56C30.0127 26.3533 30.576 26.25 31.1893 26.25C31.796 26.25 32.356 26.3533 32.8693 26.56C33.3827 26.76 33.8227 27.04 34.1893 27.4C34.5627 27.76 34.8527 28.1833 35.0593 28.67C35.266 29.15 35.3693 29.67 35.3693 30.23C35.3693 30.79 35.266 31.3133 35.0593 31.8C34.8527 32.28 34.5627 32.7 34.1893 33.06C33.8227 33.42 33.3827 33.7033 32.8693 33.91C32.356 34.11 31.796 34.21 31.1893 34.21C30.576 34.21 30.0127 34.11 29.4993 33.91C28.9927 33.7033 28.556 33.42 28.1893 33.06C27.8227 32.7 27.536 32.28 27.3293 31.8C27.1227 31.3133 27.0193 30.79 27.0193 30.23ZM38.5674 26.46V30.56C38.5674 30.78 38.574 31.0067 38.5874 31.24C38.6074 31.4667 38.6574 31.6733 38.7374 31.86C38.824 32.0467 38.9574 32.2 39.1374 32.32C39.3174 32.4333 39.5707 32.49 39.8974 32.49C40.224 32.49 40.474 32.4333 40.6474 32.32C40.8274 32.2 40.9607 32.0467 41.0474 31.86C41.134 31.6733 41.184 31.4667 41.1974 31.24C41.2174 31.0067 41.2274 30.78 41.2274 30.56V26.46H43.1774V30.83C43.1774 32.0033 42.9074 32.86 42.3674 33.4C41.834 33.94 41.0107 34.21 39.8974 34.21C38.784 34.21 37.9574 33.94 37.4174 33.4C36.8774 32.86 36.6074 32.0033 36.6074 30.83V26.46H38.5674ZM47.6217 28.12V34H45.6617V28.12H44.0517V26.46H49.2317V28.12H47.6217ZM25.7223 41.12H23.3623V42.38H25.5123V44.04H23.3623V47H21.4023V39.46H25.7223V41.12ZM31.2106 41.12H28.8506V42.38H31.0006V44.04H28.8506V47H26.8906V39.46H31.2106V41.12ZM36.0489 42.78H39.9389C39.9389 43.18 39.9222 43.5433 39.8889 43.87C39.8555 44.1967 39.7889 44.5 39.6889 44.78C39.5489 45.1733 39.3589 45.5233 39.1189 45.83C38.8789 46.13 38.5955 46.3833 38.2689 46.59C37.9489 46.79 37.5955 46.9433 37.2089 47.05C36.8222 47.1567 36.4155 47.21 35.9889 47.21C35.4022 47.21 34.8655 47.1133 34.3789 46.92C33.8989 46.7267 33.4855 46.4567 33.1389 46.11C32.7922 45.7567 32.5222 45.3367 32.3289 44.85C32.1355 44.3567 32.0389 43.8133 32.0389 43.22C32.0389 42.6333 32.1322 42.0967 32.3189 41.61C32.5122 41.1167 32.7822 40.6967 33.1289 40.35C33.4822 40.0033 33.9055 39.7333 34.3989 39.54C34.8922 39.3467 35.4422 39.25 36.0489 39.25C36.8355 39.25 37.5255 39.42 38.1189 39.76C38.7122 40.1 39.1822 40.6267 39.5289 41.34L37.6689 42.11C37.4955 41.6967 37.2689 41.4 36.9889 41.22C36.7155 41.04 36.4022 40.95 36.0489 40.95C35.7555 40.95 35.4889 41.0067 35.2489 41.12C35.0089 41.2267 34.8022 41.3833 34.6289 41.59C34.4622 41.79 34.3289 42.0333 34.2289 42.32C34.1355 42.6067 34.0889 42.9267 34.0889 43.28C34.0889 43.6 34.1289 43.8967 34.2089 44.17C34.2955 44.4433 34.4222 44.68 34.5889 44.88C34.7555 45.08 34.9622 45.2367 35.2089 45.35C35.4555 45.4567 35.7422 45.51 36.0689 45.51C36.2622 45.51 36.4489 45.49 36.6289 45.45C36.8089 45.4033 36.9689 45.3333 37.1089 45.24C37.2555 45.14 37.3755 45.0133 37.4689 44.86C37.5622 44.7067 37.6255 44.52 37.6589 44.3H36.0489V42.78Z" fill="white"/>
</g>
<defs>
<clipPath id="clip0">
<rect width="60.4" height="93.9" fill="white"/>
</clipPath>
</defs>
</svg>
