<svg width="375" height="1981" viewBox="0 0 375 1981" fill="none" xmlns="http://www.w3.org/2000/svg">
<g opacity="0.2">
<path d="M-28.9243 -57.4766L-33.0732 -54.0035L465.398 541.124L469.547 537.651L-28.9243 -57.4766Z" fill="#FFCC33"/>
<path d="M384.006 -128L-74.9108 308.312L-71.1818 312.232L387.735 -124.08L384.006 -128Z" fill="#FF6633"/>
<path d="M565.603 316.938L241.744 624.844L245.473 628.764L569.332 320.858L565.603 316.938Z" fill="#E97792"/>
<path d="M106.916 -74.5064L-352 361.805L-348.271 365.725L110.645 -70.5864L106.916 -74.5064Z" fill="#3399FF"/>
<path d="M144.187 -92.9282L140.031 -89.4642L584.667 443.77L588.823 440.306L144.187 -92.9282Z" fill="#E97792"/>
<path d="M-117.414 320.847L-121.57 324.311L323.066 857.546L327.222 854.082L-117.414 320.847Z" fill="#E97792"/>
<path d="M451.803 21.1075L-7.11328 457.419L-3.38428 461.339L455.532 25.0275L451.803 21.1075Z" fill="#3399FF"/>
<path d="M609.713 511.374L150.796 947.686L154.525 951.606L613.442 515.294L609.713 511.374Z" fill="#3399FF"/>
<path d="M-6.69262 213.532L-10.8491 216.996L433.787 750.231L437.944 746.767L-6.69262 213.532Z" fill="#99CC33"/>
<path d="M483.212 211L-2.66211 672.941L1.06689 676.861L486.941 214.92L483.212 211Z" fill="#FF6633"/>
<path d="M308.671 560.827L-15.1875 868.734L-11.4585 872.654L312.4 564.747L308.671 560.827Z" fill="#E97792"/>
<path d="M312.344 595.22L308.187 598.684L752.824 1131.92L756.98 1128.45L312.344 595.22Z" fill="#99CC33"/>
<path d="M-28.9243 994.523L-33.0732 997.997L465.398 1593.12L469.547 1589.65L-28.9243 994.523Z" fill="#FFCC33"/>
<path d="M384.006 924L-74.9108 1360.31L-71.1818 1364.23L387.735 927.92L384.006 924Z" fill="#FF6633"/>
<path d="M565.603 1368.94L241.744 1676.84L245.473 1680.76L569.332 1372.86L565.603 1368.94Z" fill="#E97792"/>
<path d="M106.916 977.494L-352 1413.81L-348.271 1417.73L110.645 981.414L106.916 977.494Z" fill="#3399FF"/>
<path d="M144.187 959.072L140.031 962.536L584.667 1495.77L588.823 1492.31L144.187 959.072Z" fill="#E97792"/>
<path d="M-117.414 1372.85L-121.57 1376.31L323.066 1909.55L327.222 1906.08L-117.414 1372.85Z" fill="#E97792"/>
<path d="M451.803 1073.11L-7.11328 1509.42L-3.38428 1513.34L455.532 1077.03L451.803 1073.11Z" fill="#3399FF"/>
<path d="M609.713 1563.37L150.796 1999.69L154.525 2003.61L613.442 1567.29L609.713 1563.37Z" fill="#3399FF"/>
<path d="M-6.69262 1265.53L-10.8491 1269L433.787 1802.23L437.944 1798.77L-6.69262 1265.53Z" fill="#99CC33"/>
<path d="M483.212 1263L-2.66211 1724.94L1.06689 1728.86L486.941 1266.92L483.212 1263Z" fill="#FF6633"/>
<path d="M308.671 1612.83L-15.1875 1920.73L-11.4585 1924.65L312.4 1616.75L308.671 1612.83Z" fill="#E97792"/>
<path d="M312.344 1647.22L308.187 1650.68L752.824 2183.92L756.98 2180.45L312.344 1647.22Z" fill="#99CC33"/>
</g>
</svg>
