<svg width="129" height="131" viewBox="0 0 129 131" fill="none" xmlns="http://www.w3.org/2000/svg">
<g clip-path="url(#clip0)">
<path d="M0 87.2H7.3C9 87.2 10.3 87.6 11.2 88.4C12.1 89.2 12.6 90.4 12.6 92C12.6 93 12.4 93.7 12.1 94.4C11.8 95.1 11.2 95.6 10.5 96C11.2 96.1 11.8 96.3 12.3 96.6C12.8 96.9 13.2 97.2 13.5 97.6C13.8 98 14 98.4 14.2 98.9C14.3 99.4 14.4 99.9 14.4 100.5C14.4 101.4 14.2 102.2 13.9 102.8C13.6 103.5 13.2 104.1 12.6 104.5C12 105 11.4 105.3 10.6 105.6C9.8 105.9 8.9 106 7.9 106H0V87.2ZM4.9 94.6H5.8C7.3 94.6 8.1 94 8.1 92.8C8.1 91.6 7.3 91 5.8 91H4.9V94.6ZM4.9 102.2H6C7.2 102.2 8.1 102 8.6 101.7C9.1 101.4 9.4 100.9 9.4 100.2C9.4 99.5 9.2 99 8.6 98.7C8.1 98.4 7.2 98.2 6 98.2H4.9V102.2Z" fill="#3399FF"/>
<path d="M22.2 87.2V97.4C22.2 97.9 22.2 98.5 22.3 99.1C22.3 99.7 22.5 100.2 22.7 100.7C22.9 101.2 23.2 101.5 23.7 101.8C24.2 102.1 24.8 102.2 25.6 102.2C26.4 102.2 27 102.1 27.5 101.8C27.9 101.5 28.3 101.1 28.5 100.7C28.7 100.2 28.8 99.7 28.9 99.1C28.9 98.5 29 98 29 97.4V87.2H33.9V98.1C33.9 101 33.2 103.2 31.9 104.5C30.6 105.8 28.5 106.5 25.7 106.5C22.9 106.5 20.8 105.8 19.5 104.5C18.2 103.2 17.5 101 17.5 98.1V87.2H22.2Z" fill="#3399FF"/>
<path d="M48 92C47.5 91.6 46.9 91.2 46.4 91C45.9 90.8 45.4 90.7 44.9 90.7C44.3 90.7 43.8 90.8 43.4 91.2C43 91.5 42.8 91.9 42.8 92.4C42.8 92.7 42.9 93 43.1 93.2C43.3 93.4 43.6 93.6 43.9 93.8C44.2 94 44.6 94.1 45 94.2C45.4 94.3 45.8 94.4 46.2 94.6C47.8 95.1 49 95.8 49.7 96.7C50.4 97.6 50.8 98.8 50.8 100.2C50.8 101.2 50.6 102 50.3 102.8C50 103.6 49.5 104.3 48.9 104.8C48.3 105.3 47.5 105.8 46.6 106.1C45.7 106.4 44.7 106.6 43.5 106.6C41.1 106.6 38.9 105.9 36.9 104.5L39 100.5C39.7 101.1 40.5 101.6 41.2 102C41.9 102.3 42.6 102.5 43.3 102.5C44.1 102.5 44.7 102.3 45.1 102C45.5 101.7 45.7 101.2 45.7 100.8C45.7 100.5 45.6 100.3 45.5 100.1C45.4 99.9 45.2 99.7 45 99.5C44.8 99.3 44.4 99 44 98.8C43.6 98.6 43.2 98.5 42.6 98.3C42 98.1 41.3 97.9 40.7 97.6C40.1 97.4 39.6 97 39.1 96.6C38.6 96.2 38.2 95.7 38 95.1C37.7 94.5 37.6 93.7 37.6 92.8C37.6 91.9 37.8 91 38.1 90.3C38.4 89.5 38.8 88.9 39.4 88.4C40 87.9 40.6 87.4 41.5 87.1C42.3 86.8 43.2 86.6 44.2 86.6C45.1 86.6 46.1 86.7 47.1 87C48.1 87.3 49.1 87.6 50 88.1L48 92Z" fill="#3399FF"/>
<path d="M58.7001 87.2V106H53.8V87.2H58.7001Z" fill="#3399FF"/>
<path d="M62.7 106V87.2H67.5999L76.5999 98.7V87.2H81.5V106H76.5999L67.5999 94.5V106H62.7Z" fill="#3399FF"/>
<path d="M96.2 91.3H90.4V94.5H95.9V98.6H90.4V101.8H96.2V106H85.4V87.2H96.1V91.3H96.2Z" fill="#3399FF"/>
<path d="M110.1 92C109.6 91.6 109 91.2 108.5 91C108 90.8 107.5 90.7 107 90.7C106.4 90.7 105.9 90.8 105.5 91.2C105.1 91.5 104.9 91.9 104.9 92.4C104.9 92.7 105 93 105.2 93.2C105.4 93.4 105.7 93.6 106 93.8C106.3 94 106.7 94.1 107.1 94.2C107.5 94.3 107.9 94.4 108.3 94.6C109.9 95.1 111.1 95.8 111.8 96.7C112.5 97.6 112.9 98.8 112.9 100.2C112.9 101.2 112.7 102 112.4 102.8C112.1 103.6 111.6 104.3 111 104.8C110.4 105.3 109.6 105.8 108.7 106.1C107.8 106.4 106.8 106.6 105.6 106.6C103.2 106.6 101 105.9 99 104.5L101.1 100.5C101.8 101.1 102.6 101.6 103.3 102C104 102.3 104.7 102.5 105.4 102.5C106.2 102.5 106.8 102.3 107.2 102C107.6 101.7 107.8 101.2 107.8 100.8C107.8 100.5 107.7 100.3 107.6 100.1C107.5 99.9 107.3 99.7 107.1 99.5C106.9 99.3 106.6 99.2 106.2 99C105.8 98.8 105.4 98.7 104.8 98.5C104.2 98.3 103.5 98.1 102.9 97.8C102.3 97.6 101.8 97.2 101.3 96.8C100.8 96.4 100.4 95.9 100.2 95.3C99.9 94.7 99.8 93.9 99.8 93C99.8 92.1 100 91.2 100.3 90.5C100.6 89.7 101 89.1 101.6 88.6C102.2 88.1 102.8 87.6 103.7 87.3C104.5 87 105.4 86.8 106.4 86.8C107.3 86.8 108.3 86.9 109.3 87.2C110.3 87.5 111.3 87.8 112.2 88.3L110.1 92Z" fill="#3399FF"/>
<path d="M126.2 92C125.7 91.6 125.1 91.2 124.6 91C124.1 90.8 123.6 90.7 123.1 90.7C122.5 90.7 122 90.8 121.6 91.2C121.2 91.5 121 91.9 121 92.4C121 92.7 121.1 93 121.3 93.2C121.5 93.4 121.8 93.6 122.1 93.8C122.4 94 122.8 94.1 123.2 94.2C123.6 94.3 124 94.4 124.4 94.6C126 95.1 127.2 95.8 127.9 96.7C128.6 97.6 129 98.8 129 100.2C129 101.2 128.8 102 128.5 102.8C128.2 103.6 127.7 104.3 127.1 104.8C126.5 105.3 125.7 105.8 124.8 106.1C123.9 106.4 122.9 106.6 121.7 106.6C119.3 106.6 117.1 105.9 115.1 104.5L117.2 100.5C117.9 101.1 118.7 101.6 119.4 102C120.1 102.3 120.8 102.5 121.5 102.5C122.3 102.5 122.9 102.3 123.3 102C123.7 101.7 123.9 101.2 123.9 100.8C123.9 100.5 123.8 100.3 123.7 100.1C123.6 99.9 123.4 99.7 123.2 99.5C123 99.3 122.7 99.2 122.3 99C121.9 98.8 121.5 98.7 120.9 98.5C120.3 98.3 119.6 98.1 119 97.8C118.4 97.6 117.9 97.2 117.4 96.8C116.9 96.4 116.5 95.9 116.3 95.3C116 94.7 115.9 93.9 115.9 93C115.9 92.1 116.1 91.2 116.4 90.5C116.7 89.7 117.1 89.1 117.7 88.6C118.3 88.1 118.9 87.6 119.8 87.3C120.6 87 121.5 86.8 122.5 86.8C123.4 86.8 124.4 86.9 125.4 87.2C126.4 87.5 127.4 87.8 128.3 88.3L126.2 92Z" fill="#3399FF"/>
<path d="M14.8 116C14.3 115.6 13.7 115.2 13.2 115C12.7 114.8 12.2 114.7 11.7 114.7C11.1 114.7 10.6 114.8 10.2 115.2C9.79995 115.5 9.59995 115.9 9.59995 116.4C9.59995 116.7 9.69995 117 9.89995 117.2C10.1 117.4 10.4 117.6 10.7 117.8C11 118 11.4 118.1 11.8 118.2C12.2 118.3 12.6 118.4 13 118.6C14.6 119.1 15.8 119.8 16.5 120.7C17.2 121.6 17.6 122.8 17.6 124.2C17.6 125.2 17.4 126 17.1 126.8C16.8 127.6 16.3 128.3 15.7 128.8C15.1 129.3 14.3 129.8 13.4 130.1C12.5 130.4 11.5 130.6 10.3 130.6C7.89995 130.6 5.69995 129.9 3.69995 128.5L5.79995 124.5C6.49995 125.1 7.29995 125.6 7.99995 126C8.69995 126.3 9.39995 126.5 10.1 126.5C10.9 126.5 11.5 126.3 11.9 126C12.3 125.7 12.5 125.2 12.5 124.8C12.5 124.5 12.4 124.3 12.3 124.1C12.2 123.9 12 123.7 11.8 123.5C11.6 123.3 11.3 123.2 10.9 123C10.5 122.8 10.1 122.7 9.49995 122.5C8.89995 122.3 8.19995 122.1 7.59995 121.8C6.99995 121.6 6.49995 121.2 5.99995 120.8C5.49995 120.4 5.09995 119.9 4.89995 119.3C4.59995 118.7 4.49995 117.9 4.49995 117C4.49995 116.1 4.69995 115.2 4.99995 114.5C5.29995 113.7 5.69995 113.1 6.29995 112.6C6.89995 112.1 7.49995 111.6 8.39995 111.3C9.19995 111 10.1 110.8 11.1 110.8C12 110.8 13 110.9 14 111.2C15 111.5 16 111.8 16.9 112.3L14.8 116Z" fill="#3399FF"/>
<path d="M31.3 115.3H25.5V118.5H31V122.6H25.5V125.8H31.3V130H20.6V111.2H31.3V115.3Z" fill="#3399FF"/>
<path d="M50.5 130H44.4001L39.7001 122.8V130H34.8V111.2H42.4001C43.5001 111.2 44.4001 111.4 45.2001 111.7C46.0001 112 46.6 112.4 47.1 113C47.6 113.5 48 114.2 48.3 114.8C48.6 115.5 48.7001 116.3 48.7001 117C48.7001 118.4 48.4001 119.6 47.7001 120.5C47.0001 121.4 46 122 44.6 122.3L50.5 130ZM39.8 119.6H40.7001C41.7001 119.6 42.4001 119.4 42.9001 119C43.4001 118.6 43.7001 118 43.7001 117.3C43.7001 116.6 43.4001 116 42.9001 115.6C42.4001 115.2 41.6001 115 40.7001 115H39.8V119.6Z" fill="#3399FF"/>
<path d="M55.2001 111.2L59.7001 122.7L64.3001 111.2H69.6L61.6 130H57.7001L49.8 111.2H55.2001Z" fill="#3399FF"/>
<path d="M76.5 111.2V130H71.6V111.2H76.5Z" fill="#3399FF"/>
<path d="M94.1 117.5C93 116.1 91.6 115.4 89.9 115.4C89.2 115.4 88.5 115.5 87.9 115.8C87.3 116.1 86.7 116.4 86.3 116.9C85.8 117.4 85.5 117.9 85.2 118.5C84.9 119.1 84.8 119.8 84.8 120.5C84.8 121.3 84.9 121.9 85.2 122.6C85.5 123.2 85.8 123.8 86.3 124.3C86.8 124.8 87.3 125.1 87.9 125.4C88.5 125.7 89.2 125.8 89.9 125.8C91.5 125.8 92.9 125.1 94.1 123.8V129.6L93.6 129.8C92.8 130.1 92.1 130.3 91.5 130.4C90.8 130.5 90.2 130.6 89.6 130.6C88.3 130.6 87.1 130.4 85.9 129.9C84.7 129.4 83.7 128.7 82.8 127.8C81.9 126.9 81.2 125.8 80.6 124.6C80.1 123.4 79.8 122 79.8 120.6C79.8 119.1 80.1 117.8 80.6 116.6C81.1 115.4 81.9 114.4 82.8 113.5C83.7 112.6 84.8 111.9 86 111.5C87.2 111 88.5 110.8 89.8 110.8C90.6 110.8 91.3 110.9 92 111C92.7 111.2 93.5 111.4 94.3 111.7V117.5H94.1Z" fill="#3399FF"/>
<path d="M107.9 115.3H102.1V118.5H107.6V122.6H102.1V125.8H107.9V130H97.1V111.2H107.8V115.3H107.9Z" fill="#3399FF"/>
<path d="M121.8 116C121.3 115.6 120.7 115.2 120.2 115C119.7 114.8 119.2 114.7 118.7 114.7C118.1 114.7 117.6 114.8 117.2 115.2C116.8 115.5 116.6 115.9 116.6 116.4C116.6 116.7 116.7 117 116.9 117.2C117.1 117.4 117.4 117.6 117.7 117.8C118 118 118.4 118.1 118.8 118.2C119.2 118.3 119.6 118.4 120 118.6C121.6 119.1 122.8 119.8 123.5 120.7C124.2 121.6 124.6 122.8 124.6 124.2C124.6 125.2 124.4 126 124.1 126.8C123.8 127.6 123.3 128.3 122.7 128.8C122.1 129.3 121.3 129.8 120.4 130.1C119.5 130.4 118.5 130.6 117.3 130.6C114.9 130.6 112.7 129.9 110.7 128.5L112.8 124.5C113.5 125.1 114.3 125.6 115 126C115.7 126.3 116.4 126.5 117.1 126.5C117.9 126.5 118.5 126.3 118.9 126C119.3 125.7 119.5 125.2 119.5 124.8C119.5 124.5 119.4 124.3 119.3 124.1C119.2 123.9 119 123.7 118.8 123.5C118.6 123.3 118.3 123.2 117.9 123C117.5 122.8 117.1 122.7 116.5 122.5C115.9 122.3 115.2 122.1 114.6 121.8C114 121.6 113.5 121.2 113 120.8C112.5 120.4 112.1 119.9 111.9 119.3C111.6 118.7 111.5 117.9 111.5 117C111.5 116.1 111.7 115.2 112 114.5C112.3 113.7 112.7 113.1 113.3 112.6C113.9 112.1 114.5 111.6 115.4 111.3C116.2 111 117.1 110.8 118.1 110.8C119 110.8 120 110.9 121 111.2C122 111.5 123 111.8 123.9 112.3L121.8 116Z" fill="#3399FF"/>
<path d="M91 14.6V5.5H81.9C81.9 8.5 79.5 11 76.4 11C73.4 11 70.9 8.6 70.9 5.5H63.9V14.7V25.6V32.5H90.9V25.6C93.9 25.6 96.4 23.2 96.4 20.1C96.5 17.1 94 14.6 91 14.6Z" fill="#3399FF"/>
<path d="M91 40.4V32.4H82.1C82.1 29.4 79.7 26.9 76.6 26.9C73.6 26.9 71.1 29.3 71.1 32.4H64V59.4H71.2C71.2 62.4 73.6 64.9 76.7 64.9C79.7 64.9 82.2 62.5 82.2 59.4H91V51.4C88 51.4 85.5 49 85.5 45.9C85.5 42.8 88 40.4 91 40.4Z" fill="#70B8FF"/>
<path d="M58.6 20.1C58.6 17.1 61 14.6 64.1 14.6V5.5H56.7C56.7 2.5 54.3 0 51.2 0C48.2 0 45.7 2.4 45.7 5.5H37.1V14.7C40.1 14.7 42.6 17.1 42.6 20.2C42.6 23.2 40.2 25.7 37.1 25.7V32.6H45.7C45.7 35.6 48.1 38.1 51.2 38.1C54.3 38.1 56.7 35.7 56.7 32.6H64V25.7C61 25.6 58.6 23.1 58.6 20.1Z" fill="#70B8FF"/>
<path d="M58.6 20.1C58.6 23.1 61 25.6 64.1 25.6V14.6C61 14.6 58.6 17.1 58.6 20.1Z" fill="#3399FF"/>
<path d="M56.6 32.4C56.6 35.4 54.2 37.9 51.1 37.9C48 37.9 45.6 35.5 45.6 32.4H37V40.4C34 40.4 31.5 42.8 31.5 45.9C31.5 49 33.9 51.4 37 51.4V59.4H45.6C45.6 56.4 48 53.9 51.1 53.9C54.1 53.9 56.6 56.3 56.6 59.4H64V51.4C67 51.4 69.5 49 69.5 45.9C69.5 42.8 67 40.4 64 40.4V32.4H56.6Z" fill="#3399FF"/>
<path d="M90.6 64.6H37.5V81.6H90.6V64.6Z" fill="#3399FF"/>
</g>
<defs>
<clipPath id="clip0">
<rect width="128.9" height="130.6" fill="white"/>
</clipPath>
</defs>
</svg>
