<svg width="295" height="195" viewBox="0 0 295 195" fill="none" xmlns="http://www.w3.org/2000/svg">
<g clip-path="url(#clip0)">
<path d="M237.101 168.748C241.023 168.748 244.203 163.656 244.203 157.374C244.203 151.092 241.023 146 237.101 146C233.179 146 230 151.092 230 157.374C230 163.656 233.179 168.748 237.101 168.748Z" fill="#99CC33"/>
<path d="M237.609 162.053H236.594V181.706H237.609V162.053Z" fill="#FFCC33"/>
<path d="M248.406 184.009C252.048 184.009 255 180.238 255 175.587C255 170.935 252.048 167.164 248.406 167.164C244.764 167.164 241.812 170.935 241.812 175.587C241.812 180.238 244.764 184.009 248.406 184.009Z" fill="#99CC33"/>
<path d="M248.913 177.387H247.899V192H248.913V177.387Z" fill="#FFCC33"/>
</g>
<g clip-path="url(#clip1)">
<path d="M151.3 162.75H154.92C155.188 162.752 155.448 162.842 155.659 163.007C155.87 163.171 156.022 163.401 156.09 163.66H170.37L170 160.07C170.003 159.948 169.981 159.827 169.937 159.714C169.892 159.601 169.826 159.497 169.741 159.41C169.657 159.323 169.555 159.253 169.444 159.205C169.332 159.157 169.212 159.131 169.09 159.13H137.41C137.291 159.13 137.173 159.154 137.063 159.199C136.953 159.245 136.854 159.312 136.77 159.397C136.686 159.482 136.62 159.582 136.576 159.693C136.531 159.803 136.509 159.921 136.51 160.04L136.13 163.63H150.13C150.201 163.375 150.354 163.15 150.565 162.991C150.777 162.832 151.035 162.747 151.3 162.75Z" fill="#70B8FF"/>
<path d="M157.33 167.28H148.88V169.39H157.33V167.28Z" fill="#ADD6FF"/>
<path d="M146.47 157C146.473 156.802 146.514 156.606 146.593 156.424C146.671 156.241 146.784 156.076 146.926 155.938C147.068 155.8 147.236 155.691 147.421 155.617C147.605 155.544 147.802 155.507 148 155.51H158.24C158.636 155.513 159.016 155.67 159.298 155.948C159.58 156.226 159.742 156.604 159.75 157V159.13H161.26V154.91C161.26 154.669 161.164 154.437 160.993 154.267C160.823 154.096 160.591 154 160.35 154H145.86C145.741 154 145.623 154.024 145.513 154.069C145.403 154.115 145.304 154.182 145.22 154.267C145.136 154.352 145.07 154.452 145.026 154.563C144.981 154.673 144.959 154.791 144.96 154.91V159.13H146.47V157Z" fill="#70B8FF"/>
<path d="M150.05 163.66H135.6C135.376 163.684 135.169 163.789 135.019 163.956C134.869 164.123 134.785 164.34 134.785 164.565C134.785 164.79 134.869 165.007 135.019 165.174C135.169 165.341 135.376 165.446 135.6 165.47H149.86L150.05 163.66Z" fill="#1F8BE5"/>
<path d="M170.7 163.67H156.16L156.35 165.48H170.61H170.78C170.993 165.439 171.184 165.322 171.318 165.151C171.451 164.981 171.519 164.768 171.508 164.551C171.497 164.334 171.408 164.129 171.258 163.973C171.108 163.816 170.906 163.719 170.69 163.7L170.7 163.67Z" fill="#1F8BE5"/>
<path d="M156.73 168.46C156.735 168.699 156.683 168.936 156.579 169.152C156.474 169.367 156.321 169.555 156.13 169.7V171.2C156.13 171.362 156.066 171.517 155.951 171.631C155.837 171.746 155.682 171.81 155.52 171.81H150.69C150.61 171.81 150.532 171.794 150.458 171.763C150.385 171.733 150.318 171.688 150.262 171.631C150.206 171.574 150.162 171.507 150.133 171.433C150.103 171.359 150.089 171.28 150.09 171.2V169.68C149.898 169.541 149.743 169.357 149.638 169.145C149.534 168.932 149.483 168.697 149.49 168.46L149.8 165.46H136L137.69 179.31C137.69 179.43 137.714 179.548 137.759 179.658C137.805 179.769 137.872 179.869 137.957 179.953C138.041 180.038 138.141 180.105 138.252 180.151C138.362 180.196 138.48 180.22 138.6 180.22H167.6C167.72 180.22 167.838 180.196 167.948 180.151C168.059 180.105 168.159 180.038 168.243 179.953C168.328 179.869 168.395 179.769 168.441 179.658C168.486 179.548 168.51 179.43 168.51 179.31L170.51 165.47H156.42L156.73 168.46Z" fill="#ADD6FF"/>
<path d="M156.89 169.12L156.13 163.39C156.107 163.208 156.014 163.041 155.87 162.927C155.726 162.813 155.543 162.76 155.36 162.78H150.79C150.608 162.763 150.426 162.817 150.282 162.93C150.139 163.044 150.045 163.209 150.02 163.39L149.26 169.12C149.26 169.47 149.71 169.89 150.16 170.02C152.09 170.387 154.073 170.38 156 170C156.49 169.91 156.93 169.46 156.89 169.12ZM156.13 168.79C156.103 168.97 156.008 169.132 155.864 169.243C155.721 169.355 155.541 169.407 155.36 169.39H150.79C150.61 169.407 150.431 169.354 150.29 169.243C150.148 169.131 150.055 168.969 150.03 168.79V167.89C150.053 167.71 150.145 167.545 150.286 167.431C150.428 167.317 150.609 167.263 150.79 167.28H155.36C155.542 167.263 155.724 167.317 155.868 167.43C156.011 167.544 156.105 167.709 156.13 167.89V168.79Z" fill="#1F8BE5"/>
<path d="M150.05 169.7V171.81H156.16V169.71C155.196 170.049 154.182 170.222 153.16 170.22C152.099 170.253 151.042 170.076 150.05 169.7Z" fill="#1F8BE5"/>
<path d="M118.88 178C118.875 177.831 118.804 177.671 118.683 177.553C118.561 177.436 118.399 177.37 118.23 177.37H106.64C106.471 177.371 106.309 177.44 106.19 177.56C106.072 177.677 106.004 177.834 106 178V188.3C106 188.471 106.067 188.634 106.187 188.756C106.307 188.878 106.469 188.947 106.64 188.95H115.64C115.764 188.95 115.886 188.912 115.989 188.843C116.092 188.773 116.173 188.675 116.22 188.56L118.87 178.65C118.88 178.25 118.88 178 118.88 178ZM109.88 185.1V181.21H113.54L112.54 185.08L109.88 185.1Z" fill="#ADD6FF"/>
<path d="M143.33 186.9L142.05 179.18C142.024 179.029 141.946 178.892 141.829 178.793C141.711 178.694 141.563 178.64 141.41 178.64H118.89L116.24 188.55C116.242 188.517 116.242 188.483 116.24 188.45L116.48 187.45C116.599 187.563 116.756 187.625 116.92 187.625C117.084 187.625 117.241 187.563 117.36 187.45L118.05 186.76L118.27 186.69L119.02 187.45C119.143 187.57 119.308 187.637 119.48 187.637C119.652 187.637 119.817 187.57 119.94 187.45L120.77 186.62L121.6 187.45C121.721 187.569 121.885 187.636 122.055 187.636C122.225 187.636 122.388 187.569 122.51 187.45L123.34 186.62L124.17 187.45C124.294 187.569 124.458 187.637 124.63 187.64C124.799 187.639 124.961 187.57 125.08 187.45L125.92 186.62L126.75 187.45C126.871 187.569 127.035 187.636 127.205 187.636C127.375 187.636 127.538 187.569 127.66 187.45L128.49 186.62L129.33 187.45C129.451 187.569 129.615 187.636 129.785 187.636C129.955 187.636 130.118 187.569 130.24 187.45L131.07 186.62L131.9 187.45C132.021 187.569 132.185 187.636 132.355 187.636C132.525 187.636 132.688 187.569 132.81 187.45L133.64 186.62L134.48 187.45C134.601 187.569 134.765 187.636 134.935 187.636C135.105 187.636 135.268 187.569 135.39 187.45L136.22 186.62L137.05 187.45C137.171 187.569 137.335 187.636 137.505 187.636C137.675 187.636 137.838 187.569 137.96 187.45L138.79 186.62L139.63 187.45C139.751 187.569 139.915 187.636 140.085 187.636C140.255 187.636 140.418 187.569 140.54 187.45L141.37 186.62L142.2 187.45C142.295 187.549 142.42 187.614 142.556 187.637C142.691 187.659 142.831 187.638 142.953 187.575C143.075 187.512 143.174 187.411 143.235 187.288C143.295 187.165 143.315 187.025 143.29 186.89L143.33 186.9Z" fill="#1F8BE5"/>
</g>
<g clip-path="url(#clip2)">
<path d="M72.0708 32.2599H63.7256V33.4338H72.0708V32.2599Z" fill="#3399FF"/>
<path d="M70.5812 23.463H69.4125V24.6369H70.5812V23.463Z" fill="#ADD6FF"/>
<path d="M66.4978 23.463H69.4125V24.9447L66.8755 26.9846H62.457C62.5988 26.0088 63.0846 25.1165 63.8263 24.4702C64.5679 23.8238 65.5159 23.4664 66.4978 23.463Z" fill="#70B8FF"/>
<path d="M66.8755 26.9846H64.538V28.1585H66.8755V26.9846Z" fill="#ADD6FF"/>
<path d="M62.7848 29.5686L64.1958 28.1514H67.2104L69.7902 30.7424V32.2599H62.7848V29.5686Z" fill="#70B8FF"/>
<path d="M56.7131 26.1472H60.2977L62.0081 28.2945H55.0027L56.7131 26.1472Z" fill="#70B8FF"/>
<path d="M59.6776 23.2197H57.3401V26.1472H59.6776V23.2197Z" fill="#ADD6FF"/>
<path d="M62.0081 28.2945H55.0027V32.3959H62.0081V28.2945Z" fill="#ADD6FF"/>
<path d="M68.4291 53.0674H56.6988L52.8077 33.4266H71.351L68.4291 53.0674Z" fill="#ADD6FF"/>
<path d="M56.9197 32.2599H51.8242V33.4338H56.9197V32.2599Z" fill="#3399FF"/>
<path d="M75.6625 55H74.7503C74.2829 55.0029 73.8214 54.895 73.4034 54.6851C72.8298 54.3988 72.1981 54.2498 71.5576 54.2498C70.9171 54.2498 70.2854 54.3988 69.7118 54.6851C69.3005 54.8924 68.8465 55.0003 68.3863 55H67.4955C66.8755 55 66.281 54.7526 65.8426 54.3124C65.4042 53.8721 65.158 53.2749 65.158 52.6523V50.4262C65.7993 51.0131 66.6332 52.6523 67.4955 52.6523H68.4148C69.0502 52.6624 69.6794 52.5252 70.2534 52.2514C70.6655 52.0464 71.1191 51.9397 71.579 51.9397C72.0388 51.9397 72.4925 52.0464 72.9045 52.2514C73.4778 52.5387 74.1097 52.6881 74.7503 52.6881H75.6625C76.5248 52.6881 77.3586 51.0489 78 50.462V52.6881C77.9906 53.3045 77.7402 53.8925 77.3029 54.3251C76.8655 54.7576 76.2763 55.0001 75.6625 55Z" fill="#1F8BE5"/>
<path d="M62.7564 32.2599H63.7256V35.6741C63.7267 35.7657 63.7525 35.8554 63.8001 35.9335C63.8478 36.0116 63.9156 36.0753 63.9964 36.1179L66.9111 37.5495C66.9818 37.583 67.0449 37.6309 67.0964 37.69C67.1479 37.7491 67.1867 37.8182 67.2105 37.893C67.2356 37.973 67.2447 38.0571 67.2374 38.1407C67.2301 38.2242 67.2064 38.3054 67.1677 38.3797C67.1351 38.4475 67.0893 38.508 67.0331 38.5578C66.9769 38.6076 66.9114 38.6456 66.8404 38.6696C66.7693 38.6936 66.6943 38.7031 66.6195 38.6976C66.5448 38.6921 66.4719 38.6716 66.4052 38.6374L64.424 37.6783C64.3075 37.6238 64.1745 37.6173 64.0533 37.6601C63.9321 37.7029 63.8323 37.7916 63.7755 37.9073C63.7438 37.9745 63.7268 38.0477 63.7256 38.1221V43.0036C63.7256 43.2618 63.6235 43.5094 63.4417 43.692C63.2599 43.8745 63.0134 43.9771 62.7564 43.9771V40.0833C62.7564 39.9523 62.7046 39.8267 62.6123 39.7341C62.5201 39.6414 62.3951 39.5894 62.2646 39.5894C62.1355 39.5913 62.0122 39.6441 61.9215 39.7366C61.8309 39.829 61.78 39.9535 61.78 40.0833V43.4975C61.781 43.5617 61.7691 43.6254 61.7451 43.6849C61.7211 43.7444 61.6854 43.7985 61.6402 43.8438C61.595 43.8892 61.5412 43.925 61.482 43.9492C61.4228 43.9733 61.3593 43.9852 61.2954 43.9843C61.2315 43.9852 61.1681 43.9733 61.1089 43.9492C61.0496 43.925 60.9958 43.8892 60.9506 43.8438C60.9054 43.7985 60.8698 43.7444 60.8458 43.6849C60.8217 43.6254 60.8099 43.5617 60.8108 43.4975V40.0833C60.8108 39.9523 60.759 39.8267 60.6668 39.7341C60.5746 39.6414 60.4495 39.5894 60.3191 39.5894C60.195 39.5985 60.0788 39.6545 59.9942 39.7461C59.9096 39.8378 59.8627 39.9583 59.863 40.0833V43.4975C59.864 43.5617 59.8521 43.6254 59.8281 43.6849C59.8041 43.7444 59.7684 43.7985 59.7232 43.8438C59.678 43.8892 59.6242 43.925 59.565 43.9492C59.5057 43.9733 59.4423 43.9852 59.3784 43.9843C59.3145 43.9852 59.251 43.9733 59.1918 43.9492C59.1326 43.925 59.0788 43.8892 59.0336 43.8438C58.9884 43.7985 58.9527 43.7444 58.9287 43.6849C58.9047 43.6254 58.8928 43.5617 58.8938 43.4975V40.0833C58.8938 39.9535 58.843 39.829 58.7523 39.7366C58.6616 39.6441 58.5384 39.5913 58.4092 39.5894C58.2788 39.5894 58.1537 39.6414 58.0615 39.7341C57.9693 39.8267 57.9174 39.9523 57.9174 40.0833V43.9843C57.6604 43.9843 57.4139 43.8817 57.2321 43.6991C57.0504 43.5166 56.9482 43.269 56.9482 43.0108V32.2742L62.7564 32.2599Z" fill="#1F8BE5"/>
<path d="M73.4034 48.4006C73.815 48.1939 74.2687 48.0861 74.7289 48.0856H75.6411C75.9584 48.068 76.276 48.1156 76.5744 48.2254C76.8729 48.3353 77.1458 48.5051 77.3767 48.7245C77.6076 48.9439 77.7915 49.2083 77.9171 49.5015C78.0428 49.7947 78.1076 50.1106 78.1076 50.4298C78.1076 50.749 78.0428 51.0649 77.9171 51.3581C77.7915 51.6513 77.6076 51.9157 77.3767 52.1351C77.1458 52.3545 76.8729 52.5243 76.5744 52.6342C76.276 52.744 75.9584 52.7916 75.6411 52.774H74.7289C74.2687 52.7735 73.815 52.6657 73.4034 52.459C72.8298 52.1728 72.198 52.0238 71.5576 52.0238C70.9171 52.0238 70.2854 52.1728 69.7118 52.459C69.3005 52.6664 68.8465 52.7743 68.3863 52.774H67.4955C67.1781 52.7916 66.8605 52.744 66.5621 52.6342C66.2637 52.5243 65.9907 52.3545 65.7598 52.1351C65.529 51.9157 65.3451 51.6513 65.2194 51.3581C65.0937 51.0649 65.0289 50.749 65.0289 50.4298C65.0289 50.1106 65.0937 49.7947 65.2194 49.5015C65.3451 49.2083 65.529 48.9439 65.7598 48.7245C65.9907 48.5051 66.2637 48.3353 66.5621 48.2254C66.8605 48.1156 67.1781 48.068 67.4955 48.0856H68.4148C68.875 48.0853 69.329 48.1932 69.7403 48.4006C70.3101 48.6823 70.9367 48.8287 71.5718 48.8287C72.2069 48.8287 72.8335 48.6823 73.4034 48.4006Z" fill="#85C2FF"/>
<path d="M38.2552 28.4305C33.68 28.4305 30.0953 26.0327 30.0953 22.9692C30.0953 19.9057 33.6586 17.5078 38.2552 17.5078C42.8518 17.5078 46.4151 19.9057 46.4151 22.9692C46.4151 26.0327 42.8305 28.4305 38.2552 28.4305ZM38.2552 19.3259C34.8131 19.3259 31.9126 20.9936 31.9126 22.9692C31.9126 24.9447 34.8131 26.6124 38.2552 26.6124C41.6973 26.6124 44.605 24.9447 44.605 22.9692C44.605 20.9936 41.6973 19.3259 38.2552 19.3259Z" fill="#FFF6DE"/>
<path d="M50.1495 8.51054H26.468V44.6284H50.1495V8.51054Z" fill="#3399FF"/>
<path d="M50.8764 0H25.6342C25.095 0 24.6578 0.439034 24.6578 0.980609V7.52993C24.6578 8.07151 25.095 8.51054 25.6342 8.51054H50.8764C51.4156 8.51054 51.8527 8.07151 51.8527 7.52993V0.980609C51.8527 0.439034 51.4156 0 50.8764 0Z" fill="#ADD6FF"/>
<path d="M52.7435 44.6284H23.6672V49.7104H52.7435V44.6284Z" fill="#ADD6FF"/>
<path d="M30.0455 52.8026C31.5175 52.8026 32.7108 51.604 32.7108 50.1256C32.7108 48.6471 31.5175 47.4486 30.0455 47.4486C28.5734 47.4486 27.3801 48.6471 27.3801 50.1256C27.3801 51.604 28.5734 52.8026 30.0455 52.8026Z" fill="#3399FF"/>
<path d="M46.4152 52.8026C47.8872 52.8026 49.0805 51.604 49.0805 50.1256C49.0805 48.6471 47.8872 47.4486 46.4152 47.4486C44.9432 47.4486 43.7499 48.6471 43.7499 50.1256C43.7499 51.604 44.9432 52.8026 46.4152 52.8026Z" fill="#3399FF"/>
<path d="M38.07 27.0562C41.9114 27.0562 45.0255 25.3257 45.0255 23.191C45.0255 21.0564 41.9114 19.3259 38.07 19.3259C34.2286 19.3259 31.1145 21.0564 31.1145 23.191C31.1145 25.3257 34.2286 27.0562 38.07 27.0562Z" fill="#ADD6FF"/>
<path d="M26.468 18.1735H23.6672V27.908H26.468V18.1735Z" fill="#ADD6FF"/>
<path d="M20.0897 49.3239H0V53.0603H20.0897V49.3239Z" fill="#1F8BE5"/>
<path d="M2.6012 49.3239L8.21691 42.9321H12.1508L17.4885 49.3239H2.6012Z" fill="#ADD6FF"/>
<path d="M12.1508 0.322098H8.21692V42.9321H12.1508V0.322098Z" fill="#3399FF"/>
<path d="M20.0897 0.322098H8.21692V3.89381H20.0897V0.322098Z" fill="#3399FF"/>
<path d="M20.0897 3.89381H16.5763V25.0878H20.0897V3.89381Z" fill="#3399FF"/>
<path d="M23.6744 21.1511H19.2203V25.0878H23.6744V21.1511Z" fill="#3399FF"/>
<path d="M12.1508 10.1998H8.21692V22.189H12.1508V10.1998Z" fill="#ADD6FF"/>
<path d="M5.35913 8.91138V15.2889H8.65872" stroke="#ADD6FF" stroke-linecap="round" stroke-linejoin="round"/>
<path d="M38.3123 0V8.51054" stroke="#3399FF" stroke-miterlimit="10"/>
<path d="M42.0751 0V8.51054" stroke="#3399FF" stroke-miterlimit="10"/>
</g>
<g clip-path="url(#clip3)">
<path d="M16.41 120.93H14.41V167.66H16.41V120.93Z" fill="#FFCC33"/>
<path d="M3 166.48H27.81L22.78 191.34L7.82 191.14L3 166.48Z" fill="#70B8FF"/>
<path d="M27.15 191.02H3.66003V194.3H27.15V191.02Z" fill="#70B8FF"/>
<path d="M19.57 118.93L15.45 123.05L11.33 118.93L15.35 111L19.57 118.93Z" fill="#99CC33"/>
<path d="M12.17 124.04L15.27 128.97L10.34 132.07L3.51001 126.39L12.17 124.04Z" fill="#99CC33"/>
<path d="M19.35 135.97L15.28 131.8L19.45 127.73L27.33 131.84L19.35 135.97Z" fill="#99CC33"/>
</g>
<path d="M247.389 23.0583H244.935V25.5131H247.389V23.0583Z" fill="#1F8BE5"/>
<path d="M258.453 32.2656H253.537V34.7203H258.453V32.2656Z" fill="#70B8FF"/>
<path d="M248.628 23.67H247.397V24.9014H248.628V23.67Z" fill="#70B8FF"/>
<path d="M244.943 23.3642H243.712V25.2072H244.943V23.3642Z" fill="#70B8FF"/>
<path d="M241.483 24.2817H243.712" stroke="#ADD6FF" stroke-width="0.31" stroke-miterlimit="10"/>
<path d="M253.537 26.4306L253.843 27.9678V28.2736H255.074L254.76 26.4306H253.537Z" fill="#ADD6FF"/>
<path d="M249.538 22.4386H248.62V25.8189H249.538V22.4386Z" fill="#ADD6FF"/>
<path d="M258.445 22.1328L256.916 21.827H249.546V22.4386V25.8189V26.4306H254.76L255.379 30.7364L253.537 32.2656H258.445V31.3481L257.833 30.7364L257.222 26.4306L258.445 26.1248V22.1328Z" fill="#1F8BE5"/>
<path d="M256.602 23.0583H258.445" stroke="#ADD6FF" stroke-width="0.38" stroke-miterlimit="10"/>
<path d="M256.602 24.2817H258.445" stroke="#ADD6FF" stroke-width="0.38" stroke-miterlimit="10"/>
<path d="M252.306 21.827V23.0584" stroke="#ADD6FF" stroke-width="0.38" stroke-miterlimit="10"/>
<path d="M253.537 21.827V23.0584" stroke="#ADD6FF" stroke-width="0.38" stroke-miterlimit="10"/>
<path d="M254.76 21.827V23.0584" stroke="#ADD6FF" stroke-width="0.38" stroke-miterlimit="10"/>
<path d="M255.685 23.9759H250.769V25.2072H255.685V23.9759Z" fill="#70B8FF"/>
<path d="M272.848 22.2455H275.423C275.609 22.2516 275.787 22.3177 275.932 22.4337C276.077 22.5497 276.181 22.7096 276.228 22.8893H286.447L286.189 20.33C286.191 20.243 286.176 20.1565 286.144 20.0756C286.113 19.9946 286.065 19.9208 286.004 19.8586C285.943 19.7963 285.871 19.7469 285.791 19.7131C285.711 19.6793 285.624 19.6619 285.537 19.662H262.967C262.796 19.662 262.633 19.7298 262.512 19.8506C262.391 19.9713 262.324 20.1351 262.324 20.3058L262.05 22.8652H272.011C272.064 22.6847 272.174 22.5264 272.326 22.4145C272.477 22.3026 272.66 22.2432 272.848 22.2455Z" fill="#1F8BE5"/>
<path d="M277.153 25.4728H271.126V26.9779H277.153V25.4728Z" fill="#ADD6FF"/>
<path d="M269.404 18.1489C269.406 17.8657 269.52 17.5946 269.72 17.3943C269.92 17.194 270.191 17.0806 270.474 17.0785H277.797C278.08 17.0806 278.351 17.194 278.551 17.3943C278.751 17.5946 278.865 17.8657 278.867 18.1489V19.662H279.945V16.6439C279.945 16.4731 279.877 16.3093 279.757 16.1886C279.636 16.0678 279.472 16 279.301 16H268.97C268.799 16 268.635 16.0678 268.515 16.1886C268.394 16.3093 268.326 16.4731 268.326 16.6439V19.662H269.404V18.1489Z" fill="#70B8FF"/>
<path d="M271.955 22.8893H261.656C261.485 22.8893 261.321 22.9572 261.2 23.0779C261.08 23.1987 261.012 23.3624 261.012 23.5332C261.012 23.704 261.08 23.8677 261.2 23.9885C261.321 24.1092 261.485 24.1771 261.656 24.1771H271.818L271.955 22.8893Z" fill="#70B8FF"/>
<path d="M286.68 22.8974H276.316L276.453 24.1851H286.744C286.891 24.1553 287.022 24.0755 287.116 23.9596C287.21 23.8436 287.26 23.6986 287.259 23.5493C287.264 23.3872 287.207 23.2295 287.099 23.1083C286.991 22.9871 286.841 22.9117 286.68 22.8974Z" fill="#70B8FF"/>
<path d="M276.719 26.3099C276.722 26.4825 276.684 26.6534 276.608 26.8087C276.533 26.964 276.422 27.0991 276.284 27.2032V28.2656C276.284 28.3795 276.239 28.4888 276.16 28.5701C276.08 28.6514 275.971 28.6981 275.858 28.7002H272.414C272.3 28.6981 272.191 28.6514 272.112 28.5701C272.032 28.4888 271.987 28.3795 271.987 28.2656V27.1871C271.849 27.0869 271.738 26.9548 271.662 26.802C271.586 26.6492 271.549 26.4803 271.553 26.3099L271.818 24.1771H261.953L263.16 34.0523C263.16 34.2231 263.228 34.3868 263.349 34.5076C263.47 34.6283 263.633 34.6962 263.804 34.6962H284.467C284.638 34.6962 284.802 34.6283 284.922 34.5076C285.043 34.3868 285.111 34.2231 285.111 34.0523L286.519 24.1771H276.493L276.719 26.3099Z" fill="#1F8BE5"/>
<path d="M276.831 26.7847L276.292 22.6962C276.274 22.568 276.207 22.4518 276.105 22.3722C276.003 22.2926 275.874 22.2558 275.745 22.2696H272.486C272.356 22.256 272.226 22.2939 272.124 22.3751C272.021 22.4564 271.955 22.5746 271.939 22.7042L271.4 26.7928C271.4 27.0423 271.714 27.34 272.035 27.4286C273.409 27.6944 274.822 27.6944 276.195 27.4286C276.549 27.34 276.863 27.0262 276.831 26.7847ZM276.292 26.5513C276.274 26.6795 276.207 26.7957 276.105 26.8753C276.003 26.9549 275.874 26.9917 275.745 26.9779H272.486C272.357 26.9917 272.228 26.9549 272.126 26.8753C272.024 26.7957 271.957 26.6795 271.939 26.5513V25.8994C271.957 25.7712 272.024 25.655 272.126 25.5754C272.228 25.4958 272.357 25.459 272.486 25.4728H275.745C275.874 25.459 276.003 25.4958 276.105 25.5754C276.207 25.655 276.274 25.7712 276.292 25.8994V26.5513Z" fill="#70B8FF"/>
<path d="M271.955 27.1952V28.7002H276.316V27.2032C275.616 27.4515 274.878 27.5768 274.136 27.5734C273.391 27.5897 272.651 27.4612 271.955 27.1952Z" fill="#70B8FF"/>
<path d="M257.745 59.0825C257.768 59.0406 257.781 58.9936 257.781 58.9457C257.781 58.8978 257.768 58.8507 257.745 58.8089C257.719 58.769 257.683 58.7368 257.641 58.7155C257.598 58.6943 257.551 58.6848 257.504 58.6881H255.894C255.731 58.6882 255.573 58.6243 255.456 58.51C255.339 58.3957 255.271 58.2401 255.267 58.0765C255.266 57.9951 255.281 57.9143 255.311 57.8387C255.341 57.7631 255.386 57.6942 255.443 57.6359C255.499 57.5776 255.567 57.531 255.642 57.4989C255.717 57.4668 255.797 57.4497 255.878 57.4487H257.488C257.535 57.4481 257.582 57.4361 257.624 57.4137C257.666 57.3913 257.702 57.3591 257.729 57.3199C257.751 57.2776 257.762 57.2307 257.762 57.1831C257.762 57.1355 257.751 57.0886 257.729 57.0463C257.601 56.7447 257.415 56.4712 257.182 56.2414C256.912 55.9792 256.589 55.7797 256.233 55.6573C255.878 55.5349 255.5 55.4926 255.126 55.5333C254.752 55.5741 254.392 55.6969 254.072 55.8931C253.751 56.0892 253.478 56.3539 253.271 56.668L244.911 56.7807C244.647 56.4021 244.285 56.1022 243.864 55.9125C243.443 55.7228 242.979 55.6506 242.52 55.7034C242.062 55.7562 241.626 55.9321 241.259 56.2124C240.893 56.4927 240.609 56.8671 240.437 57.2958C240.414 57.3376 240.402 57.3847 240.402 57.4326C240.402 57.4805 240.414 57.5276 240.437 57.5694C240.464 57.6086 240.5 57.6408 240.542 57.6632C240.584 57.6856 240.631 57.6976 240.679 57.6982H242.288C242.452 57.6981 242.609 57.7621 242.726 57.8763C242.843 57.9906 242.911 58.1462 242.915 58.3099C242.919 58.392 242.905 58.4739 242.875 58.5502C242.844 58.6266 242.798 58.6955 242.738 58.7525C242.683 58.8118 242.615 58.8588 242.541 58.8907C242.466 58.9225 242.385 58.9385 242.304 58.9376H240.695C240.648 58.9391 240.602 58.9521 240.561 58.9753C240.52 58.9986 240.485 59.0314 240.46 59.071C240.435 59.1106 240.419 59.1558 240.415 59.2027C240.411 59.2496 240.419 59.2967 240.437 59.34C240.569 59.6395 240.754 59.9122 240.984 60.1449C241.256 60.409 241.583 60.6094 241.942 60.7317C242.301 60.854 242.682 60.895 243.058 60.8519C243.435 60.8088 243.797 60.6825 244.119 60.4823C244.441 60.2821 244.714 60.0129 244.919 59.6942L253.311 59.5573C253.407 59.6879 253.512 59.8116 253.625 59.9276C253.921 60.2195 254.283 60.435 254.68 60.5553C255.077 60.6755 255.498 60.6969 255.906 60.6176C256.313 60.5383 256.695 60.3607 257.019 60.1002C257.342 59.8397 257.597 59.5041 257.761 59.1227L257.745 59.0825ZM251.976 58.4225L246.247 58.503C246.17 58.5021 246.095 58.4736 246.038 58.4225C245.986 58.3676 245.955 58.2965 245.949 58.2213C245.949 58.1445 245.98 58.0708 246.034 58.0165C246.088 57.9621 246.162 57.9316 246.239 57.9316L251.976 57.8511C252.051 57.853 252.122 57.8831 252.176 57.9353C252.229 57.9875 252.261 58.058 252.265 58.1328C252.265 58.1708 252.258 58.2085 252.243 58.2437C252.229 58.2788 252.207 58.3108 252.181 58.3377C252.154 58.3646 252.122 58.3859 252.087 58.4005C252.051 58.415 252.014 58.4225 251.976 58.4225Z" fill="#70B8FF"/>
<path d="M264.922 58.2857L276.992 52.9256C277.221 53.8079 277.398 54.7027 277.523 55.6056L266.001 60.7163C265.839 60.7848 265.657 60.7878 265.494 60.7247C265.33 60.6617 265.197 60.5374 265.124 60.3783L264.576 59.163C264.506 59.0007 264.503 58.8173 264.568 58.6528C264.633 58.4884 264.76 58.3564 264.922 58.2857Z" fill="#70B8FF"/>
<path d="M276.051 50.2938L280.074 48.499C281.682 51.6224 283.866 54.4132 286.511 56.7243C286.35 57.2153 285.65 58.6076 282.673 59.9437C279.841 61.1992 278.344 60.8773 277.845 60.6761H277.74C277.842 57.1393 277.269 53.6156 276.051 50.2938Z" fill="#1F8BE5"/>
<path d="M291.524 38.1972V34.7203H237.476V38.1972H291.524Z" fill="#ADD6FF"/>
<path d="M291.524 64.161V60.6841H237.476V64.161H291.524Z" fill="#ADD6FF"/>
<path d="M291.524 90.1811V86.7042H237.476V90.1811H291.524Z" fill="#ADD6FF"/>
<path d="M291.524 116.201V112.724H237.476V116.201H291.524Z" fill="#ADD6FF"/>
<path d="M237.476 20.9336H234V120H237.476V20.9336Z" fill="#1F8BE5"/>
<path d="M295 20.9336H291.524V120H295V20.9336Z" fill="#1F8BE5"/>
<path d="M247.59 98.8491H245.418V111.903H247.59V98.8491Z" fill="#ADD6FF"/>
<path d="M244.718 112.346C244.718 112.442 244.756 112.534 244.824 112.602C244.892 112.67 244.984 112.708 245.08 112.708H247.945C248.041 112.708 248.133 112.67 248.201 112.602C248.268 112.534 248.307 112.442 248.307 112.346V98.2213H244.718V112.346ZM246.158 99.4688C246.15 99.4173 246.154 99.3647 246.168 99.3146C246.183 99.2645 246.208 99.2182 246.242 99.1787C246.276 99.1392 246.318 99.1075 246.365 99.0858C246.413 99.064 246.464 99.0528 246.516 99.0528C246.568 99.0528 246.62 99.064 246.667 99.0858C246.715 99.1075 246.757 99.1392 246.791 99.1787C246.825 99.2182 246.85 99.2645 246.864 99.3146C246.879 99.3647 246.882 99.4173 246.874 99.4688V110.946C246.861 111.031 246.818 111.11 246.753 111.166C246.687 111.223 246.603 111.254 246.516 111.254C246.43 111.254 246.346 111.223 246.28 111.166C246.214 111.11 246.171 111.031 246.158 110.946V99.4688Z" fill="#1F8BE5"/>
<path d="M250.093 93.3441H245.08C244.985 93.344 244.894 93.3811 244.827 93.4473C244.759 93.5135 244.72 93.6035 244.718 93.6982C244.731 93.8471 244.713 93.9971 244.664 94.1386C244.616 94.2801 244.539 94.4101 244.438 94.5202C244.337 94.6304 244.214 94.7183 244.078 94.7785C243.941 94.8387 243.793 94.8697 243.644 94.8697C243.494 94.8697 243.346 94.8387 243.21 94.7785C243.073 94.7183 242.95 94.6304 242.849 94.5202C242.748 94.4101 242.671 94.2801 242.623 94.1386C242.575 93.9971 242.557 93.8471 242.569 93.6982C242.569 93.6043 242.532 93.5142 242.466 93.4478C242.399 93.3814 242.309 93.3441 242.215 93.3441H240.775C240.681 93.3441 240.591 93.3814 240.525 93.4478C240.458 93.5142 240.421 93.6043 240.421 93.6982V98.004C240.421 98.0979 240.458 98.188 240.525 98.2544C240.591 98.3208 240.681 98.3581 240.775 98.3581H242.215C242.309 98.3581 242.399 98.3208 242.466 98.2544C242.532 98.188 242.569 98.0979 242.569 98.004C242.557 97.8551 242.575 97.7051 242.623 97.5636C242.671 97.4221 242.748 97.2922 242.849 97.182C242.95 97.0718 243.073 96.9839 243.21 96.9237C243.346 96.8635 243.494 96.8325 243.644 96.8325C243.793 96.8325 243.941 96.8635 244.078 96.9237C244.214 96.9839 244.337 97.0718 244.438 97.182C244.539 97.2922 244.616 97.4221 244.664 97.5636C244.713 97.7051 244.731 97.8551 244.718 98.004V98.2213H248.307V98.004C248.307 97.338 248.571 96.6993 249.042 96.2284C249.513 95.7575 250.151 95.493 250.817 95.493C251.483 95.493 252.121 95.7575 252.592 96.2284C253.063 96.6993 253.327 97.338 253.327 98.004C253.327 98.0979 253.365 98.188 253.431 98.2544C253.498 98.3208 253.588 98.3581 253.682 98.3581H254.406C254.452 98.3581 254.498 98.349 254.541 98.3312C254.584 98.3134 254.623 98.2873 254.656 98.2544C254.689 98.2215 254.715 98.1825 254.733 98.1395C254.751 98.0966 254.76 98.0505 254.76 98.004C254.76 97.3914 254.639 96.7848 254.404 96.2189C254.17 95.653 253.826 95.1389 253.392 94.7061C252.959 94.2733 252.444 93.9302 251.878 93.6965C251.312 93.4628 250.705 93.343 250.093 93.3441Z" fill="#70B8FF"/>
<path d="M270.619 107.565C272.575 107.807 274.337 108.056 276.026 108.322C276.398 108.375 276.755 108.503 277.076 108.698C277.397 108.893 277.675 109.151 277.893 109.457C278.049 109.691 278.155 109.955 278.205 110.231C278.255 110.508 278.248 110.793 278.183 111.066C278.12 111.32 278.004 111.556 277.843 111.762C277.683 111.967 277.48 112.136 277.25 112.258C276.908 112.446 276.531 112.564 276.142 112.603C275.753 112.641 275.361 112.601 274.988 112.483L271.818 111.525L271.263 111.348C268.431 110.447 265.743 109.602 263.217 109.038H263.112L263.699 106.431C266.186 106.946 268.439 107.292 270.619 107.565Z" fill="#70B8FF"/>
<path d="M256.707 107.96L257.632 103.807C258.389 100.435 261.825 99.839 263.265 99.7344L262.822 100.394C262.127 101.304 261.556 102.303 261.125 103.364C261.041 103.736 261.078 104.125 261.229 104.475C261.305 104.656 261.423 104.816 261.573 104.943C261.722 105.071 261.899 105.161 262.09 105.207C263.128 105.433 263.587 105.537 263.812 105.569C263.828 105.571 263.844 105.576 263.858 105.584C263.872 105.592 263.884 105.604 263.893 105.618C263.904 105.649 263.904 105.683 263.893 105.714L263.007 109.682C262.997 109.713 262.976 109.74 262.948 109.757C262.92 109.775 262.887 109.782 262.855 109.779L261.245 109.417C261.123 109.387 260.995 109.382 260.871 109.403C260.746 109.423 260.627 109.469 260.521 109.537C260.435 109.591 260.359 109.659 260.296 109.738L257.005 109.054C256.88 108.904 256.789 108.728 256.738 108.539C256.687 108.35 256.676 108.153 256.707 107.96Z" fill="#3399FF"/>
<path d="M255.991 111.686L256.401 109.859C256.487 109.533 256.663 109.237 256.908 109.006L260.239 109.698C260.376 109.843 260.481 110.014 260.551 110.201C260.62 110.387 260.651 110.586 260.642 110.785L260.231 112.628C260.224 112.661 260.203 112.689 260.175 112.707C260.146 112.726 260.112 112.732 260.078 112.724L256.168 111.847C256.055 111.847 256.023 111.847 256.007 111.775C255.998 111.762 255.993 111.747 255.99 111.732C255.987 111.717 255.987 111.701 255.991 111.686Z" fill="#3399FF"/>
<path d="M285.787 83.9276H278.392V85.0785H285.787V83.9276Z" fill="#1F8BE5"/>
<path d="M285.779 83.9356L286.785 83.5332V85.4809L285.779 85.0785V83.9356Z" fill="#70B8FF"/>
<path d="M289.327 85.006L286.777 85.4728V83.5412L289.327 84V85.006Z" fill="#70B8FF"/>
<path d="M278.449 85.8672L277.411 85.4406V83.5734L278.44 83.1469L278.449 85.8672Z" fill="#70B8FF"/>
<path d="M277.451 83.6056H276.316L275.158 82.326H268.817C268.273 82.383 267.769 82.6395 267.403 83.046C267.037 83.4525 266.835 83.9801 266.835 84.5272C266.835 85.0742 267.037 85.6018 267.403 86.0083C267.769 86.4148 268.273 86.6713 268.817 86.7284H275.254L276.348 85.4487H277.451V83.6056ZM268.833 82.9618H275.149L275.552 83.4366H268.833V82.9618ZM268.833 84.2575H276.308V84.7485H268.833V84.2575ZM275.182 86.0201H268.833V85.5372H275.552L275.182 86.0201Z" fill="#1F8BE5"/>
<path d="M275.499 77.3852L268.709 80.3156L269.165 81.3723L275.955 78.442L275.499 77.3852Z" fill="#1F8BE5"/>
<path d="M275.487 77.3924L276.252 76.6278L277.024 78.4225L275.946 78.4467L275.487 77.3924Z" fill="#70B8FF"/>
<path d="M279.181 76.9738L277.016 78.4145L276.252 76.6358L278.778 76.0483L279.181 76.9738Z" fill="#70B8FF"/>
<path d="M269.525 82.0765L268.407 82.0926L267.658 80.3863L268.439 79.5815L269.525 82.0765Z" fill="#70B8FF"/>
<path d="M267.682 80.3863L266.668 80.829L265.059 80.1127L264.939 80.169L264.536 80.338L259.266 82.6157C258.807 82.8928 258.465 83.3268 258.302 83.8371C258.139 84.3475 258.167 84.8996 258.38 85.3911C258.594 85.8825 258.978 86.2799 259.462 86.5095C259.946 86.7392 260.496 86.7855 261.012 86.6398L266.387 84.3219L266.709 84.1851L266.894 84.1046L267.393 82.495L268.415 82.0604L267.682 80.3863ZM259.547 83.2113L265.341 80.7163L265.904 80.9899L259.749 83.6539L259.547 83.2113ZM260.062 84.4105L266.918 81.4487L267.119 81.8994L260.255 84.8612L260.062 84.4105ZM266.596 83.5412L260.77 86.0201L260.553 85.6177L266.725 82.9537L266.596 83.5412Z" fill="#1F8BE5"/>
<defs>
<clipPath id="clip0">
<rect width="25" height="46" fill="white" transform="translate(230 146)"/>
</clipPath>
<clipPath id="clip1">
<rect width="65.52" height="34.94" fill="white" transform="translate(106 154)"/>
</clipPath>
<clipPath id="clip2">
<rect width="78" height="55" fill="white"/>
</clipPath>
<clipPath id="clip3">
<rect width="24.81" height="83.3" fill="white" transform="translate(3 111)"/>
</clipPath>
</defs>
</svg>
