<svg width="189" height="114" viewBox="0 0 189 114" fill="none" xmlns="http://www.w3.org/2000/svg">
<g clip-path="url(#clip0)">
<path d="M20.7 76.2C19.6 74.8 18.2 74.1 16.5 74.1C15.8 74.1 15.1 74.2 14.5 74.5C13.9 74.8 13.3 75.1 12.9 75.6C12.4 76.1 12.1 76.6 11.8 77.2C11.5 77.8 11.4 78.5 11.4 79.2C11.4 80 11.5 80.6 11.8 81.3C12.1 81.9 12.4 82.5 12.9 83C13.4 83.5 13.9 83.8 14.5 84.1C15.1 84.4 15.8 84.5 16.5 84.5C18.1 84.5 19.5 83.8 20.7 82.5V88.3L20.2 88.5C19.4 88.8 18.7 89 18.1 89.1C17.4 89.2 16.8 89.3 16.2 89.3C14.9 89.3 13.7 89.1 12.5 88.6C11.3 88.1 10.3 87.4 9.40002 86.5C8.50002 85.6 7.80002 84.5 7.20002 83.3C6.70002 82.1 6.40002 80.7 6.40002 79.3C6.40002 77.8 6.70002 76.5 7.20002 75.3C7.60002 74 8.30002 73 9.20002 72.1C10.1 71.2 11.2 70.5 12.4 70.1C13.6 69.6 14.9 69.4 16.2 69.4C17 69.4 17.7 69.5 18.4 69.6C19.1 69.8 19.9 70 20.7 70.3V76.2Z" fill="#FA6E91"/>
<path d="M23.2 79.3C23.2 77.9 23.5 76.6 24 75.4C24.5 74.2 25.2 73.1 26.1 72.2C27 71.3 28.0999 70.6 29.4 70.1C30.7 69.6 32.0999 69.3 33.5999 69.3C35.0999 69.3 36.4999 69.6 37.7999 70.1C39.0999 70.6 40.1999 71.3 41.0999 72.2C41.9999 73.1 42.6999 74.2 43.2999 75.4C43.7999 76.6 44.0999 77.9 44.0999 79.3C44.0999 80.7 43.7999 82 43.2999 83.2C42.7999 84.4 42.0999 85.5 41.0999 86.4C40.1999 87.3 39.0999 88 37.7999 88.5C36.4999 89 35.0999 89.3 33.5999 89.3C32.0999 89.3 30.7 89 29.4 88.5C28.0999 88 27 87.3 26.1 86.4C25.2 85.5 24.5 84.4 24 83.2C23.4 82 23.2 80.7 23.2 79.3ZM28.2999 79.3C28.2999 80.1 28.4 80.7 28.7 81.4C29 82 29.4 82.6 29.9 83C30.4 83.5 30.9 83.8 31.6 84.1C32.3 84.4 32.8999 84.5 33.5999 84.5C34.2999 84.5 34.9999 84.4 35.5999 84.1C36.1999 83.8 36.7999 83.5 37.2999 83C37.7999 82.5 38.2 82 38.5 81.4C38.8 80.8 38.9 80.1 38.9 79.3C38.9 78.5 38.8 77.9 38.5 77.2C38.2 76.6 37.7999 76 37.2999 75.5C36.7999 75 36.1999 74.7 35.5999 74.4C34.9999 74.1 34.2999 74 33.5999 74C32.8999 74 32.2 74.1 31.6 74.4C31 74.7 30.4 75 29.9 75.5C29.4 76 29 76.5 28.7 77.2C28.4 77.9 28.2999 78.5 28.2999 79.3Z" fill="#FA6E91"/>
<path d="M46.3 88.7L49.5 69.9H54.3L58.1 79.9L61.9001 69.9H66.7L69.9001 88.7H65L63.4001 77.9L59 88.7H57L52.8 77.9L51.2001 88.7H46.3Z" fill="#FA6E91"/>
<path d="M72.2 88.7L75.4 69.9H80.2L84 79.9L87.8 69.9H92.6L95.8 88.7H90.9L89.3 77.9L84.8 88.7H82.8L78.6 77.9L77 88.7H72.2Z" fill="#FA6E91"/>
<path d="M103.8 69.9V80.1C103.8 80.6 103.8 81.2 103.9 81.8C103.9 82.4 104.1 82.9 104.3 83.4C104.5 83.9 104.8 84.2 105.3 84.5C105.8 84.8 106.4 84.9 107.2 84.9C108 84.9 108.6 84.8 109.1 84.5C109.5 84.2 109.9 83.8 110.1 83.4C110.3 82.9 110.4 82.4 110.5 81.8C110.5 81.2 110.6 80.7 110.6 80.1V69.9H115.5V80.8C115.5 83.7 114.8 85.9 113.5 87.2C112.2 88.5 110.1 89.2 107.3 89.2C104.5 89.2 102.4 88.5 101.1 87.2C99.8 85.9 99.1 83.7 99.1 80.8V69.9H103.8Z" fill="#FA6E91"/>
<path d="M119.3 88.7V69.9H124.2L133.2 81.4V69.9H138.1V88.7H133.2L124.2 77.2V88.7H119.3Z" fill="#FA6E91"/>
<path d="M146.9 69.9V88.7H142V69.9H146.9Z" fill="#FA6E91"/>
<path d="M158 74V88.7H153.1V74H149.1V69.9H162.1V74H158Z" fill="#FA6E91"/>
<path d="M170 79.7L163.1 69.9H168.9L172.4 75L175.9 69.9H181.8L174.9 79.7V88.7H170V79.7Z" fill="#FA6E91"/>
<path d="M10.7 98H4.9V101.2H10.4V105.3H4.9V108.5H10.7V112.7H0V93.9H10.7V98Z" fill="#FA6E91"/>
<path d="M14.2 112.7V93.9H19.1L28.1 105.4V93.9H33V112.7H28.1L19.1 101.2V112.7H14.2Z" fill="#FA6E91"/>
<path d="M46.5 102.2H56.2C56.2 103.2 56.2 104.1 56.1 104.9C56 105.7 55.9 106.5 55.6 107.2C55.3 108.2 54.8 109.1 54.2 109.8C53.6 110.6 52.9 111.2 52.1 111.7C51.3 112.2 50.4 112.6 49.4 112.9C48.4 113.2 47.4 113.3 46.4 113.3C44.9 113.3 43.6 113.1 42.4 112.6C41.2 112.1 40.2 111.4 39.3 110.6C38.4 109.7 37.8 108.7 37.3 107.4C36.8 106.2 36.6 104.8 36.6 103.3C36.6 101.8 36.8 100.5 37.3 99.3C37.8 98.1 38.4 97 39.3 96.2C40.2 95.3 41.2 94.7 42.5 94.2C43.7 93.7 45.1 93.5 46.6 93.5C48.6 93.5 50.3 93.9 51.8 94.8C53.3 95.6 54.5 97 55.3 98.7L50.7 100.6C50.3 99.6 49.7 98.8 49 98.4C48.3 97.9 47.5 97.7 46.6 97.7C45.9 97.7 45.2 97.8 44.6 98.1C44 98.4 43.5 98.8 43.1 99.3C42.7 99.8 42.3 100.4 42.1 101.1C41.9 101.8 41.7 102.6 41.7 103.5C41.7 104.3 41.8 105 42 105.7C42.2 106.4 42.5 107 42.9 107.5C43.3 108 43.8 108.4 44.4 108.7C45 109 45.7 109.1 46.6 109.1C47.1 109.1 47.6 109 48 108.9C48.5 108.8 48.9 108.6 49.2 108.4C49.6 108.2 49.9 107.8 50.1 107.5C50.3 107.1 50.5 106.6 50.6 106.1H46.6V102.2H46.5Z" fill="#FA6E91"/>
<path d="M70.2 109.4H63.2L62.1 112.7H56.9L64 93.9H69.4L76.6 112.7H71.4L70.2 109.4ZM68.9 105.7L66.7 99.4L64.5 105.7H68.9Z" fill="#FA6E91"/>
<path d="M87.3 102.2H97C97 103.2 97 104.1 96.9 104.9C96.8 105.7 96.7 106.5 96.4 107.2C96.1 108.2 95.6 109.1 95 109.8C94.4 110.6 93.7 111.2 92.9 111.7C92.1 112.2 91.2 112.6 90.2 112.9C89.2 113.2 88.2 113.3 87.2 113.3C85.7 113.3 84.4 113.1 83.2 112.6C82 112.1 81 111.4 80.1 110.6C79.2 109.7 78.6 108.7 78.1 107.4C77.6 106.2 77.4 104.8 77.4 103.3C77.4 101.8 77.6 100.5 78.1 99.3C78.6 98.1 79.2 97 80.1 96.2C81 95.3 82 94.7 83.3 94.2C84.5 93.7 85.9 93.5 87.4 93.5C89.4 93.5 91.1 93.9 92.6 94.8C94.1 95.6 95.3 97 96.1 98.7L91.5 100.6C91.1 99.6 90.5 98.8 89.8 98.4C89.1 97.9 88.3 97.7 87.4 97.7C86.7 97.7 86 97.8 85.4 98.1C84.8 98.4 84.3 98.8 83.9 99.3C83.5 99.8 83.1 100.4 82.9 101.1C82.7 101.8 82.5 102.6 82.5 103.5C82.5 104.3 82.6 105 82.8 105.7C83 106.4 83.3 107 83.7 107.5C84.1 108 84.6 108.4 85.2 108.7C85.8 109 86.5 109.1 87.4 109.1C87.9 109.1 88.4 109 88.8 108.9C89.3 108.8 89.7 108.6 90 108.4C90.4 108.2 90.7 107.8 90.9 107.5C91.1 107.1 91.3 106.6 91.4 106.1H87.4V102.2H87.3Z" fill="#FA6E91"/>
<path d="M110.8 98H105V101.2H110.5V105.3H105V108.5H110.8V112.7H100.1V93.9H110.8V98Z" fill="#FA6E91"/>
<path d="M113.5 112.7L116.7 93.9H121.5L125.3 103.9L129.1 93.9H133.9L137.1 112.7H132.2L130.6 101.9L126.1 112.7H124.1L119.9 101.9L118.3 112.7H113.5Z" fill="#FA6E91"/>
<path d="M151 98H145.2V101.2H150.7V105.3H145.2V108.5H151V112.7H140.3V93.9H151V98Z" fill="#FA6E91"/>
<path d="M154.5 112.7V93.9H159.4L168.4 105.4V93.9H173.3V112.7H168.4L159.4 101.2V112.7H154.5Z" fill="#FA6E91"/>
<path d="M184.4 98V112.7H179.5V98H175.5V93.9H188.5V98H184.4Z" fill="#FA6E91"/>
<path d="M122.4 50.4H66.4V64.5H122.4V50.4Z" fill="#FB8BA7"/>
<path d="M101.9 27C104.7 24.2 106.5 20.2 106.5 15.8C106.5 7.1 99.5 0 90.7 0H83.4H81.2C77 0 73 1.8 70.1 4.6C69.4 5.3 68.8 6 68.2 6.8C66.4 9.3 65.4 12.4 65.4 15.7C65.4 21 68 25.8 72.1 28.6C71.2 30.9 69.9 32.9 68.3 34.7C68 35.2 68.3 36 69 36C73.9 36 78.4 34.3 82 31.5H90.7C95.1 31.6 99.1 29.8 101.9 27Z" fill="#F15685"/>
<path d="M123 30.3C123 29.2 122.9 28 122.7 26.9C122 23.6 120.2 20.6 117.7 18.4C114.9 15.9 111.3 14.5 107.3 14.5H106.5C106 18.6 104 22.4 101.1 25.4C97.4 29 92.6 31 87.5 31H82C82.2 36 84.8 40.5 88.7 43.3C91.2 45.1 94.4 46.1 97.8 46.1H105.3C108.3 49.6 112.7 51.8 117.6 51.9C115.9 49.7 114.8 47.2 114.3 44.4C115.8 43.6 117.2 42.6 118.4 41.5C121.2 38.6 123 34.7 123 30.3Z" fill="#FDC5D3"/>
</g>
<defs>
<clipPath id="clip0">
<rect width="188.4" height="113.2" fill="white"/>
</clipPath>
</defs>
</svg>
