<svg width="92" height="62" viewBox="0 0 92 62" fill="none" xmlns="http://www.w3.org/2000/svg">
<path d="M27.1766 11.7877H12.8569V25.4889H27.1766V11.7877Z" fill="white"/>
<path d="M81.0678 9.41482H81.2218L81.2988 12.7827H81.0678C80.7598 11.4049 79.3741 10.1037 76.7565 10.0272C73.6 9.87408 72.2912 11.7111 72.2142 13.4716C72.2142 15.8444 74.0619 16.3037 76.7565 16.9161C78.0653 17.2222 82.7615 17.8346 82.3766 23.1161C82.1456 26.7901 78.9121 28.5506 74.3699 28.3975C74.3699 28.3975 72.5222 28.321 69.8276 27.6321C69.3657 27.479 69.2117 27.6321 68.9808 28.0148H68.7498V24.4173H68.9808C69.0577 24.8 69.1347 25.4889 69.7506 26.0247C70.2126 26.484 71.3674 27.479 73.908 27.5556C76.3716 27.5556 78.4502 26.5605 78.6812 23.8049C78.7582 23.0395 78.6812 21.3556 76.9875 20.5901C75.6787 19.9778 72.0603 19.5951 70.3665 18.0642C70.3665 18.0642 68.2879 16.6099 68.5958 13.9309C69.0577 10.1802 72.2142 9.18519 75.0628 9.10864C75.0628 9.10864 77.6034 9.10864 79.682 9.5679C79.682 9.5679 80.2209 9.72099 80.6059 9.5679C80.9138 9.5679 81.0678 9.49136 81.0678 9.41482Z" fill="#231F20"/>
<path d="M63.2067 18.1408C63.5147 17.9877 67.2101 16.6099 66.8251 13.242C66.4402 9.03211 61.8979 9.33828 60.3582 9.33828C58.2795 9.33828 52.0435 9.33828 52.0435 9.33828V9.56791C52.8904 9.64445 53.3523 10.1803 53.2753 11.7111L53.3523 26.0247C53.3523 27.4025 52.7364 27.8617 51.9666 27.9383V28.1679C51.9666 28.1679 61.8979 28.1679 62.8988 28.1679C64.3615 28.1679 67.9029 27.7087 68.1339 23.4988C68.1339 22.5803 67.826 19.2889 63.2067 18.1408ZM64.4385 23.5753C64.3615 26.4074 62.7448 27.1728 61.744 27.3259C60.6661 27.5556 59.1264 27.479 57.9716 27.479C56.8168 27.4025 56.8937 26.9432 56.8937 26.484C56.8937 26.484 56.8937 24.5704 56.9707 22.0445C57.0477 17.4519 57.2017 10.8691 57.2017 10.7926C57.2017 10.1803 57.3557 10.1037 57.9716 10.1037C58.3565 10.1037 58.5105 10.1037 59.3573 10.1037C60.3582 10.1037 63.2067 10.1803 63.3607 13.9309C63.5147 17.758 59.5113 18.2173 58.5105 18.2173C58.4335 18.2173 58.4335 18.3704 58.5105 18.3704C61.513 18.4469 64.5155 19.5185 64.4385 23.5753Z" fill="#231F20"/>
<path d="M42.6509 9.41483C41.8041 9.41483 33.7204 9.41483 33.7204 9.41483V9.64446C34.3363 9.721 34.8752 10.1803 34.9522 10.8691C35.1831 13.0124 35.2601 25.8716 34.8752 27.2494C34.7982 27.6321 34.1823 27.9383 33.5664 28.0914V28.321C33.5664 28.321 41.6501 28.321 43.4978 28.321C47.4241 28.321 51.6585 24.7235 51.6585 18.9062C51.7354 12.0938 46.5773 9.41483 42.6509 9.41483ZM44.4216 27.0198C43.0359 27.5556 41.4961 27.6321 39.6484 27.479C38.6476 27.4025 38.5706 26.7901 38.5706 26.5605C38.4936 24.8 38.4936 12.4766 38.5706 10.9457C38.6476 10.1037 38.8016 10.1037 39.5714 10.1037C40.3413 10.1037 41.1882 10.1803 41.1882 10.1803C45.8844 10.4864 47.5781 14.084 47.9631 18.6766C48.348 23.3457 46.1924 26.3309 44.4216 27.0198Z" fill="#231F20"/>
<path d="M29.1782 18.7531C29.1782 17.3753 29.2552 16.1506 30.256 13.9309C30.564 13.3185 31.2569 12.4 30.256 11.2519C29.4862 10.4864 28.5623 10.563 27.9464 10.9457C28.3314 10.3333 28.4083 9.41483 27.6385 8.64939C26.5607 7.65433 25.6368 8.34322 24.9439 8.64939C22.7113 9.64445 21.4795 9.721 20.0937 9.721C18.7079 9.721 17.4761 9.64445 15.2435 8.64939C14.6276 8.34322 13.7037 7.65433 12.5489 8.64939C11.7791 9.41483 11.856 10.3333 12.241 10.9457C11.6251 10.563 10.7012 10.4864 9.93136 11.2519C8.93053 12.3235 9.62341 13.242 9.93136 13.9309C10.9322 16.1506 11.0092 17.3753 11.0092 18.7531C11.0092 20.1309 10.9322 21.3556 9.93136 23.5753C9.62341 24.1877 8.93053 25.1062 9.93136 26.2543C10.7012 27.0198 11.6251 26.9432 12.241 26.5605C11.856 27.1728 11.7791 28.0914 12.5489 28.8568C13.6268 29.8519 14.5506 29.163 15.2435 28.8568C17.4761 27.8617 18.7079 27.7852 20.0937 27.7852C21.4795 27.7852 22.7113 27.8617 24.9439 28.8568C25.5598 29.163 26.4837 29.8519 27.6385 28.8568C28.4083 28.0914 28.3314 27.1728 27.9464 26.5605C28.5623 26.9432 29.4862 27.0198 30.256 26.2543C31.2569 25.1827 30.564 24.2642 30.256 23.5753C29.2552 21.4321 29.1782 20.2074 29.1782 18.7531ZM26.7916 25.4124L21.6335 21.1259C21.6335 21.1259 20.9406 20.437 20.1707 20.437C19.4008 20.437 18.7079 21.1259 18.7079 21.1259L13.5498 25.4124L17.8611 20.284C17.8611 20.284 18.554 19.5951 18.554 18.8296C18.554 18.0642 17.8611 17.3753 17.8611 17.3753L13.5498 12.2469L18.7079 16.5333C18.7079 16.5333 19.4008 17.2222 20.1707 17.2222C20.9406 17.2222 21.6335 16.5333 21.6335 16.5333L26.7916 12.2469L22.4803 17.3753C22.4803 17.3753 21.7874 18.0642 21.7874 18.8296C21.7874 19.5951 22.4803 20.284 22.4803 20.284L26.7916 25.4124Z" fill="#ED1C24"/>
<path d="M15.7054 33.0667C16.1674 32.6839 16.4753 32.7605 17.0912 32.9136C17.4762 32.9901 17.5531 33.1432 17.8611 33.2963C17.8611 33.2963 20.7096 35.5926 21.4795 35.9753C22.1724 36.358 22.2494 36.5111 22.0184 36.5876C21.8644 36.5876 17.3992 35.0568 16.9372 34.8272C16.4753 34.5975 16.4753 34.521 16.0134 34.7506C15.6285 34.9802 15.5515 34.7506 15.4745 34.521C15.3975 34.3679 15.1665 34.5975 15.0126 34.2913C14.9356 33.9086 15.3975 33.9086 15.3975 33.679L15.7054 33.0667Z" fill="#231F20"/>
<path d="M17.861 33.2963C17.861 33.2963 17.4761 34.5975 18.092 34.5975C18.6309 34.6741 19.0158 34.5975 20.0166 34.4445C21.0175 34.2914 21.0945 35.1333 22.7112 34.2914C24.174 33.5259 28.9472 34.0617 29.7171 33.9852C30.4099 33.9087 30.7179 33.6025 30.5639 33.4494C30.4099 33.2963 29.871 32.9136 29.2551 32.5309C28.6392 32.1482 28.2543 31.7654 27.7154 32.0716C27.1765 32.3778 25.7907 32.837 24.4049 33.0667C23.4041 33.2198 19.8627 33.5259 18.7848 33.4494C18.2459 33.4494 18.015 33.3729 17.861 33.2963Z" fill="#231F20"/>
<path d="M17.6301 36.5877C19.0159 35.2099 19.7088 34.5975 20.0937 34.2914C20.5556 33.9852 24.328 33.1432 23.4042 33.7556C22.4033 34.4444 21.3255 35.1333 19.7857 36.7407C18.8619 37.6593 18.169 38.2716 17.3221 39.3432C16.3213 40.5679 16.1673 40.8741 13.5498 44.7012C10.3933 49.3704 10.4703 50.5185 10.3163 51.284C10.1623 52.1259 10.1623 52.9679 9.70039 52.279C9.31546 51.7432 8.93052 50.6716 9.77738 48.3753C10.0083 47.763 10.1623 47.2272 10.7012 46.2321C10.9322 45.8494 11.2401 45.3136 11.5481 44.7778C12.7029 42.8642 13.1648 41.9457 14.9355 39.6494C15.3205 39.1136 15.9364 38.3481 16.3213 37.8889C17.3221 36.8173 17.3991 36.8173 17.6301 36.5877Z" fill="#231F20"/>
<path d="M11.9331 41.563C12.318 41.6395 13.1649 41.6395 14.6276 41.2568C16.0904 40.8741 16.8603 40.7975 19.7858 40.2617C22.7113 39.7259 24.0201 39.6494 23.5582 39.879C23.0963 40.0321 18.631 41.3333 16.9373 41.7926C15.2435 42.3284 13.6268 42.558 13.1649 42.7877C12.703 43.0173 12.395 43.0173 11.9331 42.7877C11.4712 42.558 11.3942 42.3284 11.5481 42.1753C11.7021 42.0222 11.3942 41.9457 11.5481 41.716C11.6251 41.4099 11.9331 41.563 11.9331 41.563Z" fill="#231F20"/>
<path d="M26.1757 41.0272C25.5598 40.9506 24.79 40.4914 24.636 40.1852C24.482 39.879 23.9431 39.5728 23.7121 39.7259C23.4812 39.879 23.3272 39.6494 23.1732 39.6494C23.0192 39.5728 22.7113 39.879 22.5573 40.2617C22.5573 40.2617 21.6335 41.1802 20.7096 42.2519C19.8628 43.2469 19.2469 44.7778 20.0167 45.3901C20.7866 46.079 22.0184 46.1556 23.3272 45.237C24.713 44.3951 26.0987 42.4815 26.3297 41.9457C26.6377 41.4864 26.7916 41.1037 26.1757 41.0272ZM24.559 43.0173C24.1741 43.6296 23.7891 43.9358 23.3272 44.3185C23.0192 44.5482 22.2494 44.9309 21.7105 45.084C21.0946 45.237 20.8636 44.9309 21.0176 44.3951C21.1716 43.9358 21.3255 43.5531 21.7105 43.0173C22.0184 42.558 22.2494 42.4049 22.5573 42.0988C22.7883 41.7926 23.3272 41.4099 23.3272 41.4099C23.7121 41.2568 24.0201 41.1037 23.7891 41.563C23.4812 42.0222 23.4042 42.1753 23.4812 42.558C23.5582 42.9407 24.328 43.7827 24.1741 43.4C24.0971 43.0173 24.251 43.0938 24.328 42.7877C24.405 42.4815 24.79 42.3284 24.8669 42.3284C25.0209 42.3284 25.0209 42.4049 24.559 43.0173Z" fill="#231F20"/>
<path d="M25.7139 42.4815C26.4067 42.1753 27.0226 42.0988 28.1005 41.4864C29.1783 40.8741 29.0243 40.721 29.2553 40.4914C29.4862 40.2617 29.5632 40.4148 29.7172 40.5679C29.8712 40.6445 30.1791 40.5679 30.5641 40.721C30.949 40.8741 31.103 40.7975 30.872 40.9506C30.6411 41.1037 29.8712 41.7161 28.7164 42.0222C27.5616 42.3284 25.6369 42.7111 25.3289 42.7111C25.098 42.8642 25.7139 42.4815 25.7139 42.4815Z" fill="#231F20"/>
<path d="M28.2545 41.8691C28.7164 41.3333 29.3323 41.0272 29.9482 41.0272C30.6411 41.0272 31.257 40.6445 30.7181 41.1803C30.2562 41.7161 29.6403 42.2519 29.2553 42.6346C28.8704 43.0173 28.1775 43.6296 28.0235 43.9358C27.7926 44.242 28.4085 44.7778 29.3323 44.242C30.2562 43.7062 32.5658 41.563 32.5658 41.563C33.5666 40.6445 33.5666 40.3383 33.9516 40.4148C34.5675 40.4148 35.5683 40.6445 35.1064 41.0272C34.6444 41.4099 32.8737 43.9358 32.4118 44.4716C31.9499 45.0074 31.7959 45.6198 32.1808 45.4667C33.0277 45.084 33.1817 45.0074 33.6436 44.7778C34.7214 44.1654 35.8762 43.3235 35.4143 43.7062C34.9524 44.0889 35.7223 43.7827 35.1834 44.1654C34.7214 44.5482 33.4896 45.6198 32.8737 46.0025C32.2578 46.3852 31.488 46.3087 31.257 46.079C31.026 45.8494 30.8721 45.237 31.026 44.7778C31.18 44.3185 30.8721 44.3951 30.4871 44.7012C30.1022 45.0074 28.4085 46.079 27.9465 46.079C26.3298 46.0025 26.7147 44.3185 26.8687 43.8593C27.0997 43.2469 28.2545 41.8691 28.2545 41.8691Z" fill="#231F20"/>
<path d="M57.2787 34.3679C58.0486 33.7555 57.5097 33.8321 57.2018 33.8321C56.9708 33.8321 56.2009 33.679 55.816 33.9086C55.431 34.1383 55.585 34.0617 55.2001 34.4444C54.8921 34.7506 54.8921 34.8272 54.3532 35.5926C53.8143 36.358 51.2737 39.4197 50.8118 40.1852C50.3499 40.9506 50.2729 40.721 49.9649 40.721C49.811 40.721 48.8871 40.1852 48.1172 40.2617C46.9624 40.2617 46.0386 40.8741 45.4997 41.2568C45.0377 41.563 44.4988 42.0988 43.7289 43.0173C43.344 43.5531 42.9591 44.6247 42.8821 44.8543C42.8051 45.0074 42.5741 45.6963 42.9591 46.079C43.344 46.4617 44.3448 46.3852 44.7298 46.3086C45.2687 46.1556 45.9616 45.8494 46.4235 45.5432C47.3474 44.9309 47.8863 44.4716 48.3482 44.0123C48.8101 43.5531 48.9641 43.4 49.1181 43.4765C49.272 43.5531 49.272 43.7062 49.1951 44.1654C49.1181 44.5481 49.1181 44.7012 49.272 45.0074C49.426 45.3136 49.734 45.6963 50.0419 45.6963C50.4269 45.6963 50.7348 45.7728 51.4277 45.1605C52.1206 44.6247 51.7356 44.7012 51.5047 44.8543C51.2737 45.0074 51.2737 45.084 50.8888 45.084C50.5038 45.084 50.3499 44.8543 50.1189 44.242C49.9649 43.6296 50.0419 43.0173 50.9658 41.4864C52.1976 39.9556 56.5089 34.9802 57.2787 34.3679ZM48.1172 42.7877C47.8863 43.0938 47.3474 43.6296 46.3465 44.3185C45.0377 45.3136 44.6528 45.237 44.4988 44.9309C44.4218 44.6247 44.8838 43.6296 45.6536 42.8642C46.2695 42.2518 46.6545 41.8691 46.9624 41.716C47.3474 41.4864 48.5022 41.2568 48.5792 41.716C48.7331 42.0222 48.2712 42.558 48.1172 42.7877Z" fill="#231F20"/>
<path d="M68.057 44.6247C66.9791 45.0074 66.6712 45.0074 66.7482 44.6247C66.9021 44.0889 67.2871 43.4 68.057 42.558C68.8268 41.7926 69.2118 41.6395 68.9038 41.4099C68.5959 41.1802 68.057 40.9506 67.749 41.1037C67.4411 41.2568 67.3641 41.563 66.6712 42.2518C65.9783 42.9407 64.8235 44.0889 63.6687 44.6247C63.2067 44.8543 61.359 45.5432 61.59 44.6247C61.667 44.0123 62.0519 43.4 62.7448 42.4815C63.4377 41.563 67.518 37.8123 67.903 37.4296C68.2879 37.0469 69.1348 36.2049 69.2118 35.8222C69.2888 35.4395 68.6729 35.6691 68.5189 35.4395C68.4419 35.1333 67.903 35.0568 67.2101 35.5926C66.5172 36.0518 66.0553 36.7407 64.8235 38.1951C63.5917 39.5728 61.898 41.3333 61.0511 42.2518C60.1273 43.2469 59.6653 43.7827 58.6645 44.5481C57.7406 45.237 57.2017 45.1605 57.2787 44.7778C57.3557 44.3951 56.1239 44.4716 56.4319 45.0074C56.7398 45.5432 56.6628 46.3086 57.7406 46.1555C59.4344 45.9259 60.7432 43.7062 60.7432 43.7062C60.7432 43.7062 59.8963 45.237 60.1272 45.7728C60.4352 46.3852 61.59 46.5383 63.1298 45.7728C64.7465 45.0074 65.8243 43.7062 65.8243 43.7062C65.8243 43.7062 65.4394 44.7778 65.3624 45.4667C65.2854 46.2321 65.9013 46.6148 66.7482 46.079C67.672 45.5432 68.7498 45.1605 69.2118 44.4716C70.2896 43.0173 69.2118 44.1654 68.057 44.6247Z" fill="#231F20"/>
<path d="M61.436 38.1951C62.4369 38.1951 65.2084 37.9654 65.9783 37.9654C66.8252 37.9654 69.9816 37.5827 70.2896 37.5827C70.5975 37.5827 70.1356 37.9654 69.9047 38.3482C69.6737 38.7309 68.2109 39.2667 67.1331 39.4198C66.0553 39.5729 64.7465 39.2667 64.0536 39.2667C63.3607 39.2667 62.7448 39.2667 62.2059 38.884C61.744 38.5013 61.436 38.1951 61.436 38.1951Z" fill="#231F20"/>
<path d="M68.5188 39.4198C68.7498 39.4198 69.2117 39.4198 69.2117 39.6494C69.2887 39.8025 69.5966 39.8025 69.6736 40.0321C69.7506 40.2617 69.7506 40.721 69.2117 40.7976C68.6728 40.8741 68.5188 40.5679 68.3648 40.1852C68.2878 39.879 68.5188 39.4198 68.5188 39.4198Z" fill="#231F20"/>
<path d="M74.3699 42.0222C74.2929 41.7926 73.754 41.3334 73.1381 41.1037C72.5222 40.8741 72.2912 40.7975 71.9833 40.721C71.7523 40.6445 71.6753 40.9506 71.5213 41.3333C71.4444 41.6395 71.2134 41.7161 70.8285 42.0222C70.8285 42.0222 70.2895 42.4815 70.0586 42.9408C69.7506 43.4 69.2887 44.0889 69.3657 44.7778C69.4427 45.5432 69.9816 46.079 70.4435 46.1556C71.0594 46.2321 71.4444 46.079 71.6753 46.0025C72.2142 45.8494 73.2151 45.237 73.677 44.6247C74.1389 44.0124 74.4469 43.4 74.6778 42.9408C74.7548 42.558 74.4469 42.2519 74.3699 42.0222ZM71.5983 44.7012C70.8285 45.3136 70.2895 45.4667 70.1356 44.8543C70.0586 44.242 70.9054 43.4766 70.9054 43.4766C71.2134 43.0938 71.3674 42.9408 71.5983 42.9408C71.8293 42.9408 72.0603 42.7111 72.4452 42.558C72.7531 42.405 73.0611 42.9408 72.8301 43.4766C72.6762 44.0124 72.3682 44.1654 71.5983 44.7012Z" fill="#231F20"/>
<path fill-rule="evenodd" clip-rule="evenodd" d="M41.3422 45.3901C41.3422 45.3136 41.5732 44.7778 41.7272 44.5482C41.8812 44.1654 42.0351 43.7827 42.2661 43.4C42.651 42.6346 43.113 42.0222 43.4979 41.2568C43.5749 41.1803 43.5749 40.9506 43.4979 40.8741C43.1899 40.5679 42.2661 40.3383 42.1891 40.3383C42.1121 40.3383 41.8812 40.2617 41.7272 40.3383C41.4192 40.4148 41.3422 40.4914 41.1113 40.5679C40.9573 40.6445 40.6494 40.9506 40.4954 41.0272C40.1874 41.3333 39.8795 41.6395 39.5715 41.8691C39.2636 42.0988 38.8786 42.3284 38.5707 42.4815C38.5707 42.3284 38.7247 42.2519 38.7247 42.1753C38.9556 41.7161 38.8786 41.2568 38.4167 41.1803C38.2627 41.1803 38.1858 41.1037 38.0318 41.1037C37.8778 41.1037 37.6468 41.1037 37.5699 41.1803C37.4929 41.1803 37.3389 41.2568 37.1849 41.3333C37.0309 41.4099 36.877 41.6395 36.646 41.8691C36.492 42.0988 35.8761 42.6346 35.5682 42.8642C35.3372 43.0173 34.1824 44.1654 33.7205 44.3951C33.3355 44.7012 32.7966 45.084 32.5657 45.237L32.6427 45.8494C32.8736 45.6963 33.0276 45.6963 33.3355 45.4667C34.2594 44.8543 34.7213 44.5482 35.1832 44.1654C35.3372 44.0124 35.6452 43.7827 35.7991 43.7062C35.8761 43.6296 35.9531 43.6296 35.7222 43.8593C35.4142 44.242 35.2602 44.7778 35.4142 45.1605C35.4912 45.4667 35.8761 45.6198 36.2611 45.5432C36.646 45.4667 37.2619 44.9309 37.4929 44.7778C37.7238 44.6247 37.9548 44.3185 38.1088 44.1654C38.6477 43.7827 39.0326 43.4765 39.0326 43.4765C39.4176 43.0938 39.8795 42.7877 40.2644 42.4815C40.2644 42.4815 40.4184 42.4049 40.4184 42.4815C40.4184 42.6346 40.3414 42.7111 40.3414 42.7877C40.2644 43.0938 40.0335 43.4765 40.0335 43.7827C39.9565 44.3951 39.8795 45.084 40.0335 45.6963C40.1874 46.1556 40.6494 46.3852 41.2653 46.2321C41.8042 46.079 42.3431 45.6963 42.882 45.3901C42.959 45.3901 43.036 45.237 43.113 45.1605C42.3431 45.3136 41.4192 45.6963 41.3422 45.3901Z" fill="black"/>
<path fill-rule="evenodd" clip-rule="evenodd" d="M80.3748 45.3901C80.3748 45.3136 80.6058 44.8543 80.7598 44.5481C80.9137 44.1654 81.0677 43.7827 81.2217 43.4765C81.6066 42.7876 81.9916 42.0988 82.3765 41.4099C82.4535 41.3333 82.4535 41.1037 82.3765 41.1037C82.1455 40.7975 81.2987 40.5679 81.1447 40.5679C81.0677 40.5679 80.9137 40.4914 80.7598 40.5679C80.4518 40.6444 80.3748 40.721 80.2209 40.7975C80.0669 40.8741 79.7589 41.1037 79.605 41.2568C79.297 41.563 78.9891 41.8691 78.7581 42.0988C78.4501 42.3284 78.1422 42.4815 77.8342 42.7111C77.8342 42.558 77.9882 42.4815 77.9882 42.4049C78.2192 41.9457 78.1422 41.563 77.6803 41.4099C77.6033 41.4099 77.5263 41.3333 77.2953 41.3333C77.1414 41.3333 76.9874 41.3333 76.9104 41.4099C76.8334 41.4099 76.6794 41.4864 76.5255 41.563C76.3715 41.6395 76.2945 41.9457 76.0635 42.0222C75.6016 42.2518 74.7547 42.2518 74.3698 42.1753C73.5229 42.0222 73.9849 41.6395 73.5999 41.8691C73.292 42.0988 73.5229 42.0988 73.9849 42.2518C74.3698 42.4049 74.9857 42.7876 75.9865 42.8642C76.0635 42.7876 75.2937 43.8592 75.1397 44.0889C74.9857 44.3185 74.8317 44.8543 74.9087 45.237C74.9857 45.5432 75.3706 45.6963 75.6786 45.6197C75.9865 45.5432 76.6794 45.0839 76.8334 44.9309C77.0644 44.7778 77.2953 44.4716 77.4493 44.3951C77.9112 43.9358 78.3732 43.5531 78.3732 43.5531C78.7581 43.1704 79.143 42.8642 79.528 42.558C79.528 42.558 79.6819 42.4815 79.6819 42.558C79.6819 42.6346 79.605 42.7876 79.605 42.8642C79.528 43.1704 79.374 43.5531 79.297 43.8592C79.22 44.4716 79.143 45.1605 79.297 45.6963C79.451 46.1555 79.8359 46.3852 80.3748 46.2321C80.9137 46.079 81.3757 45.6963 81.8376 45.3901C81.9146 45.3901 81.9916 45.237 81.9916 45.1605C81.2987 45.3136 80.4518 45.6197 80.3748 45.3901Z" fill="#231F20"/>
<path fill-rule="evenodd" clip-rule="evenodd" d="M51.3505 44.4716C51.6584 43.7827 51.9664 43.3235 52.4283 42.8642C52.7363 42.6346 53.1982 42.1753 54.353 41.2568C55.5848 40.3383 56.9706 40.4914 57.7405 41.1803C57.8174 41.2568 57.9714 41.4099 58.0484 41.3334C58.5873 41.1037 58.7413 41.3334 58.9723 41.4864C59.0492 41.6395 58.8953 41.8692 58.8183 42.0222C58.5103 42.4815 58.2024 42.9408 57.8944 43.4C57.7405 43.6296 57.6635 43.7827 57.5865 44.0889C57.3555 44.7778 57.8944 44.9309 58.8183 44.3951C59.2032 44.1654 59.6651 43.6296 60.2041 43.3235C60.743 43.0173 60.589 43.5531 60.1271 44.0889C59.7421 44.5482 59.2802 45.2371 58.7413 45.6198C57.2785 46.3852 56.2007 46.1556 56.2007 44.6247C56.2007 44.3951 56.2777 44.1654 56.2007 43.8593C55.9697 44.0124 56.0467 44.0124 55.1999 44.5482C54.661 44.9309 53.9681 45.4667 52.6593 45.9259C52.0434 46.1556 51.5045 45.9259 51.1965 45.4667C51.1195 45.3136 51.2735 44.7012 51.3505 44.4716ZM53.0442 43.8593C52.8902 44.0889 52.4283 44.5482 52.5823 44.7013C52.8133 45.0074 53.5831 44.5482 53.8911 44.3951C54.276 44.242 54.8149 43.7827 54.8919 43.7062C55.5848 42.9408 55.6618 42.7877 55.8928 42.405C56.1237 42.0222 55.7388 41.7161 55.1999 42.0222C54.661 42.3284 54.43 42.558 53.9681 42.9408C53.4292 43.4 53.1982 43.6296 53.0442 43.8593Z" fill="black"/>
</svg>
