<svg width="165" height="115" viewBox="0 0 165 115" fill="none" xmlns="http://www.w3.org/2000/svg">
<g clip-path="url(#clip0)">
<path d="M15.5 75.2999H9.70005V78.4999H15.2V82.7H9.70005V85.8999H15.5V90.1H4.80005V71.2H15.5V75.2999Z" fill="#1D0777"/>
<path d="M19 71.2H26.2C27.5 71.2 28.7 71.4999 29.8 71.9999C30.9 72.4999 31.9 73.2 32.7 74.1C33.5 75 34.2 76 34.7 77.1C35.2 78.2 35.4 79.4 35.4 80.7C35.4 81.9 35.2 83.0999 34.7 84.2999C34.2 85.4 33.6 86.4 32.7 87.2999C31.9 88.1999 30.9 88.8999 29.7 89.3999C28.6 89.8999 27.4 90.2 26.1 90.2H19V71.2ZM23.9 85.8999H25C25.8 85.8999 26.6 85.7999 27.3 85.4999C28 85.1999 28.5 84.8999 29 84.3999C29.5 83.8999 29.8 83.4 30 82.7C30.2 82.1 30.4 81.4 30.4 80.6C30.4 79.8 30.3 79.1999 30 78.4999C29.7 77.7999 29.5 77.2999 29 76.7999C28.5 76.2999 28 76 27.3 75.7C26.6 75.4 25.9 75.2999 25.1 75.2999H24V85.8999H23.9Z" fill="#1D0777"/>
<path d="M43.6 71.2V81.3999C43.6 81.8999 43.6 82.5 43.7 83.1C43.7 83.7 43.9 84.2 44.1 84.7C44.3 85.2 44.6 85.4999 45.1 85.7999C45.6 86.0999 46.2 86.2 47 86.2C47.8 86.2 48.4 86.0999 48.9 85.7999C49.3 85.4999 49.7 85.1 49.9 84.7C50.1 84.2 50.2 83.7 50.3 83.1C50.3 82.5 50.4 81.9999 50.4 81.3999V71.2H55.3V82.1C55.3 85 54.6 87.1999 53.3 88.4999C52 89.7999 49.9 90.4999 47.1 90.4999C44.3 90.4999 42.2 89.7999 40.9 88.4999C39.6 87.1999 38.9 85 38.9 82.1V71.2H43.6Z" fill="#1D0777"/>
<path d="M72.6 77.4999C71.5 76.0999 70.1001 75.3999 68.4001 75.3999C67.7001 75.3999 67.0001 75.4999 66.4001 75.7999C65.8001 76.0999 65.2001 76.3999 64.8001 76.8999C64.3001 77.3999 64.0001 77.8999 63.7001 78.4999C63.4001 79.0999 63.3 79.7999 63.3 80.4999C63.3 81.2999 63.4001 81.9 63.7001 82.6C64.0001 83.2 64.3001 83.7999 64.8001 84.2999C65.3001 84.7999 65.8001 85.0999 66.4001 85.3999C67.0001 85.6999 67.7001 85.7999 68.4001 85.7999C70.0001 85.7999 71.4 85.0999 72.6 83.7999V89.6L72.1 89.7999C71.3 90.0999 70.6 90.2999 70 90.3999C69.3 90.4999 68.7 90.6 68.1 90.6C66.8 90.6 65.6001 90.3999 64.4001 89.8999C63.2001 89.3999 62.2 88.6999 61.3 87.7999C60.4 86.9 59.7 85.8 59.1 84.6C58.5 83.4 58.3 82 58.3 80.6C58.3 79.1 58.6 77.8 59.1 76.6C59.6 75.4 60.4 74.3999 61.3 73.4999C62.2 72.5999 63.3 71.8999 64.5 71.3999C65.7 70.8999 67.0001 70.7 68.3001 70.7C69.1001 70.7 69.8 70.7999 70.5 70.8999C71.2 71.0999 72.0001 71.3 72.8001 71.6V77.4999H72.6Z" fill="#1D0777"/>
<path d="M87.7 86.8H80.7L79.6 90.1H74.4L81.6 71.3H87L94.2 90.1H89L87.7 86.8ZM86.4 83L84.2 76.8L82 83H86.4Z" fill="#1D0777"/>
<path d="M102.6 75.2999V89.9999H97.7V75.2999H93.7V71.2H106.7V75.2999H102.6Z" fill="#1D0777"/>
<path d="M113.7 71.2V89.9999H108.8V71.2H113.7Z" fill="#1D0777"/>
<path d="M116.8 80.6C116.8 79.2 117.1 77.9 117.6 76.7C118.1 75.5 118.8 74.4 119.7 73.5C120.6 72.6 121.7 71.9 123 71.4C124.3 70.9 125.7 70.6 127.2 70.6C128.7 70.6 130.1 70.9 131.4 71.4C132.7 71.9 133.8 72.6 134.7 73.5C135.6 74.4 136.3 75.5 136.9 76.7C137.5 77.9 137.7 79.2 137.7 80.6C137.7 82 137.4 83.3 136.9 84.5C136.4 85.7 135.7 86.8 134.7 87.7C133.8 88.6 132.7 89.3 131.4 89.8C130.1 90.3 128.7 90.6 127.2 90.6C125.7 90.6 124.3 90.3 123 89.8C121.7 89.3 120.6 88.6 119.7 87.7C118.8 86.8 118.1 85.7 117.6 84.5C117 83.3 116.8 82 116.8 80.6ZM121.9 80.6C121.9 81.4 122 82 122.3 82.7C122.6 83.3 123 83.9 123.5 84.3C124 84.8 124.5 85.1 125.2 85.4C125.8 85.7 126.5 85.8 127.2 85.8C127.9 85.8 128.6 85.7 129.2 85.4C129.8 85.1 130.4 84.8 130.9 84.3C131.4 83.8 131.8 83.3 132.1 82.7C132.4 82.1 132.5 81.4 132.5 80.6C132.5 79.8 132.4 79.2 132.1 78.5C131.8 77.9 131.4 77.3 130.9 76.8C130.4 76.3 129.8 76 129.2 75.7C128.6 75.4 127.9 75.3 127.2 75.3C126.5 75.3 125.8 75.4 125.2 75.7C124.6 76 124 76.3 123.5 76.8C123 77.3 122.6 77.8 122.3 78.5C122 79.2 121.9 79.9 121.9 80.6Z" fill="#1D0777"/>
<path d="M140.7 89.9999V71.2H145.6L154.6 82.7V71.2H159.5V89.9999H154.6L145.6 78.4999V89.9999H140.7Z" fill="#1D0777"/>
<path d="M13.4 106.8C14.4 105.9 15.2 105 15.8 104.1L18.6 106.8C18.3 107.2 18 107.6 17.6 108C17.2 108.4 16.8 108.8 16.4 109.2L16 109.6L20.2 114.1H14.1L12.4 112.4C10.2 113.9 8 114.6 5.9 114.6C5 114.6 4.2 114.5 3.5 114.2C2.8 113.9 2.1 113.6 1.6 113.1C1.1 112.6 0.6 112 0.4 111.4C0.2 110.8 0 109.9 0 109.2C0 108.5 0.1 107.9 0.3 107.3C0.5 106.8 0.8 106.2 1.3 105.7C1.6 105.3 2 105 2.5 104.7C2.9 104.4 3.4 104.1 4.1 103.9L4.6 103.7L4.3 103.3C3.3 102.1 2.8 100.9 2.8 99.7999C2.8 99.0999 3 98.4 3.3 97.7C3.6 97 4 96.5 4.5 96.1C5 95.6 5.6 95.2999 6.4 94.9999C7 94.7999 7.8 94.7 8.6 94.7C9.4 94.7 10.2 94.8 10.9 95.1C11.6 95.4 12.2 95.7 12.8 96.2C13.3 96.7 13.7 97.1999 14 97.7999C14.3 98.3999 14.4 99.0999 14.4 99.7999C14.4 100.3 14.3 100.8 14.2 101.2C14.1 101.6 13.9 102 13.6 102.4C13.3 102.8 13 103.1 12.5 103.4C12.1 103.7 11.5 104.1 10.9 104.4L13.4 106.8ZM6.8 106.2C5.6 106.9 5 107.7 5 108.4C5 108.7 5.1 108.9 5.2 109.1C5.3 109.3 5.5 109.5 5.7 109.7C5.9 109.9 6.1 110 6.4 110.1C6.7 110.2 6.9 110.2 7.2 110.2C8 110.2 8.9 109.9 9.8 109.4L6.8 106.2ZM8.9 102.1C10.1 101.4 10.7 100.6 10.7 99.7C10.7 99.2 10.5 98.7999 10.2 98.4999C9.9 98.1999 9.5 97.9999 9 97.9999C8.6 97.9999 8.2 98.1999 7.9 98.4999C7.6 98.7999 7.5 99.2 7.5 99.6C7.4 100.2 7.9 101 8.9 102.1Z" fill="#1D0777"/>
<path d="M37.9 99.2999V114H33V99.2999H29V95.2H42V99.2999H37.9Z" fill="#1D0777"/>
<path d="M59.8 114H53.7L49 106.8V114H44.1V95.2H51.7C52.8 95.2 53.7 95.4 54.5 95.7C55.3 96 55.9 96.3999 56.4 96.9999C56.9 97.4999 57.3 98.1999 57.6 98.7999C57.9 99.4999 58 100.2 58 101C58 102.4 57.7 103.6 57 104.5C56.3 105.4 55.3 106 53.9 106.3L59.8 114ZM49 103.6H49.9C50.9 103.6 51.6 103.4 52.1 103C52.6 102.6 52.9 102 52.9 101.3C52.9 100.6 52.6 100 52.1 99.6C51.6 99.2 50.8 98.9999 49.9 98.9999H49V103.6Z" fill="#1D0777"/>
<path d="M73.3 110.8H66.3L65.2 114.1H60L67.2 95.3H72.6L79.8 114.1H74.6L73.3 110.8ZM72 107L69.8 100.7L67.6 107H72Z" fill="#1D0777"/>
<path d="M86.7 95.2V114H81.8V95.2H86.7Z" fill="#1D0777"/>
<path d="M90.7 114V95.2H95.6L104.6 106.7V95.2H109.5V114H104.6L95.6 102.5V114H90.7Z" fill="#1D0777"/>
<path d="M118.4 95.2V114H113.5V95.2H118.4Z" fill="#1D0777"/>
<path d="M122.3 114V95.2H127.2L136.2 106.7V95.2H141.1V114H136.2L127.2 102.5V114H122.3Z" fill="#1D0777"/>
<path d="M154.6 103.5H164.3C164.3 104.5 164.3 105.4 164.2 106.2C164.1 107 164 107.8 163.7 108.5C163.4 109.5 162.9 110.4 162.3 111.1C161.7 111.9 161 112.5 160.2 113C159.4 113.5 158.5 113.9 157.5 114.2C156.5 114.5 155.5 114.6 154.5 114.6C153 114.6 151.7 114.4 150.5 113.9C149.3 113.4 148.3 112.7 147.4 111.9C146.5 111 145.9 110 145.4 108.7C144.9 107.5 144.7 106.1 144.7 104.6C144.7 103.1 144.9 101.8 145.4 100.6C145.9 99.4 146.5 98.3 147.4 97.5C148.3 96.7 149.3 96 150.6 95.5C151.8 95 153.2 94.8 154.7 94.8C156.7 94.8 158.4 95.2 159.9 96.1C161.4 96.9 162.6 98.3 163.4 100L158.8 101.9C158.4 100.9 157.8 100.1 157.1 99.7C156.4 99.3 155.6 99 154.7 99C154 99 153.3 99.1 152.7 99.4C152.1 99.7 151.6 100.1 151.2 100.6C150.8 101.1 150.4 101.7 150.2 102.4C150 103.1 149.8 103.9 149.8 104.8C149.8 105.6 149.9 106.3 150.1 107C150.3 107.7 150.6 108.3 151 108.8C151.4 109.3 151.9 109.7 152.5 110C153.1 110.3 153.8 110.4 154.7 110.4C155.2 110.4 155.7 110.3 156.1 110.2C156.6 110.1 157 109.9 157.3 109.7C157.7 109.5 158 109.1 158.2 108.8C158.4 108.4 158.6 107.9 158.7 107.4H154.7V103.5H154.6Z" fill="#1D0777"/>
<path d="M105.7 52.6H58.7V66.6H105.7V52.6Z" fill="#A49AC3"/>
<path d="M106.1 28.6H58.2V31.1H106.1V28.6Z" fill="#A49AC3"/>
<path d="M106.1 0H58.2V2.5H106.1V0Z" fill="#A49AC3"/>
<path d="M79.9599 9.02041L64.196 54.2524L65.8958 54.8448L81.6597 9.61279L79.9599 9.02041Z" fill="#1D0777"/>
<path d="M82.8462 52.5832L82.8463 31.0832L81.0463 31.0832L81.0463 52.5832L82.8462 52.5832Z" fill="#1D0777"/>
<path d="M83.2205 9.64663L98.9844 54.8786L100.684 54.2862L84.9202 9.05425L83.2205 9.64663Z" fill="#1D0777"/>
<path d="M102.4 2.5H61.8999V28.6H102.4V2.5Z" fill="#5F4E95"/>
</g>
<defs>
<clipPath id="clip0">
<rect width="164.3" height="114.8" fill="white"/>
</clipPath>
</defs>
</svg>
