<svg width="325" height="235" viewBox="0 0 325 235" fill="none" xmlns="http://www.w3.org/2000/svg">
<mask id="mask0" mask-type="alpha" maskUnits="userSpaceOnUse" x="0" y="0" width="325" height="235">
<path d="M0 0H325V234.5H0V0Z" fill="#FFF6DE"/>
</mask>
<g mask="url(#mask0)">
<g clip-path="url(#clip0)">
<path d="M20.28 64H16V116.85H20.28V64Z" fill="#DBA51D"/>
<path d="M62.79 64H58.51V116.85H62.79V64Z" fill="#DBA51D"/>
<path d="M62.46 69.85V65.57H16.34V69.85H62.46Z" fill="#DBA51D"/>
<path d="M30.68 68.71V93.96" stroke="#FFDB70" stroke-width="0.97" stroke-miterlimit="10"/>
<path d="M47.74 68.71V106.58" stroke="#FFDB70" stroke-width="0.97" stroke-miterlimit="10"/>
<path d="M55.48 105.38H40.61V108.98H55.48V105.38Z" fill="#FFCC33"/>
<path d="M30.68 109.56C34.9878 109.56 38.48 106.068 38.48 101.76C38.48 97.4522 34.9878 93.96 30.68 93.96C26.3722 93.96 22.88 97.4522 22.88 101.76C22.88 106.068 26.3722 109.56 30.68 109.56Z" stroke="#FFCC33" stroke-width="1.94" stroke-miterlimit="10"/>
</g>
<g clip-path="url(#clip1)">
<g opacity="0.1">
<g opacity="0.1">
<g opacity="0.1">
<path opacity="0.1" d="M216.35 -16.49L197.32 -27.47L178.18 -38.52L167.29 -37.48L150.81 -47L142.92 -45.65L104.19 -23.14L122.67 -12.48L129.08 -8.78L129.05 -8.76L130.11 -8.15L131.72 -7.22L132.78 -6.61L132.81 -6.62L133.57 -6.18L132.99 -5.85L159.53 9.47L160.11 9.14L161.14 9.73L161.11 9.75L162.18 10.37L163.79 11.29L164.85 11.91L164.87 11.89L171.5 15.72L189.98 26.39L228.71 3.88L231.01 -0.689999L214.54 -10.2L214.22 -9.11L216.35 -16.49Z" fill="#FFCC33"/>
</g>
</g>
</g>
<path d="M163.88 -34.57H95.05V26.04H163.88V-34.57Z" fill="#DBA51D"/>
<path d="M189.93 -28.9H163.88V26.04H189.93V-28.9Z" fill="#FFE38F"/>
<path d="M95.05 -28.9H69V26.04H95.05V-28.9Z" fill="#FFE38F"/>
<path d="M110.61 -0.830017H102.48V17.72H110.61V-0.830017Z" fill="#FFE38F"/>
<path d="M144.87 -0.830017H113.9V17.72H144.87V-0.830017Z" fill="#FFE38F"/>
<path d="M156.29 -0.830017H148.16V17.72H156.29V-0.830017Z" fill="#FFE38F"/>
<path d="M80.38 -8.64999H72.25V4.08001H80.38V-8.64999Z" fill="#DBA51D"/>
<path d="M91.8 -8.64999H83.67V4.08001H91.8V-8.64999Z" fill="#DBA51D"/>
<path d="M80.38 6.76001H72.25V19.49H80.38V6.76001Z" fill="#DBA51D"/>
<path d="M91.8 6.76001H83.67V19.49H91.8V6.76001Z" fill="#DBA51D"/>
<path d="M175.27 -8.64999H167.14V4.08001H175.27V-8.64999Z" fill="#DBA51D"/>
<path d="M186.69 -8.64999H178.56V4.08001H186.69V-8.64999Z" fill="#DBA51D"/>
<path d="M175.27 6.76001H167.14V19.49H175.27V6.76001Z" fill="#DBA51D"/>
<path d="M186.69 6.76001H178.56V19.49H186.69V6.76001Z" fill="#DBA51D"/>
<path d="M107.84 -26.48H105.57V26.07H107.84V-26.48Z" fill="#FFCC33"/>
<path d="M153.05 -26.48H150.78V26.07H153.05V-26.48Z" fill="#FFCC33"/>
<path d="M109.34 15.72H104.07V26.08H109.34V15.72Z" fill="#FFCC33"/>
<path d="M154.55 15.72H149.28V26.08H154.55V15.72Z" fill="#FFCC33"/>
<path d="M139.65 17.72H118.01V19.55H139.65V17.72Z" fill="#FFCC33"/>
<path d="M141.63 19.54H116.42V21.37H141.63V19.54Z" fill="#FFCC33"/>
<path d="M143.31 21.37H114.38V23.2H143.31V21.37Z" fill="#FFCC33"/>
<path d="M145.49 23.2H112.56V25.03H145.49V23.2Z" fill="#FFCC33"/>
<path d="M147.81 25.03H110.41V26.86H147.81V25.03Z" fill="#FFCC33"/>
<path d="M129.38 -1.42999V17.72" stroke="#DBA51D" stroke-miterlimit="10"/>
<path d="M118.01 -1.42999V17.72" stroke="#DBA51D" stroke-miterlimit="10"/>
<path d="M139.66 -1.42999V17.72" stroke="#DBA51D" stroke-miterlimit="10"/>
</g>
<path opacity="0.1" d="M454.51 88.1L361 34.11L324.4 55.38L350.54 70.47L353.38 72.11L354.44 72.72L356.05 73.65L357.12 74.26L360.69 76.33L381.22 88.18L385.45 90.62L386.51 91.23L388.12 92.16L389.18 92.77L391.78 94.28L417.92 109.37L454.51 88.1Z" fill="#FFCC33"/>
<path d="M380.98 51.49H322.85V109.62H380.98V51.49Z" fill="#FFD65C"/>
<path d="M322.85 57.7H286V109.62H322.85V57.7Z" fill="#FFCC33"/>
<path d="M298.68 63.85H290.87V79.05H298.68V63.85Z" fill="#FFF6DE"/>
<path d="M308.33 63.85H300.52V79.05H308.33V63.85Z" fill="#FFF6DE"/>
<path d="M317.98 63.85H310.17V79.05H317.98V63.85Z" fill="#FFF6DE"/>
<path d="M298.68 82.21H290.87V97.41H298.68V82.21Z" fill="#FFF6DE"/>
<path d="M308.33 82.21H300.52V97.41H308.33V82.21Z" fill="#FFF6DE"/>
<path d="M317.98 82.21H310.17V97.41H317.98V82.21Z" fill="#FFF6DE"/>
<path d="M417.82 57.66L407.57 45.56H296.25L286 57.66H417.82Z" fill="#FFD65C"/>
<path d="M352.12 39.75L320.97 57.18H383.28L352.12 39.75Z" fill="#FFE38F"/>
<path d="M381.92 59.19H321.88L320.97 57.18H383.28L381.92 59.19Z" fill="#FFE38F"/>
<path d="M312 179.888H211V219H312V179.888Z" fill="#FFE38F"/>
<path d="M312 179.978L303.751 170.108H219.265L211.008 179.978H312Z" fill="#FFCC33"/>
<path d="M261.5 167L238.598 179.978H284.402L261.5 167Z" fill="#DBA51D"/>
<path d="M245.695 179.888H244.028V219H245.695V179.888Z" fill="#DBA51D"/>
<path d="M278.916 179.888H277.249V219H278.916V179.888Z" fill="#DBA51D"/>
<path d="M221.11 184.309H214.399V197.898H221.11V184.309Z" fill="#DBA51D"/>
<path d="M230.599 184.309H223.889V197.898H230.599V184.309Z" fill="#DBA51D"/>
<path d="M240.088 184.309H233.378V197.898H240.088V184.309Z" fill="#DBA51D"/>
<path d="M273.454 184.309H249.078V197.898H273.454V184.309Z" fill="#DBA51D"/>
<path d="M273.454 200.737H249.078V214.326H273.454V200.737Z" fill="#DBA51D"/>
<path d="M221.11 200.99H214.399V214.579H221.11V200.99Z" fill="#DBA51D"/>
<path d="M230.599 200.99H223.889V214.579H230.599V200.99Z" fill="#DBA51D"/>
<path d="M240.088 200.99H233.378V214.579H240.088V200.99Z" fill="#DBA51D"/>
<path d="M289.227 184.309H282.517V197.898H289.227V184.309Z" fill="#DBA51D"/>
<path d="M298.716 184.309H292.006V197.898H298.716V184.309Z" fill="#DBA51D"/>
<path d="M308.206 184.309H301.496V197.898H308.206V184.309Z" fill="#DBA51D"/>
<path d="M289.227 200.99H282.517V214.579H289.227V200.99Z" fill="#DBA51D"/>
<path d="M298.716 200.99H292.006V214.579H298.716V200.99Z" fill="#DBA51D"/>
<path d="M308.206 200.99H301.496V214.579H308.206V200.99Z" fill="#DBA51D"/>
<path d="M283.403 181.47H239.267L238.598 179.978H284.402L283.403 181.47Z" fill="#DBA51D"/>
<path d="M246.791 211.292H242.924V219H246.791V211.292Z" fill="#DBA51D"/>
<path d="M280.02 211.292H276.153V219H280.02V211.292Z" fill="#DBA51D"/>
<path d="M261.154 199.44V215.631" stroke="#FFE38F" stroke-miterlimit="10"/>
<path d="M251.713 199.44V215.631" stroke="#FFE38F" stroke-miterlimit="10"/>
<path d="M270.82 199.44V215.631" stroke="#FFE38F" stroke-miterlimit="10"/>
<path d="M270.377 214.326H252.14V215.884H270.377V214.326Z" fill="#FFCC33"/>
<path d="M272.045 215.884H250.802V217.442H272.045V215.884Z" fill="#FFCC33"/>
<path d="M273.454 217.442H249.078V219H273.454V217.442Z" fill="#FFCC33"/>
<path d="M261.419 177.963C263.328 177.963 264.875 176.396 264.875 174.464C264.875 172.531 263.328 170.964 261.419 170.964C259.511 170.964 257.964 172.531 257.964 174.464C257.964 176.396 259.511 177.963 261.419 177.963Z" fill="#FFCC33"/>
<g opacity="0.1">
<g opacity="0.1">
<g opacity="0.1">
<path opacity="0.1" d="M94.5818 201.438L82.0899 199.408L75.7641 195.802L67.1069 196.973L66.0175 196.792L65.3784 197.775L65.5164 197.854L64.1147 198.664L50.6932 190.954L22.572 207.212L35.9935 214.921L38.7896 216.533L39.6757 217.038L41.012 217.804L41.8908 218.31L43.5903 219.286L63.7733 230.883L65.422 231.829L66.308 232.335L67.6444 233.108L68.5232 233.614L71.4573 235.298L84.8788 243L113 226.742L99.5785 219.033L101.3 218.043L102.731 217.884L102.469 217.364L102.484 217.356L104.307 212.147L98.126 208.592L94.5818 201.438Z" fill="#FFCC33"/>
</g>
</g>
</g>
<path d="M15.9194 198.938H65.9086L60.832 191.272L40.8958 191.257L20.6547 191.337L15.9194 198.938Z" fill="#FFCC33"/>
<path d="M65.9086 198.938H15.9194V242.733H65.9086V198.938Z" fill="#FFE38F"/>
<path d="M84.8279 203.028H65.9086V242.725H84.8279V203.028Z" fill="#FFCC33"/>
<path d="M15.9194 203.028H-3V242.725H15.9194V203.028Z" fill="#FFCC33"/>
<path d="M25.6587 203.028H19.0786V213.281H25.6587V203.028Z" fill="#FFCC33"/>
<path d="M34.9041 203.028H28.3241V213.281H34.9041V203.028Z" fill="#FFCC33"/>
<path d="M44.1495 203.028H37.5695V213.281H44.1495V203.028Z" fill="#FFCC33"/>
<path d="M53.3877 203.028H46.8076V213.281H53.3877V203.028Z" fill="#FFCC33"/>
<path d="M62.6331 203.028H56.0531V213.281H62.6331V203.028Z" fill="#FFCC33"/>
<path d="M25.6587 214.907H19.0786V225.16H25.6587V214.907Z" fill="#FFCC33"/>
<path d="M34.9041 214.907H28.3241V225.16H34.9041V214.907Z" fill="#FFCC33"/>
<path d="M44.1495 214.907H37.5695V225.16H44.1495V214.907Z" fill="#FFCC33"/>
<path d="M53.3877 214.907H46.8076V225.16H53.3877V214.907Z" fill="#FFCC33"/>
<path d="M62.6331 214.907H56.0531V225.16H62.6331V214.907Z" fill="#FFCC33"/>
<path d="M25.6587 226.858H19.0786V237.111H25.6587V226.858Z" fill="#FFCC33"/>
<path d="M53.3877 226.858H28.3241V237.111H53.3877V226.858Z" fill="#FFCC33"/>
<path d="M62.6331 226.858H56.0531V237.111H62.6331V226.858Z" fill="#FFCC33"/>
<path d="M5.26496 206.525H-0.639618V215.723H5.26496V206.525Z" fill="#FFE38F"/>
<path d="M13.559 206.525H7.65439V215.723H13.559V206.525Z" fill="#FFE38F"/>
<path d="M5.26496 217.66H-0.639618V226.858H5.26496V217.66Z" fill="#FFE38F"/>
<path d="M13.559 217.66H7.65439V226.858H13.559V217.66Z" fill="#FFE38F"/>
<path d="M5.26496 228.802H-0.639618V238H5.26496V228.802Z" fill="#FFE38F"/>
<path d="M13.559 228.802H7.65439V238H13.559V228.802Z" fill="#FFE38F"/>
<path d="M74.1808 206.525H68.2762V215.723H74.1808V206.525Z" fill="#FFE38F"/>
<path d="M82.4748 206.525H76.5703V215.723H82.4748V206.525Z" fill="#FFE38F"/>
<path d="M74.1808 217.66H68.2762V226.858H74.1808V217.66Z" fill="#FFE38F"/>
<path d="M82.4748 217.66H76.5703V226.858H82.4748V217.66Z" fill="#FFE38F"/>
<path d="M74.1808 228.802H68.2762V238H74.1808V228.802Z" fill="#FFE38F"/>
<path d="M82.4748 228.802H76.5703V238H82.4748V228.802Z" fill="#FFE38F"/>
<path d="M40.8523 185L14.9752 199.408H66.7293L40.8523 185Z" fill="#DBA51D"/>
<path d="M22.9932 199.307H21.1122V242.733H22.9932V199.307Z" fill="#DBA51D"/>
<path d="M60.5342 199.307H58.6531V242.733H60.5342V199.307Z" fill="#DBA51D"/>
<path d="M24.2352 234.17H19.863V242.733H24.2352V234.17Z" fill="#DBA51D"/>
<path d="M61.7761 234.17H57.404V242.733H61.7761V234.17Z" fill="#DBA51D"/>
<path d="M65.5963 201.063H15.7378L14.9752 199.408H66.7293L65.5963 201.063Z" fill="#DBA51D"/>
<path d="M40.4383 197.312C42.3195 197.312 43.8445 195.795 43.8445 193.924C43.8445 192.052 42.3195 190.535 40.4383 190.535C38.5571 190.535 37.032 192.052 37.032 193.924C37.032 195.795 38.5571 197.312 40.4383 197.312Z" fill="#FFE38F"/>
<path d="M40.8522 226.576V237.111" stroke="#FFE38F" stroke-miterlimit="10"/>
<path d="M31.1856 226.721V237.248" stroke="#FFE38F" stroke-miterlimit="10"/>
<path d="M49.6692 226.721V237.248" stroke="#FFE38F" stroke-miterlimit="10"/>
<g clip-path="url(#clip2)">
<path d="M247.101 62.748C251.023 62.748 254.203 57.6557 254.203 51.374C254.203 45.0923 251.023 40 247.101 40C243.179 40 240 45.0923 240 51.374C240 57.6557 243.179 62.748 247.101 62.748Z" fill="#99CC33"/>
<path d="M247.609 56.0532H246.594V75.7058H247.609V56.0532Z" fill="#FFCC33"/>
<path d="M258.406 78.0094C262.048 78.0094 265 74.2385 265 69.5868C265 64.9352 262.048 61.1643 258.406 61.1643C254.764 61.1643 251.812 64.9352 251.812 69.5868C251.812 74.2385 254.764 78.0094 258.406 78.0094Z" fill="#99CC33"/>
<path d="M258.913 71.3865H257.899V86H258.913V71.3865Z" fill="#FFCC33"/>
</g>
<g clip-path="url(#clip3)">
<path d="M111.113 197.319C113.937 197.319 116.226 193.666 116.226 189.16C116.226 184.653 113.937 181 111.113 181C108.289 181 106 184.653 106 189.16C106 193.666 108.289 197.319 111.113 197.319Z" fill="#99CC33"/>
<path d="M111.478 192.516H110.748V206.615H111.478V192.516Z" fill="#FFCC33"/>
<path d="M119.252 208.268C121.874 208.268 124 205.562 124 202.225C124 198.888 121.874 196.183 119.252 196.183C116.63 196.183 114.504 198.888 114.504 202.225C114.504 205.562 116.63 208.268 119.252 208.268Z" fill="#99CC33"/>
<path d="M119.617 203.516H118.887V214H119.617V203.516Z" fill="#FFCC33"/>
</g>
</g>
<defs>
<clipPath id="clip0">
<rect width="46.79" height="52.85" fill="white" transform="translate(16 64)"/>
</clipPath>
<clipPath id="clip1">
<rect width="162.01" height="73.86" fill="white" transform="translate(69 -47)"/>
</clipPath>
<clipPath id="clip2">
<rect width="25" height="46" fill="white" transform="translate(240 40)"/>
</clipPath>
<clipPath id="clip3">
<rect width="18" height="33" fill="white" transform="translate(106 181)"/>
</clipPath>
</defs>
</svg>
