<svg width="39" height="38" viewBox="0 0 39 38" fill="none" xmlns="http://www.w3.org/2000/svg">
<path d="M37.9593 19.1258C37.9593 16.3576 37.9593 13.5894 37.9593 10.8212C37.9593 4.78146 33.4344 0 27.1497 0C21.8706 0 16.3401 0 10.8096 0C4.52495 0 0 4.5298 0 10.8212C0 12.3311 0 14.0927 0 15.6026C0 17.8675 0 20.1324 0 22.3973C0 24.1589 0 25.6689 0 27.4305C0 33.4702 4.52495 38.2517 10.8096 38.2517C13.5749 38.2517 16.3401 38.2517 19.1054 38.2517C19.1054 33.4702 19.1054 28.6887 19.1054 23.9073C17.597 23.9073 16.0887 23.9073 14.5804 23.9073C14.5804 21.894 14.5804 19.6291 14.5804 17.6159C16.0887 17.6159 17.597 17.6159 19.1054 17.6159C19.1054 16.8609 19.1054 15.8543 19.1054 15.0993C19.1054 13.0861 19.6081 11.5762 20.8651 10.0662C22.3734 8.05298 24.1331 7.04636 26.6469 7.04636C28.1553 7.04636 29.6636 7.04636 30.9205 7.04636C31.1719 7.04636 31.4233 7.04636 31.4233 7.54967C31.4233 9.31126 31.4233 11.3245 31.4233 13.0861V13.3377C31.1719 13.3377 31.1719 13.3377 30.9205 13.3377C29.4122 13.3377 27.9039 13.3377 26.3956 13.3377C25.8928 13.3377 25.6414 13.5894 25.39 13.8411C25.1386 14.0927 24.8872 14.3444 24.8872 14.8477C24.8872 15.6026 24.8872 16.3576 24.8872 17.1126V17.3642C25.1386 17.3642 25.1386 17.3642 25.39 17.3642C27.1497 17.3642 28.9094 17.3642 30.9205 17.3642C31.1719 17.3642 31.4233 17.3642 31.4233 17.8675C31.4233 19.6291 31.4233 21.6424 31.4233 23.404V23.6556C29.4122 23.6556 27.1497 23.6556 25.1386 23.6556C25.1386 28.4371 25.1386 33.2185 25.1386 38C25.8928 38 26.6469 38 27.6525 38C33.6858 38 38.2107 33.4702 38.2107 27.4305C38.2107 26.1722 38.2107 24.9139 38.2107 23.404C38.2107 23.1523 38.2107 23.1523 38.2107 22.9007C37.9593 21.6424 37.9593 20.3841 37.9593 19.1258Z" fill="#332083"/>
</svg>
