<svg width="59" height="34" viewBox="0 0 59 34" fill="none" xmlns="http://www.w3.org/2000/svg">
<path d="M5.50943 2.44054H2.49834V4.07869H5.2476V6.24061H2.49834V10.0964H0V0.278625H5.50943V2.44054Z" fill="#1E0470"/>
<path d="M12.4809 2.44054H9.5134V4.07869H12.3172V6.24061H9.5134V7.93448H12.4918V10.0964H7.00415V0.278625H12.4809V2.44054Z" fill="#1E0470"/>
<path d="M19.572 2.78597C19.2993 2.56309 19.0265 2.39594 18.7538 2.2845C18.4811 2.17306 18.2192 2.11734 17.9574 2.11734C17.6301 2.11734 17.3683 2.19535 17.161 2.35136C16.9537 2.50738 16.8555 2.70797 16.8555 2.96427C16.8555 3.14258 16.91 3.2763 17.0082 3.39889C17.1064 3.51033 17.2483 3.61062 17.4119 3.68863C17.5755 3.76663 17.761 3.84464 17.9683 3.90036C18.1756 3.95608 18.3829 4.02294 18.5902 4.10095C19.4084 4.37955 20.0084 4.7473 20.3794 5.21534C20.7612 5.68338 20.9467 6.28515 20.9467 7.0318C20.9467 7.53327 20.8594 7.99017 20.6957 8.40249C20.5321 8.81482 20.2921 9.16028 19.9648 9.45002C19.6484 9.73976 19.2556 9.96264 18.7865 10.1298C18.3174 10.2858 17.7937 10.375 17.2155 10.375C15.9936 10.375 14.8699 10.0072 13.8335 9.27172L14.9027 7.2101C15.2736 7.54441 15.6445 7.80072 16.0154 7.96788C16.3864 8.13504 16.7464 8.21305 17.0955 8.21305C17.4992 8.21305 17.8046 8.11275 18.0119 7.92331C18.2083 7.73386 18.3065 7.51098 18.3065 7.27696C18.3065 7.13209 18.2847 6.99836 18.2301 6.88692C18.1756 6.77549 18.0992 6.67519 17.9792 6.58604C17.8592 6.49689 17.7065 6.40774 17.5101 6.32973C17.3137 6.25172 17.0846 6.16257 16.8119 6.07342C16.4846 5.97313 16.1682 5.85054 15.8627 5.72796C15.5572 5.60538 15.2736 5.43822 15.0336 5.22648C14.7936 5.01475 14.5972 4.75844 14.4444 4.43527C14.2917 4.12324 14.2262 3.71092 14.2262 3.23173C14.2262 2.7414 14.3026 2.30679 14.4663 1.90561C14.619 1.51557 14.8481 1.17011 15.1318 0.891511C15.4154 0.612914 15.7645 0.390036 16.1791 0.234022C16.5937 0.0780072 17.0519 0 17.5646 0C18.0447 0 18.5356 0.0668633 19.0593 0.20059C19.5829 0.334317 20.0739 0.534907 20.5539 0.791216L19.572 2.78597Z" fill="#1E0470"/>
<path d="M26.2381 2.44054V10.1075H23.7398V2.44054H21.6887V0.278625H28.3V2.44054H26.2381Z" fill="#1E0470"/>
<path d="M31.9112 0.278625V10.1075H29.4128V0.278625H31.9112Z" fill="#1E0470"/>
<path d="M35.6422 0.278625L37.966 6.26289L40.3007 0.278625H43.0172L38.9588 10.1075H36.9623L32.9148 0.278625H35.6422Z" fill="#1E0470"/>
<path d="M49.1593 8.39135H45.5809L45.0027 10.0964H42.3298L45.9955 0.267456H48.723L52.3886 10.0964H49.7157L49.1593 8.39135ZM48.4938 6.45231L47.3701 3.17601L46.2464 6.45231H48.4938Z" fill="#1E0470"/>
<path d="M55.9998 0.278625V7.94562H59V10.1075H53.5015V0.278625H55.9998Z" fill="#1E0470"/>
<path d="M21.7323 14.253H18.7212V15.8912H21.4705V18.0531H18.7212V21.9089H16.2229V12.08H21.7323V14.253Z" fill="#1E0470"/>
<path d="M22.7795 17.0056C22.7795 16.2701 22.9105 15.5903 23.1723 14.9662C23.4341 14.331 23.8051 13.785 24.2742 13.3169C24.7433 12.8489 25.2997 12.4811 25.9543 12.2137C26.6089 11.9462 27.318 11.8125 28.1035 11.8125C28.8781 11.8125 29.5872 11.9462 30.2527 12.2137C30.9073 12.4811 31.4746 12.8489 31.9437 13.3169C32.4129 13.785 32.7838 14.331 33.0456 14.9662C33.3075 15.6014 33.4384 16.2812 33.4384 17.0056C33.4384 17.7411 33.3075 18.4208 33.0456 19.0449C32.7838 19.6801 32.4129 20.2261 31.9437 20.6942C31.4746 21.1622 30.9073 21.53 30.2527 21.7974C29.5981 22.0649 28.8781 22.1986 28.1035 22.1986C27.318 22.1986 26.6089 22.0649 25.9543 21.7974C25.2997 21.53 24.7433 21.1622 24.2742 20.6942C23.8051 20.2261 23.445 19.6801 23.1723 19.0449C22.9105 18.4097 22.7795 17.7299 22.7795 17.0056ZM25.3979 17.0056C25.3979 17.3956 25.4743 17.7522 25.6161 18.0865C25.7579 18.4208 25.9543 18.6994 26.2052 18.9446C26.4561 19.1898 26.7398 19.3792 27.0671 19.5129C27.3944 19.6467 27.7435 19.7135 28.1035 19.7135C28.4744 19.7135 28.8126 19.6467 29.1399 19.5129C29.4672 19.3792 29.7618 19.1898 30.0127 18.9446C30.2636 18.6994 30.46 18.4097 30.6018 18.0865C30.7437 17.7522 30.82 17.3956 30.82 17.0056C30.82 16.6155 30.7437 16.2589 30.6018 15.9246C30.46 15.5903 30.2636 15.3117 30.0127 15.0665C29.7618 14.8214 29.4672 14.6319 29.1399 14.4982C28.8126 14.3645 28.4635 14.2976 28.1035 14.2976C27.7326 14.2976 27.3944 14.3645 27.0671 14.4982C26.7398 14.6319 26.4561 14.8214 26.2052 15.0665C25.9543 15.3117 25.7579 15.6014 25.6161 15.9246C25.4633 16.2478 25.3979 16.6155 25.3979 17.0056Z" fill="#1E0470"/>
<path d="M43.0171 21.92H39.9078L37.5186 18.1423V21.92H35.0203V12.0911H38.915C39.4496 12.0911 39.9187 12.1691 40.3224 12.3363C40.7261 12.4923 41.0534 12.7152 41.3152 12.9938C41.577 13.2724 41.7734 13.5956 41.9043 13.9633C42.0352 14.331 42.1007 14.7211 42.1007 15.1334C42.1007 15.88 41.9261 16.4818 41.5661 16.9499C41.217 17.4179 40.6933 17.7299 40.006 17.8971L43.0171 21.92ZM37.5186 16.4818H37.9877C38.4787 16.4818 38.8605 16.3815 39.1223 16.1698C39.3842 15.9581 39.5151 15.6572 39.5151 15.2671C39.5151 14.8771 39.3842 14.5762 39.1223 14.3645C38.8605 14.1527 38.4787 14.0524 37.9877 14.0524H37.5186V16.4818Z" fill="#1E0470"/>
<path d="M12.3826 28.2274H17.3466C17.3466 28.7512 17.3248 29.2192 17.2811 29.6538C17.2375 30.0773 17.1502 30.4785 17.0302 30.8351C16.8556 31.3477 16.6047 31.8046 16.2992 32.1947C15.9938 32.5847 15.6337 32.919 15.2192 33.1865C14.8046 33.4539 14.3573 33.6545 13.8555 33.7882C13.3645 33.922 12.8408 34 12.2954 34C11.5426 34 10.8662 33.8774 10.2443 33.6211C9.62247 33.3648 9.0988 33.0193 8.6515 32.5624C8.2042 32.1055 7.866 31.5594 7.61507 30.9242C7.36415 30.289 7.24414 29.5758 7.24414 28.8069C7.24414 28.038 7.36415 27.3359 7.60416 26.7007C7.84418 26.0655 8.19329 25.5195 8.64059 25.0626C9.08789 24.6057 9.62247 24.2602 10.2552 24.0039C10.888 23.7476 11.5862 23.625 12.3608 23.625C13.3645 23.625 14.2482 23.8479 15.001 24.2936C15.7538 24.7394 16.3538 25.4192 16.8011 26.3553L14.4228 27.3582C14.2046 26.8233 13.91 26.4333 13.5609 26.1992C13.2118 25.9652 12.8081 25.8426 12.3499 25.8426C11.979 25.8426 11.6299 25.9095 11.3244 26.0544C11.0189 26.1992 10.7571 26.3998 10.5389 26.6673C10.3207 26.9347 10.1461 27.2468 10.0261 27.6257C9.90612 28.0045 9.84066 28.4169 9.84066 28.8738C9.84066 29.2861 9.89521 29.6761 10.0043 30.0327C10.1134 30.3893 10.2661 30.7014 10.4843 30.9577C10.6916 31.214 10.9644 31.4257 11.2808 31.5595C11.5971 31.7043 11.9572 31.7712 12.3826 31.7712C12.6336 31.7712 12.8627 31.7378 13.1027 31.682C13.3318 31.6263 13.5391 31.5372 13.7245 31.4034C13.91 31.2809 14.0627 31.1137 14.1828 30.9131C14.3028 30.7125 14.3791 30.4673 14.4228 30.1776H12.3717V28.2274H12.3826Z" fill="#1E0470"/>
<path d="M18.5029 28.8181C18.5029 28.0826 18.6338 27.4028 18.8957 26.7787C19.1575 26.1435 19.5284 25.5975 19.9976 25.1294C20.4667 24.6614 21.0231 24.2936 21.6777 24.0262C22.3323 23.7587 23.0414 23.625 23.8269 23.625C24.6015 23.625 25.3106 23.7587 25.9761 24.0262C26.6307 24.2936 27.198 24.6614 27.6671 25.1294C28.1363 25.5975 28.5072 26.1435 28.769 26.7787C29.0309 27.4139 29.1618 28.0937 29.1618 28.8181C29.1618 29.5536 29.0309 30.2333 28.769 30.8574C28.5072 31.4926 28.1363 32.0386 27.6671 32.5067C27.198 32.9747 26.6307 33.3425 25.9761 33.6099C25.3215 33.8774 24.6015 34.0111 23.8269 34.0111C23.0414 34.0111 22.3323 33.8774 21.6777 33.6099C21.0231 33.3425 20.4667 32.9747 19.9976 32.5067C19.5284 32.0386 19.1684 31.4926 18.8957 30.8574C18.6338 30.2222 18.5029 29.5424 18.5029 28.8181ZM21.1213 28.8181C21.1213 29.2081 21.1976 29.5647 21.3395 29.899C21.4813 30.2333 21.6777 30.5119 21.9286 30.7571C22.1795 31.0023 22.4632 31.1917 22.7905 31.3254C23.1178 31.4592 23.4669 31.526 23.8269 31.526C24.1978 31.526 24.536 31.4592 24.8633 31.3254C25.1906 31.1917 25.4852 31.0023 25.7361 30.7571C25.987 30.5119 26.1834 30.2222 26.3252 29.899C26.4671 29.5647 26.5434 29.2081 26.5434 28.8181C26.5434 28.428 26.4671 28.0714 26.3252 27.7371C26.1834 27.4028 25.987 27.1242 25.7361 26.879C25.4852 26.6339 25.1906 26.4444 24.8633 26.3107C24.536 26.177 24.1869 26.1101 23.8269 26.1101C23.456 26.1101 23.1178 26.177 22.7905 26.3107C22.4632 26.4444 22.1795 26.6339 21.9286 26.879C21.6777 27.1242 21.4813 27.4139 21.3395 27.7371C21.1867 28.0603 21.1213 28.428 21.1213 28.8181Z" fill="#1E0470"/>
<path d="M30.3074 28.8181C30.3074 28.0826 30.4383 27.4028 30.7001 26.7787C30.962 26.1435 31.3329 25.5975 31.802 25.1294C32.2711 24.6614 32.8275 24.2936 33.4821 24.0262C34.1367 23.7587 34.8458 23.625 35.6313 23.625C36.4059 23.625 37.1151 23.7587 37.7806 24.0262C38.4351 24.2936 39.0024 24.6614 39.4716 25.1294C39.9407 25.5975 40.3116 26.1435 40.5735 26.7787C40.8353 27.4139 40.9662 28.0937 40.9662 28.8181C40.9662 29.5536 40.8353 30.2333 40.5735 30.8574C40.3116 31.4926 39.9407 32.0386 39.4716 32.5067C39.0024 32.9747 38.4351 33.3425 37.7806 33.6099C37.126 33.8774 36.4059 34.0111 35.6313 34.0111C34.8458 34.0111 34.1367 33.8774 33.4821 33.6099C32.8275 33.3425 32.2711 32.9747 31.802 32.5067C31.3329 32.0386 30.9729 31.4926 30.7001 30.8574C30.4383 30.2222 30.3074 29.5424 30.3074 28.8181ZM32.9257 28.8181C32.9257 29.2081 33.0021 29.5647 33.1439 29.899C33.2857 30.2333 33.4821 30.5119 33.733 30.7571C33.984 31.0023 34.2676 31.1917 34.5949 31.3254C34.9222 31.4592 35.2713 31.526 35.6313 31.526C36.0023 31.526 36.3405 31.4592 36.6678 31.3254C36.9951 31.1917 37.2896 31.0023 37.5405 30.7571C37.7915 30.5119 37.9878 30.2222 38.1297 29.899C38.2715 29.5647 38.3479 29.2081 38.3479 28.8181C38.3479 28.428 38.2715 28.0714 38.1297 27.7371C37.9878 27.4028 37.7915 27.1242 37.5405 26.879C37.2896 26.6339 36.9951 26.4444 36.6678 26.3107C36.3405 26.177 35.9914 26.1101 35.6313 26.1101C35.2604 26.1101 34.9222 26.177 34.5949 26.3107C34.2676 26.4444 33.984 26.6339 33.733 26.879C33.4821 27.1242 33.2857 27.4139 33.1439 27.7371C33.0021 28.0603 32.9257 28.428 32.9257 28.8181Z" fill="#1E0470"/>
<path d="M42.5481 23.9036H46.2465C46.9011 23.9036 47.512 24.0374 48.0903 24.3048C48.6685 24.5723 49.1703 24.9289 49.5958 25.3858C50.0213 25.8315 50.3595 26.3553 50.6104 26.9459C50.8613 27.5365 50.9814 28.1606 50.9814 28.8181C50.9814 29.4644 50.8613 30.0773 50.6213 30.6791C50.3813 31.2697 50.0431 31.7935 49.6176 32.2504C49.1922 32.7073 48.6903 33.0639 48.1121 33.3314C47.5339 33.5988 46.9229 33.7325 46.2574 33.7325H42.5481V23.9036ZM45.0464 31.5706H45.6247C46.061 31.5706 46.4429 31.5038 46.7811 31.3589C47.1193 31.2252 47.4139 31.0246 47.643 30.7905C47.8721 30.5454 48.0575 30.2556 48.1775 29.9213C48.2976 29.587 48.363 29.2193 48.363 28.8181C48.363 28.428 48.2975 28.0603 48.1666 27.726C48.0357 27.3917 47.8612 27.0908 47.6211 26.8568C47.392 26.6116 47.0975 26.4221 46.7593 26.2884C46.4211 26.1547 46.0392 26.0767 45.6137 26.0767H45.0355V31.5706H45.0464Z" fill="#1E0470"/>
</svg>
