<svg width="325" height="235" viewBox="0 0 325 235" fill="none" xmlns="http://www.w3.org/2000/svg">
<mask id="mask0" mask-type="alpha" maskUnits="userSpaceOnUse" x="0" y="0" width="325" height="235">
<path d="M0 0H325V234.5H0V0Z" fill="#FFF6DE"/>
</mask>
<g mask="url(#mask0)">
<path d="M86 72.1648H40.837V46.086L51.2858 32.7875H56.2943V52.2171C56.2943 52.5625 56.467 52.908 56.8125 52.9943C56.8988 53.0807 57.0715 53.0806 57.1579 53.0806C57.4169 53.0806 57.5896 52.9943 57.7624 52.8216L63.6344 47.1223L69.5064 52.8216C69.7655 53.0806 70.1109 53.167 70.4563 52.9943C70.8017 52.8216 70.9744 52.5625 70.9744 52.2171V32.7875H85.9136L86 72.1648Z" fill="#FFCC33"/>
<path d="M71.2335 32.7876V56.2758L64.4116 49.6265C64.1525 49.3675 63.8934 49.2811 63.548 49.2811C63.2026 49.2811 62.9435 49.3675 62.6845 49.6265L55.8625 56.1894V32.7012H71.2335V32.7876Z" fill="#DBA51D"/>
<path d="M48.6895 29L17 69.3325L20.395 72L52.0845 31.6675L48.6895 29Z" fill="#DBA51D"/>
<path d="M270.75 197.235C270.75 197.871 271.195 198.38 271.768 198.38H288.177V172.367H270.687V197.235H270.75Z" fill="#FFEBAD"/>
<path d="M308.148 172.367H290.657V198.38H307.066C307.639 198.38 308.084 197.871 308.084 197.235V172.367H308.148Z" fill="#FFDB70"/>
<path d="M268.397 165.879V171.413C268.397 171.985 268.842 172.494 269.414 172.494H288.24V164.798H269.414C268.842 164.862 268.333 165.307 268.397 165.879Z" fill="#FFDB70"/>
<path d="M309.483 164.798H290.657V172.494H309.483C310.056 172.494 310.501 171.985 310.501 171.413V165.879C310.501 165.307 310.056 164.862 309.483 164.798Z" fill="#FFEBAD"/>
<path d="M305.413 158.883C306.112 157.421 305.922 155.64 304.904 154.368C303.25 152.078 299.371 151.06 296.254 153.096C293.138 155.131 290.784 158.438 289.449 160.601C288.113 158.438 285.76 155.131 282.644 153.096C279.527 151.06 275.647 152.078 273.994 154.368C272.976 155.64 272.785 157.421 273.485 158.883C275.202 162.509 282.135 164.544 288.177 164.798V198.38H290.784V164.798C296.763 164.544 303.632 162.509 305.413 158.883ZM275.711 157.675C275.52 157.293 275.393 156.785 276.029 155.958C276.729 155.131 277.81 154.622 278.891 154.686C279.718 154.686 280.545 154.94 281.244 155.385C283.916 157.166 286.078 160.155 287.286 162.127C281.817 161.682 276.729 159.774 275.711 157.675ZM303.123 157.675C302.105 159.774 297.017 161.682 291.611 162.063C292.82 160.155 294.919 157.103 297.653 155.322C298.353 154.876 299.18 154.622 300.007 154.622C301.088 154.558 302.169 155.067 302.869 155.894C303.377 156.784 303.314 157.293 303.123 157.675Z" fill="#DBA51D"/>
<path d="M278.51 222.612H240.285V200.479L249.126 189.221H253.387V205.63C253.387 205.948 253.578 206.203 253.832 206.33C253.896 206.394 254.023 206.394 254.15 206.394C254.341 206.394 254.532 206.33 254.659 206.203L259.62 201.369L264.581 206.203C264.772 206.394 265.09 206.457 265.408 206.33C265.662 206.203 265.853 205.948 265.853 205.63V189.221H278.51V222.612Z" fill="#DBA51D"/>
<path d="M265.98 189.285V209.192L260.256 203.595C260.065 203.404 259.811 203.341 259.556 203.341C259.302 203.341 259.047 203.404 258.857 203.595L253.132 209.192V189.285H265.98Z" fill="#FFEBAD"/>
<path d="M246.876 185.978L220 220.185L222.901 222.464L249.777 188.257L246.876 185.978Z" fill="#FFEBAD"/>
<path d="M69.7998 191.732H53.9158V215.375H68.8482C69.3606 215.375 69.7998 214.863 69.7998 214.35V191.732Z" fill="#FFCC33"/>
<path d="M35.9089 214.277C35.9089 214.863 36.3481 215.302 36.8605 215.302H51.7929V191.659H35.9089V214.277Z" fill="#FFDB70"/>
<path d="M71.0442 184.924H53.989V191.878H71.0442C71.5566 191.878 71.9958 191.439 71.9958 190.927V185.876C71.9958 185.364 71.5566 184.924 71.0442 184.924Z" fill="#FFDB70"/>
<path d="M33.713 185.876V190.927C33.713 191.439 34.1522 191.878 34.6646 191.878H51.7198V184.924H34.6646C34.1522 184.924 33.713 185.364 33.713 185.876Z" fill="#FFCC33"/>
<path d="M51.7198 184.925V215.375H54.0621V184.925C59.552 184.705 65.847 182.802 67.3842 179.508C68.043 178.19 67.8234 176.58 66.8718 175.409C65.4078 173.359 61.8943 172.408 59.0396 174.238C56.2581 176.068 54.0621 179.142 52.891 181.045C51.7198 179.069 49.5238 176.068 46.7423 174.238C43.8876 172.334 40.3741 173.286 38.9101 175.409C37.9585 176.58 37.8121 178.19 38.3977 179.508C39.9349 182.802 46.2299 184.632 51.7198 184.925ZM54.8673 182.436C55.9653 180.679 57.8684 177.971 60.3572 176.36C61.0159 175.921 61.7479 175.702 62.4799 175.702C63.5047 175.702 64.4563 176.141 65.115 176.873C65.6274 177.605 65.5542 178.044 65.4078 178.41C64.3831 180.313 59.7716 182.07 54.8673 182.436ZM40.74 176.873C41.3988 176.068 42.3504 175.628 43.3752 175.702C44.1072 175.702 44.8391 175.921 45.4979 176.36C47.9135 177.971 49.8898 180.679 50.9878 182.436C46.0835 182.07 41.472 180.386 40.5204 178.41C40.3009 178.044 40.1545 177.605 40.74 176.873Z" fill="#DBA51D"/>
<path d="M40.5203 128.342V160.037" stroke="#DBA51D" stroke-width="2" stroke-miterlimit="10"/>
<path d="M46.0101 126.512V155.499" stroke="#DBA51D" stroke-width="2" stroke-miterlimit="10"/>
<path d="M23.6115 141.811V175.043" stroke="#DBA51D" stroke-width="2" stroke-miterlimit="10"/>
<path d="M29.394 135.003V169.992" stroke="#DBA51D" stroke-width="2" stroke-miterlimit="10"/>
<path d="M35.1765 130.465V164.795" stroke="#DBA51D" stroke-width="2" stroke-miterlimit="10"/>
<path d="M79.3885 141.811V175.043" stroke="#DBA51D" stroke-width="2" stroke-miterlimit="10"/>
<path d="M73.6057 135.003V169.992" stroke="#DBA51D" stroke-width="2" stroke-miterlimit="10"/>
<path d="M67.823 130.465V164.795" stroke="#DBA51D" stroke-width="2" stroke-miterlimit="10"/>
<path d="M62.4065 128.342V160.037" stroke="#DBA51D" stroke-width="2" stroke-miterlimit="10"/>
<path d="M56.9899 126.512V155.499" stroke="#DBA51D" stroke-width="2" stroke-miterlimit="10"/>
<path d="M51.5 126.073V151.473" stroke="#DBA51D" stroke-width="2" stroke-miterlimit="10"/>
<path d="M19 215.375V158.5C19 140.566 33.5664 126 51.5 126C69.4336 126 84 140.566 84 158.5V215.375" stroke="#DBA51D" stroke-width="2" stroke-miterlimit="10"/>
<path d="M287.8 77.732H271.916V101.375H286.848C287.361 101.375 287.8 100.863 287.8 100.35V77.732Z" fill="#FFCC33"/>
<path d="M253.909 100.277C253.909 100.863 254.348 101.302 254.861 101.302H269.793V77.6588H253.909V100.277Z" fill="#FFDB70"/>
<path d="M289.044 70.9245H271.989V77.8783H289.044C289.557 77.8783 289.996 77.4391 289.996 76.9268V71.8761C289.996 71.3637 289.557 70.9245 289.044 70.9245Z" fill="#FFDB70"/>
<path d="M251.713 71.8761V76.9268C251.713 77.4391 252.152 77.8783 252.665 77.8783H269.72V70.9245H252.665C252.152 70.9245 251.713 71.3637 251.713 71.8761Z" fill="#FFCC33"/>
<path d="M269.72 70.9245V101.375H272.062V70.9245C277.552 70.7049 283.847 68.8018 285.384 65.5079C286.043 64.1903 285.823 62.5799 284.872 61.4087C283.408 59.3592 279.894 58.4076 277.04 60.2376C274.258 62.0675 272.062 65.1419 270.891 67.045C269.72 65.0687 267.524 62.0675 264.742 60.2376C261.888 58.3344 258.374 59.286 256.91 61.4087C255.959 62.5799 255.812 64.1903 256.398 65.5079C257.935 68.8018 264.23 70.6317 269.72 70.9245ZM272.867 68.4358C273.965 66.679 275.868 63.9707 278.357 62.3604C279.016 61.9212 279.748 61.7016 280.48 61.7016C281.505 61.7016 282.456 62.1407 283.115 62.8727C283.627 63.6047 283.554 64.0439 283.408 64.4099C282.383 66.3131 277.772 68.0698 272.867 68.4358ZM258.74 62.8727C259.399 62.0675 260.35 61.6284 261.375 61.7016C262.107 61.7016 262.839 61.9212 263.498 62.3604C265.913 63.9707 267.89 66.679 268.988 68.4358C264.084 68.0698 259.472 66.3862 258.52 64.4099C258.301 64.0439 258.154 63.6047 258.74 62.8727Z" fill="#DBA51D"/>
<path d="M258.52 14.3424V46.0372" stroke="#DBA51D" stroke-width="2" stroke-miterlimit="10"/>
<path d="M264.01 12.5125V41.499" stroke="#DBA51D" stroke-width="2" stroke-miterlimit="10"/>
<path d="M241.611 27.8109V61.0428" stroke="#DBA51D" stroke-width="2" stroke-miterlimit="10"/>
<path d="M247.394 21.0035V55.9922" stroke="#DBA51D" stroke-width="2" stroke-miterlimit="10"/>
<path d="M253.177 16.4651V50.7951" stroke="#DBA51D" stroke-width="2" stroke-miterlimit="10"/>
<path d="M297.389 27.8109V61.0428" stroke="#DBA51D" stroke-width="2" stroke-miterlimit="10"/>
<path d="M291.606 21.0035V55.9922" stroke="#DBA51D" stroke-width="2" stroke-miterlimit="10"/>
<path d="M285.823 16.4651V50.7951" stroke="#DBA51D" stroke-width="2" stroke-miterlimit="10"/>
<path d="M280.406 14.3424V46.0372" stroke="#DBA51D" stroke-width="2" stroke-miterlimit="10"/>
<path d="M274.99 12.5125V41.499" stroke="#DBA51D" stroke-width="2" stroke-miterlimit="10"/>
<path d="M269.5 12.0732V37.473" stroke="#DBA51D" stroke-width="2" stroke-miterlimit="10"/>
<path d="M237 101.375V44.5C237 26.5665 251.566 12 269.5 12C287.434 12 302 26.5665 302 44.5V101.375" stroke="#DBA51D" stroke-width="2" stroke-miterlimit="10"/>
</g>
</svg>
