<svg width="126" height="104" viewBox="0 0 126 104" fill="none" xmlns="http://www.w3.org/2000/svg">
<g clip-path="url(#clip0)">
<path d="M11.4964 91.2464H22.6478C22.6478 92.4058 22.6478 93.4493 22.5328 94.3768C22.4179 95.3044 22.3029 96.2319 21.958 97.0435C21.6131 98.2029 21.0383 99.2464 20.3485 100.058C19.6588 100.986 18.854 101.681 17.9343 102.261C17.0146 102.841 15.9799 103.304 14.8303 103.652C13.6807 104 12.531 104.116 11.3814 104.116C9.65693 104.116 8.16241 103.884 6.78285 103.304C5.40329 102.725 4.25365 101.913 3.21898 100.986C2.18431 99.942 1.49453 98.7826 0.919708 97.2754C0.229927 95.7681 0 94.2609 0 92.5217C0 90.7826 0.229927 89.2754 0.804745 87.8841C1.37956 86.4928 2.06934 85.2174 3.10401 84.2899C4.13869 83.2464 5.28832 82.5507 6.78285 81.971C8.16241 81.3913 9.7719 81.1594 11.4964 81.1594C13.7956 81.1594 15.75 81.6232 17.4745 82.6667C19.1989 83.5942 20.5785 85.2174 21.4982 87.1884L16.2099 89.2754C15.75 88.1159 15.0602 87.1884 14.2555 86.7246C13.4507 86.1449 12.531 85.913 11.4964 85.913C10.6916 85.913 9.88686 86.029 9.19708 86.3768C8.5073 86.7246 7.93248 87.1884 7.47263 87.7681C7.01277 88.3478 6.55292 89.0435 6.32299 89.8551C6.09307 90.6667 5.86314 91.5942 5.86314 92.6377C5.86314 93.5652 5.9781 94.3768 6.20803 95.1884C6.43796 96 6.78285 96.6957 7.2427 97.2754C7.70256 97.8551 8.27737 98.3188 8.96715 98.6667C9.65693 99.0145 10.4617 99.1304 11.4964 99.1304C12.0712 99.1304 12.646 99.0145 13.1058 98.8986C13.6807 98.7826 14.1405 98.5507 14.4854 98.3188C14.9453 98.087 15.2901 97.6232 15.5201 97.2754C15.75 96.8116 15.9799 96.2319 16.0949 95.6522H11.4964V91.2464Z" fill="#F2B725"/>
<path d="M31.9599 81.6232V103.42H26.3267V81.6232H31.9599Z" fill="#F2B725"/>
<path d="M48.8595 86.3768H42.0767V90.0869H48.2847V94.8406H42.0767V103.42H36.4435V81.6232H48.8595V86.3768Z" fill="#F2B725"/>
<path d="M60.4708 86.3768V103.42H54.8376V86.3768H50.239V81.6232H65.1843V86.3768H60.4708Z" fill="#F2B725"/>
<path d="M73.2317 81.6232V103.42H67.5985V81.6232H73.2317Z" fill="#F2B725"/>
<path d="M77.7153 103.42V81.6232H83.3485L93.6953 94.9565V81.6232H99.3285V103.42H93.6953L83.3485 90.0869V103.42H77.7153Z" fill="#F2B725"/>
<path d="M114.849 91.2464H126C126 92.4058 126 93.4493 125.885 94.3768C125.77 95.3044 125.655 96.2319 125.31 97.0435C124.965 98.2029 124.391 99.2464 123.701 100.058C123.011 100.986 122.206 101.681 121.287 102.261C120.367 102.841 119.332 103.304 118.182 103.652C117.033 104 115.883 104.116 114.734 104.116C113.009 104.116 111.515 103.884 110.135 103.304C108.755 102.725 107.606 101.913 106.571 100.986C105.537 99.942 104.847 98.7826 104.272 97.2754C103.697 95.8841 103.467 94.2609 103.467 92.5217C103.467 90.7826 103.697 89.2754 104.272 87.8841C104.847 86.4928 105.537 85.2174 106.571 84.2899C107.606 83.2464 108.755 82.5507 110.25 81.971C111.63 81.3913 113.239 81.1594 114.964 81.1594C117.263 81.1594 119.217 81.6232 120.942 82.6667C122.666 83.5942 124.046 85.2174 124.965 87.1884L119.562 89.2754C119.102 88.1159 118.412 87.1884 117.608 86.7246C116.803 86.1449 115.883 85.913 114.849 85.913C114.044 85.913 113.239 86.029 112.549 86.3768C111.859 86.7246 111.285 87.1884 110.825 87.7681C110.365 88.3478 109.905 89.0435 109.675 89.8551C109.33 90.6667 109.215 91.5942 109.215 92.6377C109.215 93.5652 109.33 94.3768 109.56 95.1884C109.79 96 110.135 96.6957 110.595 97.2754C111.055 97.8551 111.63 98.3188 112.319 98.6667C113.009 99.0145 113.814 99.1304 114.849 99.1304C115.423 99.1304 115.998 99.0145 116.458 98.8986C117.033 98.7826 117.493 98.5507 117.838 98.3188C118.297 98.087 118.642 97.6232 118.872 97.2754C119.102 96.8116 119.332 96.2319 119.447 95.6522H114.849V91.2464Z" fill="#F2B725"/>
<path d="M99.0986 57.855H26.9015V75.5942H99.0986V57.855Z" fill="#FFE38F"/>
<path d="M34.949 55.5362C34.949 57.0434 36.2136 58.3188 37.7081 58.3188H88.292C89.9015 58.3188 91.0512 57.0434 91.0512 55.5362V25.5072H34.949V55.5362Z" fill="#FFD65C"/>
<path d="M93.5803 12.5217H85.6479C86.4526 10.7826 86.5676 8.69562 86.1077 6.84055C85.303 3.82606 83.1187 1.39127 80.1296 0.463738C77.1406 -0.463798 73.9216 0.231854 71.6223 2.20287L63.23 9.39128L54.8376 2.20287C52.4234 0.115912 49.2044 -0.463798 46.3303 0.463738C43.3413 1.39127 41.157 3.82606 40.3522 6.84055C39.8924 8.81156 40.1223 10.7826 40.8121 12.5217H32.8796C31.3851 12.5217 30.1205 13.7971 30.1205 15.3043V22.8406C30.1205 24.3478 31.3851 25.6232 32.8796 25.6232H93.6953C95.1898 25.6232 96.4544 24.3478 96.4544 22.8406V15.4203C96.3395 13.7971 95.0749 12.5217 93.5803 12.5217ZM75.1862 6.49272C76.1059 5.68113 77.2555 5.44925 78.2902 5.91301C79.4398 6.26084 80.1296 7.07243 80.4745 8.23185C80.7044 9.27533 80.5895 10.3188 79.8997 11.1304C79.2099 11.942 78.2902 12.4058 77.2555 12.4058H68.1734L75.1862 6.49272ZM45.6406 8.23185C45.8705 7.07243 46.7902 6.26084 47.8249 5.91301C48.1698 5.79707 48.5146 5.79707 48.8595 5.79707C49.6643 5.79707 50.3541 6.02896 50.9289 6.60867L57.8267 12.5217H48.7446C47.7099 12.5217 46.7902 12.0579 46.1004 11.2463C45.5256 10.3188 45.2957 9.27533 45.6406 8.23185Z" fill="#FFCC33"/>
</g>
<defs>
<clipPath id="clip0">
<rect width="126" height="104" fill="white"/>
</clipPath>
</defs>
</svg>
