<svg width="312" height="225" viewBox="0 0 312 225" fill="none" xmlns="http://www.w3.org/2000/svg">
<g clip-path="url(#clip0)">
<g opacity="0.1">
<g opacity="0.1">
<g opacity="0.1">
<g opacity="0.1">
<g opacity="0.1">
<path opacity="0.1" d="M60.1382 49.248L62.9785 47.6498L83.6254 59.2632L80.7851 60.8613L80.2935 60.595L78.3272 59.4762L76.3608 58.3575L74.3944 57.2388L72.428 56.1201L70.4617 55.0014L68.4953 53.8827L66.5289 52.764L64.5625 51.6452L62.5962 50.5265L60.6298 49.5144L60.1382 49.248ZM89.6338 56.9725L88.6506 56.4397L68.0583 44.7731L67.0751 44.2404L61.9953 47.1171L59.155 48.7153L58.6634 48.4489L56.6971 47.3302L54.7307 46.2115L53.092 47.1704L49.4324 49.248L40.3106 45.4124L25.1805 46.904L18.2436 50.8462L23.4326 53.7761C21.9032 54.6817 21.9032 56.0668 23.4326 56.9725C25.2351 57.8781 27.3107 57.8781 29.0586 56.9725L32.4451 58.8902L55.8231 72.0485C54.2937 72.9541 54.2937 74.3392 55.8231 75.2448C57.6256 76.1504 59.7012 76.1504 61.4491 75.2448L63.9071 76.6299L84.554 64.91L86.2473 63.9511L84.2809 62.8324L82.3145 61.7137L81.8229 61.4473L84.6632 59.8491L89.6338 56.9725Z" fill="#3399FF"/>
</g>
</g>
</g>
</g>
</g>
<path d="M64.4533 45.4124H20.1007V76.257H64.4533V45.4124Z" fill="#70B8FF"/>
<path d="M36.1048 76.257H38.8905L64.4533 45.4124H62.1592L44.4073 66.2951L36.1048 76.257Z" fill="#3399FF"/>
<path d="M22.8864 76.257H25.7267L52.0543 45.4124H49.1593L22.8864 76.257Z" fill="#85C2FF"/>
<path d="M30.4788 76.257L33.4283 76.0971L59.5374 45.4124H56.6971L30.4788 76.257Z" fill="#3399FF"/>
<path d="M40.1468 76.257L42.9871 76.2037L20.1007 49.9938V52.8172L40.1468 76.257Z" fill="#3399FF"/>
<path d="M64.3987 62.7791V59.4762L52.0542 45.4124H49.924L64.3987 62.7791Z" fill="#3399FF"/>
<path d="M48.8862 76.257H51.7265L25.0713 45.4124L22.1217 45.3059L48.8862 76.257Z" fill="#85C2FF"/>
<path d="M32.0082 76.257H34.8485L15.6764 54.149L14.0923 55.5874L32.0082 76.257Z" fill="#85C2FF"/>
<path d="M53.9114 78.9206L55.55 77.4822L28.4032 45.4124H25.0713L53.9114 78.9206Z" fill="#3399FF"/>
<path d="M64.4533 76.257V73.2204L39.1636 45.4124H36.2686L64.4533 76.257Z" fill="#85C2FF"/>
<path d="M43.861 60.5417L40.9661 63.9511L42.3863 65.6025L45.0627 62.4595L43.861 60.5417Z" fill="#3399FF"/>
<path d="M37.1426 59.4762L34.5208 62.5128L35.9409 64.2175L38.5628 61.1277L37.1426 59.4762Z" fill="#85C2FF"/>
<path d="M43.7518 67.0942L40.8022 70.5568L42.2224 72.2083L45.172 68.7456L43.7518 67.0942Z" fill="#3399FF"/>
<path d="M52.4366 56.9192L48.7224 61.2875L49.7602 63.4184L53.6383 58.8902L52.4366 56.9192Z" fill="#3399FF"/>
<path d="M20.1007 76.257H0V66.6147L7.81087 52.8172H20.1007V76.257Z" fill="#C2E0FF"/>
<path d="M57.0248 80.1458C59.2269 80.1458 61.0121 78.4047 61.0121 76.257C61.0121 74.1092 59.2269 72.3681 57.0248 72.3681C54.8226 72.3681 53.0374 74.1092 53.0374 76.257C53.0374 78.4047 54.8226 80.1458 57.0248 80.1458Z" fill="#3399FF"/>
<path d="M11.3066 80.1458C13.5088 80.1458 15.294 78.4047 15.294 76.257C15.294 74.1092 13.5088 72.3681 11.3066 72.3681C9.10448 72.3681 7.31927 74.1092 7.31927 76.257C7.31927 78.4047 9.10448 80.1458 11.3066 80.1458Z" fill="#3399FF"/>
<path d="M60.9575 52.8172H23.7057V66.7745H60.9575V52.8172Z" fill="#C2E0FF"/>
<path d="M63.0332 49.0349C62.2685 49.0349 61.613 48.4489 61.613 47.7031V45.4124H64.3987V47.7031C64.3987 48.4489 63.7979 49.0349 63.0332 49.0349Z" fill="#C2E0FF"/>
<path d="M60.3021 49.0349C59.5374 49.0349 58.9366 48.4489 58.9366 47.7031V45.4124H61.7222V47.7031C61.6676 48.4489 61.0668 49.0349 60.3021 49.0349Z" fill="#3399FF"/>
<path d="M57.5164 49.0349C56.7517 49.0349 56.1509 48.4489 56.1509 47.7031V45.4124H58.9366V47.7031C58.8819 48.4489 58.2811 49.0349 57.5164 49.0349Z" fill="#C2E0FF"/>
<path d="M54.7307 49.0349C53.966 49.0349 53.3651 48.4489 53.3651 47.7031V45.4124H56.1508V47.7031C56.0962 48.4489 55.4954 49.0349 54.7307 49.0349Z" fill="#3399FF"/>
<path d="M51.945 49.0349C51.1803 49.0349 50.5795 48.4489 50.5795 47.7031V45.4124H53.3652V47.7031C53.3652 48.4489 52.7097 49.0349 51.945 49.0349Z" fill="#C2E0FF"/>
<path d="M49.2139 49.0349C48.4492 49.0349 47.8484 48.4489 47.8484 47.7031V45.4124H50.6341V47.7031C50.5795 48.4489 49.9786 49.0349 49.2139 49.0349Z" fill="#3399FF"/>
<path d="M46.3736 49.0349C45.6089 49.0349 45.0081 48.4489 45.0081 47.7031V45.4124H47.7938V47.7031C47.7938 48.4489 47.1929 49.0349 46.3736 49.0349C46.4282 49.0349 46.4282 49.0349 46.3736 49.0349Z" fill="#C2E0FF"/>
<path d="M43.6425 49.0349C42.8778 49.0349 42.277 48.4489 42.277 47.7031V45.4124H45.0627V47.7031C45.0081 48.4489 44.4072 49.0349 43.6425 49.0349Z" fill="#3399FF"/>
<path d="M40.8569 49.0349C40.0922 49.0349 39.4913 48.4489 39.4913 47.7031V45.4124H42.277V47.7031C42.277 48.4489 41.6216 49.0349 40.8569 49.0349Z" fill="#C2E0FF"/>
<path d="M38.1258 49.0349C37.3611 49.0349 36.7603 48.4489 36.7603 47.7031V45.4124H39.5459V47.7031C39.4913 48.4489 38.8905 49.0349 38.1258 49.0349Z" fill="#3399FF"/>
<path d="M35.3401 49.0349C34.5754 49.0349 33.9745 48.4489 33.9745 47.7031V45.4124H36.7602V47.7031C36.7056 48.4489 36.1048 49.0349 35.3401 49.0349Z" fill="#C2E0FF"/>
<path d="M32.5544 49.0349C31.7897 49.0349 31.1888 48.4489 31.1888 47.7031V45.4124H33.9745V47.7031C33.9199 48.4489 33.3191 49.0349 32.5544 49.0349Z" fill="#3399FF"/>
<path d="M29.7687 49.0349C29.004 49.0349 28.4032 48.4489 28.4032 47.7031V45.4124H31.1342V47.7031C31.1342 48.4489 30.5334 49.0349 29.7687 49.0349Z" fill="#C2E0FF"/>
<path d="M27.0376 49.0349C26.2729 49.0349 25.6721 48.4489 25.6175 47.7031V45.4124H28.4032V47.7031C28.4032 48.4489 27.7477 49.0349 27.0376 49.0349Z" fill="#3399FF"/>
<path d="M24.2519 49.0349C23.4872 49.0349 22.8864 48.4489 22.8864 47.7031V45.4124H25.6721V47.7031C25.6175 48.4489 25.0166 49.0349 24.2519 49.0349Z" fill="#C2E0FF"/>
<path d="M21.4662 49.0349C20.7015 49.0349 20.1007 48.4489 20.1007 47.7031V45.4124H22.8864V47.7031C22.8318 48.4489 22.2309 49.0349 21.4662 49.0349Z" fill="#3399FF"/>
<path d="M18.5713 54.9481H8.84868L2.40335 66.7212H18.5713V54.9481Z" fill="#3399FF"/>
<path d="M27.6931 34.4916H26.3275V45.4124H27.6931V34.4916Z" fill="#3399FF"/>
<path d="M58.1718 34.4916H56.8063V45.4124H58.1718V34.4916Z" fill="#3399FF"/>
<path d="M58.2265 34.4916H26.3275V41.4703H58.2265V34.4916Z" fill="#3399FF"/>
<path d="M32.1174 35.6636C30.151 35.6636 28.567 36.8356 28.567 38.2739H35.7224C35.6678 36.8356 34.0838 35.6636 32.1174 35.6636Z" fill="#70B8FF"/>
<path d="M35.4493 38.2739H28.7309C28.4578 38.2207 28.1847 38.4338 28.1847 38.7001C28.1847 38.9665 28.3485 39.2328 28.6216 39.2328C28.6763 39.2328 28.6763 39.2328 28.7309 39.2328H35.4493C35.7224 39.2861 35.9955 39.073 35.9955 38.8067C36.0502 38.5403 35.8317 38.2739 35.5586 38.2739C35.5039 38.2739 35.5039 38.2739 35.4493 38.2739Z" fill="#C2E0FF"/>
<path d="M29.6594 40.2983H34.5754C35.1762 40.2983 35.6678 39.8188 35.6678 39.2328H28.567C28.567 39.8188 29.0586 40.2983 29.6594 40.2983Z" fill="#70B8FF"/>
<path d="M55.4408 36.729H38.1258V36.9954H55.4408V36.729Z" fill="#C2E0FF"/>
<path d="M55.4408 38.8599H38.1258V39.1263H55.4408V38.8599Z" fill="#C2E0FF"/>
</g>
<g clip-path="url(#clip1)">
<g opacity="0.1">
<g opacity="0.1">
<g opacity="0.1">
<path opacity="0.1" d="M93.4002 197.518L93.6515 197.657C94.24 197.95 94.8918 198.104 95.5531 198.104C96.2144 198.104 96.8662 197.95 97.4547 197.657C96.4088 198.252 96.4156 199.211 97.4547 199.806L97.6313 199.906L80.7884 209.443L64.027 200.018L80.9107 190.461C80.9983 190.532 81.0914 190.596 81.1891 190.653L81.4472 190.798C82.0368 191.088 82.6882 191.239 83.3488 191.239C84.0094 191.239 84.6608 191.088 85.2504 190.798C84.2045 191.387 84.2045 192.352 85.2504 192.941L85.5017 193.08C86.0902 193.374 86.742 193.527 87.4033 193.527C88.0646 193.527 88.7164 193.374 89.3049 193.08C88.2523 193.675 88.2591 194.634 89.3049 195.23L89.563 195.375C90.1527 195.665 90.804 195.816 91.4646 195.816C92.1252 195.816 92.7766 195.665 93.3663 195.375C92.3204 195.964 92.3272 196.923 93.3663 197.518H93.4002ZM110.046 195.104L105.971 192.815L101.896 190.534L97.8215 188.239L93.7466 185.957L89.6717 183.662L81.1144 188.51C80.7772 188.673 80.5153 188.954 80.3809 189.297L62.723 199.304L60.1083 197.835L57.5343 199.297L59.3001 200.289L43.0005 209.549L45.3097 210.871C44.0464 211.586 44.06 212.743 45.3097 213.457C46.0185 213.809 46.8028 213.993 47.5984 213.993C48.394 213.993 49.1783 213.809 49.8871 213.457L58.7161 218.424C57.4528 219.139 57.4664 220.296 58.7161 221.01C59.4273 221.362 60.2138 221.546 61.0116 221.546C61.8094 221.546 62.5959 221.362 63.3071 221.01L64.7333 221.811L81.0329 212.551L82.7919 213.543L85.3659 212.082L81.9701 210.183L99.2545 200.402C100.011 200.463 100.769 200.314 101.441 199.972L109.992 195.13" fill="#3399FF"/>
</g>
</g>
</g>
<path d="M64.1696 199.297H33.4857V221.837H64.1696V199.297Z" fill="#5CADFF"/>
<path d="M66.6553 195.732H31V199.297H66.6553V195.732Z" fill="#ADD6FF"/>
<path d="M39.9851 224.992C41.7743 224.992 43.2247 223.579 43.2247 221.837C43.2247 220.095 41.7743 218.682 39.9851 218.682C38.196 218.682 36.7456 220.095 36.7456 221.837C36.7456 223.579 38.196 224.992 39.9851 224.992Z" fill="#ADD6FF"/>
<path d="M58.9198 224.992C60.709 224.992 62.1594 223.579 62.1594 221.837C62.1594 220.095 60.709 218.682 58.9198 218.682C57.1307 218.682 55.6803 220.095 55.6803 221.837C55.6803 223.579 57.1307 224.992 58.9198 224.992Z" fill="#ADD6FF"/>
<path d="M36.474 169.607H34.681V195.732H36.474V169.607Z" fill="#5CADFF"/>
<path d="M61.8945 169.607H60.1015V195.732H61.8945V169.607Z" fill="#5CADFF"/>
<path d="M34.2124 158H39.9512V169.826C39.9512 170.527 39.665 171.2 39.1555 171.696C38.6461 172.192 37.9551 172.471 37.2346 172.471H36.9018C36.1813 172.471 35.4903 172.192 34.9809 171.696C34.4714 171.2 34.1852 170.527 34.1852 169.826V158H34.2124Z" fill="#5CADFF"/>
<path d="M39.9512 158H45.69V169.826C45.69 170.527 45.4038 171.2 44.8943 171.696C44.3849 172.192 43.6939 172.471 42.9734 172.471H42.6134C41.893 172.471 41.202 172.192 40.6925 171.696C40.1831 171.2 39.8969 170.527 39.8969 169.826V158H39.9512Z" fill="#ADD6FF"/>
<path d="M45.69 158H51.4288V169.826C51.4288 170.527 51.1426 171.2 50.6331 171.696C50.1237 172.192 49.4327 172.471 48.7122 172.471H48.3522C47.6318 172.471 46.9408 172.192 46.4313 171.696C45.9219 171.2 45.6357 170.527 45.6357 169.826V158H45.69Z" fill="#5CADFF"/>
<path d="M51.422 158H57.1608V169.826C57.1608 170.527 56.8746 171.2 56.3652 171.696C55.8557 172.192 55.1647 172.471 54.4442 172.471H54.0911C53.3706 172.471 52.6796 172.192 52.1702 171.696C51.6607 171.2 51.3745 170.527 51.3745 169.826V158H51.422Z" fill="#ADD6FF"/>
<path d="M57.1608 158H62.92V169.826C62.92 170.527 62.6338 171.2 62.1243 171.696C61.6149 172.192 60.9239 172.471 60.2034 172.471H59.8435C59.123 172.471 58.432 172.192 57.9225 171.696C57.4131 171.2 57.1269 170.527 57.1269 169.826V158H57.1608Z" fill="#5CADFF"/>
<path d="M38.7899 213.894C38.7899 214.476 39.9987 214.998 41.9343 215.362H55.3271C57.2627 214.998 58.4716 214.476 58.4716 213.894H38.7899Z" fill="#ADD6FF"/>
<path d="M45.0516 208.927H45.0448V211.533H47.3403V208.927L46.3284 208.14V204.469H46.0567V208.133L45.0516 208.927Z" fill="#ADD6FF"/>
<path d="M58.166 205.812C57.7437 205.559 57.2431 205.461 56.7533 205.534C56.8892 205.183 57.025 204.826 57.154 204.469H46.3284V208.14L47.3403 208.927V211.533H45.0448V208.927L46.0499 208.133V204.469H39.9376C41.0854 207.65 42.4504 210.64 44.1687 212.617C44.5632 213.087 45.0071 213.515 45.493 213.894H51.551C52.3769 213.243 53.094 212.471 53.6768 211.605C57.0114 210.785 58.5191 209.046 58.7908 207.71C58.8877 207.369 58.8801 207.007 58.7692 206.67C58.6582 206.333 58.4485 206.035 58.166 205.812ZM58.0573 207.538C57.8468 208.576 56.6447 209.8 54.4171 210.541C55.1824 209.224 55.8453 207.853 56.4002 206.44C56.6197 206.362 56.8529 206.328 57.0862 206.34C57.3194 206.351 57.548 206.408 57.7585 206.506C57.9015 206.634 58.0042 206.799 58.0547 206.982C58.1052 207.164 58.1014 207.357 58.0437 207.538H58.0573Z" fill="#1F8BE5"/>
</g>
<g clip-path="url(#clip2)">
<g opacity="0.1">
<g opacity="0.1">
<g opacity="0.1">
<path opacity="0.1" d="M270.148 191.529L282.522 184.456L302.558 195.835L290.184 202.883L270.148 191.529ZM314.546 193.398L286.815 177.632L278.697 182.275L280.527 183.309L268.14 190.382L266.323 189.354L250.422 198.446L278.146 214.2L294.047 205.108L292.192 204.055L304.591 196.975L306.447 198.028L314.571 193.386" fill="#3399FF"/>
</g>
</g>
</g>
<path d="M278.216 191.616H239.13V213.82H278.216V191.616Z" fill="#3399FF"/>
<path d="M278.216 163H239.13V174.342H278.216V163Z" fill="#ADD6FF"/>
<path d="M244.526 164.415H241.695V191.622H244.526V164.415Z" fill="#ADD6FF"/>
<path d="M275.6 164.415H272.769V191.622H275.6V164.415Z" fill="#ADD6FF"/>
<path d="M249.415 163.966C249.135 163.955 248.858 164.018 248.612 164.149C248.366 164.279 248.16 164.472 248.015 164.707C247.562 164.629 247.094 164.706 246.692 164.926C246.961 165.211 247.159 165.555 247.269 165.93C247.379 166.304 247.398 166.699 247.325 167.082C247.508 167.351 247.619 167.662 247.648 167.985C247.856 168.124 248.088 168.225 248.332 168.284L248.401 167.175C248.039 166.993 247.726 166.728 247.49 166.403C247.927 166.652 248.047 166.783 248.427 166.801C248.547 166.102 248.833 165.44 249.263 164.87C249.08 165.314 248.998 165.793 249.022 166.272L249.985 166.116L249.003 166.614C248.842 166.894 248.757 167.209 248.756 167.53C249.211 167.458 249.677 167.551 250.067 167.792C249.626 167.662 249.151 167.699 248.737 167.898C248.658 168.615 248.729 169.34 248.946 170.029C248.674 169.586 248.462 169.111 248.313 168.615C248.075 168.472 247.861 168.293 247.68 168.085C247.661 168.363 247.564 168.63 247.401 168.858C247.306 169.002 247.196 169.136 247.072 169.257L247.293 169.388C247.406 169.723 247.58 170.036 247.806 170.31C247.609 170.732 247.457 171.172 247.35 171.625C247.078 171.157 246.76 170.716 246.4 170.31C246.532 170.013 246.601 169.693 246.603 169.369C247.029 169.069 247.319 168.617 247.414 168.11C247.412 167.756 247.297 167.411 247.084 167.125C247.215 166.541 247.12 165.931 246.818 165.412C246.59 165.073 246.238 164.835 245.835 164.748C245.432 164.661 245.01 164.731 244.659 164.944C244.323 164.673 243.908 164.513 243.475 164.489C243.194 164.489 242.918 164.55 242.665 164.67C242.413 164.79 242.192 164.965 242.018 165.181C241.537 165.879 241.803 166.427 242.018 167.001C241.322 167.362 241.176 167.985 241.201 168.771C241.227 169.556 242.259 170.216 243.101 170.216C243.276 170.621 243.584 170.957 243.975 171.171C244.366 171.384 244.819 171.463 245.26 171.394C245.528 171.319 245.769 171.172 245.957 170.97C246.493 171.576 246.908 172.276 247.179 173.033L247.927 172.883C247.875 172.171 248.026 171.459 248.363 170.827C248.591 170.946 248.841 171.018 249.098 171.039C249.539 170.984 249.949 170.785 250.262 170.475C250.575 170.164 250.774 169.76 250.827 169.325C251.223 169.19 251.573 168.951 251.84 168.633C252.107 168.316 252.28 167.932 252.34 167.524C252.331 167.163 252.195 166.816 251.956 166.542C251.718 166.267 251.391 166.082 251.03 166.016C251.103 165.719 251.098 165.408 251.016 165.112C250.934 164.817 250.777 164.547 250.561 164.327C250.228 164.093 249.83 163.967 249.421 163.966H249.415ZM243.481 165.493C244.048 165.928 244.502 166.489 244.805 167.132C245.171 167.028 245.501 166.827 245.761 166.552C245.547 166.916 245.263 167.236 244.925 167.493L245.279 168.546C245.547 168.395 245.79 168.206 246.001 167.985C245.874 168.337 245.668 168.656 245.4 168.92C245.387 169.437 245.308 169.95 245.165 170.447C245.194 169.726 245.071 169.007 244.805 168.334C244.349 168.252 243.878 168.336 243.481 168.571C243.798 168.241 244.225 168.033 244.684 167.985C244.598 167.675 244.433 167.392 244.203 167.163L243.12 166.932L244.083 166.814C243.985 166.335 243.779 165.883 243.481 165.493Z" fill="#3399FF"/>
<path d="M267.931 163.966C267.523 163.967 267.124 164.094 266.791 164.327C266.576 164.548 266.421 164.818 266.34 165.113C266.259 165.409 266.255 165.719 266.329 166.016C265.967 166.08 265.639 166.264 265.4 166.539C265.161 166.814 265.026 167.162 265.018 167.524C265.077 167.933 265.25 168.317 265.517 168.635C265.784 168.952 266.135 169.191 266.532 169.325C266.584 169.759 266.782 170.162 267.094 170.473C267.406 170.783 267.814 170.982 268.254 171.039C268.513 171.019 268.766 170.947 268.995 170.827C269.33 171.46 269.48 172.172 269.426 172.883L270.173 173.033C270.45 172.278 270.864 171.579 271.395 170.97C271.586 171.17 271.826 171.316 272.092 171.394C272.534 171.463 272.986 171.384 273.377 171.171C273.769 170.957 274.076 170.621 274.251 170.216C275.094 170.216 276.151 169.631 276.151 168.771C276.151 167.911 276.024 167.362 275.309 167.001C275.55 166.415 275.815 165.879 275.309 165.181C275.135 164.965 274.914 164.79 274.662 164.67C274.409 164.55 274.133 164.489 273.852 164.489C273.418 164.512 273.003 164.672 272.668 164.944C272.317 164.73 271.895 164.658 271.492 164.746C271.088 164.833 270.736 165.072 270.509 165.412C270.204 165.93 270.109 166.542 270.243 167.125C270.026 167.409 269.908 167.755 269.907 168.11C269.954 168.368 270.052 168.615 270.197 168.835C270.342 169.056 270.529 169.246 270.749 169.394C270.752 169.717 270.819 170.037 270.946 170.335C270.588 170.741 270.272 171.182 270.002 171.65C269.897 171.196 269.742 170.755 269.54 170.335C269.771 170.062 269.947 169.749 270.059 169.412L270.281 169.282C270.157 169.159 270.044 169.026 269.945 168.883C269.792 168.652 269.707 168.385 269.698 168.11C269.516 168.318 269.303 168.497 269.065 168.64C268.916 169.136 268.703 169.611 268.432 170.054C268.649 169.365 268.72 168.64 268.641 167.923C268.224 167.725 267.748 167.687 267.304 167.817C267.695 167.576 268.161 167.483 268.615 167.555C268.619 167.234 268.536 166.918 268.375 166.639L267.368 166.116L268.324 166.247C268.346 165.776 268.267 165.307 268.09 164.87C268.517 165.436 268.804 166.093 268.926 166.789C269.306 166.789 269.426 166.639 269.863 166.39C269.623 166.713 269.311 166.977 268.951 167.163L269.021 168.272C269.263 168.216 269.495 168.119 269.704 167.985C269.733 167.666 269.844 167.359 270.027 167.094C269.954 166.711 269.974 166.317 270.084 165.942C270.193 165.568 270.391 165.224 270.661 164.938C270.258 164.72 269.791 164.643 269.337 164.72C269.192 164.484 268.985 164.29 268.738 164.16C268.49 164.029 268.212 163.967 267.931 163.978V163.966ZM273.865 165.493C273.573 165.875 273.37 166.315 273.27 166.783L274.226 166.901L273.149 167.132C272.915 167.369 272.749 167.664 272.668 167.985C273.126 168.032 273.551 168.24 273.865 168.571C273.47 168.338 273.002 168.253 272.548 168.334C272.281 169.007 272.158 169.726 272.187 170.447C272.039 169.951 271.958 169.437 271.946 168.92C271.679 168.656 271.476 168.337 271.351 167.985C271.557 168.216 271.799 168.414 272.067 168.571L272.428 167.518C272.083 167.255 271.797 166.927 271.585 166.552C271.846 166.83 272.179 167.033 272.548 167.138C272.849 166.495 273.301 165.931 273.865 165.493Z" fill="#3399FF"/>
<path d="M235.983 206.099H232.601V205.064H232.829C233.29 205.095 233.744 204.947 234.096 204.653C234.27 204.426 234.395 204.166 234.463 203.889C234.53 203.613 234.539 203.325 234.488 203.045C234.482 203 234.459 202.958 234.424 202.929C234.389 202.899 234.345 202.883 234.298 202.883C234.013 202.833 233.719 202.841 233.437 202.908C233.155 202.974 232.89 203.097 232.658 203.269L232.588 203.35V202.384C232.798 202.381 233.003 202.321 233.18 202.211C233.358 202.102 233.502 201.946 233.595 201.761H233.842C234.303 201.793 234.758 201.645 235.109 201.35C235.279 201.126 235.4 200.87 235.466 200.597C235.531 200.325 235.539 200.042 235.489 199.767C235.483 199.729 235.465 199.693 235.438 199.665C235.411 199.638 235.375 199.619 235.337 199.611C235.051 199.561 234.758 199.57 234.476 199.636C234.194 199.703 233.928 199.826 233.697 199.998C233.527 200.213 233.404 200.46 233.335 200.723C233.267 200.987 233.254 201.262 233.298 201.531C233.251 201.672 233.159 201.795 233.036 201.881C232.913 201.967 232.765 202.013 232.614 202.011V198.764H232.873C232.827 198.861 232.804 198.968 232.804 199.075C232.803 199.213 232.841 199.348 232.914 199.466C232.986 199.583 233.09 199.679 233.214 199.742C233.338 199.806 233.477 199.834 233.617 199.824C233.756 199.815 233.89 199.768 234.004 199.688C234.118 199.608 234.207 199.499 234.262 199.373C234.317 199.247 234.336 199.108 234.316 198.972C234.296 198.835 234.238 198.707 234.149 198.601C234.06 198.496 233.943 198.416 233.811 198.371C234.006 198.211 234.162 198.008 234.267 197.779H234.495C234.955 197.808 235.408 197.66 235.761 197.368C235.937 197.142 236.062 196.882 236.129 196.605C236.196 196.328 236.202 196.04 236.147 195.76C236.142 195.722 236.125 195.685 236.098 195.657C236.07 195.629 236.034 195.611 235.995 195.604C235.711 195.554 235.419 195.562 235.137 195.629C234.856 195.695 234.592 195.819 234.362 195.991C234.189 196.21 234.064 196.462 233.995 196.732C233.927 197.001 233.916 197.281 233.963 197.555C233.864 197.819 233.681 198.045 233.441 198.198C233.202 198.352 232.918 198.426 232.633 198.409V196.028C232.755 196.108 232.898 196.151 233.044 196.153C233.246 196.153 233.439 196.074 233.582 195.934C233.724 195.793 233.804 195.603 233.804 195.405C233.804 195.207 233.724 195.016 233.582 194.876C233.439 194.736 233.246 194.657 233.044 194.657C232.897 194.655 232.753 194.699 232.633 194.782V194.383C232.636 194.371 232.636 194.358 232.633 194.346C232.855 194.186 233.042 193.983 233.182 193.749C233.321 193.516 233.41 193.256 233.443 192.987C233.404 192.705 233.306 192.434 233.154 192.191C233.003 191.949 232.801 191.74 232.563 191.579C232.531 191.555 232.492 191.542 232.452 191.542C232.412 191.542 232.373 191.555 232.341 191.579C232.104 191.741 231.903 191.95 231.752 192.192C231.6 192.435 231.501 192.705 231.461 192.987C231.494 193.256 231.584 193.516 231.723 193.749C231.862 193.983 232.049 194.186 232.272 194.346C232.272 194.346 232.272 194.346 232.272 194.383V195.268C232.131 195.27 231.992 195.233 231.871 195.162C231.75 195.09 231.652 194.987 231.588 194.863C231.631 194.578 231.612 194.288 231.534 194.011C231.455 193.734 231.318 193.477 231.132 193.255C230.902 193.083 230.637 192.96 230.356 192.893C230.075 192.827 229.783 192.818 229.498 192.869C229.458 192.875 229.422 192.893 229.393 192.921C229.365 192.949 229.346 192.985 229.34 193.024C229.289 193.305 229.297 193.592 229.365 193.869C229.432 194.146 229.557 194.406 229.732 194.632C230.083 194.929 230.538 195.077 230.999 195.043H231.208C231.303 195.229 231.449 195.386 231.629 195.496C231.809 195.606 232.016 195.665 232.227 195.667V196.028C232.112 195.961 231.981 195.925 231.848 195.922C231.646 195.922 231.453 196.001 231.31 196.141C231.168 196.281 231.088 196.472 231.088 196.67C231.088 196.868 231.168 197.058 231.31 197.199C231.453 197.339 231.646 197.418 231.848 197.418C231.982 197.418 232.113 197.382 232.227 197.312V199.113C231.94 199.138 231.652 199.071 231.406 198.923C231.16 198.775 230.968 198.553 230.86 198.29C230.921 198.007 230.92 197.715 230.858 197.433C230.796 197.15 230.673 196.884 230.499 196.651C230.267 196.479 230.002 196.356 229.72 196.29C229.437 196.223 229.144 196.215 228.859 196.265C228.82 196.272 228.785 196.291 228.757 196.319C228.73 196.347 228.712 196.382 228.707 196.421C228.656 196.701 228.664 196.988 228.732 197.265C228.8 197.542 228.925 197.802 229.099 198.028C229.451 198.323 229.905 198.471 230.366 198.44H230.499C230.569 198.61 230.67 198.766 230.796 198.901C230.662 198.942 230.542 199.02 230.45 199.124C230.358 199.229 230.297 199.356 230.274 199.493C230.252 199.629 230.268 199.769 230.321 199.897C230.374 200.025 230.462 200.136 230.576 200.218C230.689 200.3 230.824 200.349 230.964 200.36C231.104 200.371 231.244 200.343 231.37 200.28C231.495 200.217 231.6 200.122 231.673 200.004C231.746 199.885 231.785 199.75 231.784 199.611C231.791 199.549 231.791 199.487 231.784 199.424C231.933 199.452 232.083 199.469 232.234 199.474V203.213C232.093 203.216 231.954 203.179 231.833 203.107C231.712 203.036 231.614 202.932 231.55 202.808C231.599 202.525 231.587 202.236 231.515 201.958C231.443 201.68 231.312 201.419 231.132 201.194C230.902 201.022 230.637 200.899 230.356 200.832C230.075 200.766 229.783 200.757 229.498 200.808C229.458 200.814 229.422 200.832 229.393 200.86C229.365 200.888 229.346 200.924 229.34 200.964C229.289 201.244 229.297 201.531 229.365 201.808C229.432 202.085 229.557 202.345 229.732 202.571C230.083 202.868 230.538 203.016 230.999 202.983H231.208C231.233 203.033 231.262 203.081 231.297 203.126C231.142 203.145 230.997 203.212 230.882 203.317C230.768 203.422 230.69 203.559 230.659 203.71C230.628 203.86 230.646 204.017 230.71 204.157C230.774 204.297 230.881 204.414 231.016 204.491C231.151 204.569 231.307 204.602 231.463 204.587C231.618 204.573 231.765 204.51 231.883 204.409C232.001 204.308 232.083 204.173 232.119 204.023C232.154 203.874 232.141 203.717 232.082 203.575H232.227V206.067H224.951V205.064H225.179C225.64 205.094 226.094 204.947 226.446 204.653C226.62 204.426 226.745 204.166 226.813 203.889C226.881 203.613 226.889 203.325 226.838 203.045C226.833 203.002 226.812 202.962 226.779 202.933C226.747 202.903 226.705 202.885 226.661 202.883C226.376 202.833 226.084 202.842 225.803 202.908C225.522 202.974 225.258 203.098 225.027 203.269L224.951 203.35V202.384C225.162 202.382 225.368 202.323 225.547 202.213C225.726 202.103 225.87 201.947 225.964 201.761H226.211C226.44 201.778 226.669 201.75 226.886 201.68C227.104 201.609 227.305 201.497 227.478 201.35C227.645 201.124 227.764 200.868 227.827 200.596C227.89 200.324 227.896 200.042 227.845 199.767C227.839 199.728 227.82 199.692 227.792 199.664C227.763 199.636 227.727 199.617 227.687 199.611C227.406 199.559 227.118 199.563 226.839 199.624C226.56 199.685 226.297 199.802 226.066 199.967C225.895 200.181 225.771 200.428 225.702 200.692C225.634 200.956 225.622 201.231 225.667 201.5C225.617 201.64 225.524 201.762 225.4 201.847C225.276 201.932 225.128 201.976 224.977 201.973V198.733H225.243C225.194 198.83 225.169 198.936 225.167 199.044C225.166 199.181 225.205 199.316 225.277 199.433C225.349 199.55 225.453 199.646 225.577 199.709C225.7 199.772 225.839 199.801 225.978 199.791C226.117 199.782 226.251 199.735 226.365 199.656C226.479 199.577 226.568 199.468 226.624 199.343C226.679 199.217 226.698 199.078 226.679 198.943C226.66 198.807 226.603 198.679 226.515 198.572C226.427 198.466 226.311 198.386 226.18 198.34C226.376 198.181 226.53 197.978 226.629 197.748H226.864C227.324 197.779 227.779 197.631 228.13 197.337C228.305 197.11 228.43 196.85 228.497 196.573C228.565 196.297 228.574 196.009 228.523 195.729C228.517 195.69 228.498 195.654 228.47 195.626C228.441 195.598 228.404 195.579 228.365 195.573C228.074 195.52 227.776 195.529 227.489 195.597C227.201 195.666 226.932 195.794 226.699 195.972C226.526 196.191 226.402 196.444 226.333 196.713C226.264 196.982 226.253 197.262 226.3 197.536C226.201 197.8 226.018 198.026 225.779 198.18C225.539 198.334 225.256 198.407 224.97 198.39V196.028C225.095 196.108 225.24 196.152 225.388 196.153C225.59 196.153 225.783 196.074 225.926 195.934C226.068 195.793 226.148 195.603 226.148 195.405C226.148 195.207 226.068 195.016 225.926 194.876C225.783 194.736 225.59 194.657 225.388 194.657C225.239 194.655 225.093 194.699 224.97 194.782V194.383C224.97 194.383 224.97 194.383 224.97 194.346C225.193 194.186 225.38 193.983 225.519 193.749C225.659 193.516 225.748 193.256 225.781 192.987C225.741 192.705 225.642 192.435 225.49 192.192C225.339 191.95 225.138 191.741 224.901 191.579C224.869 191.555 224.83 191.542 224.79 191.542C224.75 191.542 224.711 191.555 224.679 191.579C224.441 191.74 224.239 191.949 224.088 192.191C223.936 192.434 223.838 192.705 223.799 192.987C223.829 193.254 223.914 193.512 224.049 193.746C224.184 193.98 224.366 194.184 224.584 194.346C224.581 194.358 224.581 194.371 224.584 194.383V195.212C224.441 195.217 224.3 195.182 224.176 195.113C224.052 195.044 223.95 194.942 223.881 194.819C223.932 194.544 223.923 194.261 223.855 193.99C223.787 193.718 223.663 193.464 223.488 193.243C223.255 193.076 222.991 192.957 222.71 192.893C222.429 192.828 222.138 192.82 221.855 192.869C221.815 192.875 221.778 192.893 221.75 192.921C221.721 192.949 221.703 192.985 221.696 193.024C221.645 193.3 221.654 193.582 221.722 193.854C221.789 194.126 221.914 194.38 222.089 194.601C222.443 194.889 222.897 195.032 223.355 195H223.533C223.635 195.182 223.786 195.333 223.969 195.438C224.152 195.542 224.36 195.595 224.571 195.592V196.028C224.472 195.965 224.359 195.926 224.241 195.914C224.123 195.902 224.005 195.917 223.894 195.957C223.783 195.998 223.684 196.064 223.603 196.15C223.523 196.235 223.464 196.338 223.431 196.449C223.398 196.561 223.392 196.679 223.414 196.794C223.435 196.908 223.484 197.016 223.555 197.109C223.626 197.202 223.719 197.277 223.825 197.328C223.931 197.38 224.048 197.406 224.166 197.405C224.3 197.406 224.432 197.37 224.546 197.299V199.1C224.259 199.124 223.971 199.057 223.725 198.909C223.479 198.761 223.288 198.54 223.178 198.278C223.236 197.997 223.235 197.707 223.172 197.427C223.11 197.147 222.989 196.883 222.817 196.651C222.587 196.479 222.323 196.356 222.041 196.289C221.76 196.223 221.468 196.215 221.183 196.265C221.144 196.271 221.107 196.289 221.078 196.317C221.05 196.345 221.031 196.382 221.025 196.421C220.974 196.701 220.983 196.988 221.05 197.265C221.118 197.542 221.243 197.802 221.418 198.028C221.769 198.323 222.224 198.47 222.684 198.44H222.899C222.967 198.61 223.066 198.766 223.191 198.901C223.055 198.94 222.934 199.016 222.839 199.12C222.745 199.223 222.682 199.351 222.658 199.488C222.633 199.625 222.648 199.766 222.7 199.895C222.753 200.024 222.84 200.136 222.954 200.219C223.068 200.302 223.202 200.352 223.343 200.363C223.484 200.375 223.625 200.347 223.751 200.284C223.877 200.221 223.983 200.125 224.056 200.006C224.129 199.887 224.167 199.75 224.166 199.611C224.166 199.548 224.155 199.485 224.134 199.424C224.283 199.451 224.433 199.468 224.584 199.474V203.213C224.444 203.215 224.306 203.178 224.186 203.106C224.066 203.035 223.969 202.931 223.906 202.808C223.96 202.528 223.954 202.241 223.89 201.963C223.826 201.685 223.704 201.424 223.533 201.194C223.301 201.022 223.036 200.899 222.754 200.833C222.471 200.766 222.178 200.758 221.893 200.808C221.854 200.815 221.819 200.834 221.791 200.862C221.764 200.89 221.746 200.925 221.741 200.964C221.69 201.244 221.698 201.531 221.766 201.808C221.834 202.085 221.959 202.345 222.133 202.571C222.307 202.718 222.508 202.83 222.725 202.901C222.942 202.972 223.172 202.999 223.4 202.983H223.533C223.533 203.033 223.59 203.076 223.621 203.126C223.461 203.143 223.31 203.21 223.19 203.316C223.071 203.423 222.988 203.564 222.955 203.719C222.921 203.875 222.938 204.036 223.004 204.182C223.069 204.327 223.18 204.448 223.319 204.528C223.459 204.607 223.621 204.642 223.781 204.626C223.942 204.61 224.093 204.544 224.214 204.439C224.334 204.333 224.418 204.193 224.452 204.037C224.487 203.882 224.471 203.72 224.407 203.575H224.552V206.067H221.215C221.188 206.062 221.159 206.063 221.132 206.07C221.105 206.077 221.08 206.09 221.059 206.108C221.038 206.125 221.02 206.147 221.008 206.172C220.997 206.197 220.99 206.224 220.99 206.251C220.99 206.279 220.997 206.306 221.008 206.331C221.02 206.355 221.038 206.377 221.059 206.395C221.08 206.412 221.105 206.425 221.132 206.432C221.159 206.439 221.188 206.44 221.215 206.435H235.983C236.01 206.44 236.038 206.439 236.065 206.432C236.092 206.425 236.117 206.412 236.139 206.395C236.16 206.377 236.177 206.355 236.189 206.331C236.201 206.306 236.207 206.279 236.207 206.251C236.207 206.224 236.201 206.197 236.189 206.172C236.177 206.147 236.16 206.125 236.139 206.108C236.117 206.09 236.092 206.077 236.065 206.07C236.038 206.063 236.01 206.062 235.983 206.067V206.099Z" fill="#ADD6FF"/>
<path d="M304.281 215.465H300.899V214.437H301.133C301.594 214.468 302.049 214.32 302.4 214.025C302.575 213.798 302.7 213.538 302.767 213.262C302.835 212.985 302.843 212.698 302.793 212.417C302.786 212.378 302.768 212.342 302.739 212.314C302.711 212.286 302.674 212.268 302.634 212.262C302.35 212.212 302.058 212.22 301.776 212.287C301.495 212.353 301.231 212.476 301 212.648L300.924 212.729V211.757C301.135 211.753 301.34 211.694 301.519 211.584C301.698 211.474 301.842 211.318 301.938 211.134H302.185C302.645 211.165 303.1 211.017 303.451 210.722C303.626 210.496 303.751 210.236 303.818 209.959C303.886 209.682 303.895 209.395 303.844 209.115C303.838 209.076 303.819 209.039 303.79 209.011C303.762 208.983 303.725 208.965 303.686 208.959C303.401 208.909 303.109 208.917 302.828 208.984C302.546 209.05 302.282 209.173 302.052 209.345C301.881 209.56 301.757 209.807 301.688 210.07C301.62 210.334 301.608 210.609 301.653 210.878C301.653 210.878 301.653 210.878 301.653 210.909C301.603 211.05 301.51 211.172 301.386 211.257C301.262 211.342 301.114 211.386 300.962 211.383V208.13C301.051 208.137 301.14 208.137 301.228 208.13C301.181 208.23 301.155 208.338 301.152 208.448C301.152 208.585 301.19 208.72 301.263 208.837C301.335 208.954 301.439 209.049 301.562 209.113C301.686 209.176 301.825 209.204 301.964 209.195C302.103 209.185 302.237 209.139 302.351 209.06C302.465 208.98 302.554 208.872 302.61 208.746C302.665 208.62 302.684 208.482 302.665 208.346C302.646 208.21 302.589 208.082 302.501 207.976C302.413 207.87 302.297 207.789 302.166 207.744C302.367 207.577 302.522 207.363 302.615 207.121H302.85C303.31 207.152 303.765 207.004 304.116 206.709C304.291 206.481 304.416 206.22 304.484 205.943C304.551 205.665 304.56 205.376 304.509 205.095C304.502 205.058 304.483 205.024 304.456 204.997C304.429 204.971 304.395 204.953 304.357 204.946C304.071 204.896 303.778 204.904 303.496 204.97C303.214 205.037 302.948 205.16 302.717 205.332C302.543 205.551 302.418 205.803 302.35 206.073C302.283 206.342 302.274 206.623 302.324 206.896C302.222 207.16 302.038 207.384 301.798 207.538C301.557 207.691 301.274 207.766 300.988 207.75V205.376C301.113 205.455 301.257 205.498 301.406 205.5C301.607 205.5 301.801 205.421 301.943 205.281C302.086 205.141 302.166 204.951 302.166 204.752C302.166 204.554 302.086 204.364 301.943 204.224C301.801 204.083 301.607 204.005 301.406 204.005C301.258 204.005 301.113 204.046 300.988 204.123V203.755C300.988 203.755 300.988 203.755 300.988 203.712C301.211 203.554 301.398 203.352 301.537 203.119C301.677 202.887 301.766 202.628 301.798 202.359C301.757 202.077 301.658 201.806 301.506 201.563C301.355 201.32 301.155 201.11 300.918 200.945C300.885 200.924 300.847 200.912 300.807 200.912C300.768 200.912 300.729 200.924 300.697 200.945C300.459 201.108 300.258 201.318 300.107 201.562C299.955 201.805 299.856 202.077 299.816 202.359C299.849 202.628 299.938 202.887 300.077 203.119C300.217 203.352 300.404 203.554 300.627 203.712C300.625 203.726 300.625 203.741 300.627 203.755V204.64C300.487 204.641 300.349 204.604 300.23 204.533C300.11 204.461 300.013 204.358 299.949 204.235C300.041 203.958 300.053 203.661 299.983 203.377C299.914 203.093 299.766 202.834 299.557 202.627C299.347 202.421 299.083 202.276 298.795 202.208C298.507 202.139 298.205 202.151 297.923 202.241C297.883 202.247 297.846 202.266 297.818 202.294C297.789 202.322 297.771 202.358 297.765 202.397C297.714 202.677 297.722 202.964 297.79 203.241C297.857 203.518 297.983 203.778 298.157 204.005C298.508 204.299 298.963 204.447 299.424 204.416H299.525C299.62 204.601 299.764 204.757 299.943 204.867C300.122 204.977 300.328 205.036 300.538 205.039V205.376C300.438 205.321 300.327 205.289 300.212 205.283C300.098 205.277 299.984 205.297 299.878 205.341C299.773 205.385 299.679 205.452 299.604 205.537C299.529 205.622 299.474 205.722 299.444 205.831C299.415 205.94 299.411 206.054 299.432 206.165C299.454 206.275 299.501 206.38 299.57 206.47C299.639 206.56 299.727 206.633 299.829 206.684C299.931 206.736 300.044 206.763 300.158 206.765C300.293 206.766 300.424 206.73 300.538 206.659V208.492C300.251 208.514 299.964 208.447 299.718 208.299C299.472 208.152 299.281 207.931 299.17 207.669C299.262 207.391 299.274 207.094 299.204 206.811C299.135 206.527 298.987 206.267 298.778 206.061C298.568 205.855 298.305 205.709 298.016 205.641C297.728 205.573 297.426 205.585 297.144 205.675C297.106 205.681 297.071 205.699 297.043 205.725C297.016 205.752 296.998 205.787 296.992 205.824C296.937 206.105 296.944 206.394 297.01 206.672C297.077 206.95 297.202 207.211 297.378 207.438C297.731 207.731 298.185 207.878 298.645 207.85H298.847C298.915 208.02 299.013 208.176 299.139 208.311C299.005 208.353 298.886 208.431 298.795 208.536C298.704 208.641 298.644 208.769 298.622 208.905C298.6 209.041 298.617 209.181 298.671 209.308C298.725 209.436 298.813 209.546 298.926 209.627C299.04 209.708 299.174 209.757 299.314 209.768C299.454 209.778 299.594 209.751 299.719 209.688C299.843 209.625 299.948 209.53 300.021 209.412C300.094 209.295 300.133 209.159 300.133 209.021C300.143 208.959 300.143 208.896 300.133 208.834C300.281 208.861 300.432 208.878 300.583 208.884V212.623C300.442 212.624 300.305 212.587 300.185 212.515C300.066 212.444 299.968 212.341 299.905 212.218C299.996 211.941 300.008 211.643 299.939 211.36C299.87 211.076 299.722 210.817 299.512 210.61C299.303 210.404 299.039 210.259 298.751 210.19C298.462 210.122 298.161 210.134 297.878 210.224C297.839 210.23 297.802 210.248 297.774 210.276C297.745 210.304 297.726 210.341 297.72 210.38C297.669 210.66 297.678 210.947 297.746 211.224C297.813 211.501 297.938 211.761 298.113 211.988C298.464 212.282 298.919 212.43 299.379 212.399H299.525C299.549 212.448 299.576 212.496 299.607 212.542C299.463 212.56 299.328 212.619 299.217 212.71C299.106 212.802 299.024 212.924 298.982 213.06C298.939 213.197 298.938 213.342 298.977 213.48C299.017 213.617 299.095 213.74 299.204 213.834C299.313 213.929 299.447 213.99 299.591 214.011C299.734 214.032 299.881 214.012 300.013 213.954C300.145 213.895 300.257 213.8 300.336 213.68C300.414 213.56 300.456 213.42 300.456 213.277C300.454 213.177 300.432 213.077 300.393 212.985H300.538V215.477H293.256V214.437H293.484C293.944 214.465 294.397 214.318 294.75 214.025C294.924 213.798 295.049 213.538 295.115 213.261C295.182 212.985 295.189 212.697 295.136 212.417C295.131 212.379 295.113 212.344 295.086 212.316C295.058 212.288 295.023 212.269 294.984 212.262C294.699 212.212 294.406 212.22 294.123 212.287C293.841 212.353 293.576 212.476 293.344 212.648L293.275 212.729V211.757C293.484 211.754 293.689 211.694 293.867 211.584C294.044 211.474 294.188 211.318 294.282 211.134H294.529C294.989 211.163 295.443 211.015 295.795 210.722C295.97 210.496 296.095 210.236 296.162 209.959C296.23 209.682 296.238 209.395 296.188 209.115C296.181 209.076 296.163 209.039 296.134 209.011C296.106 208.983 296.069 208.965 296.029 208.959C295.745 208.909 295.452 208.917 295.171 208.983C294.89 209.05 294.626 209.173 294.396 209.345C294.225 209.56 294.101 209.807 294.032 210.07C293.962 210.334 293.948 210.609 293.99 210.878C293.99 210.878 293.99 210.878 293.99 210.909C293.942 211.049 293.85 211.171 293.727 211.256C293.604 211.341 293.457 211.386 293.306 211.383V208.13C293.393 208.137 293.48 208.137 293.566 208.13C293.52 208.23 293.497 208.338 293.496 208.448C293.496 208.646 293.576 208.836 293.719 208.977C293.861 209.117 294.055 209.196 294.256 209.196C294.458 209.196 294.651 209.117 294.794 208.977C294.936 208.836 295.016 208.646 295.016 208.448C295.016 208.292 294.967 208.141 294.875 208.014C294.783 207.888 294.653 207.793 294.503 207.744C294.706 207.577 294.863 207.363 294.959 207.121H295.193C295.654 207.152 296.109 207.004 296.46 206.709C296.635 206.481 296.76 206.22 296.827 205.943C296.895 205.665 296.904 205.376 296.853 205.095C296.845 205.057 296.826 205.022 296.798 204.996C296.769 204.969 296.733 204.951 296.694 204.946C296.41 204.896 296.117 204.904 295.836 204.971C295.555 205.037 295.291 205.16 295.06 205.332C294.888 205.551 294.763 205.804 294.694 206.073C294.626 206.342 294.614 206.622 294.661 206.896C294.563 207.16 294.38 207.386 294.14 207.54C293.901 207.694 293.617 207.767 293.332 207.75V205.376C293.446 205.45 293.579 205.493 293.716 205.499C293.854 205.506 293.99 205.475 294.111 205.411C294.232 205.347 294.333 205.252 294.404 205.136C294.474 205.02 294.512 204.888 294.512 204.752C294.512 204.617 294.474 204.485 294.404 204.369C294.333 204.253 294.232 204.158 294.111 204.094C293.99 204.03 293.854 203.999 293.716 204.005C293.579 204.012 293.446 204.055 293.332 204.129V203.755C293.332 203.755 293.332 203.755 293.332 203.712C293.554 203.554 293.74 203.352 293.878 203.119C294.017 202.886 294.104 202.627 294.136 202.359C294.088 202.072 293.98 201.797 293.817 201.553C293.655 201.31 293.442 201.102 293.192 200.945C293.161 200.923 293.123 200.912 293.085 200.912C293.046 200.912 293.009 200.923 292.977 200.945C292.738 201.108 292.536 201.318 292.384 201.561C292.231 201.804 292.131 202.076 292.09 202.359C292.123 202.628 292.212 202.887 292.351 203.119C292.491 203.352 292.678 203.554 292.901 203.712C292.901 203.712 292.901 203.712 292.901 203.755V204.584C292.758 204.589 292.617 204.555 292.493 204.486C292.369 204.416 292.267 204.315 292.198 204.192C292.247 203.916 292.237 203.633 292.168 203.362C292.099 203.09 291.974 202.836 291.799 202.615C291.567 202.448 291.304 202.33 291.024 202.265C290.744 202.201 290.455 202.193 290.172 202.241C290.133 202.247 290.097 202.264 290.068 202.291C290.04 202.318 290.021 202.353 290.013 202.391C289.962 202.667 289.971 202.95 290.038 203.223C290.106 203.496 290.231 203.752 290.406 203.974C290.76 204.262 291.214 204.405 291.672 204.372H291.888C291.987 204.559 292.136 204.716 292.319 204.826C292.502 204.936 292.712 204.994 292.926 204.996V205.376C292.811 205.309 292.68 205.272 292.546 205.27C292.345 205.27 292.152 205.348 292.009 205.489C291.867 205.629 291.786 205.819 291.786 206.018C291.786 206.216 291.867 206.406 292.009 206.546C292.152 206.687 292.345 206.765 292.546 206.765C292.681 206.766 292.812 206.729 292.926 206.659V208.492C292.639 208.515 292.352 208.449 292.106 208.301C291.86 208.153 291.668 207.931 291.558 207.669C291.65 207.391 291.662 207.094 291.593 206.811C291.523 206.527 291.376 206.267 291.166 206.061C290.956 205.855 290.693 205.709 290.404 205.641C290.116 205.573 289.814 205.585 289.532 205.675C289.493 205.681 289.457 205.698 289.429 205.725C289.4 205.752 289.381 205.786 289.374 205.824C289.323 206.105 289.331 206.394 289.399 206.672C289.467 206.949 289.592 207.21 289.766 207.438C290.118 207.733 290.572 207.881 291.033 207.85H291.236C291.31 208.018 291.41 208.173 291.533 208.311C291.399 208.352 291.279 208.43 291.187 208.534C291.095 208.639 291.034 208.766 291.011 208.903C290.988 209.039 291.005 209.179 291.058 209.307C291.111 209.435 291.199 209.546 291.313 209.628C291.426 209.71 291.561 209.759 291.701 209.77C291.841 209.781 291.981 209.753 292.107 209.69C292.232 209.627 292.337 209.532 292.41 209.413C292.483 209.295 292.522 209.16 292.521 209.021C292.531 208.959 292.531 208.896 292.521 208.834C292.669 208.862 292.82 208.879 292.971 208.884V212.623C292.83 212.625 292.691 212.589 292.57 212.517C292.449 212.445 292.351 212.342 292.287 212.218C292.378 211.941 292.39 211.643 292.321 211.36C292.252 211.076 292.104 210.817 291.894 210.61C291.684 210.404 291.421 210.259 291.133 210.19C290.844 210.122 290.542 210.134 290.26 210.224C290.236 210.217 290.21 210.216 290.185 210.219C290.16 210.223 290.136 210.231 290.114 210.244C290.092 210.257 290.073 210.273 290.058 210.294C290.043 210.314 290.032 210.337 290.026 210.361C289.973 210.641 289.98 210.928 290.047 211.205C290.113 211.482 290.238 211.742 290.412 211.969C290.765 212.261 291.219 212.408 291.679 212.38H291.888C291.914 212.43 291.944 212.478 291.976 212.523C291.833 212.541 291.697 212.6 291.586 212.692C291.475 212.784 291.394 212.905 291.351 213.041C291.308 213.178 291.307 213.324 291.346 213.461C291.386 213.598 291.465 213.721 291.573 213.816C291.682 213.91 291.816 213.971 291.96 213.992C292.103 214.014 292.25 213.994 292.382 213.935C292.514 213.876 292.626 213.781 292.705 213.661C292.783 213.541 292.825 213.401 292.825 213.259C292.823 213.158 292.801 213.059 292.762 212.966C292.81 212.969 292.859 212.969 292.907 212.966V215.459H289.545C289.495 215.46 289.447 215.48 289.412 215.515C289.377 215.55 289.356 215.596 289.355 215.646C289.355 215.695 289.375 215.743 289.41 215.778C289.446 215.813 289.494 215.832 289.545 215.832H304.312C304.338 215.833 304.363 215.829 304.386 215.82C304.41 215.811 304.431 215.797 304.449 215.78C304.467 215.762 304.481 215.741 304.49 215.718C304.499 215.695 304.503 215.67 304.502 215.646C304.502 215.619 304.496 215.592 304.484 215.568C304.472 215.544 304.455 215.522 304.434 215.505C304.413 215.488 304.388 215.476 304.362 215.469C304.335 215.462 304.308 215.46 304.281 215.465Z" fill="#ADD6FF"/>
<path d="M254.835 167.512H262.232" stroke="#3399FF" stroke-miterlimit="10"/>
<path d="M253.404 169.45H264.315" stroke="#3399FF" stroke-miterlimit="10"/>
<path d="M251.441 171.519H265.626" stroke="#3399FF" stroke-miterlimit="10"/>
</g>
<g clip-path="url(#clip3)">
<g opacity="0.1">
<g opacity="0.1">
<g opacity="0.1">
<path opacity="0.1" d="M255.181 42.5379L271.129 33.4778L296.953 48.0537L281.005 57.1218L255.181 42.5379ZM312.404 44.9326L276.663 24.737L266.199 30.6919L268.542 32.017L252.594 41.0771L250.251 39.728L229.748 51.4064L265.489 71.586L286.008 59.9316L283.625 58.5826L299.573 49.5225L301.932 50.9035L312.404 44.9486" fill="#3399FF"/>
</g>
</g>
</g>
<path d="M265.375 43.6554H215V72.0969H265.375V43.6554Z" fill="#3399FF"/>
<path d="M265.375 7H215V21.5281H265.375V7Z" fill="#ADD6FF"/>
<path d="M221.946 8.81202H218.297V43.6634H221.946V8.81202Z" fill="#ADD6FF"/>
<path d="M262.004 8.81202H258.356V43.6634H262.004V8.81202Z" fill="#ADD6FF"/>
<path d="M248.464 48.1575C248.464 48.4449 248.369 48.7248 248.194 48.9557C247.885 49.4128 247.721 49.9485 247.721 50.4964C247.721 51.0442 247.885 51.5799 248.194 52.037C248.369 52.2785 248.463 52.5672 248.463 52.8632C248.463 53.1591 248.369 53.4478 248.194 53.6893C247.877 54.1423 247.711 54.6808 247.721 55.2299H249.108C249.106 54.9421 249.201 54.6616 249.378 54.4317C249.687 53.9763 249.852 53.4418 249.852 52.8951C249.852 52.3484 249.687 51.8139 249.378 51.3585C249.202 51.1157 249.108 50.8257 249.108 50.5283C249.108 50.2309 249.202 49.9408 249.378 49.6981C249.697 49.2459 249.863 48.7069 249.851 48.1575H248.464ZM252.169 48.1575C252.173 48.4455 252.078 48.7264 251.9 48.9557C251.591 49.4128 251.426 49.9485 251.426 50.4964C251.426 51.0442 251.591 51.5799 251.9 52.037C252.075 52.2785 252.169 52.5672 252.169 52.8632C252.169 53.1591 252.075 53.4478 251.9 53.6893C251.582 54.1423 251.417 54.6808 251.426 55.2299H252.822C252.82 54.9421 252.914 54.6616 253.091 54.4317C253.401 53.9763 253.565 53.4418 253.565 52.8951C253.565 52.3484 253.401 51.8139 253.091 51.3585C252.916 51.1157 252.821 50.8257 252.821 50.5283C252.821 50.2309 252.916 49.9408 253.091 49.6981C253.407 49.244 253.572 48.7063 253.565 48.1575H252.169ZM255.883 48.1575C255.886 48.4455 255.792 48.7264 255.613 48.9557C255.304 49.4128 255.14 49.9485 255.14 50.4964C255.14 51.0442 255.304 51.5799 255.613 52.037C255.788 52.2785 255.882 52.5672 255.882 52.8632C255.882 53.1591 255.788 53.4478 255.613 53.6893C255.296 54.1423 255.13 54.6808 255.14 55.2299H256.527C256.529 54.9427 256.623 54.6632 256.797 54.4317C257.106 53.9763 257.271 53.4418 257.271 52.8951C257.271 52.3484 257.106 51.8139 256.797 51.3585C256.621 51.1157 256.527 50.8257 256.527 50.5283C256.527 50.2309 256.621 49.9408 256.797 49.6981C257.116 49.2459 257.282 48.7069 257.27 48.1575H255.883ZM246.293 55.8047C246.263 59.0793 246.72 62.3408 247.647 65.4874C247.903 66.31 248.268 67.0963 248.733 67.8262H255.483C255.974 67.0519 256.359 66.2171 256.625 65.3437C257.524 62.2276 257.963 59.0022 257.931 55.7648L246.293 55.8047ZM257.793 57.2894C257.793 57.7604 257.793 58.2154 257.727 58.6544H258.543C258.828 58.637 259.114 58.6768 259.382 58.7714C259.651 58.866 259.897 59.0134 260.105 59.2045C260.313 59.3956 260.478 59.6263 260.592 59.8825C260.705 60.1387 260.763 60.4148 260.763 60.6939C260.763 60.973 260.705 61.2492 260.592 61.5054C260.478 61.7615 260.313 61.9923 260.105 62.1834C259.897 62.3745 259.651 62.5219 259.382 62.6165C259.114 62.7111 258.828 62.7509 258.543 62.7334H257.238C257.148 63.2204 257.05 63.6754 256.952 64.0905H258.527C258.984 64.0905 259.436 64.0025 259.858 63.8316C260.28 63.6607 260.663 63.4102 260.986 63.0945C261.309 62.7787 261.565 62.4038 261.739 61.9913C261.914 61.5787 262.004 61.1365 262.004 60.6899C262.004 60.2434 261.914 59.8012 261.739 59.3886C261.565 58.976 261.309 58.6012 260.986 58.2854C260.663 57.9696 260.28 57.7192 259.858 57.5483C259.436 57.3774 258.984 57.2894 258.527 57.2894H257.793Z" fill="#ADD6FF"/>
<path d="M223.39 38.3072C223.38 39.7648 223.584 41.2164 223.994 42.6177C224.11 42.9819 224.272 43.3305 224.476 43.6554H227.479C227.699 43.3128 227.87 42.9421 227.985 42.5538C228.379 41.1715 228.574 39.7422 228.565 38.3072H223.39ZM228.508 38.9857C228.508 39.1932 228.508 39.4008 228.508 39.5923H228.875C229.004 39.5805 229.134 39.5951 229.257 39.6352C229.38 39.6754 229.493 39.7402 229.589 39.8254C229.684 39.9107 229.761 40.0146 229.813 40.1305C229.866 40.2464 229.893 40.3717 229.893 40.4983C229.893 40.625 229.866 40.7503 229.813 40.8662C229.761 40.982 229.684 41.086 229.589 41.1712C229.493 41.2565 229.38 41.3213 229.257 41.3614C229.134 41.4016 229.004 41.4162 228.875 41.4043H228.304C228.263 41.6199 228.222 41.8274 228.181 42.011H228.875C229.088 42.0261 229.301 41.9982 229.502 41.9291C229.703 41.8599 229.888 41.7509 230.044 41.609C230.2 41.467 230.324 41.2952 230.409 41.1041C230.494 40.913 230.538 40.7068 230.538 40.4983C230.538 40.2899 230.494 40.0837 230.409 39.8926C230.324 39.7015 230.2 39.5296 230.044 39.3877C229.888 39.2458 229.703 39.1368 229.502 39.0676C229.301 38.9985 229.088 38.9706 228.875 38.9857H228.508Z" fill="#70B8FF"/>
<path d="M231.324 38.3072C231.311 39.7645 231.511 41.2161 231.92 42.6177C232.035 42.9819 232.197 43.3305 232.401 43.6554H235.405C235.621 43.3119 235.788 42.9413 235.903 42.5538C236.3 41.1722 236.495 39.7424 236.482 38.3072H231.324ZM236.441 38.9857C236.441 39.1932 236.441 39.4008 236.441 39.5923H236.8C236.929 39.5805 237.059 39.5951 237.182 39.6352C237.305 39.6754 237.418 39.7402 237.514 39.8254C237.61 39.9107 237.686 40.0146 237.738 40.1305C237.791 40.2464 237.818 40.3717 237.818 40.4983C237.818 40.625 237.791 40.7503 237.738 40.8662C237.686 40.982 237.61 41.086 237.514 41.1712C237.418 41.2565 237.305 41.3213 237.182 41.3614C237.059 41.4016 236.929 41.4162 236.8 41.4043H236.221C236.221 41.6199 236.139 41.8274 236.098 42.011H236.8C237.191 41.9832 237.557 41.8118 237.823 41.5312C238.09 41.2506 238.239 40.8816 238.239 40.4983C238.239 40.1151 238.09 39.7461 237.823 39.4655C237.557 39.1849 237.191 39.0134 236.8 38.9857H236.441Z" fill="#70B8FF"/>
<path d="M243.518 48.7402H219.065" stroke="#ADD6FF" stroke-miterlimit="10"/>
<path d="M219.065 51.2627H243.518" stroke="#ADD6FF" stroke-miterlimit="10"/>
</g>
<g clip-path="url(#clip4)">
<path d="M7.10145 126.748C11.0235 126.748 14.2029 121.656 14.2029 115.374C14.2029 109.092 11.0235 104 7.10145 104C3.17943 104 0 109.092 0 115.374C0 121.656 3.17943 126.748 7.10145 126.748Z" fill="#99CC33"/>
<path d="M7.6087 120.053H6.59421V139.706H7.6087V120.053Z" fill="#FFCC33"/>
<path d="M18.4058 142.009C22.0477 142.009 25 138.238 25 133.587C25 128.935 22.0477 125.164 18.4058 125.164C14.7639 125.164 11.8116 128.935 11.8116 133.587C11.8116 138.238 14.7639 142.009 18.4058 142.009Z" fill="#99CC33"/>
<path d="M18.913 135.387H17.8985V150H18.913V135.387Z" fill="#FFCC33"/>
</g>
<g clip-path="url(#clip5)">
<path d="M109.101 17.748C113.023 17.748 116.203 12.6557 116.203 6.37402C116.203 0.0923233 113.023 -5 109.101 -5C105.179 -5 102 0.0923233 102 6.37402C102 12.6557 105.179 17.748 109.101 17.748Z" fill="#99CC33"/>
<path d="M109.609 11.0532H108.594V30.7058H109.609V11.0532Z" fill="#FFCC33"/>
<path d="M120.406 33.0094C124.048 33.0094 127 29.2385 127 24.5869C127 19.9352 124.048 16.1643 120.406 16.1643C116.764 16.1643 113.812 19.9352 113.812 24.5869C113.812 29.2385 116.764 33.0094 120.406 33.0094Z" fill="#99CC33"/>
<path d="M120.913 26.3865H119.899V41H120.913V26.3865Z" fill="#FFCC33"/>
</g>
<defs>
<clipPath id="clip0">
<rect width="89.6884" height="55.6694" fill="white" transform="translate(0 33)"/>
</clipPath>
<clipPath id="clip1">
<rect width="79.0801" height="66.9919" fill="white" transform="translate(31 158)"/>
</clipPath>
<clipPath id="clip2">
<rect width="93.546" height="52.8387" fill="white" transform="translate(221 163)"/>
</clipPath>
<clipPath id="clip3">
<rect width="97.4036" height="65.1048" fill="white" transform="translate(215 7)"/>
</clipPath>
<clipPath id="clip4">
<rect width="25" height="46" fill="white" transform="translate(0 104)"/>
</clipPath>
<clipPath id="clip5">
<rect width="25" height="46" fill="white" transform="translate(102 -5)"/>
</clipPath>
</defs>
</svg>
