<svg width="39" height="38" viewBox="0 0 39 38" fill="none" xmlns="http://www.w3.org/2000/svg">
<path d="M37.9796 19.1259C37.9796 21.8941 37.9796 24.6623 37.9796 27.4305C37.9796 33.4703 33.4547 38.0001 27.4214 38.0001C21.8909 38.0001 16.3604 38.0001 10.8299 38.0001C4.7966 38.0001 0.0202637 33.4703 0.0202637 27.1789C0.0202637 21.6425 0.0202637 16.106 0.0202637 10.5696C0.0202637 4.52987 4.54522 -0.251587 10.8299 -0.251587C16.3604 -0.251587 21.8909 -0.251587 27.4214 -0.251587C33.4547 -0.251587 38.231 4.27821 38.231 10.5696C37.9796 13.5895 37.9796 16.3577 37.9796 19.1259ZM18.8742 29.6954C24.6561 29.6954 29.4325 24.914 29.4325 19.1259C29.4325 13.3378 24.6561 8.55636 18.8742 8.55636C13.0924 8.55636 8.31601 13.3378 8.31601 19.1259C8.5674 24.914 13.0924 29.6954 18.8742 29.6954ZM33.706 6.29146C33.706 5.28484 32.7005 4.27822 31.6949 4.27822C30.438 4.27822 29.4325 5.28484 29.4325 6.29146C29.4325 7.29808 30.438 8.30471 31.4436 8.30471C32.7005 8.55636 33.706 7.54974 33.706 6.29146Z" fill="#332083"/>
</svg>
