<svg width="38" height="38" viewBox="0 0 38 38" fill="none" xmlns="http://www.w3.org/2000/svg">
<path d="M38.0001 19.1258C38.0001 21.894 38.0001 24.6623 38.0001 27.4305C38.0001 33.4702 33.4752 38 27.4419 38C21.9114 38 16.3809 38 10.8504 38C4.81711 38 0.0407715 33.4702 0.0407715 27.1788C0.0407715 21.6424 0.0407715 16.106 0.0407715 10.5695C0.0407715 4.5298 4.56573 0 10.599 0C16.1295 0 21.66 0 27.1905 0C33.2238 0 38.0001 4.5298 38.0001 10.8212C38.0001 13.5894 38.0001 16.3576 38.0001 19.1258Z" fill="#332083"/>
<path d="M20.4031 16.6093C21.1573 16.106 21.9115 15.351 22.6656 15.0994C25.9336 13.8411 30.2072 14.8477 30.9614 19.6292C31.2128 20.3841 31.2128 21.1391 31.2128 22.1457C31.2128 24.9139 31.2128 27.4305 31.2128 30.1987C31.2128 30.702 30.9614 30.9537 30.4586 30.9537C29.2017 30.9537 27.6933 30.9537 26.4364 30.9537C25.9336 30.9537 25.6823 30.702 25.6823 30.1987C25.6823 27.4305 25.6823 24.9139 25.6823 22.1457C25.6823 21.8941 25.6823 21.3908 25.6823 21.1391C25.4309 19.8808 24.6767 19.1259 23.6712 18.8742C22.6656 18.6225 21.4087 19.1259 20.9059 20.1325C20.6545 20.6358 20.6545 20.8874 20.6545 21.3908C20.6545 24.159 20.6545 27.1788 20.6545 29.947C20.6545 30.702 20.6545 30.702 19.9004 30.702C18.6434 30.702 17.1351 30.702 15.8782 30.702C15.3754 30.702 15.124 30.4504 15.124 29.947C15.124 25.6689 15.124 21.3908 15.124 17.1126C15.124 16.6093 15.124 15.8543 15.124 15.351C15.124 15.0994 15.124 14.8477 15.6268 14.8477C17.1351 14.8477 18.6434 14.8477 20.1518 14.8477C20.4031 14.8477 20.6545 15.0994 20.6545 15.351C20.4031 15.8543 20.4031 16.106 20.4031 16.6093Z" fill="#FFF6DE"/>
<path d="M7.07959 22.9008C7.07959 20.3842 7.07959 18.1193 7.07959 15.6027C7.07959 15.0994 7.33097 14.8478 7.83375 14.8478C9.34207 14.8478 10.599 14.8478 12.1073 14.8478C12.6101 14.8478 12.6101 15.0994 12.6101 15.3511C12.6101 20.1325 12.6101 25.1657 12.6101 29.9471C12.6101 30.4504 12.6101 30.4504 12.1073 30.4504C10.599 30.4504 9.34207 30.4504 7.83375 30.4504C7.33097 30.4504 7.33098 30.1988 7.33098 29.9471C7.0796 27.6822 7.07959 25.1657 7.07959 22.9008Z" fill="#FFF6DE"/>
<path d="M10.0963 7.2981C10.8504 7.2981 11.856 7.80141 12.3588 8.80803C12.8615 9.81465 12.6102 10.8213 11.856 11.8279C10.8504 12.8345 8.83936 13.0862 7.58242 12.3312C6.32549 11.5762 6.07411 9.81465 6.82827 8.55637C7.58243 7.80141 8.58797 7.2981 10.0963 7.2981Z" fill="#FFF6DE"/>
</svg>
