<svg width="325" height="235" viewBox="0 0 325 235" fill="none" xmlns="http://www.w3.org/2000/svg">
<mask id="mask0" mask-type="alpha" maskUnits="userSpaceOnUse" x="0" y="0" width="325" height="235">
<path d="M0 0H325V234.5H0V0Z" fill="#FFF6DE"/>
</mask>
<g mask="url(#mask0)">
<g clip-path="url(#clip0)">
<path d="M157.101 203.748C161.023 203.748 164.203 198.656 164.203 192.374C164.203 186.092 161.023 181 157.101 181C153.179 181 150 186.092 150 192.374C150 198.656 153.179 203.748 157.101 203.748Z" fill="#99CC33"/>
<path d="M157.609 197.053H156.594V216.706H157.609V197.053Z" fill="#FFCC33"/>
<path d="M168.406 219.009C172.048 219.009 175 215.238 175 210.587C175 205.935 172.048 202.164 168.406 202.164C164.764 202.164 161.812 205.935 161.812 210.587C161.812 215.238 164.764 219.009 168.406 219.009Z" fill="#99CC33"/>
<path d="M168.913 212.386H167.899V227H168.913V212.386Z" fill="#FFCC33"/>
</g>
<path d="M28.942 47.6495C34.4329 47.6495 38.8841 40.5645 38.8841 31.8247C38.8841 23.085 34.4329 16 28.942 16C23.4512 16 19 23.085 19 31.8247C19 40.5645 23.4512 47.6495 28.942 47.6495Z" fill="#99CC33"/>
<path d="M29.6522 38.3349H28.2319V65.6776H29.6522V38.3349Z" fill="#FFCC33"/>
<path d="M44.7681 68.8826C49.8667 68.8826 54 63.6361 54 57.1643C54 50.6924 49.8667 45.446 44.7681 45.446C39.6695 45.446 35.5362 50.6924 35.5362 57.1643C35.5362 63.6361 39.6695 68.8826 44.7681 68.8826Z" fill="#99CC33"/>
<path d="M45.4782 59.6682H44.058V80H45.4782V59.6682Z" fill="#FFCC33"/>
<path d="M284.942 78.6495C290.433 78.6495 294.884 71.5645 294.884 62.8247C294.884 54.085 290.433 47 284.942 47C279.451 47 275 54.085 275 62.8247C275 71.5645 279.451 78.6495 284.942 78.6495Z" fill="#99CC33"/>
<path d="M285.652 69.3349H284.232V96.6776H285.652V69.3349Z" fill="#FFCC33"/>
<path d="M300.768 99.8826C305.867 99.8826 310 94.6361 310 88.1643C310 81.6924 305.867 76.446 300.768 76.446C295.67 76.446 291.536 81.6924 291.536 88.1643C291.536 94.6361 295.67 99.8826 300.768 99.8826Z" fill="#99CC33"/>
<path d="M301.478 90.6682H300.058V111H301.478V90.6682Z" fill="#FFCC33"/>
<g clip-path="url(#clip1)">
<path d="M64 150H28V178.579H64V150Z" fill="#FFC2AD"/>
<path d="M54.4274 154.923H38.1011V167.117H54.4274V154.923Z" fill="#FF6633"/>
<path d="M57.2547 167.125H35.299V173.066H57.2547V167.125Z" fill="#FF855C"/>
<path d="M45.9119 208.159V173.067" stroke="#FF855C" stroke-width="2" stroke-miterlimit="10"/>
<path d="M29.0487 208.158H62.515" stroke="#FF855C" stroke-width="2" stroke-miterlimit="10"/>
<path d="M38.1011 173.067L40.1063 187.314" stroke="#FF855C" stroke-width="2" stroke-miterlimit="10"/>
<path d="M53.7898 173.067L51.8182 187.322" stroke="#FF855C" stroke-width="2" stroke-miterlimit="10"/>
<path d="M39.4519 182.677H52.3887" stroke="#FF855C" stroke-width="2" stroke-miterlimit="10"/>
<path d="M37.5223 208.158C39.5193 208.158 41.1382 206.535 41.1382 204.531C41.1382 202.528 39.5193 200.904 37.5223 200.904C35.5252 200.904 33.9063 202.528 33.9063 204.531C33.9063 206.535 35.5252 208.158 37.5223 208.158Z" fill="#FF6633"/>
</g>
<g clip-path="url(#clip2)">
<g opacity="0.1">
<g opacity="0.1">
<g opacity="0.1">
<g opacity="0.1">
<path opacity="0.1" d="M360 61.6676L340.262 50.2832L327.084 57.9278L311.591 49.0183L259.103 79.4867L278.786 90.816L292.018 83.1715L307.456 92.081L360 61.6676Z" fill="#FF6633"/>
</g>
</g>
</g>
</g>
<path d="M307.622 18H279.778V92.356H307.622V18Z" fill="#FFC2AD"/>
<path d="M292.404 20.4199H281.984V27.5695H292.404V20.4199Z" fill="#EF5329"/>
<path d="M305.471 20.4199H295.051V27.5695H305.471V20.4199Z" fill="#EF5329"/>
<path d="M292.404 29.3294H281.984V36.479H292.404V29.3294Z" fill="#EF5329"/>
<path d="M305.471 29.3294H295.051V36.479H305.471V29.3294Z" fill="#EF5329"/>
<path d="M292.404 38.2389H281.984V45.3885H292.404V38.2389Z" fill="#EF5329"/>
<path d="M305.471 38.2389H295.051V45.3885H305.471V38.2389Z" fill="#EF5329"/>
<path d="M292.404 47.1484H281.984V54.2981H292.404V47.1484Z" fill="#EF5329"/>
<path d="M305.471 47.1484H295.051V54.2981H305.471V47.1484Z" fill="#EF5329"/>
<path d="M292.404 56.0579H281.984V63.2075H292.404V56.0579Z" fill="#EF5329"/>
<path d="M305.471 56.0579H295.051V63.2075H305.471V56.0579Z" fill="#EF5329"/>
<path d="M292.404 64.9125H281.984V72.0621H292.404V64.9125Z" fill="#EF5329"/>
<path d="M305.471 64.9125H295.051V72.0621H305.471V64.9125Z" fill="#EF5329"/>
<path d="M292.404 73.822H281.984V80.9716H292.404V73.822Z" fill="#EF5329"/>
<path d="M305.471 73.822H295.051V80.9716H305.471V73.822Z" fill="#EF5329"/>
<path d="M292.404 82.7315H281.984V89.8811H292.404V82.7315Z" fill="#EF5329"/>
<path d="M305.471 82.7315H295.051V89.8811H305.471V82.7315Z" fill="#EF5329"/>
<path d="M285.843 36.699H258V111.055H285.843V36.699Z" fill="#FF855C"/>
<path d="M270.571 39.9988H260.15V47.1485H270.571V39.9988Z" fill="#FFF6DE"/>
<path d="M283.638 39.9988H273.217V47.1485H283.638V39.9988Z" fill="#FFF6DE"/>
<path d="M270.571 48.9083H260.15V56.0579H270.571V48.9083Z" fill="#FFF6DE"/>
<path d="M283.638 48.9083H273.217V56.0579H283.638V48.9083Z" fill="#FFF6DE"/>
<path d="M270.571 57.7629H260.15V64.9125H270.571V57.7629Z" fill="#FFF6DE"/>
<path d="M283.638 57.7629H273.217V64.9125H283.638V57.7629Z" fill="#FFF6DE"/>
<path d="M270.571 66.6724H260.15V73.822H270.571V66.6724Z" fill="#FFF6DE"/>
<path d="M283.638 66.6724H273.217V73.822H283.638V66.6724Z" fill="#FFF6DE"/>
<path d="M270.571 75.5819H260.15V82.7315H270.571V75.5819Z" fill="#FFF6DE"/>
<path d="M283.638 75.5819H273.217V82.7315H283.638V75.5819Z" fill="#FFF6DE"/>
<path d="M270.571 84.4914H260.15V91.641H270.571V84.4914Z" fill="#FFF6DE"/>
<path d="M283.638 84.4914H273.217V91.641H283.638V84.4914Z" fill="#FFF6DE"/>
<path d="M270.571 92.521H260.15V99.6706H270.571V92.521Z" fill="#FFF6DE"/>
<path d="M283.638 92.521H273.217V99.6706H283.638V92.521Z" fill="#FFF6DE"/>
<path d="M270.571 101.43H260.15V108.58H270.571V101.43Z" fill="#FFF6DE"/>
<path d="M283.638 101.43H273.217V108.58H283.638V101.43Z" fill="#FFF6DE"/>
<path d="M262.245 43.5186H262.025V48.5233H262.245V43.5186Z" fill="#FFCC33"/>
<path d="M260.812 48.3584H263.458L262.907 50.9983H261.308L260.812 48.3584Z" fill="#99CC33"/>
<path d="M263.403 50.9982H260.867V51.3282H263.403V50.9982Z" fill="#99CC33"/>
<path d="M262.576 43.2987L262.135 43.7386L261.694 43.2987L262.135 42.4187L262.576 43.2987Z" fill="#99CC33"/>
<path d="M261.749 43.8486L262.08 44.3436L261.584 44.6736L260.867 44.0686L261.749 43.8486Z" fill="#99CC33"/>
<path d="M262.521 45.1135L262.08 44.6736L262.576 44.2336L263.403 44.6736L262.521 45.1135Z" fill="#99CC33"/>
<path d="M273.217 48.9083H276.25L273.493 53.5281L273.217 53.968V48.9083Z" fill="#FF6633"/>
<path d="M274.761 56.0579L273.493 53.5281L273.217 53.9681V56.0579H274.761Z" fill="#EF5329"/>
<path d="M283.638 48.9083H280.605L283.417 53.5281L283.638 53.968V48.9083Z" fill="#FF6633"/>
<path d="M282.149 56.0579L283.417 53.5281L283.638 53.9681V56.0579H282.149Z" fill="#EF5329"/>
<path d="M270.571 39.9988H260.15V43.1887H270.571V39.9988Z" fill="#FFC2AD"/>
<path d="M270.35 43.0237H270.185V46.2135H270.35V43.0237Z" fill="#FFC2AD"/>
<path d="M265.554 60.4577H260.977V63.1526H265.554V60.4577Z" fill="#FFC2AD"/>
<path d="M265.333 60.6777H261.198V62.8226H265.333V60.6777Z" fill="#EF5329"/>
<path d="M266.932 63.5375H260.15V64.9675H266.932V63.5375Z" fill="#FF6633"/>
<path d="M266.932 60.5677H265.995L266.16 59.6877H266.766L266.932 60.5677Z" fill="#FF6633"/>
<path d="M266.546 60.5677H266.436V63.4825H266.546V60.5677Z" fill="#FFC2AD"/>
<path d="M270.571 57.7629H267.594L270.35 62.4376L270.571 62.8226V57.7629Z" fill="#FFC2AD"/>
<path d="M269.082 64.9125L270.35 62.4376L270.571 62.8226V64.9125H269.082Z" fill="#FF6633"/>
<path d="M283.638 76.0219H273.217V80.8616H283.638V76.0219Z" fill="#FF6633"/>
<path d="M283.417 78.6068H283.252V81.7966H283.417V78.6068Z" fill="#FF6633"/>
<path d="M295.051 20.4199H298.028L295.271 25.0946L295.051 25.4796V20.4199Z" fill="#FFF6DE"/>
<path d="M296.539 27.5695L295.271 25.0946L295.051 25.4796V27.5695H296.539Z" fill="#FF855C"/>
<path d="M305.471 20.4199H302.439L305.196 25.0946L305.471 25.4796V20.4199Z" fill="#FFF6DE"/>
<path d="M303.928 27.5695L305.196 25.0946L305.471 25.4796V27.5695H303.928Z" fill="#FF855C"/>
<path d="M268.641 96.9758H268.421V101.98H268.641V96.9758Z" fill="#FFCC33"/>
<path d="M267.208 101.815H269.854L269.303 104.455H267.704L267.208 101.815Z" fill="#99CC33"/>
<path d="M269.799 104.455H267.263V104.785H269.799V104.455Z" fill="#99CC33"/>
<path d="M268.972 96.7558L268.531 97.1958L268.09 96.7558L268.531 95.8759L268.972 96.7558Z" fill="#99CC33"/>
<path d="M268.2 97.3058L268.531 97.8008L267.98 98.1307L267.263 97.5258L268.2 97.3058Z" fill="#99CC33"/>
<path d="M268.972 98.5707L268.531 98.1307L268.972 97.6907L269.799 98.1307L268.972 98.5707Z" fill="#99CC33"/>
<path d="M265.995 95.6008H265.774V100.606H265.995V95.6008Z" fill="#FFCC33"/>
<path d="M264.506 100.441H267.152L266.656 103.08H265.057L264.506 100.441Z" fill="#99CC33"/>
<path d="M267.152 103.08H264.616V103.41H267.152V103.08Z" fill="#99CC33"/>
<path d="M266.325 95.3809L265.829 95.8208L265.388 95.3809L265.829 94.5009L266.325 95.3809Z" fill="#99CC33"/>
<path d="M265.498 95.9308L265.829 96.4258L265.333 96.7558L264.561 96.1508L265.498 95.9308Z" fill="#99CC33"/>
<path d="M266.27 97.1958L265.829 96.7558L266.27 96.3158L267.152 96.7558L266.27 97.1958Z" fill="#99CC33"/>
<path d="M291.246 40.6588H290.089L290.309 39.4489H291.026L291.246 40.6588Z" fill="#FFC2AD"/>
<path d="M290.695 40.6588H290.585V44.3436H290.695V40.6588Z" fill="#FF855C"/>
<path d="M285.843 43.0237H291.081C291.798 43.0237 292.349 43.5737 292.349 44.2886V45.3886H285.843V43.0237Z" fill="#FFF6DE"/>
<path d="M298.304 76.3519H296.429V79.9817H298.304V76.3519Z" fill="#FF855C"/>
<path d="M297.201 80.9716V80.2567H297.532V80.9716" fill="#FFF6DE"/>
<path d="M298.304 79.8716H296.429V80.3116H298.304V79.8716Z" fill="#FFC2AD"/>
<path d="M302.329 77.8368H301.281L301.446 76.7918H302.108L302.329 77.8368Z" fill="#FF855C"/>
<path d="M301.832 77.8368H301.722V78.9367H301.832V77.8368Z" fill="#FFF6DE"/>
<path d="M302.218 78.8817H301.391V78.9917H302.218V78.8817Z" fill="#FFF6DE"/>
<path d="M301.116 77.7818H300.84V78.9917H301.116V77.7818Z" fill="#FF855C"/>
<path d="M300.84 77.7818H300.564V78.9917H300.84V77.7818Z" fill="#EF5329"/>
<path d="M299.737 77.7818H299.462V78.9917H299.737V77.7818Z" fill="#FF855C"/>
<path d="M300.362 77.835L299.719 78.8607L299.953 79.0065L300.596 77.9809L300.362 77.835Z" fill="#FF855C"/>
<path d="M302.384 78.9917H295.051V79.5967H302.384V78.9917Z" fill="#FFC2AD"/>
<path d="M302.384 79.5967H301.888V80.9716H302.384V79.5967Z" fill="#FFC2AD"/>
<path d="M305.471 56.0579H295.051V60.1827H305.471V56.0579Z" fill="#FFF6DE"/>
<path d="M295.547 59.3028H295.382V62.4926H295.547V59.3028Z" fill="#FFF6DE"/>
</g>
<g clip-path="url(#clip3)">
<g opacity="0.1">
<g opacity="0.1">
<g opacity="0.1">
<g opacity="0.1">
<path opacity="0.1" d="M331.473 244.288L303.142 227.877L227.744 271.741L256.075 288.152L331.473 244.288Z" fill="#FF6633"/>
</g>
</g>
</g>
</g>
<path d="M231.672 189.458H191.782V296.547H231.672V189.458Z" fill="#FFC2AD"/>
<path d="M227.668 194.071H194.88V204.356H227.668V194.071Z" fill="#FF6633"/>
<path d="M227.668 206.474H194.88V216.759H227.668V206.474Z" fill="#FF6633"/>
<path d="M227.668 218.953H194.88V229.238H227.668V218.953Z" fill="#FF6633"/>
<path d="M227.668 231.356H194.88V241.641H227.668V231.356Z" fill="#FF6633"/>
<path d="M274.584 207.835H234.619V315.076H274.584V207.835Z" fill="#FF855C"/>
<path d="M252.675 211.314H237.716V221.6H252.675V211.314Z" fill="#FFF6DE"/>
<path d="M271.487 211.314H256.528V221.6H271.487V211.314Z" fill="#FFF6DE"/>
<path d="M252.675 224.171H237.716V234.456H252.675V224.171Z" fill="#FFF6DE"/>
<path d="M271.487 224.171H256.528V234.456H271.487V224.171Z" fill="#FFF6DE"/>
<path d="M245.422 228.104H238.849V231.961H245.422V228.104Z" fill="#FFC2AD"/>
<path d="M245.12 228.406H239.227V231.507H245.12V228.406Z" fill="#EF5329"/>
<path d="M247.462 228.255H246.102L246.329 226.969H247.16L247.462 228.255Z" fill="#FF6633"/>
<path d="M246.858 228.255H246.706V233.246H246.858V228.255Z" fill="#FFC2AD"/>
<path d="M237.716 232.49H245.724C246.707 232.49 247.462 233.246 247.462 234.229V234.608H237.716V232.49Z" fill="#FF6633"/>
<path d="M252.75 224.171H237.716V225.608H252.75V224.171Z" fill="#EF5329"/>
<path d="M252.146 225.23H252.07V229.767H252.146V225.23Z" fill="#EF5329"/>
</g>
<g clip-path="url(#clip4)">
<g opacity="0.1">
<g opacity="0.1">
<g opacity="0.1">
<g opacity="0.1">
<path opacity="0.1" d="M172.473 -34.712L144.142 -51.1233L68.7437 -7.25912L97.0746 9.15211L172.473 -34.712Z" fill="#FF6633"/>
<path opacity="0.1" d="M190 -9.60364L161.594 -26.0149L86.1199 17.9249L114.526 34.2605L190 -9.60364Z" fill="#FF6633"/>
</g>
</g>
</g>
</g>
<path d="M72.6722 -89.5422H32.7823V17.5468H72.6722V-89.5422Z" fill="#FFC2AD"/>
<path d="M68.6681 -10.2842H35.8798V0.00111389H68.6681V-10.2842Z" fill="#FF6633"/>
<path d="M68.6681 2.11877H35.8798V12.4042H68.6681V2.11877Z" fill="#FF6633"/>
<path d="M115.584 -71.1647H75.6187V36.0756H115.584V-71.1647Z" fill="#FF855C"/>
<path d="M93.6749 -3.47772H78.7162V6.80766H93.6749V-3.47772Z" fill="#FFF6DE"/>
<path d="M112.487 -3.47772H97.5279V6.80766H112.487V-3.47772Z" fill="#FFF6DE"/>
<path d="M93.6749 9.37903H78.7162V19.6644H93.6749V9.37903Z" fill="#FFF6DE"/>
<path d="M112.487 9.37903H97.5279V19.6644H112.487V9.37903Z" fill="#FFF6DE"/>
<path d="M93.6749 22.1602H78.7162V32.4456H93.6749V22.1602Z" fill="#FFF6DE"/>
<path d="M112.487 22.1602H97.5279V32.4456H112.487V22.1602Z" fill="#FFF6DE"/>
</g>
</g>
<defs>
<clipPath id="clip0">
<rect width="25" height="46" fill="white" transform="translate(150 181)"/>
</clipPath>
<clipPath id="clip1">
<rect width="36" height="59" fill="white" transform="translate(28 150)"/>
</clipPath>
<clipPath id="clip2">
<rect width="102" height="93" fill="white" transform="translate(258 18)"/>
</clipPath>
<clipPath id="clip3">
<rect width="313" height="265" fill="white" transform="translate(36 50)"/>
</clipPath>
<clipPath id="clip4">
<rect width="313" height="265" fill="white" transform="translate(-123 -229)"/>
</clipPath>
</defs>
</svg>
