<svg width="325" height="235" viewBox="0 0 325 235" fill="none" xmlns="http://www.w3.org/2000/svg">
<mask id="mask0" mask-type="alpha" maskUnits="userSpaceOnUse" x="0" y="0" width="325" height="235">
<path d="M0 0H325V234.5H0V0Z" fill="#FFF6DE"/>
</mask>
<g mask="url(#mask0)">
<g clip-path="url(#clip0)">
<path d="M181.101 200.748C185.023 200.748 188.203 195.656 188.203 189.374C188.203 183.092 185.023 178 181.101 178C177.179 178 174 183.092 174 189.374C174 195.656 177.179 200.748 181.101 200.748Z" fill="#99CC33"/>
<path d="M181.609 194.053H180.594V213.706H181.609V194.053Z" fill="#FFCC33"/>
<path d="M192.406 216.009C196.048 216.009 199 212.238 199 207.587C199 202.935 196.048 199.164 192.406 199.164C188.764 199.164 185.812 202.935 185.812 207.587C185.812 212.238 188.764 216.009 192.406 216.009Z" fill="#99CC33"/>
<path d="M192.913 209.386H191.899V224H192.913V209.386Z" fill="#FFCC33"/>
</g>
<path d="M283.942 67.6495C289.433 67.6495 293.884 60.5645 293.884 51.8247C293.884 43.085 289.433 36 283.942 36C278.451 36 274 43.085 274 51.8247C274 60.5645 278.451 67.6495 283.942 67.6495Z" fill="#99CC33"/>
<path d="M284.652 58.3349H283.232V85.6776H284.652V58.3349Z" fill="#FFCC33"/>
<path d="M299.768 88.8826C304.867 88.8826 309 83.6361 309 77.1643C309 70.6924 304.867 65.446 299.768 65.446C294.67 65.446 290.536 70.6924 290.536 77.1643C290.536 83.6361 294.67 88.8826 299.768 88.8826Z" fill="#99CC33"/>
<path d="M300.478 79.6682H299.058V100H300.478V79.6682Z" fill="#FFCC33"/>
<g clip-path="url(#clip1)">
<path d="M26.1014 119.254C30.0235 119.254 33.2029 114.272 33.2029 108.127C33.2029 101.982 30.0235 97 26.1014 97C22.1794 97 19 101.982 19 108.127C19 114.272 22.1794 119.254 26.1014 119.254Z" fill="#99CC33"/>
<path d="M26.6087 112.704H25.5942V131.93H26.6087V112.704Z" fill="#FFCC33"/>
<path d="M37.4058 134.183C41.0477 134.183 44.0001 130.494 44.0001 125.944C44.0001 121.393 41.0477 117.704 37.4058 117.704C33.764 117.704 30.8116 121.393 30.8116 125.944C30.8116 130.494 33.764 134.183 37.4058 134.183Z" fill="#99CC33"/>
<path d="M37.9131 127.704H36.8986V142H37.9131V127.704Z" fill="#FFCC33"/>
</g>
<path d="M43.0001 18.3235L102.657 18.3235L102.657 16L43.0001 16L43.0001 18.3235Z" fill="#5F4E95"/>
<path d="M43.0001 47.962L102.657 47.962L102.657 45.6384L43.0001 45.6384L43.0001 47.962Z" fill="#5F4E95"/>
<path d="M96.6104 76.7866L103 76.7866L103 74.463L96.6104 74.463L96.6104 76.7866Z" fill="#5F4E95"/>
<path d="M43.0908 76.7866L49.4805 76.7866L49.4805 74.463L43.0908 74.463L43.0908 76.7866Z" fill="#5F4E95"/>
<path d="M46.0343 45.6901L100.347 45.6901L100.347 18.3305L46.0343 18.3305L46.0343 45.6901Z" fill="#A49AC3"/>
<path d="M100.879 75.0607L100.879 47.5269L98.5553 47.5269L98.5553 75.0607L100.879 75.0607Z" fill="#5F4E95"/>
<path d="M47.3531 75.0872L47.3531 47.5533L45.0296 47.5533L45.0296 75.0872L47.3531 75.0872Z" fill="#5F4E95"/>
<path d="M74.5325 39.6033C75.1714 39.429 75.7523 39.1966 76.3332 38.8481L77.3788 39.8937C77.6112 40.1261 78.0178 40.1261 78.3082 39.8937L80.3413 37.8606C80.5737 37.6283 80.5737 37.2216 80.3413 36.9312L79.2957 35.8856C79.6442 35.3047 79.8766 34.7238 80.0509 34.0849H81.5611C81.9097 34.0849 82.2001 33.7944 82.2001 33.4459V30.5415C82.2001 30.1929 81.9097 29.9025 81.5611 29.9025H80.0509C79.8766 29.2635 79.6442 28.6826 79.2957 28.1018L80.3413 27.0562C80.5737 26.8238 80.5737 26.4172 80.3413 26.1268L78.3082 24.0937C78.0759 23.8613 77.6693 23.8613 77.3788 24.0937L76.3332 25.1393C75.7523 24.7907 75.1714 24.5584 74.5325 24.3841V22.8738C74.5325 22.5253 74.2421 22.2349 73.8935 22.2349H70.9891C70.6406 22.2349 70.3501 22.5253 70.3501 22.8738V24.3841C69.7111 24.5584 69.1303 24.7907 68.5494 25.1393L67.5038 24.0937C67.2715 23.8613 66.8648 23.8613 66.5744 24.0937L64.4832 26.1268C64.2509 26.3591 64.2509 26.7657 64.4832 27.0562L65.5288 28.1018C65.1803 28.6826 64.9479 29.2635 64.7737 29.9025H63.2633C62.9148 29.9025 62.6244 30.1929 62.6244 30.5415V33.4459C62.6244 33.7944 62.9148 34.0849 63.2633 34.0849H64.7737C64.9479 34.7238 65.1803 35.3047 65.5288 35.8856L64.4832 36.9312C64.2509 37.1635 64.2509 37.5702 64.4832 37.8606L66.5163 39.8937C66.7487 40.1261 67.1553 40.1261 67.4457 39.8937L68.4913 38.8481C69.0722 39.1966 69.6531 39.429 70.292 39.6033V41.1135C70.292 41.4621 70.5825 41.7525 70.931 41.7525H73.8354C74.1839 41.7525 74.4744 41.4621 74.4744 41.1135L74.5325 39.6033ZM72.3832 36.8731C69.6531 36.8731 67.5038 34.6657 67.5038 31.9937C67.5038 29.3216 69.7111 27.1143 72.3832 27.1143C75.0553 27.1143 77.2626 29.3216 77.2626 31.9937C77.2626 34.6657 75.1134 36.8731 72.3832 36.8731Z" fill="#1D0777"/>
<path d="M85.2057 177H14.3977V179.785H85.2057V177Z" fill="#A49AC3"/>
<path d="M81.6257 179.785H17.1825V212.245H81.6257V179.785Z" fill="#5F4E95"/>
<path d="M85.2057 212.245H14.3977V215.029H85.2057V212.245Z" fill="#A49AC3"/>
<path d="M19.366 247.191L19.366 214.492H16.5814L16.5814 247.191H19.366Z" fill="#A49AC3"/>
<path d="M82.9243 247.201V214.502H80.1397V247.201H82.9243Z" fill="#A49AC3"/>
<path d="M302.166 125H264.459V128.211H302.166V125Z" fill="#5F4E95"/>
<path d="M302.166 165.643H264.459V168.855H302.166V165.643Z" fill="#5F4E95"/>
<path d="M272.716 205.094H264V208.305H272.716V205.094Z" fill="#5F4E95"/>
<path d="M302.625 205.094H293.909V208.305H302.625V205.094Z" fill="#5F4E95"/>
<path d="M298.955 128.211H267.67V165.643H298.955V128.211Z" fill="#1D0777"/>
<path d="M270.138 205.901V168.193H266.927V205.901H270.138Z" fill="#5F4E95"/>
<path d="M299.766 205.906V168.198H296.555V205.906H299.766Z" fill="#5F4E95"/>
<path d="M278.496 140.964C279.872 139.863 280.697 138.395 280.973 136.835C278.771 135.826 276.752 135.826 275.468 136.927C274.092 138.028 273.725 140.046 274.183 142.34C275.651 142.432 277.211 141.881 278.496 140.964Z" fill="#5F4E95"/>
<path d="M285.101 153.349L286.294 152.34C287.395 153.441 288.496 154.083 288.955 153.716C289.413 153.349 289.138 152.157 288.221 150.781L289.505 149.771C289.505 149.771 294.184 150.23 292.074 147.845C291.065 146.836 289.78 146.469 288.496 146.469C288.129 144.634 287.12 142.523 285.56 140.597C284.184 138.854 282.624 137.477 281.065 136.652C280.789 138.211 279.872 139.679 278.496 140.689C277.211 141.698 275.743 142.156 274.184 142.156C274.642 143.9 275.56 145.735 276.936 147.386C278.496 149.313 280.331 150.781 282.074 151.606C281.799 152.799 281.799 154.175 282.532 155.276C284.459 158.028 285.01 153.349 285.101 153.349ZM278.679 146.744C277.486 145.184 277.67 142.89 279.23 141.606C280.789 140.413 283.083 140.597 284.367 142.156C285.56 143.716 285.377 146.01 283.817 147.294C282.165 148.579 279.964 148.303 278.679 146.744Z" fill="#A49AC3"/>
<path d="M281.523 148.028C283.499 148.028 285.101 146.426 285.101 144.45C285.101 142.474 283.499 140.872 281.523 140.872C279.547 140.872 277.945 142.474 277.945 144.45C277.945 146.426 279.547 148.028 281.523 148.028Z" fill="#5F4E95"/>
<path d="M267.712 17.1715H240.346V19.476H267.712V17.1715Z" fill="#5F4E95"/>
<path d="M267.712 46.6119H240.346V48.9165H267.712V46.6119Z" fill="#5F4E95"/>
<path d="M246.337 75.2457H240V77.5502H246.337V75.2457Z" fill="#5F4E95"/>
<path d="M268 75.2457H261.663V77.5503H268V75.2457Z" fill="#5F4E95"/>
<path d="M265.35 19.4761H242.65V46.6695H265.35V19.4761Z" fill="#1D0777"/>
<path d="M244.44 75.8855V48.5192H242.136V75.8855H244.44Z" fill="#5F4E95"/>
<path d="M265.919 75.8966V48.5303H263.614V75.8966H265.919Z" fill="#5F4E95"/>
</g>
<defs>
<clipPath id="clip0">
<rect width="25" height="46" fill="white" transform="translate(174 178)"/>
</clipPath>
<clipPath id="clip1">
<rect width="25" height="45" fill="white" transform="translate(19 97)"/>
</clipPath>
</defs>
</svg>
