<svg width="213" height="129" viewBox="0 0 213 129" fill="none" xmlns="http://www.w3.org/2000/svg">
<g clip-path="url(#clip0)">
<path d="M0 102.728L3.41825 82.5686H8.54564L12.6048 93.2918L16.664 82.5686H21.7914L25.2096 102.728H19.9754L18.2663 91.1471L13.4594 102.728H11.4298L6.94333 91.0399L5.2342 102.728H0Z" fill="#FF6633"/>
<path d="M40.9122 99.1895H33.4348L32.2597 102.728H26.7051L34.3962 82.5686H40.0576L47.7487 102.728H42.194L40.9122 99.1895ZM39.5235 95.222L37.1735 88.4664L34.8234 95.222H39.5235Z" fill="#FF6633"/>
<path d="M49.9919 102.728V82.4613H55.2261L64.9468 94.793V82.4613H70.181V102.621H64.9468L55.2261 90.2892V102.621H49.9919V102.728Z" fill="#FF6633"/>
<path d="M86.6313 99.1895H79.1539L77.9789 102.728H72.4242L80.1153 82.4613H85.8836L93.5746 102.621H88.02L86.6313 99.1895ZM85.2427 95.2219L82.8926 88.4663L80.5426 95.2219H85.2427Z" fill="#FF6633"/>
<path d="M104.898 91.3616H115.259C115.259 92.434 115.259 93.399 115.152 94.2569C115.046 95.1148 114.939 95.9726 114.618 96.7232C114.298 97.7956 113.764 98.7606 113.123 99.5113C112.482 100.369 111.734 101.013 110.88 101.549C110.025 102.085 109.064 102.514 107.995 102.835C106.927 103.157 105.859 103.264 104.791 103.264C103.188 103.264 101.8 103.05 100.518 102.514C99.2361 101.978 98.1679 101.227 97.2065 100.369C96.2452 99.404 95.6042 98.3317 95.0701 96.9377C94.536 95.6509 94.3224 94.1497 94.3224 92.5412C94.3224 90.9327 94.536 89.5387 95.0701 88.2519C95.6042 86.9651 96.2452 85.7856 97.2065 84.9277C98.1679 83.9626 99.2361 83.3192 100.625 82.7831C101.907 82.2469 103.402 82.0325 105.004 82.0325C107.141 82.0325 108.957 82.4614 110.559 83.4265C112.161 84.2843 113.443 85.7856 114.298 87.6085L109.277 89.6459C108.85 88.5736 108.209 87.7158 107.461 87.2868C106.714 86.8579 105.859 86.5362 104.898 86.5362C104.15 86.5362 103.402 86.6434 102.761 86.9651C102.12 87.2868 101.586 87.7158 101.159 88.2519C100.732 88.7881 100.304 89.4315 100.091 90.1821C99.877 90.9327 99.6634 91.7906 99.6634 92.7557C99.6634 93.6135 99.7702 94.3641 99.9839 95.1148C100.198 95.8654 100.518 96.5088 100.945 97.0449C101.373 97.5811 101.907 98.01 102.548 98.3317C103.188 98.6534 103.936 98.7606 104.898 98.7606C105.432 98.7606 105.966 98.6534 106.393 98.5462C106.82 98.4389 107.354 98.2245 107.675 98.01C108.102 97.7956 108.423 97.3666 108.636 97.0449C108.85 96.616 109.064 96.0798 109.17 95.5437H104.898V91.3616Z" fill="#FF6633"/>
<path d="M130.107 86.965H123.912V90.3965H129.787V94.793H123.912V98.2244H130.107V102.728H118.571V82.4613H130V86.965H130.107Z" fill="#FF6633"/>
<path d="M132.885 102.728L136.303 82.5686H141.43L145.49 93.2918L149.549 82.5686H154.676L158.094 102.728H152.86L151.151 91.1471L146.344 102.728H144.315L139.828 91.1471L138.119 102.728H132.885Z" fill="#FF6633"/>
<path d="M172.942 86.965H166.747V90.3965H172.622V94.793H166.747V98.2244H172.942V102.728H161.513V82.4613H172.942V86.965Z" fill="#FF6633"/>
<path d="M176.681 102.728V82.4613H181.915L191.529 94.793V82.4613H196.763V102.621H191.529L181.915 90.2892V102.621H176.681V102.728Z" fill="#FF6633"/>
<path d="M208.621 86.9651V102.728H203.386V86.9651H199.114V82.5686H212.893V86.9651H208.621Z" fill="#FF6633"/>
<path d="M55.4398 113.344C54.9057 112.915 54.2648 112.486 53.7307 112.272C53.1966 112.057 52.6625 111.95 52.1284 111.95C51.4875 111.95 50.8466 112.057 50.4193 112.486C49.992 112.808 49.7784 113.237 49.7784 113.773C49.7784 114.095 49.8852 114.416 50.0988 114.631C50.3125 114.845 50.6329 115.06 50.9534 115.274C51.2738 115.489 51.7011 115.596 52.1284 115.703C52.5557 115.81 52.983 115.918 53.4102 116.132C55.1194 116.668 56.4012 117.419 57.149 118.384C57.8967 119.349 58.324 120.636 58.324 122.137C58.324 123.209 58.1103 124.067 57.7899 124.925C57.4694 125.783 56.9353 126.534 56.2944 127.07C55.6535 127.606 54.7989 128.142 53.8375 128.464C52.8761 128.786 51.8079 129 50.5261 129C47.9624 129 45.6124 128.249 43.476 126.748L45.7192 122.459C46.4669 123.102 47.3215 123.638 48.0692 124.067C48.817 124.496 49.5647 124.603 50.3125 124.603C51.167 124.603 51.8079 124.389 52.2352 124.067C52.6625 123.638 52.8761 123.209 52.8761 122.781C52.8761 122.459 52.7693 122.244 52.6625 122.03C52.5557 121.815 52.342 121.601 52.1284 121.387C51.9148 121.172 51.5943 121.065 51.167 120.85C50.7397 120.636 50.3125 120.529 49.6715 120.314C49.0306 120.1 48.2829 119.885 47.6419 119.564C47.001 119.349 46.3601 118.92 45.9328 118.491C45.3987 118.062 44.9714 117.526 44.651 116.883C44.3305 116.239 44.2237 115.382 44.2237 114.416C44.2237 113.451 44.4373 112.486 44.7578 111.736C45.0783 110.878 45.5055 110.234 46.1465 109.698C46.7874 109.162 47.4283 108.626 48.3897 108.304C49.3511 107.983 50.2056 107.768 51.2738 107.768C52.2352 107.768 53.3034 107.875 54.3716 108.197C55.4398 108.519 56.508 108.84 57.4694 109.377L55.4398 113.344Z" fill="#FF6633"/>
<path d="M66.5493 118.706L59.1787 108.197H65.3743L69.113 113.666L72.8517 108.197H79.0473L71.6767 118.706V128.357H66.4425V118.706H66.5493Z" fill="#FF6633"/>
<path d="M91.1177 113.344C90.5836 112.915 89.9427 112.486 89.4086 112.272C88.8745 112.057 88.2335 111.95 87.6994 111.95C87.0585 111.95 86.5244 112.057 86.0971 112.486C85.6698 112.808 85.4562 113.237 85.4562 113.773C85.4562 114.095 85.563 114.416 85.7767 114.631C85.9903 114.845 86.3108 115.06 86.6312 115.274C86.9517 115.489 87.379 115.596 87.8063 115.703C88.2335 115.81 88.6608 115.918 89.0881 116.132C90.7972 116.668 92.0791 117.419 92.8268 118.384C93.5746 119.349 94.0018 120.636 94.0018 122.137C94.0018 123.209 93.7882 124.067 93.4677 124.925C93.1473 125.783 92.6132 126.534 91.9722 127.07C91.3313 127.606 90.4768 128.142 89.5154 128.464C88.554 128.786 87.4858 129 86.2039 129C83.6403 129 81.2902 128.249 79.1538 126.748L81.397 122.459C82.1448 123.102 82.9993 123.638 83.7471 124.067C84.4948 124.389 85.2426 124.603 85.9903 124.603C86.8449 124.603 87.4858 124.389 87.9131 124.067C88.3404 123.638 88.554 123.209 88.554 122.781C88.554 122.459 88.4472 122.244 88.3404 122.03C88.2335 121.815 88.0199 121.601 87.8063 121.387C87.5926 121.172 87.2722 121.065 86.8449 120.85C86.4176 120.636 85.9903 120.529 85.3494 120.314C84.7085 120.1 83.9607 119.885 83.3198 119.564C82.6789 119.349 82.1448 118.92 81.6107 118.491C81.0766 118.062 80.6493 117.526 80.4357 116.883C80.1152 116.239 80.0084 115.382 80.0084 114.416C80.0084 113.451 80.222 112.486 80.5425 111.736C80.8629 110.878 81.2902 110.234 81.9311 109.698C82.5721 109.162 83.213 108.626 84.1744 108.304C85.0289 107.983 85.9903 107.768 87.0585 107.768C88.0199 107.768 89.0881 107.875 90.1563 108.197C91.2245 108.519 92.2927 108.84 93.2541 109.377L91.1177 113.344Z" fill="#FF6633"/>
<path d="M105.111 112.701V128.464H99.8771V112.701H95.6042V108.304H109.491V112.701H105.111Z" fill="#FF6633"/>
<path d="M123.164 112.701H116.968V116.132H122.843V120.529H116.968V123.96H123.164V128.464H111.734V108.304H123.164V112.701Z" fill="#FF6633"/>
<path d="M126.048 128.464L129.466 108.304H134.594L138.653 119.027L142.712 108.304H147.839L151.258 128.464H146.024L144.314 116.883L139.507 128.464H137.478L132.991 116.883L131.282 128.464H126.048Z" fill="#FF6633"/>
<path d="M165.572 113.344C165.038 112.915 164.397 112.486 163.863 112.272C163.328 112.057 162.688 111.95 162.153 111.95C161.513 111.95 160.978 112.057 160.551 112.486C160.124 112.808 159.91 113.237 159.91 113.773C159.91 114.095 160.017 114.416 160.231 114.631C160.444 114.845 160.765 115.06 161.085 115.274C161.406 115.489 161.833 115.596 162.26 115.703C162.688 115.81 163.115 115.918 163.542 116.132C165.251 116.668 166.533 117.419 167.281 118.384C168.029 119.349 168.456 120.636 168.456 122.137C168.456 123.209 168.242 124.067 167.922 124.925C167.601 125.783 167.067 126.534 166.426 127.07C165.785 127.606 164.931 128.142 163.969 128.464C163.008 128.786 161.94 129 160.658 129C158.094 129 155.744 128.249 153.608 126.748L155.851 122.459C156.599 123.102 157.453 123.638 158.201 124.067C158.949 124.389 159.697 124.603 160.444 124.603C161.299 124.603 161.94 124.389 162.367 124.067C162.794 123.638 163.008 123.209 163.008 122.781C163.008 122.459 162.901 122.244 162.794 122.03C162.688 121.815 162.474 121.601 162.26 121.387C162.047 121.172 161.726 121.065 161.299 120.85C160.872 120.636 160.444 120.529 159.803 120.314C159.162 120.1 158.415 119.885 157.774 119.564C157.133 119.349 156.599 118.92 156.065 118.491C155.531 118.062 155.103 117.526 154.89 116.883C154.569 116.239 154.462 115.382 154.462 114.416C154.462 113.451 154.676 112.486 154.996 111.736C155.317 110.878 155.744 110.234 156.385 109.698C157.026 109.162 157.667 108.626 158.628 108.304C159.483 107.983 160.444 107.768 161.512 107.768C162.474 107.768 163.542 107.875 164.61 108.197C165.679 108.519 166.747 108.84 167.708 109.377L165.572 113.344Z" fill="#FF6633"/>
<path d="M130.321 61.4438H79.7949V77.7431H130.321V61.4438Z" fill="#FFC2AD"/>
<path d="M109.705 32.0623C110.88 31.6334 111.948 31.2045 112.909 30.4539L115.046 32.2768C115.58 32.7057 116.328 32.7057 116.755 32.1696L120.28 28.202C120.707 27.6658 120.707 26.9152 120.173 26.4863L118.037 24.6633C118.571 23.591 118.891 22.5187 119.212 21.3392L121.989 21.1247C122.63 21.1247 123.164 20.4813 123.164 19.8379L122.844 14.4763C122.844 13.8329 122.203 13.2968 121.562 13.2968L118.784 13.5112C118.357 12.3317 117.93 11.2594 117.182 10.2943L118.998 8.14963C119.425 7.61347 119.425 6.86284 118.891 6.43392L114.939 2.89526C114.405 2.46633 113.657 2.46633 113.23 3.00249L111.414 5.14713C110.346 4.61097 109.277 4.28928 108.102 3.96758L107.889 1.17955C107.889 0.53616 107.248 0 106.607 0L101.266 0.321696C100.625 0.321696 100.091 0.965087 100.091 1.60848L100.304 4.39651C99.1295 4.82544 98.0613 5.25436 97.0999 6.00499L94.9635 4.18204C94.4294 3.75312 93.6816 3.75312 93.2543 4.28928L89.6224 8.25686C89.1952 8.79302 89.1952 9.54364 89.7293 9.97257L91.8657 11.7955C91.3316 12.8678 91.0111 13.9401 90.6906 15.1197L87.9133 15.3342C87.2724 15.3342 86.7383 15.9776 86.7383 16.6209L87.0587 21.9825C87.0587 22.6259 87.6997 23.1621 88.3406 23.1621L91.1179 22.9476C91.5452 24.1272 91.9725 25.1995 92.7202 26.1646L90.9043 28.3092C90.477 28.8454 90.477 29.596 91.0111 30.0249L94.9635 33.5636C95.4976 33.9925 96.2453 33.9925 96.6726 33.4564L98.4885 31.3117C99.5567 31.8479 100.625 32.1696 101.8 32.4913L102.014 35.2793C102.014 35.9227 102.655 36.4589 103.295 36.4589L108.636 36.1372C109.277 36.1372 109.812 35.4938 109.812 34.8504L109.705 32.0623ZM105.539 27.3441C100.518 27.6658 96.2453 23.9127 95.9249 18.8728C95.6044 13.8329 99.3431 9.54364 104.364 9.22194C109.384 8.90025 113.657 12.6534 113.978 17.6933C114.298 22.7332 110.559 27.0224 105.539 27.3441Z" fill="#FFC2AD"/>
<path d="M88.0201 57.798C89.1951 57.9052 90.3701 57.9052 91.5451 57.6907L92.7202 60.2643C93.0406 60.9077 93.6816 61.1222 94.3225 60.9077L99.1294 58.6558C99.7703 58.3341 99.984 57.6907 99.7703 57.0473L98.5953 54.4738C99.5567 53.7232 100.304 52.8653 101.052 51.9002L103.723 52.8653C104.364 53.0798 105.111 52.7581 105.325 52.1147L107.141 47.0748C107.355 46.4314 107.034 45.6808 106.393 45.4663L103.723 44.5012C103.829 43.3217 103.829 42.1421 103.616 40.9626L106.18 39.783C106.82 39.4613 107.034 38.8179 106.82 38.1745L104.577 33.2419C104.257 32.5985 103.616 32.384 102.975 32.5985L100.411 33.778C99.6635 32.8129 98.8089 32.0623 97.8475 31.3117L98.8089 28.6309C99.0226 27.9875 98.7021 27.2369 98.0612 27.0224L93.0406 25.1995C92.3997 24.985 91.652 25.3067 91.4383 25.9501L90.4769 28.6309C89.3019 28.5237 88.1269 28.5237 86.9519 28.7381L85.7768 26.1646C85.4564 25.5212 84.8155 25.3067 84.1745 25.5212L79.2608 27.8803C78.6199 28.202 78.4062 28.8454 78.6199 29.4887L79.7949 32.0623C78.8335 32.8129 78.0858 33.6708 77.338 34.6359L74.7743 33.6708C74.1334 33.4563 73.3857 33.778 73.172 34.4214L71.3561 39.4613C71.1424 40.1047 71.4629 40.8553 72.1038 41.0698L74.7743 42.0349C74.6675 43.2144 74.6675 44.394 74.8811 45.5735L72.3175 46.7531C71.6765 47.0748 71.4629 47.7182 71.6765 48.3616L73.9198 53.187C74.2402 53.8304 74.8811 54.0449 75.5221 53.8304L78.0858 52.6508C78.8335 53.6159 79.6881 54.3666 80.6495 55.1172L79.6881 57.798C79.4744 58.4414 79.7949 59.192 80.4358 59.4065L85.4564 61.1222C86.0973 61.3366 86.845 61.0149 87.0587 60.3715L88.0201 57.798ZM86.0973 51.6858C81.3972 49.97 79.0471 44.7157 80.7563 39.9975C82.4654 35.2793 87.6996 32.9202 92.3997 34.6359C97.0998 36.3516 99.4499 41.606 97.7407 46.3242C96.0316 51.0424 90.7974 53.4015 86.0973 51.6858Z" fill="#FF6633"/>
<path d="M124.766 57.2618C125.941 56.9401 127.009 56.5112 128.078 55.8678L130.107 57.9052C130.535 58.3342 131.389 58.3342 131.816 57.9052L135.555 54.1521C135.982 53.7232 135.982 52.8653 135.555 52.4364L133.526 50.399C134.166 49.3267 134.594 48.2544 134.914 47.0748H137.692C138.332 47.0748 138.973 46.5387 138.973 45.788V40.4264C138.973 39.783 138.439 39.1397 137.692 39.1397H134.914C134.594 37.9601 134.166 36.8878 133.526 35.8155L135.555 33.7781C135.982 33.3491 135.982 32.4913 135.555 32.0623L131.816 28.3092C131.389 27.8803 130.535 27.8803 130.107 28.3092L128.078 30.3466C127.009 29.7032 125.941 29.2743 124.766 28.9526V26.1646C124.766 25.5212 124.232 24.8778 123.484 24.8778H118.143C117.502 24.8778 116.862 25.414 116.862 26.1646V28.9526C115.687 29.2743 114.618 29.7032 113.55 30.3466L111.521 28.3092C111.093 27.8803 110.239 27.8803 109.811 28.3092L105.966 32.0623C105.539 32.4913 105.539 33.3491 105.966 33.7781L107.995 35.8155C107.355 36.8878 106.927 37.9601 106.607 39.1397H103.829C103.189 39.1397 102.548 39.6758 102.548 40.4264V45.788C102.548 46.4314 103.082 47.0748 103.829 47.0748H106.607C106.927 48.2544 107.355 49.3267 107.995 50.399L105.966 52.4364C105.539 52.8653 105.539 53.7232 105.966 54.1521L109.705 57.9052C110.132 58.3342 110.986 58.3342 111.414 57.9052L113.443 55.8678C114.511 56.5112 115.58 56.9401 116.755 57.2618V60.0499C116.755 60.6933 117.289 61.3367 118.037 61.3367H123.378C124.019 61.3367 124.659 60.8005 124.659 60.0499L124.766 57.2618ZM120.921 52.2219C115.9 52.2219 111.841 48.1471 111.841 43.1072C111.841 38.0673 115.9 33.9925 120.921 33.9925C125.941 33.9925 130 38.0673 130 43.1072C130 48.2544 125.941 52.2219 120.921 52.2219Z" fill="#FF855C"/>
</g>
<defs>
<clipPath id="clip0">
<rect width="213" height="129" fill="white"/>
</clipPath>
</defs>
</svg>
