<svg width="70" height="50" viewBox="0 0 70 50" fill="none" xmlns="http://www.w3.org/2000/svg">
<path d="M5.65567 10.0777C6.01517 9.69013 6.44957 9.38057 6.93222 9.16805C7.41488 8.95553 7.93559 8.84452 8.46241 8.84185C8.63419 8.83644 8.80603 8.85065 8.97464 8.88422L8.80623 12.6695C8.69297 12.6415 8.57816 12.6203 8.46241 12.606C8.33622 12.5981 8.20968 12.5981 8.0835 12.606C7.43805 12.6013 6.81175 12.8264 6.31525 13.2416C5.76877 13.7211 5.32475 14.3073 5.01012 14.9647C4.63827 15.7256 4.36924 16.5332 4.2102 17.3659C4.02716 18.2676 3.93547 19.1856 3.93655 20.106V30.9111H0.294806V14.9647C0.294806 14.1173 0.294806 13.1992 0.252705 12.2246C0.210604 11.25 0.175519 10.3602 0.119385 9.56925H3.5436C3.6278 10.2755 3.69096 10.9817 3.73306 11.7797C3.77516 12.5777 3.79621 13.2769 3.79621 13.9902H3.88041C4.08737 12.5417 4.70358 11.1837 5.65567 10.0777Z" fill="#404041"/>
<path d="M21.1136 30.911C21.0014 30.2543 20.9171 29.6045 20.861 28.9548C20.8049 28.3051 20.7768 27.7754 20.7768 27.38H20.6926C20.4567 28.5258 19.8732 29.5696 19.0226 30.3673C18.0946 31.1376 16.9115 31.5261 15.7107 31.4548C15.0898 31.4502 14.4746 31.3354 13.8933 31.1158C13.2602 30.8787 12.6891 30.4995 12.2233 30.0071C11.6924 29.4409 11.2754 28.7766 10.9953 28.0509C10.6538 27.1157 10.4942 26.123 10.5252 25.1271C10.4726 23.8214 10.7579 22.5244 11.3532 21.363C11.8454 20.4428 12.5506 19.6555 13.4091 19.0678C14.2489 18.5138 15.188 18.13 16.1738 17.9379C17.1332 17.7503 18.1084 17.6557 19.0858 17.6554H20.4891V16.7091C20.4891 15.0353 20.1734 13.8277 19.5348 13.0721C19.2222 12.7015 18.8295 12.4077 18.3869 12.2131C17.9442 12.0185 17.4633 11.9282 16.9807 11.9492C16.2091 11.9457 15.4507 12.1506 14.7844 12.5424C14.1025 12.9437 13.5101 13.4822 13.0443 14.1243L11.2269 11.8644C11.9376 10.8946 12.885 10.1259 13.9775 9.63279C15.0168 9.12444 16.1551 8.85431 17.3105 8.84183C18.3635 8.81003 19.4106 9.01259 20.3769 9.43505C21.1909 9.82217 21.8846 10.4252 22.3837 11.1794C22.9248 12.0397 23.2898 13.0001 23.4572 14.0043C23.6794 15.2581 23.7851 16.5301 23.773 17.8037V26.4407C23.773 27.1822 23.773 27.9803 23.8572 28.8489C23.9414 29.7175 23.9905 30.3955 24.0747 30.911H21.1136ZM20.5663 20.4096H19.0016C18.3709 20.4084 17.7414 20.4651 17.121 20.5791C16.5411 20.6816 15.9889 20.9053 15.5001 21.2359C15.0015 21.5815 14.6003 22.051 14.3354 22.5989C14.0241 23.2601 13.8726 23.9861 13.8933 24.7175C13.7999 25.7552 14.1007 26.7899 14.7353 27.613C14.9758 27.8958 15.2738 28.1234 15.609 28.2805C15.9443 28.4377 16.3091 28.5207 16.679 28.524C17.352 28.5453 18.0083 28.3108 18.5174 27.8673C19.0314 27.3975 19.4424 26.825 19.7243 26.1865C20.033 25.4749 20.2432 24.724 20.3488 23.9548C20.472 23.1889 20.5354 22.4144 20.5382 21.6384L20.5663 20.4096Z" fill="#404041"/>
<path d="M31.8845 3.23448C31.9006 3.86868 31.6659 4.48337 31.232 4.94352C31.0326 5.16784 30.7881 5.34684 30.5147 5.46861C30.2412 5.59039 29.9452 5.65213 29.6462 5.64974C29.3484 5.65113 29.0536 5.5889 28.7815 5.46716C28.5093 5.34542 28.2659 5.16694 28.0674 4.94352C27.8526 4.71048 27.6856 4.43706 27.5761 4.13894C27.4665 3.84082 27.4165 3.52386 27.4288 3.20624C27.4172 2.57964 27.6459 1.97261 28.0674 1.51132C28.2717 1.28858 28.5197 1.11082 28.7956 0.989242C29.0715 0.867665 29.3695 0.804901 29.6707 0.804901C29.972 0.804901 30.2699 0.867665 30.5459 0.989242C30.8218 1.11082 31.0697 1.28858 31.2741 1.51132C31.6897 1.98562 31.9082 2.60254 31.8845 3.23448ZM27.8358 30.911V9.56923H31.4214V30.911H27.8358Z" fill="#404041"/>
<path d="M48.739 7.99437C48.2543 7.40132 47.649 6.91969 46.9637 6.58194C46.3077 6.26134 45.588 6.09473 44.8587 6.09465C44.1155 6.0867 43.3921 6.33602 42.8098 6.80087C42.4863 7.10157 42.2362 7.47349 42.0792 7.88758C41.9222 8.30167 41.8624 8.74669 41.9046 9.18787C41.8724 9.60549 41.9367 10.025 42.0925 10.4134C42.2483 10.8018 42.4914 11.1486 42.8028 11.4266C43.6736 12.1016 44.6147 12.6793 45.6095 13.1497C46.3112 13.4887 47.0129 13.8913 47.7566 14.3644C48.5202 14.84 49.2145 15.4199 49.8196 16.0876C50.4699 16.8108 50.9941 17.6393 51.3703 18.5382C51.7814 19.6063 51.9701 20.7481 51.9247 21.8927C51.9743 23.3611 51.7359 24.825 51.223 26.2006C50.751 27.3641 50.0326 28.4101 49.1179 29.2656C48.2524 30.0643 47.2357 30.6792 46.1287 31.0735C45.0036 31.4819 43.8164 31.6898 42.6203 31.6879C40.9286 31.7098 39.2524 31.3604 37.7085 30.6639C36.3861 30.092 35.1764 29.2859 34.137 28.2839L37.6033 23.185C38.246 23.8615 39.0042 24.4165 39.8417 24.8235C40.6424 25.2228 41.5232 25.4329 42.4168 25.4379C42.8034 25.4522 43.1889 25.3884 43.5504 25.2501C43.912 25.1118 44.2424 24.9019 44.5219 24.6328C44.8129 24.3385 45.0389 23.9857 45.1852 23.5975C45.3315 23.2093 45.3948 22.7944 45.3709 22.38C45.3907 21.9338 45.3093 21.4889 45.1331 21.0791C44.9568 20.6692 44.6902 20.305 44.3535 20.0141C43.4432 19.2865 42.4518 18.6679 41.3994 18.1709C40.6036 17.7833 39.8346 17.3421 39.0979 16.8503C38.379 16.3703 37.7376 15.782 37.1963 15.1059C36.6287 14.3963 36.1914 13.5903 35.9052 12.726C35.5755 11.6807 35.4191 10.588 35.4421 9.49154C35.4054 8.01064 35.6854 6.53909 36.2631 5.17657C36.7617 4.04801 37.4965 3.04108 38.4172 2.2246C39.274 1.48639 40.2621 0.918438 41.3292 0.550866C42.3819 0.188681 43.4865 0.00259843 44.5991 1.89107e-05C46.1016 -0.0250164 47.5943 0.24857 48.9916 0.805104C50.2228 1.28992 51.334 2.03949 52.2474 3.00143L48.739 7.99437Z" fill="#7B3972"/>
<path d="M54.991 30.911V0.805115H69.4667V6.80088H61.4535V12.7119H68.8071V18.3616H61.4535V24.7882H69.9439V30.911H54.991Z" fill="#7B3972"/>
<path d="M4.2101 35.9534C4.04556 35.7059 3.82009 35.5056 3.5557 35.3719C3.2913 35.2382 2.99699 35.1758 2.70148 35.1907C2.49566 35.1921 2.29073 35.2182 2.09102 35.2684C1.89897 35.3222 1.71826 35.4107 1.55774 35.5297C1.40135 35.6462 1.27205 35.7956 1.17883 35.9675C1.08351 36.1655 1.03545 36.3832 1.03849 36.6031C1.02644 36.7529 1.04513 36.9035 1.09342 37.0456C1.14171 37.1878 1.21855 37.3184 1.31917 37.4294C1.53402 37.6346 1.78351 37.7996 2.05593 37.9167C2.37232 38.0454 2.6956 38.1562 3.02426 38.2486C3.35853 38.3465 3.68095 38.4815 3.98557 38.6511C4.27586 38.8133 4.52734 39.0375 4.72233 39.3079C4.93506 39.6419 5.03816 40.0347 5.01704 40.4308C5.02439 40.7627 4.94708 41.0909 4.7925 41.3842C4.64827 41.6592 4.44731 41.9 4.20309 42.0904C3.95337 42.2819 3.67349 42.43 3.3751 42.5283C3.07944 42.6313 2.76876 42.6838 2.45589 42.6836C1.98906 42.6848 1.52654 42.5936 1.09463 42.4153C0.658315 42.2275 0.28023 41.925 0 41.5396L0.701684 41.017C0.868809 41.3111 1.11108 41.555 1.40337 41.7232C1.7276 41.9025 2.09305 41.9926 2.46291 41.9845C2.6656 41.9827 2.86679 41.9493 3.05934 41.8856C3.25215 41.8269 3.43282 41.7336 3.59262 41.6102C3.74973 41.4896 3.881 41.3382 3.97855 41.1653C4.08507 40.9786 4.13848 40.766 4.13292 40.5509C4.14622 40.304 4.08769 40.0586 3.96451 39.8446C3.84581 39.6672 3.69019 39.5178 3.50842 39.4068C3.31007 39.2754 3.09538 39.1709 2.86989 39.0961L2.1682 38.856C1.9156 38.7712 1.67001 38.6794 1.43144 38.5805C1.20047 38.4809 0.985319 38.3477 0.792903 38.185C0.602308 38.0196 0.449175 37.8149 0.343825 37.5848C0.222602 37.2995 0.165113 36.9909 0.175421 36.6808C0.168026 36.3415 0.240142 36.0052 0.385926 35.6992C0.523264 35.4237 0.719812 35.1825 0.961307 34.993C1.20118 34.8138 1.47261 34.682 1.76123 34.6045C2.0617 34.5141 2.37382 34.4689 2.68745 34.4704C3.09708 34.4645 3.50413 34.5364 3.88733 34.6822C4.27232 34.8349 4.6161 35.0769 4.89074 35.3884L4.2101 35.9534Z" fill="#3B3A3D"/>
<path d="M8.51843 42.5H7.71851V34.654H8.51141L8.51843 42.5Z" fill="#3B3A3D"/>
<path d="M17.3737 41.3065V34.654H18.1666V42.5H17.1913L12.5461 35.7839V42.5H11.7322V34.654H12.7286L17.3737 41.3065Z" fill="#3B3A3D"/>
<path d="M27.1482 36.0947C26.8777 35.8142 26.5561 35.5888 26.2009 35.4308C25.7963 35.2628 25.3615 35.181 24.9239 35.1907C24.4603 35.1834 24.0006 35.2774 23.5766 35.4661C23.1948 35.6408 22.8531 35.8933 22.5732 36.2077C22.2963 36.5241 22.0819 36.8908 21.9417 37.2882C21.8043 37.7046 21.7402 38.1419 21.7522 38.5805C21.7514 39.0189 21.8274 39.454 21.9768 39.8658C22.1153 40.264 22.3298 40.6311 22.6083 40.9464C22.8819 41.247 23.2107 41.4916 23.5766 41.6667C24.0006 41.8554 24.4603 41.9494 24.9239 41.9421C25.3145 41.9433 25.7037 41.8935 26.0816 41.7938C26.4291 41.6986 26.7637 41.5611 27.078 41.3842V38.7924H25.2186V38.0862H27.8709V41.928C27.4197 42.1941 26.9329 42.3938 26.4255 42.5212C25.936 42.6553 25.4311 42.7242 24.9239 42.726C24.3705 42.7341 23.8213 42.6284 23.31 42.4153C22.8269 42.2208 22.3877 41.9301 22.0189 41.5608C21.6524 41.1864 21.3638 40.7422 21.1698 40.2543C20.7585 39.1939 20.7585 38.0166 21.1698 36.9562C21.3592 36.4726 21.6431 36.0321 22.0047 35.6609C22.3662 35.2897 22.7982 34.9953 23.2749 34.7952C23.7874 34.586 24.3358 34.4804 24.8888 34.4845C25.4381 34.4712 25.9852 34.5597 26.5026 34.7458C26.9531 34.9222 27.3619 35.1916 27.7025 35.5368L27.1482 36.0947Z" fill="#3B3A3D"/>
<path d="M30.9233 42.5H29.9971L33.3862 34.654H34.1581L37.5472 42.5H36.621L35.786 40.4379H31.7793L30.9233 42.5ZM32.0741 39.6752H35.4562L33.7721 35.5509L32.0741 39.6752Z" fill="#3B3A3D"/>
<path d="M39.7083 34.654H41.9747C42.6392 34.6175 43.2972 34.801 43.8482 35.1766C44.0676 35.3752 44.243 35.6181 44.363 35.8894C44.4831 36.1607 44.5451 36.4544 44.5451 36.7514C44.5451 37.0484 44.4831 37.3421 44.363 37.6134C44.243 37.8847 44.0676 38.1276 43.8482 38.3263C43.2994 38.7072 42.6403 38.8936 41.9747 38.8559H40.5012V42.5H39.7083V34.654ZM40.5012 38.1356H41.7782C42.0787 38.1417 42.3786 38.106 42.6694 38.0297C42.8825 37.9687 43.0824 37.8681 43.2588 37.7331C43.3996 37.618 43.5103 37.4701 43.5816 37.3023C43.7123 36.959 43.7123 36.5792 43.5816 36.2359C43.5087 36.067 43.3983 35.9171 43.2588 35.798C43.0836 35.6628 42.8831 35.5643 42.6694 35.5085C42.3786 35.4321 42.0787 35.3965 41.7782 35.4026H40.5012V38.1356Z" fill="#3B3A3D"/>
<path d="M54.7314 38.5805C54.7375 39.154 54.6302 39.723 54.4157 40.2543C54.2191 40.7425 53.9281 41.1866 53.5596 41.5608C53.187 41.9149 52.7481 42.191 52.2685 42.3729C51.2343 42.7869 50.082 42.7869 49.0478 42.3729C48.5647 42.1784 48.1255 41.8878 47.7567 41.5184C47.3927 41.1583 47.104 40.7284 46.9076 40.2543C46.4963 39.1939 46.4963 38.0166 46.9076 36.9562C47.0991 36.4691 47.3881 36.0268 47.7567 35.6568C48.1251 35.2852 48.5642 34.9922 49.0478 34.7952C50.082 34.3812 51.2343 34.3812 52.2685 34.7952C52.7518 34.9927 53.1908 35.2857 53.5596 35.6569C53.9283 36.028 54.2195 36.4699 54.4157 36.9562C54.6237 37.4722 54.7309 38.0237 54.7314 38.5805ZM53.8683 38.5805C53.8715 38.1403 53.7979 37.7028 53.6508 37.2882C53.5106 36.8908 53.2962 36.5241 53.0193 36.2076C52.7355 35.8946 52.3918 35.6424 52.0089 35.4661C51.5839 35.2845 51.1269 35.1909 50.6652 35.1909C50.2034 35.1909 49.7464 35.2845 49.3214 35.4661C48.9396 35.6408 48.5979 35.8933 48.318 36.2076C48.0389 36.5237 47.8222 36.8904 47.6795 37.2882C47.5358 37.7037 47.4623 38.1405 47.462 38.5805C47.4623 39.0182 47.5358 39.4527 47.6795 39.8658C47.8168 40.2688 48.0314 40.6407 48.311 40.9605C48.5963 41.2598 48.9372 41.4997 49.3144 41.6667C49.7394 41.8483 50.1964 41.9419 50.6581 41.9419C51.1199 41.9419 51.5769 41.8483 52.0019 41.6667C52.3802 41.498 52.7231 41.2584 53.0123 40.9605C53.2908 40.6452 53.5053 40.2781 53.6438 39.88C53.7925 39.4633 53.8662 39.0232 53.8613 38.5805H53.8683Z" fill="#3B3A3D"/>
<path d="M58.1977 42.5H57.4048V34.654H59.8045C60.4711 34.6185 61.131 34.8019 61.6851 35.1766C61.9208 35.3615 62.1081 35.6017 62.2304 35.8762C62.3527 36.1508 62.4064 36.4512 62.3867 36.7514C62.4067 37.2716 62.2227 37.7789 61.8745 38.1639C61.4813 38.5625 60.9517 38.7949 60.394 38.8136L62.6393 42.5353H61.657L59.5519 38.8913H58.1977V42.5ZM58.1977 38.1215H59.6011C59.9038 38.1276 60.206 38.092 60.4992 38.0156C60.7124 37.9546 60.9123 37.854 61.0886 37.719C61.2295 37.6056 61.3384 37.4571 61.4044 37.2882C61.5351 36.9449 61.5351 36.5651 61.4044 36.2218C61.3367 36.0518 61.2282 35.9014 61.0886 35.7839C60.9134 35.6487 60.713 35.5502 60.4992 35.4944C60.2197 35.4217 59.9319 35.3861 59.6432 35.3884H58.2398L58.1977 38.1215Z" fill="#3B3A3D"/>
<path d="M65.8249 41.7726H70.035V42.4788H65.032V34.654H69.8666V35.3602H65.8249V38.0297H69.607V38.7359H65.8249V41.7726Z" fill="#3B3A3D"/>
<path d="M8.87622 46.1299C8.78408 46.01 8.66343 45.9153 8.52538 45.8545C8.38898 45.7909 8.24068 45.7572 8.09033 45.7557C7.84207 45.7548 7.59987 45.8328 7.39827 45.9787C7.19667 46.1245 7.04596 46.3307 6.96764 46.5678C6.85085 46.8942 6.85085 47.2513 6.96764 47.5777C7.02043 47.7283 7.10142 47.8673 7.20621 47.9873C7.31233 48.1044 7.44133 48.1981 7.58512 48.2627C7.74673 48.3326 7.92151 48.3664 8.09735 48.3616C8.2679 48.366 8.43681 48.3271 8.58853 48.2486C8.73132 48.1698 8.85387 48.0586 8.94639 47.9237L9.31828 48.2062L9.19198 48.3545C9.11691 48.4265 9.0346 48.4904 8.94639 48.5452C8.83121 48.613 8.70882 48.6675 8.58151 48.7076C8.42278 48.7583 8.25681 48.7822 8.09033 48.7783C7.84842 48.7817 7.60876 48.731 7.38865 48.6299C7.18858 48.5382 7.00943 48.406 6.86239 48.2415C6.71865 48.086 6.60661 47.9037 6.5326 47.7048C6.45605 47.509 6.41562 47.3008 6.41331 47.0904C6.40958 46.849 6.45247 46.6091 6.53961 46.3842C6.61617 46.177 6.73306 45.9873 6.88344 45.8263C7.03685 45.6699 7.22083 45.5473 7.42373 45.4661C7.64679 45.3768 7.88542 45.3336 8.12542 45.339C8.34165 45.3377 8.55609 45.3784 8.75693 45.459C8.95533 45.5399 9.12943 45.6714 9.26215 45.8404L8.87622 46.1299Z" fill="#3B3A3D"/>
<path d="M10.0482 47.7543C10.0465 47.8454 10.0683 47.9354 10.1113 48.0156C10.1531 48.0926 10.2077 48.1619 10.2727 48.2204C10.345 48.2752 10.4256 48.3181 10.5113 48.3475C10.5997 48.3759 10.6921 48.3902 10.7849 48.3899C10.9025 48.3904 11.0183 48.3613 11.1217 48.3051C11.2197 48.2386 11.3073 48.1577 11.3814 48.065L11.6971 48.3051C11.5824 48.4514 11.4348 48.568 11.2664 48.6454C11.098 48.7228 10.9137 48.7586 10.7288 48.75C10.5704 48.7519 10.4132 48.7232 10.2657 48.6653C10.1314 48.6105 10.0097 48.5288 9.90782 48.4252C9.81275 48.3178 9.73892 48.1932 9.6903 48.0579C9.63578 47.9137 9.60957 47.7602 9.61311 47.606C9.61125 47.4489 9.63985 47.293 9.69731 47.1469C9.75091 47.011 9.82947 46.8864 9.92887 46.7797C10.0307 46.676 10.1525 46.5943 10.2867 46.5396C10.4294 46.4818 10.582 46.453 10.7358 46.4548C10.905 46.4478 11.0735 46.4817 11.227 46.5537C11.3535 46.6172 11.4639 46.709 11.5498 46.8221C11.6372 46.9301 11.7017 47.0551 11.7392 47.1893C11.7756 47.3252 11.7944 47.4652 11.7953 47.606V47.7543H10.0482ZM11.3533 47.4223C11.3549 47.3357 11.3406 47.2495 11.3112 47.1681C11.2868 47.0939 11.246 47.0263 11.1919 46.9704C11.1417 46.9063 11.0731 46.8594 10.9954 46.8362C10.911 46.8009 10.8201 46.784 10.7288 46.7867C10.6321 46.7829 10.5359 46.8023 10.4481 46.8432C10.367 46.8785 10.2932 46.9288 10.2306 46.9916C10.1774 47.0536 10.1326 47.1225 10.0973 47.1964C10.0687 47.2685 10.0521 47.3448 10.0482 47.4223H11.3533Z" fill="#3B3A3D"/>
<path d="M12.2934 46.5042H12.7074V46.8432C12.763 46.7221 12.8567 46.6229 12.974 46.5607C13.1127 46.4884 13.267 46.452 13.4231 46.4548C13.5252 46.4545 13.6267 46.4688 13.7248 46.4972C13.8191 46.5303 13.9052 46.5833 13.9774 46.6525C14.0522 46.7259 14.1097 46.8152 14.1458 46.9138C14.1907 47.0333 14.2122 47.1604 14.209 47.2881V48.7006H13.802V47.4011C13.8035 47.3122 13.7893 47.2237 13.7599 47.1398C13.7367 47.075 13.6982 47.0168 13.6476 46.9703C13.6028 46.9244 13.5474 46.8905 13.4863 46.8715C13.4259 46.8608 13.3642 46.8608 13.3038 46.8715C13.225 46.8567 13.1441 46.8567 13.0652 46.8715C12.9907 46.901 12.9236 46.9468 12.8688 47.0056C12.8132 47.0725 12.7704 47.1491 12.7425 47.2316C12.7129 47.3397 12.6988 47.4515 12.7004 47.5636V48.7288H12.2864L12.2934 46.5042Z" fill="#3B3A3D"/>
<path d="M16.0125 46.8644H15.4371V47.8602C15.4371 47.9237 15.4371 47.9802 15.4371 48.0438C15.4372 48.0998 15.4492 48.1552 15.4722 48.2062C15.4902 48.2525 15.5221 48.292 15.5634 48.3192C15.6186 48.3516 15.6822 48.3664 15.7458 48.3616H15.8932C15.9452 48.3514 15.995 48.3323 16.0405 48.3051V48.6865C15.9822 48.7188 15.9175 48.738 15.8511 48.7429C15.7904 48.7485 15.7293 48.7485 15.6686 48.7429C15.5415 48.7496 15.4145 48.7279 15.2968 48.6794C15.2163 48.6399 15.1483 48.5788 15.1003 48.5028C15.0624 48.4304 15.0385 48.3513 15.0301 48.2698C15.0301 48.178 15.0301 48.0932 15.0301 48.0014V46.8644H14.5249V46.5042H15.002V45.904H15.4371V46.5184H16.0335L16.0125 46.8644Z" fill="#3B3A3D"/>
<path d="M16.5457 46.5043H16.9596V46.8433C16.9865 46.7845 17.0246 46.7317 17.0719 46.6879C17.1153 46.6365 17.1676 46.5934 17.2263 46.5608C17.2831 46.5263 17.3446 46.5002 17.4087 46.4831C17.4762 46.4731 17.5447 46.4731 17.6122 46.4831C17.6728 46.4758 17.7341 46.4758 17.7947 46.4831V46.9351H17.6964H17.5982C17.5119 46.9293 17.4253 46.942 17.3443 46.9725C17.2632 47.0029 17.1895 47.0503 17.1281 47.1116C17.0121 47.2623 16.9569 47.4514 16.9737 47.6413V48.7288H16.5597L16.5457 46.5043Z" fill="#3B3A3D"/>
<path d="M18.4683 47.7543C18.4667 47.8454 18.4884 47.9354 18.5315 48.0156C18.5742 48.0939 18.6314 48.1634 18.6999 48.2204C18.7684 48.2771 18.847 48.3202 18.9314 48.3475C19.02 48.3753 19.1123 48.3896 19.2051 48.3899C19.3226 48.3904 19.4385 48.3613 19.5419 48.3051C19.6399 48.2386 19.7274 48.1577 19.8015 48.065L20.1173 48.3051C20.0026 48.4514 19.855 48.568 19.6866 48.6454C19.5182 48.7228 19.3339 48.7586 19.149 48.75C18.9906 48.7519 18.8334 48.7232 18.6858 48.6653C18.5516 48.6105 18.4298 48.5288 18.328 48.4252C18.2329 48.3178 18.1591 48.1932 18.1105 48.0579C18.0559 47.9137 18.0297 47.7602 18.0333 47.606C18.0314 47.4489 18.06 47.293 18.1175 47.1469C18.1711 47.011 18.2496 46.8864 18.349 46.7797C18.4509 46.676 18.5726 46.5943 18.7069 46.5396C18.8496 46.4818 19.0022 46.453 19.156 46.4548C19.3252 46.4478 19.4936 46.4817 19.6471 46.5537C19.7737 46.6172 19.8841 46.709 19.9699 46.8221C20.0574 46.9301 20.1219 47.0551 20.1594 47.1893C20.1957 47.3252 20.2146 47.4652 20.2155 47.606V47.7543H18.4683ZM19.7735 47.4223C19.775 47.3357 19.7608 47.2495 19.7314 47.1681C19.707 47.0939 19.6662 47.0263 19.6121 46.9704C19.5632 46.9081 19.4973 46.8615 19.4226 46.8362C19.3356 46.8015 19.2425 46.7847 19.149 46.7867C19.0523 46.7829 18.9561 46.8023 18.8683 46.8432C18.7878 46.8759 18.7158 46.9266 18.6578 46.9916C18.6002 47.0516 18.5528 47.1208 18.5174 47.1964C18.4888 47.2685 18.4722 47.3448 18.4683 47.4223H19.7735Z" fill="#3B3A3D"/>
<path d="M22.1523 46.8644H21.6821V46.5043H22.1523V46.017C22.1364 45.7855 22.1955 45.555 22.3207 45.3602C22.3944 45.2834 22.4845 45.2244 22.5842 45.1877C22.6838 45.151 22.7905 45.1376 22.896 45.1483H23.0364C23.0921 45.1387 23.1491 45.1387 23.2048 45.1483L23.1557 45.5509H23.0434H22.9241C22.8616 45.5381 22.7972 45.5381 22.7347 45.5509C22.6916 45.5741 22.6553 45.6081 22.6294 45.6497C22.6007 45.6967 22.5839 45.7501 22.5803 45.8051C22.5761 45.8733 22.5761 45.9417 22.5803 46.0099V46.5113H23.0715V46.8715H22.5803V48.7288H22.1663L22.1523 46.8644Z" fill="#3B3A3D"/>
<path d="M23.4151 47.606C23.4138 47.4512 23.4424 47.2977 23.4993 47.154C23.5604 47.0187 23.6434 46.8946 23.7449 46.7867C23.8528 46.6822 23.9789 46.5984 24.1168 46.5396C24.408 46.4263 24.7307 46.4263 25.0219 46.5396C25.1598 46.5984 25.2859 46.6822 25.3938 46.7867C25.5005 46.8937 25.5852 47.0208 25.643 47.1608C25.7008 47.3008 25.7305 47.4508 25.7305 47.6024C25.7305 47.754 25.7008 47.9041 25.643 48.0441C25.5852 48.184 25.5005 48.3111 25.3938 48.4181C25.2859 48.5226 25.1598 48.6064 25.0219 48.6653C24.7307 48.7785 24.408 48.7785 24.1168 48.6653C23.9789 48.6064 23.8528 48.5226 23.7449 48.4181C23.6434 48.3102 23.5604 48.1861 23.4993 48.0509C23.4431 47.9094 23.4145 47.7583 23.4151 47.606ZM23.8571 47.606C23.8551 47.7093 23.8718 47.8122 23.9063 47.9096C23.9367 47.9982 23.9844 48.0799 24.0466 48.1497C24.1095 48.2172 24.1861 48.2702 24.2711 48.3051C24.3663 48.3461 24.4694 48.3654 24.5729 48.3616C24.674 48.3644 24.7745 48.3451 24.8676 48.3051C24.9526 48.2702 25.0292 48.2172 25.0921 48.1497C25.1574 48.0822 25.2055 47.9998 25.2324 47.9096C25.2692 47.8126 25.2882 47.7098 25.2886 47.606C25.2955 47.5085 25.286 47.4106 25.2605 47.3164C25.2336 47.2262 25.1854 47.1438 25.1202 47.0763C25.0573 47.0088 24.9807 46.9559 24.8956 46.9209C24.8026 46.8809 24.7021 46.8617 24.6009 46.8644C24.4974 46.8606 24.3944 46.8799 24.2992 46.9209C24.2141 46.9559 24.1375 47.0088 24.0747 47.0763C24.0125 47.1462 23.9648 47.2278 23.9343 47.3164C23.8921 47.4077 23.866 47.5057 23.8571 47.606Z" fill="#3B3A3D"/>
<path d="M26.2429 46.5043H26.6639V46.8432C26.6882 46.7848 26.724 46.7319 26.7692 46.6879C26.8156 46.6397 26.8674 46.597 26.9236 46.5607C26.983 46.5264 27.0467 46.5003 27.113 46.4831C27.1804 46.4722 27.2491 46.4722 27.3165 46.4831C27.3771 46.4757 27.4383 46.4757 27.4989 46.4831V46.935H27.4007H27.2954C27.2102 46.9294 27.1247 46.9422 27.0448 46.9727C26.9649 47.0031 26.8925 47.0505 26.8323 47.1116C26.7139 47.2612 26.6562 47.4505 26.6709 47.6413V48.7288H26.2429V46.5043Z" fill="#3B3A3D"/>
<path d="M30.1232 48.0226C30.1967 48.1372 30.3014 48.228 30.425 48.2839C30.5461 48.3396 30.6777 48.3685 30.8109 48.3687C30.8854 48.3786 30.9609 48.3786 31.0354 48.3687C31.1096 48.342 31.1802 48.3064 31.2459 48.2627C31.3063 48.2151 31.3584 48.1578 31.4003 48.0932C31.4378 48.0189 31.457 47.9365 31.4565 47.8531C31.459 47.799 31.4497 47.745 31.429 47.6949C31.4084 47.6448 31.377 47.6 31.3372 47.5636C31.249 47.4927 31.1493 47.4377 31.0425 47.4012C30.9232 47.3517 30.7969 47.3093 30.6565 47.267C30.5205 47.2295 30.3905 47.1724 30.2706 47.0975C30.1524 47.021 30.0519 46.9198 29.9759 46.8009C29.8873 46.6469 29.8458 46.47 29.8566 46.2924C29.8586 46.1881 29.88 46.0851 29.9198 45.9887C29.9616 45.8776 30.0261 45.7765 30.1092 45.6921C30.209 45.5961 30.3256 45.5195 30.453 45.4661C30.6146 45.406 30.786 45.3772 30.9583 45.3814C31.1292 45.3796 31.2995 45.4034 31.4635 45.452C31.6334 45.5034 31.7831 45.6071 31.8915 45.7486L31.5336 46.0805C31.4756 45.993 31.3958 45.9224 31.3021 45.8757C31.1966 45.8184 31.0782 45.7892 30.9583 45.791C30.8533 45.7901 30.749 45.8068 30.6495 45.8404C30.5774 45.8714 30.511 45.9144 30.453 45.9675C30.4089 46.0138 30.3753 46.0692 30.3548 46.13C30.3456 46.1837 30.3456 46.2386 30.3548 46.2924C30.3503 46.3516 30.3594 46.411 30.3813 46.4661C30.4032 46.5211 30.4373 46.5704 30.4811 46.6102C30.5662 46.6905 30.6664 46.7529 30.7758 46.7938C30.8951 46.8362 31.0214 46.8786 31.1617 46.9139C31.2952 46.9527 31.4244 47.0048 31.5477 47.0692C31.6633 47.1372 31.7636 47.2286 31.8424 47.3376C31.928 47.4773 31.9696 47.6398 31.9617 47.8037C31.9648 47.9502 31.9335 48.0954 31.8704 48.2274C31.8154 48.3499 31.7339 48.4585 31.6319 48.5452C31.5261 48.635 31.4048 48.7044 31.274 48.75C31.1305 48.7929 30.9816 48.8143 30.8319 48.8136C30.6284 48.8147 30.4264 48.7788 30.2355 48.7077C30.0591 48.6359 29.906 48.516 29.7935 48.3616L30.1232 48.0226Z" fill="#7B3972"/>
<path d="M32.3687 47.606C32.3674 47.4512 32.396 47.2977 32.4529 47.154C32.514 47.0187 32.597 46.8946 32.6985 46.7867C32.8064 46.6822 32.9325 46.5984 33.0704 46.5396C33.3616 46.4263 33.6843 46.4263 33.9756 46.5396C34.1135 46.5984 34.2395 46.6822 34.3474 46.7867C34.4542 46.8937 34.5388 47.0208 34.5966 47.1608C34.6544 47.3008 34.6841 47.4508 34.6841 47.6024C34.6841 47.754 34.6544 47.9041 34.5966 48.0441C34.5388 48.184 34.4542 48.3111 34.3474 48.4181C34.2395 48.5226 34.1135 48.6064 33.9756 48.6653C33.6843 48.7785 33.3616 48.7785 33.0704 48.6653C32.9325 48.6064 32.8064 48.5226 32.6985 48.4181C32.597 48.3102 32.514 48.1861 32.4529 48.0509C32.3967 47.9094 32.3681 47.7583 32.3687 47.606ZM32.8108 47.606C32.8087 47.7093 32.8254 47.8122 32.8599 47.9096C32.8903 47.9982 32.9381 48.0799 33.0002 48.1497C33.0631 48.2172 33.1397 48.2702 33.2247 48.3051C33.3199 48.3461 33.423 48.3654 33.5265 48.3616C33.6276 48.3644 33.7281 48.3451 33.8212 48.3051C33.9072 48.2719 33.9841 48.2187 34.0457 48.1497C34.1104 48.0805 34.1605 47.9988 34.1931 47.9096C34.2584 47.7101 34.2584 47.4947 34.1931 47.2952C34.1605 47.206 34.1104 47.1243 34.0457 47.0551C33.9841 46.9862 33.9072 46.9329 33.8212 46.8997C33.7281 46.8597 33.6276 46.8405 33.5265 46.8432C33.423 46.8394 33.3199 46.8587 33.2247 46.8997C33.1397 46.9347 33.0631 46.9877 33.0002 47.0551C32.9381 47.125 32.8903 47.2066 32.8599 47.2952C32.8248 47.3949 32.8082 47.5002 32.8108 47.606Z" fill="#7B3972"/>
<path d="M36.7543 47.0904C36.6851 47.0167 36.6045 46.9547 36.5157 46.9068C36.4216 46.8619 36.3182 46.8401 36.214 46.8432C36.1122 46.841 36.0113 46.8627 35.9193 46.9068C35.8377 46.9472 35.7659 47.005 35.7088 47.0763C35.652 47.1539 35.6071 47.2395 35.5755 47.3305C35.5472 47.4244 35.5331 47.522 35.5334 47.6201C35.5348 47.7185 35.5514 47.8162 35.5825 47.9096C35.6163 47.9982 35.6663 48.0796 35.7298 48.1497C35.7901 48.217 35.8644 48.2701 35.9474 48.3051C36.0376 48.3461 36.1361 48.3655 36.2351 48.3616C36.3386 48.3669 36.442 48.3475 36.5368 48.3051C36.6245 48.2587 36.703 48.1965 36.7683 48.1215L37.056 48.4181C36.9559 48.5337 36.8278 48.6212 36.6841 48.6723C36.5407 48.7267 36.3883 48.753 36.2351 48.75C36.0772 48.7541 35.92 48.7278 35.7719 48.6723C35.6381 48.62 35.5163 48.5407 35.4141 48.4393C35.3118 48.3361 35.2308 48.2138 35.1755 48.0791C35.0636 47.7786 35.0636 47.4474 35.1755 47.1469C35.2273 47.01 35.3061 46.8851 35.4071 46.7797C35.5151 46.6735 35.6442 46.5917 35.786 46.5395C35.9358 46.4811 36.0954 46.4523 36.2561 46.4548C36.412 46.4548 36.5666 46.4835 36.7122 46.5395C36.8558 46.5981 36.985 46.6872 37.0911 46.8008L36.7543 47.0904Z" fill="#7B3972"/>
<path d="M37.3507 45.7204C37.3497 45.6811 37.3567 45.6422 37.3712 45.6057C37.3857 45.5693 37.4073 45.5362 37.4349 45.5085C37.4629 45.4789 37.4967 45.4555 37.5341 45.4397C37.5716 45.4239 37.6118 45.4161 37.6524 45.4167C37.7319 45.4185 37.8076 45.4511 37.8638 45.5076C37.92 45.5642 37.9524 45.6404 37.9542 45.7204C37.9547 45.7612 37.9469 45.8017 37.9313 45.8394C37.9156 45.8771 37.8923 45.9111 37.8629 45.9393C37.8354 45.967 37.8025 45.9888 37.7663 46.0034C37.7301 46.018 37.6914 46.025 37.6524 46.024C37.6123 46.0261 37.5721 46.0196 37.5346 46.005C37.4971 45.9905 37.463 45.9682 37.4346 45.9396C37.4062 45.911 37.384 45.8767 37.3696 45.8389C37.3551 45.8012 37.3487 45.7608 37.3507 45.7204ZM37.4419 46.5043H37.891V48.7288H37.477L37.4419 46.5043Z" fill="#7B3972"/>
<path d="M38.5225 46.7726C38.6416 46.6671 38.7798 46.5856 38.9294 46.5325C39.0756 46.4793 39.2301 46.453 39.3855 46.4548C39.5257 46.4498 39.6657 46.4689 39.7995 46.5113C39.9033 46.5451 39.999 46.6004 40.0802 46.6737C40.1508 46.7382 40.2059 46.8178 40.2416 46.9068C40.2784 46.9939 40.2975 47.0875 40.2977 47.1822V48.5099C40.3009 48.5734 40.3009 48.6371 40.2977 48.7006H39.9328C39.9328 48.5876 39.9328 48.4746 39.9328 48.3616C39.8564 48.4945 39.7413 48.6005 39.603 48.6653C39.4657 48.7245 39.3174 48.7534 39.168 48.75C39.0726 48.7642 38.9757 48.7642 38.8803 48.75C38.7928 48.725 38.7115 48.6817 38.6417 48.6229C38.5732 48.566 38.5161 48.4965 38.4733 48.4181C38.4355 48.3288 38.4164 48.2326 38.4172 48.1356C38.4113 48.0091 38.443 47.8837 38.5084 47.7754C38.5758 47.6785 38.6647 47.5988 38.768 47.5424C38.886 47.478 39.0142 47.4349 39.147 47.4153C39.302 47.3862 39.4594 47.372 39.6171 47.3729H39.9188V47.2458C39.9181 47.1898 39.9061 47.1346 39.8837 47.0833C39.8629 47.0248 39.8293 46.9717 39.7855 46.928C39.7411 46.8832 39.6887 46.8472 39.6311 46.822C39.5544 46.8102 39.4763 46.8102 39.3996 46.822C39.3296 46.814 39.259 46.814 39.1891 46.822L39.0277 46.8785C38.9793 46.9 38.9344 46.9285 38.8943 46.9633L38.7821 47.048L38.5225 46.7726ZM39.6873 47.6412C39.5891 47.6343 39.4907 47.6343 39.3925 47.6412C39.2961 47.6466 39.2013 47.6681 39.1119 47.7048C39.0327 47.7299 38.9606 47.7734 38.9014 47.8319C38.8502 47.8903 38.8226 47.9659 38.8242 48.0438C38.8194 48.0968 38.8285 48.1502 38.8507 48.1985C38.8729 48.2469 38.9073 48.2885 38.9505 48.3192C39.0546 48.373 39.1703 48.3997 39.2873 48.3969C39.3886 48.4022 39.4897 48.3828 39.582 48.3404C39.6562 48.3072 39.7213 48.2563 39.7715 48.1921C39.8188 48.1309 39.8545 48.0615 39.8767 47.9873C39.8986 47.9139 39.9104 47.8379 39.9118 47.7613V47.6201L39.6873 47.6412Z" fill="#7B3972"/>
<path d="M40.9292 45.1978H41.3432V48.7288H40.9292V45.1978Z" fill="#7B3972"/>
<path d="M43.6377 45.4238H45.7428V45.8404H44.0727V46.815H45.6094V47.2317H44.0657V48.2839H45.8199V48.7288H43.6377V45.4238Z" fill="#7B3972"/>
<path d="M46.311 46.5042H46.725V46.8432C46.7807 46.7221 46.8744 46.6229 46.9917 46.5607C47.1303 46.4884 47.2846 46.452 47.4407 46.4548C47.5428 46.4545 47.6444 46.4688 47.7425 46.4972C47.8356 46.5325 47.9213 46.5852 47.9951 46.6525C48.0698 46.7259 48.1274 46.8152 48.1635 46.9138C48.2084 47.0333 48.2298 47.1604 48.2266 47.2881V48.7006H47.8126V47.4011C47.8243 47.3144 47.8243 47.2265 47.8126 47.1398C47.787 47.0763 47.7488 47.0186 47.7004 46.9703C47.6555 46.9244 47.6001 46.8905 47.539 46.8715C47.4786 46.8608 47.4169 46.8608 47.3565 46.8715C47.2777 46.8562 47.1968 46.8562 47.118 46.8715C47.0434 46.901 46.9763 46.9468 46.9215 47.0056C46.8632 47.0705 46.82 47.1478 46.7952 47.2316C46.7631 47.3393 46.7466 47.4511 46.7461 47.5636V48.7288H46.311V46.5042Z" fill="#7B3972"/>
<path d="M50.0581 46.8644H49.4617V47.8602C49.4582 47.9213 49.4582 47.9826 49.4617 48.0438C49.4505 48.0974 49.4505 48.1527 49.4617 48.2062C49.4773 48.2539 49.5098 48.2941 49.5529 48.3192C49.6081 48.3516 49.6717 48.3664 49.7353 48.3616H49.8827C49.9325 48.3514 49.98 48.3323 50.023 48.3051V48.6864C49.9647 48.7188 49.9 48.738 49.8336 48.7429C49.7729 48.7489 49.7118 48.7489 49.6511 48.7429C49.5264 48.749 49.4018 48.7273 49.2863 48.6794C49.2045 48.642 49.1359 48.5804 49.0898 48.5028C49.0487 48.4317 49.0247 48.3519 49.0196 48.2698C49.0196 48.178 49.0196 48.0932 49.0196 48.0014V46.8644H48.5425V46.5042H49.0196V45.904H49.4336V46.5184H50.0301L50.0581 46.8644Z" fill="#7B3972"/>
<path d="M50.9002 47.7543C50.8985 47.8454 50.9203 47.9354 50.9633 48.0156C51.0028 48.0941 51.0577 48.1638 51.1247 48.2204C51.1955 48.2736 51.2734 48.3164 51.3562 48.3475C51.4471 48.3758 51.5418 48.3901 51.6369 48.3898C51.7525 48.3929 51.8667 48.3635 51.9667 48.3051C52.0669 48.2388 52.1568 48.1579 52.2334 48.065L52.5421 48.3051C52.4297 48.4521 52.2835 48.5695 52.116 48.647C51.9485 48.7245 51.7649 48.7599 51.5808 48.75C51.4201 48.7525 51.2605 48.7237 51.1107 48.6653C50.9794 48.6087 50.8603 48.5272 50.7598 48.4252C50.6625 48.3182 50.5863 48.1936 50.5353 48.0579C50.4841 47.9128 50.458 47.7599 50.4581 47.606C50.4562 47.4489 50.4848 47.293 50.5423 47.1469C50.5983 47.0106 50.6792 46.886 50.7809 46.7797C50.8814 46.6777 51.0005 46.5961 51.1317 46.5396C51.2768 46.4817 51.4317 46.4529 51.5878 46.4548C51.7548 46.4478 51.9209 46.4817 52.072 46.5537C52.2005 46.6171 52.3132 46.7088 52.4018 46.8221C52.4873 46.9304 52.5494 47.0554 52.5842 47.1893C52.6258 47.3242 52.6471 47.4647 52.6473 47.606V47.7543H50.9002ZM52.2053 47.4223C52.1993 47.3364 52.1852 47.2513 52.1632 47.1681C52.1361 47.0953 52.0956 47.0282 52.0439 46.9704C51.9923 46.9079 51.9242 46.8614 51.8474 46.8362C51.7607 46.8003 51.6674 46.7835 51.5738 46.7867C51.3897 46.7875 51.2133 46.8611 51.0826 46.9915C51.0266 47.0515 50.9815 47.1208 50.9493 47.1963C50.917 47.2673 50.9002 47.3443 50.9002 47.4223H52.2053Z" fill="#7B3972"/>
<path d="M53.1384 46.5043H53.5524V46.8432C53.5817 46.786 53.6196 46.7336 53.6647 46.6879C53.7111 46.6397 53.7629 46.597 53.8191 46.5608C53.8785 46.5264 53.9422 46.5003 54.0085 46.4831C54.0736 46.4728 54.1399 46.4728 54.205 46.4831C54.2679 46.4754 54.3315 46.4754 54.3944 46.4831V46.9351H54.2962H54.191C54.1056 46.9284 54.0199 46.9408 53.9398 46.9713C53.8598 47.0018 53.7874 47.0497 53.7278 47.1116C53.6094 47.2612 53.5517 47.4505 53.5664 47.6413V48.7288H53.1525L53.1384 46.5043Z" fill="#7B3972"/>
<path d="M54.8367 46.5043H55.2507V46.8221C55.3307 46.7018 55.4425 46.6064 55.5734 46.5466C55.7103 46.4852 55.8586 46.4539 56.0085 46.4548C56.1645 46.453 56.3195 46.4817 56.4646 46.5396C56.5965 46.5944 56.7141 46.679 56.8084 46.7868C56.9081 46.8919 56.9846 47.017 57.0329 47.154C57.1357 47.4464 57.1357 47.7655 57.0329 48.0579C56.9846 48.1949 56.9081 48.3201 56.8084 48.4252C56.7117 48.5285 56.5946 48.6103 56.4646 48.6653C56.3195 48.7231 56.1645 48.7519 56.0085 48.75C55.8553 48.7541 55.7035 48.7201 55.5664 48.6512C55.4368 48.5956 55.3268 48.5021 55.2507 48.3828V50H54.8367V46.5043ZM55.9664 46.8432C55.8652 46.8405 55.7647 46.8598 55.6717 46.8997C55.5866 46.9347 55.51 46.9877 55.4471 47.0551C55.3825 47.1244 55.3323 47.206 55.2998 47.2952C55.2345 47.4948 55.2345 47.7101 55.2998 47.9096C55.3323 47.9988 55.3825 48.0805 55.4471 48.1497C55.51 48.2172 55.5866 48.2702 55.6717 48.3051C55.7647 48.3451 55.8652 48.3644 55.9664 48.3616C56.0699 48.3654 56.1729 48.3461 56.2681 48.3051C56.3532 48.2702 56.4298 48.2172 56.4926 48.1497C56.5579 48.0822 56.6061 47.9999 56.633 47.9096C56.6697 47.8126 56.6887 47.7098 56.6891 47.606C56.6894 47.4998 56.6704 47.3945 56.633 47.2952C56.6061 47.205 56.5579 47.1226 56.4926 47.0551C56.4298 46.9877 56.3532 46.9347 56.2681 46.8997C56.1729 46.8587 56.0699 46.8394 55.9664 46.8432Z" fill="#7B3972"/>
<path d="M57.6433 46.5043H58.0573V46.8432C58.0866 46.786 58.1245 46.7336 58.1696 46.6879C58.216 46.6397 58.2678 46.597 58.3239 46.5608C58.3834 46.5264 58.4471 46.5003 58.5134 46.4831C58.5785 46.4728 58.6448 46.4728 58.7099 46.4831C58.7728 46.4754 58.8364 46.4754 58.8993 46.4831V46.9351H58.8011H58.6958C58.6105 46.9284 58.5248 46.9408 58.4447 46.9713C58.3647 47.0018 58.2923 47.0497 58.2327 47.1116C58.1142 47.2612 58.0566 47.4505 58.0713 47.6413V48.7288H57.6573L57.6433 46.5043Z" fill="#7B3972"/>
<path d="M59.2782 45.7204C59.2768 45.6804 59.2843 45.6407 59.3001 45.604C59.3158 45.5674 59.3396 45.5348 59.3695 45.5085C59.3964 45.4795 59.429 45.4564 59.4652 45.4406C59.5014 45.4248 59.5405 45.4166 59.58 45.4167C59.6607 45.4167 59.7381 45.4484 59.7958 45.5052C59.8535 45.5619 59.8869 45.6392 59.8887 45.7204C59.8868 45.8023 59.8543 45.8805 59.7975 45.9393C59.7384 45.9944 59.6606 46.0248 59.58 46.024C59.5017 46.0237 59.4264 45.9934 59.3695 45.9393C59.3401 45.9111 59.3168 45.8771 59.3011 45.8394C59.2854 45.8017 59.2777 45.7612 59.2782 45.7204ZM59.3765 46.5043H59.7905V48.7288H59.3765V46.5043Z" fill="#7B3972"/>
<path d="M61.601 47.0551C61.5509 46.9944 61.4917 46.942 61.4255 46.8997C61.343 46.858 61.2511 46.8385 61.1589 46.8432C61.0711 46.8383 60.9837 46.8578 60.9063 46.8997C60.8769 46.9153 60.8516 46.9376 60.8325 46.9649C60.8133 46.9922 60.8008 47.0236 60.796 47.0566C60.7912 47.0897 60.7943 47.1234 60.8049 47.1551C60.8155 47.1867 60.8334 47.2154 60.8572 47.2387C60.8988 47.2818 60.949 47.3155 61.0045 47.3376C61.0628 47.3638 61.1241 47.3828 61.187 47.3941H61.3484C61.4349 47.4115 61.5195 47.4375 61.601 47.4718C61.6755 47.4989 61.7445 47.5396 61.8045 47.5918C61.8602 47.6411 61.9055 47.7011 61.9378 47.7684C61.9704 47.8516 61.9871 47.9402 61.9869 48.0297C61.9879 48.1404 61.9614 48.2497 61.9097 48.3475C61.8574 48.4317 61.7881 48.5039 61.7062 48.5593C61.6215 48.6177 61.5261 48.6586 61.4255 48.6794C61.16 48.7381 60.8836 48.7234 60.6256 48.637C60.4791 48.5674 60.3533 48.4602 60.2607 48.3263L60.5765 48.072C60.6436 48.1402 60.7191 48.1995 60.801 48.2486C60.8915 48.3045 60.9967 48.3316 61.1028 48.3263C61.1564 48.333 61.2106 48.333 61.2642 48.3263C61.3132 48.3173 61.3606 48.3006 61.4045 48.2769C61.4446 48.2586 61.4786 48.2292 61.5027 48.1921C61.531 48.156 61.5459 48.111 61.5448 48.065C61.5457 48.0378 61.5413 48.0106 61.5316 47.9851C61.522 47.9597 61.5074 47.9364 61.4887 47.9167C61.4497 47.8737 61.4018 47.84 61.3484 47.8178L61.18 47.7613H61.0186L60.766 47.6907C60.6903 47.6645 60.6193 47.6263 60.5555 47.5777C60.4939 47.5306 60.4435 47.4703 60.4081 47.4011C60.3691 47.3197 60.3499 47.2302 60.352 47.1398C60.3507 47.0358 60.3774 46.9333 60.4292 46.8432C60.472 46.7588 60.5346 46.6861 60.6116 46.6314C60.6924 46.5737 60.7827 46.5306 60.8782 46.5043C60.9785 46.4939 61.0796 46.4939 61.18 46.5043C61.3241 46.5012 61.4673 46.5277 61.601 46.5819C61.7379 46.6354 61.8521 46.7353 61.9237 46.8644L61.601 47.0551Z" fill="#7B3972"/>
<path d="M62.7936 47.7543C62.792 47.8454 62.8138 47.9354 62.8568 48.0156C62.8995 48.0939 62.9567 48.1634 63.0252 48.2204C63.0937 48.2771 63.1723 48.3202 63.2567 48.3475C63.3453 48.3753 63.4376 48.3896 63.5304 48.3899C63.6435 48.3906 63.7548 48.3613 63.8532 48.3051C63.9512 48.2386 64.0387 48.1577 64.1128 48.065L64.4286 48.3051C64.3139 48.4514 64.1662 48.568 63.9978 48.6454C63.8294 48.7228 63.6452 48.7586 63.4602 48.75C63.3019 48.7519 63.1447 48.7232 62.9971 48.6653C62.8641 48.6121 62.7443 48.5301 62.6463 48.4252C62.5466 48.3201 62.47 48.1949 62.4217 48.0579C62.3672 47.9137 62.341 47.7602 62.3446 47.606C62.3427 47.4489 62.3713 47.293 62.4288 47.1469C62.4824 47.011 62.5609 46.8864 62.6603 46.7797C62.7622 46.676 62.8839 46.5943 63.0182 46.5396C63.1608 46.4818 63.3135 46.453 63.4672 46.4548C63.6365 46.4478 63.8049 46.4817 63.9584 46.5537C64.0858 46.619 64.1981 46.7104 64.2882 46.8221C64.3737 46.9304 64.4358 47.0555 64.4707 47.1893C64.507 47.3252 64.5259 47.4652 64.5268 47.606V47.7543H62.7936ZM64.0988 47.4223C64.1003 47.3357 64.0861 47.2495 64.0567 47.1681C64.0323 47.0939 63.9915 47.0263 63.9374 46.9704C63.8885 46.9081 63.8227 46.8615 63.7479 46.8362C63.6609 46.8015 63.5678 46.7847 63.4743 46.7867C63.3776 46.7829 63.2814 46.8023 63.1936 46.8432C63.1131 46.8759 63.0411 46.9266 62.9831 46.9916C62.9255 47.0516 62.8781 47.1208 62.8427 47.1964C62.8141 47.2685 62.7976 47.3448 62.7936 47.4223H64.0988Z" fill="#7B3972"/>
</svg>
