<svg width="139" height="86" viewBox="0 0 139 86" fill="none" xmlns="http://www.w3.org/2000/svg">
<g clip-path="url(#clip0)">
<path d="M6.47433 86H0V61.6506H10.3061C13.0808 61.6506 15.1949 62.2982 16.7804 63.7229C18.2338 65.1476 19.0266 67.2199 19.0266 69.8102C19.0266 72.4006 18.2338 74.3434 16.7804 75.7681C15.327 77.1928 13.2129 77.9699 10.3061 77.9699H6.47433V86ZM6.47433 72.7892H8.5884C10.9667 72.7892 12.1559 71.753 12.1559 69.8102C12.1559 67.8675 10.9667 66.7018 8.5884 66.7018H6.47433V72.7892Z" fill="#99CC33"/>
<path d="M36.3355 81.8554H27.0865L25.6331 86.1295H18.7623L28.2756 61.7802H35.4106L44.9239 86.1295H38.0532L36.3355 81.8554ZM34.6178 76.9338L31.711 68.9036L28.8042 77.0633H34.6178V76.9338Z" fill="#99CC33"/>
<path d="M47.5665 86V61.6506H54.0409L65.9325 76.5452V61.6506H72.4068V86H65.9325L54.0409 71.1054V86H47.5665Z" fill="#99CC33"/>
<path d="M87.0732 66.9608V86H80.5989V66.9608H75.3137V61.6506H92.4905V66.9608H87.0732Z" fill="#99CC33"/>
<path d="M116.01 86H107.95L101.74 76.6747V86H95.2653V61.6506H105.307C106.76 61.6506 107.95 61.9096 109.007 62.2982C110.064 62.6867 110.857 63.2048 111.517 63.9819C112.178 64.6295 112.706 65.5361 113.103 66.3133C113.499 67.2199 113.631 68.256 113.631 69.1627C113.631 70.9759 113.235 72.5301 112.31 73.6958C111.385 74.8615 110.064 75.6386 108.214 76.0271L116.01 86ZM101.74 72.5301H102.929C104.25 72.5301 105.175 72.2711 105.836 71.753C106.496 71.2349 106.893 70.4578 106.893 69.5512C106.893 68.6446 106.496 67.8675 105.836 67.3494C105.175 66.8313 104.118 66.5723 102.929 66.5723H101.74V72.5301Z" fill="#99CC33"/>
<path d="M123.541 74.3434L114.424 61.6506H122.087L126.712 68.256L131.336 61.6506H139.132L130.015 74.3434V86H123.541V74.3434Z" fill="#99CC33"/>
<path d="M105.439 36.265H31.4468V55.9518H105.439V36.265Z" fill="#99CC33"/>
<path d="M96.3223 24.6084C93.944 24.6084 91.962 23.8313 90.6407 23.0542L93.4155 18.2621C94.2082 18.6506 95.5295 19.1687 96.983 19.0392C98.9649 18.7801 101.872 17.2259 101.872 14.506C101.872 12.0452 99.8898 9.9729 97.2472 9.9729V4.53314C102.929 4.53314 107.421 9.06627 107.421 14.506C107.421 19.9458 102.4 23.9609 97.5115 24.4789C97.2472 24.6084 96.7187 24.6084 96.3223 24.6084Z" fill="#99CC33"/>
<path d="M71.7463 36.5241H66.5932C52.3233 36.5241 40.828 25.1265 40.828 11.2681V0H97.6436V11.1386C97.6436 25.1265 86.0162 36.5241 71.7463 36.5241Z" fill="#D6EBAD"/>
</g>
<defs>
<clipPath id="clip0">
<rect width="139" height="86" fill="white"/>
</clipPath>
</defs>
</svg>
