<svg width="325" height="235" viewBox="0 0 325 235" fill="none" xmlns="http://www.w3.org/2000/svg">
<mask id="mask0" mask-type="alpha" maskUnits="userSpaceOnUse" x="0" y="0" width="325" height="235">
<path d="M0 0H325V234.5H0V0Z" fill="#FFF6DE"/>
</mask>
<g mask="url(#mask0)">
<g clip-path="url(#clip0)">
<path d="M284.101 168.748C288.023 168.748 291.203 163.656 291.203 157.374C291.203 151.092 288.023 146 284.101 146C280.179 146 277 151.092 277 157.374C277 163.656 280.179 168.748 284.101 168.748Z" fill="#99CC33"/>
<path d="M284.609 162.053H283.594V181.706H284.609V162.053Z" fill="#FFCC33"/>
<path d="M295.406 184.009C299.048 184.009 302 180.238 302 175.587C302 170.935 299.048 167.164 295.406 167.164C291.764 167.164 288.812 170.935 288.812 175.587C288.812 180.238 291.764 184.009 295.406 184.009Z" fill="#99CC33"/>
<path d="M295.913 177.386H294.899V192H295.913V177.386Z" fill="#FFCC33"/>
</g>
<path d="M24.942 107.649C30.4329 107.649 34.8841 100.564 34.8841 91.8247C34.8841 83.085 30.4329 76 24.942 76C19.4512 76 15 83.085 15 91.8247C15 100.564 19.4512 107.649 24.942 107.649Z" fill="#99CC33"/>
<path d="M25.6522 98.335H24.2319V125.678H25.6522V98.335Z" fill="#FFCC33"/>
<path d="M40.7681 128.883C45.8668 128.883 50 123.636 50 117.164C50 110.693 45.8668 105.446 40.7681 105.446C35.6695 105.446 31.5363 110.693 31.5363 117.164C31.5363 123.636 35.6695 128.883 40.7681 128.883Z" fill="#99CC33"/>
<path d="M41.4783 119.668H40.058V140H41.4783V119.668Z" fill="#FFCC33"/>
<path d="M106.386 13.7371C110.464 13.7371 113.771 8.42336 113.771 1.86854C113.771 -4.68627 110.464 -10 106.386 -10C102.307 -10 99 -4.68627 99 1.86854C99 8.42336 102.307 13.7371 106.386 13.7371Z" fill="#99CC33"/>
<path d="M106.913 6.75122H105.858V27.2583H106.913V6.75122Z" fill="#FFCC33"/>
<path d="M118.142 29.6619C121.93 29.6619 125 25.7271 125 20.8732C125 16.0193 121.93 12.0845 118.142 12.0845C114.354 12.0845 111.284 16.0193 111.284 20.8732C111.284 25.7271 114.354 29.6619 118.142 29.6619Z" fill="#99CC33"/>
<path d="M118.67 22.7511H117.615V37.9999H118.67V22.7511Z" fill="#FFCC33"/>
<path d="M364 41.9984H230V49.7639H364V41.9984Z" fill="#FF6633"/>
<path d="M245.587 91.7824V48.6206H237.822V91.7824H245.587Z" fill="#FF6633"/>
<path d="M309.01 20.8693H289.235V58.7938H309.01V20.8693Z" fill="#FFC2AD"/>
<path d="M300.702 61.5929H297.452V91.9325H300.702V61.5929Z" fill="#FFC2AD"/>
<path d="M305.554 91.8543V88.6036H292.191V91.8543H305.554Z" fill="#FFC2AD"/>
<path d="M309.1 57.8909H289.235V62.7669H309.1V57.8909Z" fill="#FF855C"/>
<path d="M254.109 27.9124H241.197L243.816 15L251.581 15.0903L254.109 27.9124Z" fill="#FF855C"/>
<path d="M248.51 28.0029H246.794V41.2765H248.51V28.0029Z" fill="#FFC2AD"/>
<path d="M252.664 40.8248H242.732V42.2696H252.664V40.8248Z" fill="#FFC2AD"/>
<path d="M269.239 41.9111L272.129 41.9111L272.129 28.8181L269.239 28.8181L269.239 41.9111Z" fill="#FFC2AD"/>
<path d="M266.339 41.9111L269.229 41.9111L269.229 28.8181L266.339 28.8181L266.339 41.9111Z" fill="#FF6633"/>
<path d="M254.039 41.9111L256.928 41.9111L256.928 28.8181L254.039 28.8181L254.039 41.9111Z" fill="#FF855C"/>
<path d="M256.996 40.2255L259.445 41.7581L266.39 30.6591L263.94 29.1266L256.996 40.2255Z" fill="#FFC2AD"/>
<path d="M122 182.879H11V189.3H122V182.879Z" fill="#FF6633"/>
<path d="M23.879 224.158L23.879 188.367H17.458L17.458 224.158H23.879Z" fill="#FF6633"/>
<path d="M115.624 224.151V188.36H109.203V224.151H115.624Z" fill="#FF6633"/>
<path d="M76.5181 165.34H60.1089V196.791H76.5181V165.34Z" fill="#FFC2AD"/>
<path d="M69.5615 199.11H66.8861V224.199H69.5615V199.11Z" fill="#FF855C"/>
<path d="M73.5695 224.199V221.524H62.5111V224.199H73.5695Z" fill="#FF855C"/>
<path d="M76.5773 196.018H60.1086V200.002H76.5773V196.018Z" fill="#FF6633"/>
<path d="M17.5993 171.999H15.2212V182.819H17.5993V171.999Z" fill="#FF855C"/>
<path d="M20.0368 171.999H17.6587V182.819H20.0368V171.999Z" fill="#FFC2AD"/>
<path d="M32.5219 171.999H30.1438V182.819H32.5219V171.999Z" fill="#FFC2AD"/>
<path d="M30.2029 171.999H27.8247V182.819H30.2029V171.999Z" fill="#FF6633"/>
<path d="M22.0424 172.201L20.0265 173.463L25.7657 182.635L27.7817 181.374L22.0424 172.201Z" fill="#FF855C"/>
<path d="M101.31 170.275H100.716V175.982H101.31V170.275Z" fill="#FFCC33"/>
<path d="M97.4457 174.912H104.58L103.153 182.047L98.8131 181.987L97.4457 174.912Z" fill="#FFC2AD"/>
<path d="M104.342 181.928H97.6243V182.879H104.342V181.928Z" fill="#FFC2AD"/>
<path d="M102.202 169.68L101.013 170.869L99.8241 169.68L101.013 167.421L102.202 169.68Z" fill="#99CC33"/>
<path d="M100.062 171.167L100.954 172.534L99.5862 173.426L97.6243 171.821L100.062 171.167Z" fill="#99CC33"/>
<path d="M102.143 174.556L100.953 173.366L102.143 172.177L104.461 173.366L102.143 174.556Z" fill="#99CC33"/>
<path d="M35.7329 163.319L37.1003 161.357C37.2192 161.238 37.3381 161.119 37.457 161.119C37.6354 161.119 37.7543 161.119 37.9327 161.238L38.5272 161.654L36.5058 164.567L35.9112 164.151C35.614 163.973 35.5545 163.616 35.7329 163.319Z" fill="#FFC2AD"/>
<path d="M52.0825 171.285C52.4392 171.523 52.5581 172.058 52.3202 172.474L51.6068 173.485C51.369 173.842 50.8339 173.961 50.4178 173.723L50.1799 173.545L51.8447 171.167L52.0825 171.285Z" fill="#FF6633"/>
<path d="M51.2535 169.788L48.8212 173.311L49.8486 174.02L52.2809 170.498L51.2535 169.788Z" fill="#FFC2AD"/>
<path d="M39.0028 166.767C38.2893 167.659 37.2786 169.323 37.1002 171.523C36.7435 175.15 38.8839 177.766 39.5973 178.717C40.8458 180.322 42.2727 181.214 43.1645 181.749" stroke="#FF855C" stroke-width="1.2656" stroke-miterlimit="10"/>
<path d="M38.7056 172.296C38.884 173.188 38.2894 174.08 37.3976 174.258C36.5058 174.436 35.6141 173.842 35.4357 172.95C35.2573 172.058 35.8518 171.167 36.7436 170.988C36.8626 170.988 36.9815 170.929 37.0409 170.929C37.3382 170.929 37.6949 171.048 37.9327 171.226C38.3489 171.523 38.5867 171.88 38.7056 172.296Z" fill="#FF6633"/>
<path d="M48.7532 173.545C48.6937 173.664 48.5154 173.783 48.3965 173.783C48.2181 173.783 48.0992 173.783 47.9803 173.664L36.3869 165.697C36.268 165.637 36.149 165.459 36.149 165.34C36.149 165.162 36.149 165.043 36.2679 164.924L36.3869 164.805L38.8245 161.238C38.9434 161.059 39.1218 161 39.3001 161C39.419 161 39.5379 161.059 39.6568 161.119L51.2503 169.086C51.3692 169.145 51.4881 169.324 51.4881 169.442C51.4881 169.621 51.4881 169.74 51.3692 169.859L48.7532 173.545Z" fill="#FF6633"/>
<path d="M57.5522 181.868V183.057H36.5056V181.868C36.5056 181.571 36.7434 181.274 37.1002 181.274H56.9577C57.3144 181.333 57.5522 181.571 57.5522 181.868Z" fill="#FFC2AD"/>
<path d="M47.3264 179.787C47.3264 179.371 47.6831 179.014 48.0993 179.014H55.6499C56.0661 179.014 56.4228 179.371 56.4228 179.787V181.274H47.3859V179.787H47.3264Z" fill="#FF855C"/>
<path d="M286.175 210.986H191V214.892H286.175V210.986Z" fill="#FFC2AD"/>
<path d="M202.063 249.246V213.138H198.157V249.246H202.063Z" fill="#FFC2AD"/>
<path d="M277.669 249.286V213.177H273.763V249.286H277.669Z" fill="#FFC2AD"/>
<path d="M257.479 174H214.834V205.486H257.479V174Z" fill="#FF855C"/>
<path d="M255.008 176.71H217.385V202.855H255.008V176.71Z" fill="#FFC2AD"/>
<path d="M244.965 193.21C244.646 193.449 244.567 193.928 244.567 194.486H243.929C243.929 193.768 244.168 193.21 244.567 192.812C244.965 192.413 245.444 192.333 245.683 192.254C246.161 190.42 245.922 188.826 245.125 187.71C243.929 185.957 241.617 185.717 241.538 185.717H241.458L241.378 185.638C240.581 184.841 239.704 184.362 238.668 184.362C237.552 184.362 236.516 184.92 236.038 185.239L236.915 186.036L236.516 186.515L235.4 185.478C234.603 184.92 233.726 184.681 232.929 184.681C230.777 184.681 229.422 186.754 229.422 186.754L229.342 186.913H229.183C228.146 186.993 227.429 187.391 226.951 188.029C225.914 189.384 226.313 191.616 226.313 191.696C226.313 192.891 226.632 193.848 227.269 194.565C228.226 195.522 229.661 195.681 230.458 195.681C230.298 195.362 230.139 195.044 230.139 194.725C230.139 193.689 231.096 192.891 231.096 192.812L231.494 193.29C231.494 193.29 230.777 193.928 230.777 194.725C230.777 195.123 230.936 195.442 231.255 195.761C231.813 196.239 232.291 196.478 232.77 196.478C232.929 196.478 233.088 196.478 233.168 196.399C233.088 195.283 233.407 194.326 234.045 193.609C234.364 193.29 234.683 193.051 235.001 192.891C234.523 191.696 234.523 190.66 234.922 189.783C234.922 189.703 235.001 189.623 235.081 189.544C234.842 189.145 234.045 187.87 233.009 187.949L232.929 187.312C234.125 187.232 235.081 188.348 235.48 188.986C236.516 187.79 238.11 187.391 238.19 187.312L238.349 187.949C238.349 187.949 236.197 188.507 235.48 190.022C235.161 190.739 235.161 191.616 235.559 192.652C236.516 192.333 237.313 192.333 237.393 192.333V192.971C237.393 192.971 235.559 192.971 234.523 194.007C233.965 194.565 233.726 195.442 233.806 196.399C234.444 197.913 235.48 198.71 236.755 198.71C237.393 198.71 237.951 198.471 238.11 198.391L238.987 197.196L239.465 197.594L238.828 198.471C239.386 198.551 239.943 198.631 240.422 198.631C242.654 198.631 243.371 197.515 243.371 197.515L243.451 197.435H243.53C244.886 196.877 245.683 196.16 246.001 195.203C246.32 194.167 245.922 193.21 245.683 192.891C245.523 192.891 245.204 192.971 244.965 193.21ZM227.588 193.21C227.509 193.131 226.313 191.776 227.03 190.102L227.588 190.341C227.03 191.616 228.067 192.732 228.067 192.732L227.588 193.21ZM229.661 191.457C229.342 192.094 229.342 192.812 229.741 193.609L229.183 193.848C228.704 192.812 228.704 191.855 229.103 191.058C229.103 190.978 229.183 190.978 229.183 190.899C229.103 190.66 228.864 189.783 228.146 189.703L228.226 189.065C229.023 189.145 229.422 189.783 229.661 190.261C230.617 189.304 232.132 189.065 232.212 189.065L232.291 189.703C232.291 189.783 230.298 190.181 229.661 191.457ZM241.059 194.565C241.697 194.645 242.255 195.044 242.654 195.602L242.096 196C241.777 195.522 241.378 195.283 240.9 195.203C240.103 195.123 239.465 195.602 239.386 195.602C238.748 196.239 237.712 196.797 236.117 196.797V196.16C237.632 196.08 238.509 195.602 239.067 195.123C239.784 194.406 239.864 193.529 239.864 193.449V193.29C239.864 192.971 239.864 192.174 239.146 191.776L239.465 191.218C240.342 191.696 240.502 192.573 240.502 193.131C241.139 193.051 241.617 192.891 241.857 192.573C242.255 192.015 242.016 191.138 242.016 191.138L242.654 190.978C242.654 191.058 242.973 192.174 242.335 192.971C241.936 193.449 241.299 193.768 240.422 193.848C240.422 194.087 240.342 194.326 240.183 194.645C240.422 194.565 240.741 194.486 241.059 194.565ZM242.255 187.87L242.494 187.232C242.574 187.232 244.567 187.949 244.567 190.978H243.929C243.929 188.507 242.335 187.87 242.255 187.87Z" fill="#FFC2AD"/>
<path d="M242.335 192.891C242.972 192.015 242.654 190.899 242.654 190.899L242.016 191.058C242.016 191.058 242.255 191.935 241.857 192.493C241.617 192.812 241.139 193.051 240.502 193.051C240.502 192.573 240.262 191.696 239.465 191.138L239.146 191.696C239.864 192.094 239.864 192.971 239.864 193.21V193.37C239.864 193.449 239.784 194.247 239.067 195.044C238.509 195.602 237.632 196.08 236.117 196.08V196.718C237.791 196.638 238.828 196.16 239.386 195.522C239.386 195.522 240.103 194.964 240.9 195.123C241.378 195.203 241.777 195.442 242.096 195.92L242.654 195.522C242.175 194.884 241.697 194.565 241.059 194.486C240.741 194.406 240.422 194.486 240.183 194.565C240.342 194.247 240.342 194.007 240.342 193.848C241.219 193.848 241.936 193.449 242.335 192.891Z" fill="#FF855C"/>
<path d="M229.581 190.5C229.342 190.022 229.103 189.225 228.226 189.225L228.146 189.862C228.784 189.942 229.103 190.739 229.183 191.058C229.183 191.138 229.103 191.138 229.103 191.217C228.704 192.015 228.704 192.891 229.183 194.007L229.741 193.768C229.342 192.891 229.342 192.174 229.661 191.616C230.378 190.341 232.291 190.022 232.371 190.022L232.291 189.384C232.132 189.145 230.538 189.544 229.581 190.5Z" fill="#FF855C"/>
<path d="M227.508 190.341L226.951 190.102C226.233 191.775 227.508 193.131 227.508 193.21L227.987 192.812C227.907 192.652 226.791 192.015 227.508 190.341Z" fill="#FF855C"/>
<path d="M244.567 190.978C244.567 188.348 242.335 187.152 242.494 187.232L242.255 187.87C242.335 187.87 243.849 188.507 243.849 190.978H244.567Z" fill="#FF855C"/>
<path d="M245.682 187.312C244.407 185.558 242.334 185.08 241.776 185C240.9 184.123 239.863 183.645 238.668 183.645C237.233 183.645 236.037 184.362 235.559 184.681C234.682 184.123 233.805 183.884 232.929 183.884C230.697 183.884 229.342 185.638 228.943 186.196C227.827 186.275 226.95 186.754 226.392 187.551C225.197 189.065 225.595 191.377 225.675 191.696C225.675 193.051 226.073 194.167 226.791 194.964C228.146 196.399 230.378 196.319 231.015 196.319C231.653 196.797 232.291 197.116 232.849 197.116C233.088 197.116 233.247 197.036 233.407 197.036C234.363 199.029 235.798 199.428 236.834 199.428C237.552 199.428 238.189 199.189 238.429 199.109C239.146 199.268 239.863 199.348 240.501 199.348C242.733 199.348 243.689 198.312 243.929 197.993C245.443 197.355 246.32 196.478 246.639 195.442C247.037 194.167 246.479 192.971 246.24 192.573C246.798 190.341 246.559 188.667 245.682 187.312ZM246.081 195.203C245.762 196.08 244.965 196.877 243.61 197.435H243.53L243.45 197.515C243.45 197.515 242.733 198.631 240.501 198.631C240.023 198.631 239.465 198.551 238.907 198.471L239.544 197.594L239.066 197.196L238.189 198.391C238.03 198.471 237.472 198.71 236.834 198.71C235.559 198.71 234.602 197.913 233.885 196.399C233.805 195.362 234.045 194.565 234.602 194.007C235.639 192.891 237.472 192.891 237.472 192.971V192.334C237.392 192.334 236.595 192.333 235.639 192.652C235.24 191.696 235.24 190.819 235.559 190.022C236.276 188.507 238.349 187.949 238.429 187.949L238.269 187.312C238.189 187.312 236.595 187.79 235.559 188.986C235.16 188.348 234.204 187.232 233.008 187.312L233.088 187.949C234.124 187.87 234.921 189.065 235.16 189.544C235.081 189.623 235.081 189.703 235.001 189.783C234.602 190.739 234.602 191.776 235.081 192.891C234.762 193.051 234.363 193.29 234.124 193.609C233.487 194.326 233.168 195.203 233.247 196.399C233.168 196.399 233.008 196.478 232.849 196.478C232.371 196.478 231.892 196.239 231.334 195.761C231.016 195.442 230.856 195.123 230.856 194.725C230.856 194.007 231.573 193.29 231.573 193.29L231.175 192.812C231.175 192.812 230.218 193.689 230.218 194.725C230.218 195.044 230.298 195.362 230.537 195.681C229.74 195.681 228.305 195.522 227.349 194.565C226.711 193.928 226.392 192.971 226.392 191.696C226.392 191.696 225.994 189.464 227.03 188.029C227.508 187.391 228.146 187.073 229.182 187.073L229.421 186.993L229.501 186.833C229.501 186.833 230.856 184.761 233.008 184.761C233.805 184.761 234.602 185 235.479 185.558L236.595 186.594L236.994 186.116L236.117 185.319C236.595 185 237.552 184.442 238.747 184.442C239.784 184.442 240.66 184.841 241.458 185.718L241.537 185.797H241.617C241.617 185.797 243.929 186.036 245.204 187.79C246.001 188.906 246.161 190.42 245.762 192.334C245.443 192.334 245.045 192.493 244.646 192.891C244.247 193.29 244.008 193.848 244.008 194.565H244.646C244.646 194.007 244.805 193.609 245.045 193.29C245.284 193.051 245.603 192.971 245.842 192.891C245.921 193.21 246.32 194.167 246.081 195.203Z" fill="#FF855C"/>
<path d="M234.044 192.573L239.783 183.645H235.559L236.993 177.746L231.892 186.275H235.559L234.044 192.573Z" fill="#E24C24"/>
<path d="M236.197 203.573H234.602V209.949H236.197V203.573Z" fill="#FF855C"/>
<path d="M239.401 210.992V209.318H231.43V210.992H239.401Z" fill="#FF855C"/>
<path d="M267.683 183.087H249.19V218.558H267.683V183.087Z" fill="#FF6633"/>
<path d="M259.87 221.189H256.841V249.566H259.87V221.189Z" fill="#E24C24"/>
<path d="M267.762 217.761H249.189V222.305H267.762V217.761Z" fill="#FF855C"/>
</g>
<defs>
<clipPath id="clip0">
<rect width="25" height="46" fill="white" transform="translate(277 146)"/>
</clipPath>
</defs>
</svg>
