<svg width="106" height="58" viewBox="0 0 106 58" fill="none" xmlns="http://www.w3.org/2000/svg">
<path d="M7.50002 53.6C7.30002 52.6 6.90002 52 5.80002 51.3C4.80002 50.6 3.50002 49.7 3.50002 49.7C3.50002 49.7 1.90002 48.8 1.80002 47.8C1.70002 46.8 2.80002 45.8 4.30002 45.9C5.00002 45.9 5.40002 46.2 5.70002 46.3C6.20002 46.6 6.40002 47 6.40002 47.1L6.50002 47.2C6.60002 47.2 6.60002 47.1 6.60002 47.1V45.1C6.60002 45.1 5.50002 45.1 3.70002 45.1C2.00002 45.1 -0.199981 46.4 -0.0999813 48.5C-0.0999813 49 -0.0999813 50 1.90002 51.2C3.70002 52.4 5.40002 53.1 5.40002 54.9C5.40002 56.8 3.60002 57.5 2.20002 57.3C1.50002 57.2 1.10002 56.9 0.800019 56.7C0.400019 56.3 0.300019 55.8 0.200019 55.4C0.200019 55.3 0.100019 55.3 0.100019 55.3C1.87382e-05 55.3 1.87382e-05 55.4 1.87382e-05 55.4V57C1.87382e-05 57 0.900019 57.9 2.50002 58C6.70002 58.1 7.80002 55.3 7.50002 53.6Z" fill="#1B4478"/>
<path d="M15.3 46.9C11.9 46.9 10 49.1 10 52.3C10 55.6 12.2 57.6 15.2 57.6C18.5 57.6 20.5 55.2 20.5 52.1C20.5 48.8 18.2 46.9 15.3 46.9ZM15.2 57C13.1 57 11.6 55.2 11.6 52.3C11.6 48.9 13.4 47.6 15.3 47.6C16.2 47.6 17.6 48 18.4 49.4C18.9 50.3 19 51.5 19 52.3C18.9 55.3 17.4 57 15.2 57Z" fill="#1B4478"/>
<path d="M50.2999 51.6H46.7C46.7 51.7 46.8999 52.2 47.2999 52.3H50.4V56.8C50.4 56.9 50.4 56.9 50.4 57C50.5 57.2 50.6999 57.4 51.0999 57.4H52V47.1H50.5V51.6H50.2999Z" fill="#1B4478"/>
<path d="M30.3999 53.8C30.3999 54.2 30.3999 54.7 30.2999 55C29.8999 56.7 28.0999 56.8 27.6999 56.8C26.8999 56.8 26.1999 56.4 25.7999 56C25.3999 55.6 25.2999 55 25.2999 54.1V47.2H23.7999H23.3999C23.3999 47.2 23.3999 47.2 23.3999 47.3V47.4C23.4999 47.5 23.7999 47.7 23.7999 48.4V54C23.7999 55 23.8999 55.7 24.2999 56.3C25.0999 57.3 26.3999 57.6 27.3999 57.6C28.8999 57.6 29.6999 57.1 30.1999 56.6C30.8999 55.9 31.0999 55 31.0999 54C31.0999 53.3 31.0999 47.2 31.0999 47.2H30.3999V53.8Z" fill="#1B4478"/>
<path d="M34.1 47.8H36.8V56.8C36.8 56.8 36.8 56.9 36.8 57.1C36.9 57.3 37.1 57.5 37.5 57.5H38.3V47.9H41V47.2H34V47.8H34.1Z" fill="#1B4478"/>
<path d="M44 47.2C44.1 47.4 44.4 47.6 44.4 48.3V56.8C44.4 56.8 44.4 56.9 44.4 57.1C44.5 57.3 44.7 57.5 45.1 57.5H46V47.1L44 47.2C44 47.1 44 47.1 44 47.2Z" fill="#1B4478"/>
<path d="M97.9001 57C98.0001 57.2 98.2001 57.4 98.6001 57.4H99.5001V47.1H97.6001C97.6001 47.1 97.6001 47.1 97.6001 47.2V47.3C97.7001 47.4 98.0001 47.6 98.0001 48.3V56.8C97.8001 56.7 97.8001 56.9 97.9001 57Z" fill="#1B4478"/>
<path d="M94.6 47.2C94 47 93.3 46.9 92.6 46.9C89.2 46.9 87.3 49.1 87.3 52.3C87.3 55.6 89.5 57.6 92.5 57.6C93.3 57.6 94 57.5 94.7 57.2V56.7C94.7 56.7 94 57 92.6 57C90.5 57 89 55.2 89 52.3C89 48.9 90.8 47.6 92.7 47.6C92.9 47.6 93.2 47.6 93.5 47.7C93.5 47.7 94.2 47.9 94.5 48.3C94.6 48.3 94.6 48.4 94.6 48.4C94.6 48.4 94.6 48.4 94.7 48.4H94.8V48V47.2H94.6Z" fill="#1B4478"/>
<path d="M103.7 51.6H100.1C100.1 51.7 100.3 52.2 100.7 52.3H103.8V56.8C103.8 56.9 103.8 56.9 103.8 57C103.9 57.2 104.1 57.4 104.5 57.4H105.4V47.1H103.8V51.6H103.7Z" fill="#1B4478"/>
<path d="M81.5001 47.1H79.9001C79.9001 47.1 79.9001 47.1 79.9001 47.2V47.3C79.9001 47.3 80.1001 47.4 80.1001 47.6L76.6001 57.4H77.3001L80.4001 48.6L82.0001 53H79.6001C79.6001 53 79.7001 53.5 80.1001 53.7H82.2001L83.3001 56.9C83.3001 57 83.4001 57 83.4001 57.1C83.5001 57.3 83.7001 57.5 84.1001 57.5H85.1001L81.5001 47.1Z" fill="#1B4478"/>
<path d="M74.3999 56.7H70.2999V47.8H73.9999V47.1H68.7999H68.3999C68.3999 47.1 68.3999 47.1 68.3999 47.2V47.3C68.4999 47.4 68.7999 47.6 68.7999 48.3V56.9C68.7999 57 68.7999 57 68.7999 57.1C68.8999 57.3 69.0999 57.5 69.4999 57.5H70.3999H74.4999V56.7H74.3999Z" fill="#1B4478"/>
<path d="M61.7999 51C62.9999 50.8 64.5999 50.2 64.5999 48C64.5999 44.9 61.0999 45.1 61.0999 45.1H59.0999H57.7H56.7999C56.6999 45.1 56.7 45.1 56.7 45.2C56.7 45.3 56.6999 45.3 56.7999 45.3C56.9999 45.4 57.6 45.9 57.7 47C57.7 47.1 57.7 47.1 57.7 47.2V47.3V56.7C57.7 56.7 57.7 56.9 57.7 57C57.8 57.2 58.1 57.4 58.5 57.4H59H61.2C61.2 57.4 65 57.6 65 54.2C65 51.9 63.1999 51.2 61.7999 51ZM60.4 56.7H59.4V45.9H60.2C60.2 45.9 62.9 45.7 62.9 48.2C62.9 50.4 61.9 50.6 60.7 50.6H60.2C60.2 50.7 60.4 51.3 60.9 51.4C62.2 51.4 63.2 51.8 63.2 54.1C63.3 56.9 60.4 56.7 60.4 56.7Z" fill="#1B4478"/>
<path d="M71.4 52.3H73.6V51.6H70.7C70.8 51.8 71 52.3 71.4 52.3Z" fill="#1B4478"/>
<path d="M72 35.8C70 34.6 68 35.4 68 35.4C68.7 35.3 70 35.4 71.1 36.1C73.1 37.4 74 40.1 75.6 40.4C75.6 40.4 76.3 40.5 76.7 40.4C77.1 40.3 77.1 40.2 77.1 40.2C75.1 40.2 74.2 37.1 72 35.8Z" fill="#AACC74"/>
<path d="M75.6 34.6C72.4 32.7 69.3 34 69.3 34C70.4 33.9 72.4 34 74.1 35.1C77.3 37.1 78.7 41.5 81.2 41.8C81.2 41.8 82.3 42 82.9 41.8C83.5 41.6 83.6 41.5 83.6 41.5C80.4 41.4 79 36.6 75.6 34.6Z" fill="#4CA7A5"/>
<path d="M89.1001 39.6C89.1001 39.6 89.9001 40.3 90.2001 39.1C90.6001 37.4 91.9001 34.4 94.7001 33.8C94.7001 33.8 93.2001 33.5 91.5001 35C89.7001 36.5 89.1001 39.6 89.1001 39.6Z" fill="#AACC74"/>
<path d="M79.4 32.7C75.4 30.3 71.3 31.9 71.3 31.9C72.7 31.8 75.2 31.9 77.4 33.3C81.4 35.9 83.2 41.4 86.4 41.8C86.4 41.8 87.8 42 88.5 41.8C89.3 41.6 89.4 41.4 89.4 41.4C85.5 41.5 83.7 35.3 79.4 32.7Z" fill="#4CA7A5"/>
<path d="M93 39.5C93 39.5 94 40.3 94.3 38.9C94.8 36.9 96.4 33.2 99.7 32.5C99.7 32.5 97.9 32.1 95.9 33.9C93.7 35.9 93 39.5 93 39.5Z" fill="#4CA7A5"/>
<path d="M84.0001 30.9C78.8001 27.8 73.6001 29.9 73.6001 29.9C75.5001 29.7 78.7001 29.9 81.5001 31.7C86.7001 35 89.0001 42.2 93.1001 42.7C93.1001 42.7 94.9001 43 95.9001 42.6C96.9001 42.3 97.0001 42.1 97.0001 42.1C91.9001 42.2 89.6001 34.2 84.0001 30.9Z" fill="#1B4478"/>
<path d="M97.8 39.5C97.8 39.5 98.9 40.4 99.3 38.8C99.8 36.6 101.6 32.5 105.3 31.7C105.3 31.7 103.3 31.2 101.1 33.2C98.6 35.5 97.8 39.5 97.8 39.5Z" fill="#1B4478"/>
<path d="M87.1999 30.8C87.1999 30.8 85.7999 25.5 85.1999 22.6C84.7999 20.7 85 20.3 85 20.3L87.6999 2.3L90.1 0L86.3 20.9C86.3 20.9 86.1 21.4 86.3 23.4C86.6 26.5 87.6999 32.3 87.6999 32.3L87.1999 30.8Z" fill="#1B4478"/>
<path d="M80.8 27.6C80.8 27.6 81.4 25 81.6 23.5C81.7 22.6 81.7 22.3 81.7 22.3L80 13.1L78.5 11.9L80.8 22.6C80.8 22.6 80.9 22.8 80.8 23.9C80.7 25.5 80.6 28.4 80.6 28.4L80.8 27.6Z" fill="#4CA7A5"/>
<path d="M69.8001 31.7C66.4001 33.7 64.6 38 62 39.6C61.6 39.9 61 40.2 60.3 40.4C60.5 40.5 60.9001 40.5 61.4001 40.4C65.0001 39.5 67.5 32.8 71.2 31C70.8 31.2 70.3001 31.5 69.8001 31.7Z" fill="#1B4478"/>
<path d="M62.2 35.6C60.1 36.7 58.6 39.2 57 40C56.8 40.1 56.4 40.3 56 40.4C56.1 40.4 56.3 40.5 56.7 40.4C58.9 40 60.9 36.1 63.1 35.2C62.7 35.4 62.5 35.5 62.2 35.6Z" fill="#AACC74"/>
<path d="M65.4999 34.1C62.8999 35.5 61.1999 38.7 59.1999 39.9C58.8999 40.1 58.3999 40.3 57.8999 40.5C58.0999 40.5 58.2999 40.6 58.6999 40.5C61.3999 39.9 63.6999 35 66.4999 33.7C66.1999 33.8 65.7999 33.9 65.4999 34.1Z" fill="#4CA7A5"/>
</svg>
