<svg width="325" height="235" viewBox="0 0 325 235" fill="none" xmlns="http://www.w3.org/2000/svg">
<mask id="mask0" mask-type="alpha" maskUnits="userSpaceOnUse" x="0" y="0" width="325" height="235">
<path d="M0 0H325V234.5H0V0Z" fill="#FFF6DE"/>
</mask>
<g mask="url(#mask0)">
<path d="M294.632 26.4772H193.341V33.7255H294.632V26.4772Z" fill="#88B222"/>
<path d="M246.495 93V30.553H240.826V93H246.495Z" fill="#88B222"/>
<path d="M190.089 25.2691H186V43.3899H190.089V25.2691Z" fill="#99CC33"/>
<path d="M200.775 43.3899H186V47.3858H200.775V43.3899Z" fill="#D6EBAD"/>
<path d="M200.683 62.347H187.952V64.6701H200.683V62.347Z" fill="#D6EBAD"/>
<path d="M188.695 47.3858H186V92.7341H188.695V47.3858Z" fill="#D6EBAD"/>
<path d="M200.775 47.3858H198.08V92.7341H200.775V47.3858Z" fill="#D6EBAD"/>
<path d="M200.792 43.397V39.3083H186.667V43.397H200.792Z" fill="#99CC33"/>
<path d="M297.911 43.4523L302 43.4523L302 25.3316L297.911 25.3316L297.911 43.4523Z" fill="#99CC33"/>
<path d="M287.206 47.3571L301.981 47.3571L301.981 43.3613L287.206 43.3613L287.206 47.3571Z" fill="#D6EBAD"/>
<path d="M287.254 64.6257L299.985 64.6257L299.985 62.3026L287.254 62.3026L287.254 64.6257Z" fill="#D6EBAD"/>
<path d="M299.274 92.7604L301.969 92.7604L301.969 47.4121L299.274 47.4121L299.274 92.7604Z" fill="#D6EBAD"/>
<path d="M287.209 92.7604L289.904 92.7604L289.904 47.4121L287.209 47.4121L287.209 92.7604Z" fill="#D6EBAD"/>
<path d="M301.374 43.4553L301.374 39.3665L287.249 39.3665L287.249 43.4553L301.374 43.4553Z" fill="#99CC33"/>
<path d="M237.946 25.2691H213.042V43.3899H237.946V25.2691Z" fill="#99CC33"/>
<path d="M237.946 43.3899H213.042V47.3858H237.946V43.3899Z" fill="#D6EBAD"/>
<path d="M237.946 62.347H213.042V64.6701H237.946V62.347Z" fill="#D6EBAD"/>
<path d="M215.737 47.3858H213.042V92.7341H215.737V47.3858Z" fill="#D6EBAD"/>
<path d="M237.946 47.3858H235.251V92.7341H237.946V47.3858Z" fill="#D6EBAD"/>
<path d="M274.93 25.2691H250.026V43.3899H274.93V25.2691Z" fill="#99CC33"/>
<path d="M274.931 43.3899H250.026V47.3858H274.931V43.3899Z" fill="#D6EBAD"/>
<path d="M274.931 62.347H250.026V64.6701H274.931V62.347Z" fill="#D6EBAD"/>
<path d="M252.721 47.3858H250.026V92.7341H252.721V47.3858Z" fill="#D6EBAD"/>
<path d="M274.93 47.3858H272.236V92.7341H274.93V47.3858Z" fill="#D6EBAD"/>
<path d="M58.172 34.3102H55.9652V87.1372H58.172V34.3102Z" fill="#FFCC33"/>
<path d="M43 85.758H71.1377L65.3446 113.896L48.5172 113.758L43 85.758Z" fill="#99CC33"/>
<path d="M70.31 113.62H43.6896V117.344H70.31V113.62Z" fill="#D6EBAD"/>
<path d="M61.7587 31.9654L57.0691 36.6551L52.3795 31.9654L56.9312 23L61.7587 31.9654Z" fill="#99CC33"/>
<path d="M53.3445 37.7585L56.9307 43.4136L51.2755 46.8618L43.5515 40.5171L53.3445 37.7585Z" fill="#99CC33"/>
<path d="M61.4826 51.2756L56.9309 46.586L61.6205 42.0343L70.5859 46.586L61.4826 51.2756Z" fill="#99CC33"/>
<path d="M236.532 167.635H235.237V198.624H236.532V167.635Z" fill="#FFCC33"/>
<path d="M227.632 197.815H244.138L240.739 214.321L230.868 214.24L227.632 197.815Z" fill="#99CC33"/>
<path d="M243.652 214.159H228.036V216.344H243.652V214.159Z" fill="#D6EBAD"/>
<path d="M238.636 166.259L235.885 169.01L233.134 166.259L235.804 161L238.636 166.259Z" fill="#99CC33"/>
<path d="M233.7 169.658L235.804 172.975L232.486 174.998L227.955 171.276L233.7 169.658Z" fill="#99CC33"/>
<path d="M238.474 177.587L235.804 174.836L238.555 172.166L243.814 174.836L238.474 177.587Z" fill="#99CC33"/>
<path d="M110.849 171.132C111.132 171.132 111.358 171.358 111.358 171.641C111.358 171.925 111.075 172.094 110.849 172.151C110.679 172.151 110.566 172.094 110.509 172.094" stroke="#88B222" stroke-width="0.7421" stroke-miterlimit="10"/>
<path d="M70.0376 175.094H45.5282V212H70.0376V175.094Z" fill="#99CC33"/>
<path d="M94.4909 175.094H69.9814V212H94.4909V175.094Z" fill="#D6EBAD"/>
<path d="M119 175.094H94.4906V212H119V175.094Z" fill="#88B222"/>
<path d="M68 176.849H47.566V207.075H68V176.849Z" fill="#D6EBAD"/>
<path d="M92.4531 176.849H72.019V186.755H92.4531V176.849Z" fill="#99CC33"/>
<path d="M92.4531 186.811H72.019V196.717H92.4531V186.811Z" fill="#88B222"/>
<path d="M92.4531 196.774H72.019V206.679H92.4531V196.774Z" fill="#99CC33"/>
<path d="M116.962 176.849H96.5284V186.755H116.962V176.849Z" fill="#D6EBAD"/>
<path d="M116.962 186.811H96.5284V196.717H116.962V186.811Z" fill="#99CC33"/>
<path d="M116.962 196.774H96.5284V206.679H116.962V196.774Z" fill="#D6EBAD"/>
<path d="M86.1697 175.094H79.8301V166.83C79.8301 165.868 80.6225 165.132 81.5282 165.132H84.4716C85.4338 165.132 86.1697 165.925 86.1697 166.83V175.094Z" fill="#88B222"/>
<path d="M79.8867 172.377C78.698 172.377 77.7924 171.415 77.7924 170.283C77.7924 169.094 78.7546 168.189 79.8867 168.189" stroke="#88B222" stroke-width="1.4841" stroke-miterlimit="10"/>
<path d="M83.7362 168.302H82.4908V173.679H83.7362V168.302Z" fill="#D6EBAD"/>
<path d="M86.736 166.208H84.6417V167.113H86.736V166.208Z" fill="#88B222"/>
<path d="M111.811 161.849H100.66V166.377H111.811V161.849Z" fill="#99CC33"/>
<path d="M105.415 166.377H100.66V174.755H105.415V166.377Z" fill="#D6EBAD"/>
<path d="M111.642 173.396H105.415V174.811H111.642V173.396Z" fill="#99CC33"/>
<path d="M110.283 166.377H107.679V167.679H110.283V166.377Z" fill="#D6EBAD"/>
<path d="M110 167.623H108.189V168.302H110V167.623Z" fill="#D6EBAD"/>
<path d="M115.434 166.83H110.283V167.396H115.434V166.83Z" fill="#99CC33"/>
<path d="M109.83 173.17H108.019C107.453 173.17 106.943 172.717 106.943 172.094V170.623H110.849V172.094C110.906 172.717 110.396 173.17 109.83 173.17Z" fill="#D6EBAD"/>
<path d="M45.5283 143H17V184.377H45.5283V143Z" fill="#88B222"/>
<path d="M45.5283 184.377H17V211.943H45.5283V184.377Z" fill="#D6EBAD"/>
<path d="M84.5852 177.585H79.9436V178.151H84.5852V177.585Z" fill="#D6EBAD"/>
<path d="M84.5852 187.434H79.9436V188H84.5852V187.434Z" fill="#D6EBAD"/>
<path d="M84.5852 197.34H79.9436V197.906H84.5852V197.34Z" fill="#D6EBAD"/>
<path d="M109.094 177.585H104.453V178.151H109.094V177.585Z" fill="#88B222"/>
<path d="M109.094 187.434H104.453V188H109.094V187.434Z" fill="#88B222"/>
<path d="M109.094 197.34H104.453V197.906H109.094V197.34Z" fill="#88B222"/>
<path d="M57.7548 176V209.396" stroke="#99CC33" stroke-width="0.9894" stroke-miterlimit="10"/>
<path d="M56.6891 182.884V178.242H56.123V182.884H56.6891Z" fill="#99CC33"/>
<path d="M59.4834 182.863V178.222H58.9174V182.863H59.4834Z" fill="#99CC33"/>
<path d="M19.3206 170.679H18.3584V182.113H19.3206V170.679Z" fill="#99CC33"/>
<path d="M19.3206 186.585H18.3584V198.019H19.3206V186.585Z" fill="#99CC33"/>
<path d="M282.551 172.435H254.127V214.59H282.551V172.435Z" fill="#99CC33"/>
<path d="M262.679 214.108H257.981V216.758H262.679V214.108Z" fill="#99CC33"/>
<path d="M279.058 214.108H274.361V216.758H279.058V214.108Z" fill="#99CC33"/>
<path d="M269.543 171.472H267.014C261.715 171.472 257.379 167.136 257.379 161.836V150.635C257.379 145.336 261.715 141 267.014 141H269.543C274.843 141 279.179 145.336 279.179 150.635V161.836C279.179 167.136 274.843 171.472 269.543 171.472Z" fill="#3399FF"/>
<path d="M277.974 154.369H258.704C257.138 154.369 255.813 153.044 255.813 151.478V150.635C255.813 149.07 257.138 147.745 258.704 147.745H277.974C279.54 147.745 280.865 149.07 280.865 150.635V151.478C280.985 153.044 279.661 154.369 277.974 154.369Z" fill="#85C2FF"/>
<path d="M277.974 164.486H258.704C257.138 164.486 255.813 163.161 255.813 161.596V160.752C255.813 159.187 257.138 157.862 258.704 157.862H277.974C279.54 157.862 280.865 159.187 280.865 160.752V161.596C280.985 163.161 279.661 164.486 277.974 164.486Z" fill="#85C2FF"/>
<path d="M272.795 171.351H264.003V172.315H272.795V171.351Z" fill="#3399FF"/>
<path d="M279.781 180.865H257.018V195.68H279.781V180.865Z" fill="#D6EBAD"/>
<path d="M264.605 180.625H262.076V183.516H264.605V180.625Z" fill="#99CC33"/>
<path d="M264.003 183.516H262.678V184.961H264.003V183.516Z" fill="#99CC33"/>
<path d="M274.963 180.625H272.434V183.516H274.963V180.625Z" fill="#99CC33"/>
<path d="M274.24 183.516H272.916V184.961H274.24V183.516Z" fill="#99CC33"/>
<path d="M272.555 174.483H264.485V179.059H272.555V174.483Z" fill="#D6EBAD"/>
<path d="M262.438 178.096H258.704C258.222 178.096 257.74 177.614 257.74 177.132V176.892C257.74 176.41 258.222 175.928 258.704 175.928H262.438C262.919 175.928 263.401 176.41 263.401 176.892V177.132C263.401 177.614 263.04 178.096 262.438 178.096Z" fill="#D6EBAD"/>
<path d="M278.095 178.096H274.361C273.88 178.096 273.398 177.614 273.398 177.132V176.892C273.398 176.41 273.88 175.928 274.361 175.928H278.095C278.577 175.928 279.059 176.41 279.059 176.892V177.132C279.059 177.614 278.577 178.096 278.095 178.096Z" fill="#D6EBAD"/>
</g>
</svg>
