<svg width="325" height="235" viewBox="0 0 325 235" fill="none" xmlns="http://www.w3.org/2000/svg">
<mask id="mask0" mask-type="alpha" maskUnits="userSpaceOnUse" x="0" y="0" width="325" height="235">
<path d="M0 0H325V234.5H0V0Z" fill="#FFF6DE"/>
</mask>
<g mask="url(#mask0)">
<path d="M143.909 63.5367H114.133C111.233 63.5367 108.882 65.8911 108.882 68.7954C108.882 71.6997 111.233 74.0541 114.133 74.0541H143.909C146.809 74.0541 149.16 71.6997 149.16 68.7954C149.16 65.8911 146.809 63.5367 143.909 63.5367Z" fill="#FFF6DE"/>
<path d="M133.639 28H103.863C100.963 28 98.6124 30.3544 98.6124 33.2587C98.6124 36.1629 100.963 38.5173 103.863 38.5173H133.639C136.539 38.5173 138.89 36.1629 138.89 33.2587C138.89 30.3544 136.539 28 133.639 28Z" fill="#C2E0FF"/>
<path d="M137.844 38.5173H108.068C105.168 38.5173 102.817 40.8717 102.817 43.776C102.817 46.6803 105.168 49.0347 108.068 49.0347H137.844C140.744 49.0347 143.095 46.6803 143.095 43.776C143.095 40.8717 140.744 38.5173 137.844 38.5173Z" fill="#C2E0FF"/>
<path d="M104.264 79.9653H74.4882C71.5882 79.9653 69.2372 82.3197 69.2372 85.224C69.2372 88.1283 71.5882 90.4827 74.4882 90.4827H104.264C107.164 90.4827 109.515 88.1283 109.515 85.224C109.515 82.3197 107.164 79.9653 104.264 79.9653Z" fill="#C2E0FF"/>
<path d="M104.264 90.4827H74.4882C71.5882 90.4827 69.2372 92.837 69.2372 95.7413C69.2372 98.6456 71.5882 101 74.4882 101H104.264C107.164 101 109.515 98.6456 109.515 95.7413C109.515 92.837 107.164 90.4827 104.264 90.4827Z" fill="#C2E0FF"/>
<path d="M125.03 49.0472H61.3797C58.4797 49.0472 56.1288 51.4016 56.1288 54.3058C56.1288 57.2101 58.4797 59.5645 61.3797 59.5645H125.03C127.93 59.5645 130.281 57.2101 130.281 54.3058C130.281 51.4016 127.93 49.0472 125.03 49.0472Z" fill="#C2E0FF"/>
<path d="M147.945 59.0876H88.5993C85.6992 59.0876 83.3483 61.442 83.3483 64.3462C83.3483 67.2505 85.6992 69.6049 88.5993 69.6049H147.945C150.845 69.6049 153.196 67.2505 153.196 64.3462C153.196 61.442 150.845 59.0876 147.945 59.0876Z" fill="#C2E0FF"/>
<path d="M157.225 69.4418H50.7149C47.8149 69.4418 45.464 71.7962 45.464 74.7004C45.464 77.6047 47.8149 79.9591 50.7149 79.9591H157.225C160.125 79.9591 162.476 77.6047 162.476 74.7004C162.476 71.7962 160.125 69.4418 157.225 69.4418Z" fill="#C2E0FF"/>
<path d="M135.381 79.9653H105.605C102.705 79.9653 100.354 82.3197 100.354 85.224C100.354 88.1283 102.705 90.4827 105.605 90.4827H135.381C138.281 90.4827 140.632 88.1283 140.632 85.224C140.632 82.3197 138.281 79.9653 135.381 79.9653Z" fill="#FFF6DE"/>
<path d="M85.2407 59.5645H45.2509C42.3509 59.5645 40 61.9189 40 64.8232C40 67.7275 42.3509 70.0818 45.2509 70.0818H85.2407C88.1407 70.0818 90.4916 67.7275 90.4916 64.8232C90.4916 61.9189 88.1407 59.5645 85.2407 59.5645Z" fill="#FFF6DE"/>
<path d="M106.482 38.3793H66.4927C63.5927 38.3793 61.2418 40.7337 61.2418 43.6379C61.2418 46.5422 63.5927 48.8966 66.4927 48.8966H106.482C109.382 48.8966 111.733 46.5422 111.733 43.6379C111.733 40.7337 109.382 38.3793 106.482 38.3793Z" fill="#FFF6DE"/>
<path d="M166.749 49.2417L126.139 49.2041C123.238 49.2041 121.515 46.8885 121.515 43.9831C121.514 43.248 121.658 42.52 121.938 41.8405C122.218 41.1611 122.629 40.5435 123.147 40.0232C123.666 39.5028 124.281 39.0898 124.959 38.8078C125.637 38.5257 126.364 38.3801 127.098 38.3793H166.404C167.139 38.3793 167.866 38.5243 168.545 38.806C169.223 39.0877 169.84 39.5005 170.359 40.021C170.878 40.5414 171.29 41.1592 171.57 41.8391C171.851 42.5189 171.995 43.2475 171.994 43.9831C171.994 45.3767 171.441 46.7133 170.458 47.6993C169.475 48.6853 168.141 49.2401 166.749 49.2417Z" fill="#FFF6DE"/>
<g clip-path="url(#clip0)">
<path d="M315.181 159.631H310.735V167.61H315.181V159.631Z" fill="#99CC33"/>
<path d="M332 178.062H261V207.007H332V178.062Z" fill="#D6EBAD"/>
<path d="M261 178.062H332L296.5 156L261 178.062Z" fill="#99CC33"/>
<path d="M283.284 182.039H266.431V198.959H283.284V182.039Z" fill="#B8DB70"/>
<path d="M326.569 182.039H309.716V198.959H326.569V182.039Z" fill="#B8DB70"/>
<path d="M274.857 179.966V201.662" stroke="#D6EBAD" stroke-miterlimit="10"/>
<path d="M302.653 186.841H288.701V205.334H302.653V186.841Z" fill="#B8DB70"/>
<path d="M318.143 179.966V201.662" stroke="#D6EBAD" stroke-miterlimit="10"/>
<path d="M295.677 184.741V206.438" stroke="#D6EBAD" stroke-miterlimit="10"/>
<path d="M285.658 190.499H264.049" stroke="#D6EBAD" stroke-miterlimit="10"/>
<path d="M328.944 190.499H307.335" stroke="#D6EBAD" stroke-miterlimit="10"/>
</g>
<g clip-path="url(#clip1)">
<path d="M63.8392 23.2036H59.8316V30.2444H63.8392V23.2036Z" fill="#99CC33"/>
<path d="M79 39.4667H15V65.006H79V39.4667Z" fill="#D6EBAD"/>
<path d="M15 39.4667H79L47 20L15 39.4667Z" fill="#99CC33"/>
<path d="M35.0867 42.9752H19.8955V57.9054H35.0867V42.9752Z" fill="#B8DB70"/>
<path d="M74.1045 42.9752H58.9133V57.9054H74.1045V42.9752Z" fill="#B8DB70"/>
<path d="M27.4911 41.1462V60.2902" stroke="#D6EBAD" stroke-miterlimit="10"/>
<path d="M52.5462 47.2128H39.97V63.5297H52.5462V47.2128Z" fill="#B8DB70"/>
<path d="M66.5089 41.1462V60.2902" stroke="#D6EBAD" stroke-miterlimit="10"/>
<path d="M46.2581 45.3599V64.5039" stroke="#D6EBAD" stroke-miterlimit="10"/>
<path d="M37.2273 50.4403H17.7488" stroke="#D6EBAD" stroke-miterlimit="10"/>
<path d="M76.2451 50.4403H56.7666" stroke="#D6EBAD" stroke-miterlimit="10"/>
</g>
<path d="M28.3672 236.507L52.903 176.189L85.6418 236.947L28.3672 236.507Z" fill="#99CC33"/>
<path d="M54.3447 236.707L77.4387 193.843L101 237.074L54.3447 236.707Z" fill="#D6EBAD"/>
<path d="M61.5065 169H53.5771V174.293H61.5065V169Z" fill="#D6EBAD"/>
<path d="M11 236.407L28.1937 204.489L45.7412 236.68L11 236.407Z" fill="#D6EBAD"/>
<path d="M54.5917 169H53.5771V181.615H54.5917V169Z" fill="#88B222"/>
<path d="M187.847 178H174.132V187.07H187.847V178Z" fill="#99CC33"/>
<path d="M195.038 196.72H166.935C164.198 196.72 161.979 198.921 161.979 201.636C161.979 204.351 164.198 206.552 166.935 206.552H195.038C197.775 206.552 199.994 204.351 199.994 201.636C199.994 198.921 197.775 196.72 195.038 196.72Z" fill="#C2E0FF"/>
<path d="M189.059 205.168H160.956C158.219 205.168 156 207.369 156 210.084C156 212.799 158.219 215 160.956 215H189.059C191.796 215 194.015 212.799 194.015 210.084C194.015 207.369 191.796 205.168 189.059 205.168Z" fill="#C2E0FF"/>
<path d="M175.883 178H174.132V199.636H175.883V178Z" fill="#B8DB70"/>
<path d="M293.532 55H276.077V66.5208H293.532V55Z" fill="#99CC33"/>
<path d="M302.685 78.7795H266.917C263.434 78.7795 260.61 81.5754 260.61 85.0243C260.61 88.4732 263.434 91.2691 266.917 91.2691H302.685C306.168 91.2691 308.992 88.4732 308.992 85.0243C308.992 81.5754 306.168 78.7795 302.685 78.7795Z" fill="#C2E0FF"/>
<path d="M295.075 89.5104H259.308C255.824 89.5104 253 92.3063 253 95.7552C253 99.2041 255.824 102 259.308 102H295.075C298.559 102 301.383 99.2041 301.383 95.7552C301.383 92.3063 298.559 89.5104 295.075 89.5104Z" fill="#C2E0FF"/>
<path d="M278.305 55H276.077V82.4831H278.305V55Z" fill="#B8DB70"/>
<path d="M278 -2.09088H224V43H278V-2.09088Z" fill="#D6EBAD"/>
<path d="M245.651 3.21204H229.818V19.2298H245.651V3.21204Z" fill="#B8DB70"/>
<path d="M237.734 1.25629V21.7947" stroke="#D6EBAD" stroke-miterlimit="10"/>
<path d="M247.882 11.2209H227.581" stroke="#D6EBAD" stroke-miterlimit="10"/>
<path d="M245.651 22.1217H229.818V38.1395H245.651V22.1217Z" fill="#B8DB70"/>
<path d="M237.734 20.166V40.7044" stroke="#D6EBAD" stroke-miterlimit="10"/>
<path d="M247.882 30.1306H227.581" stroke="#D6EBAD" stroke-miterlimit="10"/>
<path d="M271.275 22.1217H255.443V38.1395H271.275V22.1217Z" fill="#B8DB70"/>
<path d="M263.365 20.166V40.7044" stroke="#D6EBAD" stroke-miterlimit="10"/>
<path d="M273.513 30.1306H253.212" stroke="#D6EBAD" stroke-miterlimit="10"/>
<path d="M271.275 3.07092H255.443V19.0887H271.275V3.07092Z" fill="#B8DB70"/>
<path d="M263.365 1.10883V21.6472" stroke="#D6EBAD" stroke-miterlimit="10"/>
<path d="M273.513 11.0798H253.212" stroke="#D6EBAD" stroke-miterlimit="10"/>
</g>
<defs>
<clipPath id="clip0">
<rect width="71" height="51" fill="white" transform="translate(261 156)"/>
</clipPath>
<clipPath id="clip1">
<rect width="64" height="45" fill="white" transform="translate(15 20)"/>
</clipPath>
</defs>
</svg>
